<?xml version="1.0" encoding="utf-8"?>
<!-- Generator: Adobe Illustrator 19.1.0, SVG Export Plug-In . SVG Version: 6.00 Build 0)  -->
<svg version="1.1" id="Layer_1" xmlns="http://www.w3.org/2000/svg" xmlns:xlink="http://www.w3.org/1999/xlink" x="0px" y="0px"
	 viewBox="-736 1333.7 90.8 26.6" style="enable-background:new -736 1333.7 90.8 26.6;" xml:space="preserve">
<style type="text/css">
	.st0{fill:#FF0000;}
</style>
<g>
	<g>
		<path class="st0" d="M-736,1346.5h3.7v10.4h5.8v3.4h-9.5V1346.5z"/>
		<path class="st0" d="M-725.6,1353.4c0-2.3,0.6-4,1.6-5.3c1.1-1.3,2.6-1.9,4.6-1.9c2,0,3.5,0.6,4.6,1.8c1.1,1.2,1.6,3,1.6,5.2
			c0,1.6-0.2,2.9-0.7,4s-1.2,1.8-2,2.4c-0.9,0.6-2,0.9-3.3,0.9c-1.4,0-2.5-0.2-3.4-0.7c-0.9-0.5-1.6-1.3-2.2-2.4
			C-725.3,1356.3-725.6,1355-725.6,1353.4z M-721.8,1353.4c0,1.4,0.2,2.4,0.7,3c0.5,0.6,1.1,0.9,1.8,0.9c0.8,0,1.4-0.3,1.9-0.9
			s0.7-1.7,0.7-3.2c0-1.3-0.2-2.2-0.7-2.8c-0.5-0.6-1.1-0.9-1.9-0.9c-0.8,0-1.3,0.3-1.8,0.9C-721.6,1351-721.8,1352-721.8,1353.4z"
			/>
		<path class="st0" d="M-711.1,1346.5h4.9l1.9,8.4l1.9-8.4h4.9v13.8h-3.1v-10.5l-2.4,10.5h-2.8l-2.3-10.5v10.5h-3.1L-711.1,1346.5
			L-711.1,1346.5z"/>
		<path class="st0" d="M-695.2,1346.5h7c1.2,0,2,0.3,2.7,1s0.9,1.5,0.9,2.4c0,0.8-0.2,1.5-0.7,2.1c-0.3,0.4-0.7,0.7-1.3,0.9
			c0.9,0.2,1.5,0.6,1.9,1.2c0.4,0.6,0.6,1.3,0.6,2.2c0,0.7-0.2,1.3-0.4,1.9c-0.3,0.6-0.7,1-1.2,1.3c-0.3,0.2-0.8,0.4-1.4,0.5
			c-0.8,0.1-1.4,0.2-1.7,0.2h-6.4V1346.5L-695.2,1346.5z M-691.5,1351.9h1.6c0.6,0,1-0.1,1.2-0.3c0.2-0.2,0.3-0.6,0.3-1
			c0-0.4-0.1-0.7-0.3-0.9c-0.2-0.2-0.6-0.3-1.2-0.3h-1.7L-691.5,1351.9L-691.5,1351.9z M-691.5,1357.3h1.9c0.6,0,1.1-0.1,1.4-0.4
			c0.3-0.3,0.4-0.6,0.4-1c0-0.4-0.1-0.7-0.4-1s-0.7-0.4-1.4-0.4h-1.9V1357.3z"/>
		<path class="st0" d="M-675,1358h-4.2l-0.6,2.3h-3.8l4.5-13.8h4.1l4.5,13.8h-3.9L-675,1358z M-675.8,1355l-1.3-5l-1.3,5H-675.8z"/>
		<path class="st0" d="M-669.3,1360.3v-13.8h6.2c1.2,0,2,0.1,2.6,0.3c0.6,0.2,1.1,0.6,1.5,1.3c0.4,0.6,0.6,1.3,0.6,2.2
			c0,0.8-0.2,1.4-0.4,2c-0.3,0.6-0.7,1-1.2,1.3c-0.3,0.2-0.8,0.4-1.3,0.6c0.4,0.2,0.8,0.3,1,0.5c0.1,0.1,0.3,0.4,0.6,0.7
			c0.3,0.4,0.4,0.7,0.5,0.9l1.8,4h-4.2l-2-4.2c-0.2-0.6-0.5-0.9-0.7-1.1c-0.3-0.2-0.6-0.3-0.9-0.3h-0.3v5.6H-669.3L-669.3,1360.3z
			 M-665.6,1352.1h1.6c0.2,0,0.5-0.1,1-0.2c0.2-0.1,0.5-0.2,0.6-0.4c0.2-0.2,0.2-0.5,0.2-0.8c0-0.4-0.1-0.8-0.4-1
			c-0.2-0.2-0.7-0.4-1.4-0.4h-1.6V1352.1L-665.6,1352.1z"/>
		<path class="st0" d="M-656.3,1346.5h5.5c1.1,0,2,0.2,2.6,0.5c0.7,0.3,1.2,0.8,1.7,1.5c0.4,0.6,0.8,1.4,0.9,2.2
			c0.2,0.8,0.3,1.7,0.3,2.7c0,1.5-0.2,2.6-0.4,3.4s-0.7,1.5-1.2,2c-0.5,0.6-1.1,0.9-1.7,1.1c-0.8,0.2-1.6,0.4-2.2,0.4h-5.5
			L-656.3,1346.5L-656.3,1346.5z M-652.5,1349.6v7.5h0.9c0.8,0,1.3-0.1,1.7-0.3c0.3-0.2,0.6-0.6,0.8-1s0.3-1.3,0.3-2.4
			c0-1.5-0.2-2.5-0.6-3c-0.4-0.5-1.1-0.8-2.1-0.8L-652.5,1349.6L-652.5,1349.6z"/>
		<path class="st0" d="M-642.5,1361.4v-0.1V1361.4C-642.5,1361.3-642.5,1361.4-642.5,1361.4z"/>
	</g>
	<path class="st0" d="M-650,1336.8h-0.8c0,0,0,0,0,0H-678v-3.1v0h-25.3v3.1h-27.1c0,0,0,0,0,0h-0.8c-5.5,0.3-4.7,7.1-4.7,7.1l0,0
		c0.4-2.1,2.6-3.8,5.5-4h0.1h7.5h22.5v-3.1h16h3.4v3.1h22.5h7.5h0.1c2.9,0.2,5.2,1.9,5.5,4l0,0C-645.3,1343.9-644.5,1337-650,1336.8
		z"/>
</g>
</svg>
