<?xml version="1.0" encoding="utf-8"?>
<!-- Generator: Adobe Illustrator 19.1.0, SVG Export Plug-In . SVG Version: 6.00 Build 0)  -->
<svg version="1.1" id="Warstwa_1" xmlns="http://www.w3.org/2000/svg" xmlns:xlink="http://www.w3.org/1999/xlink" x="0px" y="0px"
	 viewBox="0 0 283.5 127.3" style="enable-background:new 0 0 283.5 127.3;" xml:space="preserve">
<style type="text/css">
	.st0{fill:#FFFFFF;}
</style>
<g>
	<g>
		<polygon class="st0" points="148.9,33.6 143.2,34.8 142.6,37 144.3,36.6 142,46.1 144.3,45.6 146.6,36.2 148.4,35.8 		"/>
		<polygon class="st0" points="148.3,36.6 147.2,36.8 145.8,42.7 		"/>
		<path class="st0" d="M141.9,53.4c5.8,0,10.7-3.8,12.2-9.1l-4.8,1l0.2-1.9l-0.4,0l-0.8,2.1l-7.4,1.5l0.3-1.2l2-8.2l-0.8,0.2
			c0,0.2-0.1,0.3-0.1,0.5c-0.2,1-0.5,1.7-1,2.3c-0.1,0.2-0.3,0.3-0.4,0.4c0.1,0.3,0.2,0.6,0.2,1c0,0.8-0.2,1.6-0.4,2.5
			c-0.1,0.2-0.2,0.8-0.2,0.8c-0.1,0.4-0.2,0.9-0.1,1.1l0.2,0.8l-3.7,0.8l-0.2-0.6c-0.1-0.3-0.2-0.6-0.1-1l-0.4,1.8l-4,0.9
			C134.5,51.6,138,53.4,141.9,53.4z"/>
		<path class="st0" d="M135.6,47.4l1.2-4.7c0.2,0,0.4,0,0.6,0h0c0.5,0,0.8,0.2,0.7,0.7c0,0.4-0.3,1.1-0.4,1.7
			c-0.3,0.9-0.4,1.4-0.2,2l2.3-0.5c-0.1-0.4,0-1,0.2-1.5c0.2-1,0.5-2.2,0.6-3c0-0.4-0.1-0.7-0.5-1.1c0.4-0.2,0.5-0.3,0.9-0.7
			c0.4-0.4,0.6-1,0.9-1.9c0.2-0.9,0.3-1.7-0.1-2.2c-0.2-0.4-0.8-0.5-1.3-0.5c-0.3,0-0.6,0-0.9,0.1l-3,0.7l-3.1,11.7L135.6,47.4z
			 M138.1,37.7l0.9,0c0.8,0,0.1,1.8-0.1,2.2c-0.2,0.4-0.7,0.6-1.2,0.6l-0.4,0L138.1,37.7z"/>
		<path class="st0" d="M126.6,37.5l2.2-0.5c1.6-5.8,6.9-10,13.1-10c4.3,0,8.1,2,10.6,5l1.5-0.3l-0.1,1l-0.1,1.3
			c0.2,0.4,0.4,0.8,0.6,1.2l0.8-3.3l0.1-0.5l0.5-0.1l0.1,0c0-0.1,0-0.2,0-0.2c-0.2-1.5-1.3-2.7-1.3-2.7s0.1,0.8-0.3,1.3
			c-0.5,0.7-1.3,0.1-1.3,0.1l0,0c0-0.1-0.1-0.1-0.1-0.2c0-0.3-0.1-1.4-0.6-2.5c-0.7-1.4-2.1-2.2-2.1-2.2s0.3,0.7,0.1,1.4
			c-0.2,0.8-1.2,0.5-1.2,0.5l0,0c-0.1,0-0.1-0.1-0.2-0.1c-0.1-0.3-0.6-1.3-1.4-2.2c-1.1-1.1-2.6-1.4-2.6-1.4s0.5,0.6,0.5,1.3
			c0,0.8-1,0.8-1,0.8l0,0c-0.1,0-0.1,0-0.2,0c-0.2-0.2-0.9-1.1-2-1.6c-1.4-0.7-3-0.5-3-0.5s0.7,0.4,0.9,1c0.3,0.8-0.7,1.1-0.7,1.1
			l0,0c-0.1,0-0.1,0-0.2,0c-0.3-0.2-1.2-0.7-2.4-0.9c-1.5-0.3-3,0.4-3,0.4s0.8,0.2,1.2,0.7c0.5,0.7-0.3,1.2-0.3,1.2l0,0
			c-0.1,0-0.1,0.1-0.2,0.1c-0.3-0.1-1.4-0.3-2.5-0.2c-1.5,0.2-2.7,1.3-2.7,1.3s0.8-0.1,1.3,0.3c0.7,0.5,0.1,1.3,0.1,1.3l0,0
			c-0.1,0-0.1,0.1-0.2,0.1c-0.3,0-1.4,0.1-2.5,0.6c-1.4,0.7-2.2,2.1-2.2,2.1s0.7-0.3,1.4-0.1c0.8,0.2,0.5,1.2,0.5,1.2l0,0
			c0,0.1-0.1,0.1-0.1,0.2c-0.3,0.1-1.3,0.6-2.2,1.4c-1.1,1.1-1.4,2.6-1.4,2.6s0.6-0.5,1.3-0.5C126.2,37,126.4,37.2,126.6,37.5z"/>
		<path class="st0" d="M153.3,39.6l0.7-3c-0.1-0.3-0.2-0.7-0.4-1L153.3,39.6z"/>
		<path class="st0" d="M133.7,43.2l2-7.7l3.4-0.8c0.3-0.1,0.7-0.1,1-0.1c0.9,0,1.6,0.3,2,0.8c0,0,0,0,0,0l0.3-1.4l9-1.9
			c-2.3-2.7-5.8-4.4-9.7-4.4c-5.8,0-10.6,3.8-12.2,9c0,0-0.4,1.3-0.4,2l0.9-2l4.4-0.9l-0.1,1L133.7,43.2z"/>
		<path class="st0" d="M150.5,33.2l-5,12.1l2.3-0.5l0.8-2.2l1.8-0.2l-0.2,1.8l2-0.4l1-11.3L150.5,33.2z M150.6,40.3l-1.2,0.1
			l1.4-3.4L150.6,40.3z"/>
		<path class="st0" d="M157.2,43.6l-0.3,0.1l-0.4-2.1l-0.5,1.9l-0.1,0.5l-0.9,0.2c-1.5,5.8-6.8,10.1-13.2,10.1
			c-4.3,0-8.1-2-10.6-5.1l-1.9,0.4l0.2-2.1l-0.3,0l-0.8,2.2l-0.6,0.1c0,0.1,0,0.2,0,0.3c0.2,1.5,1.3,2.7,1.3,2.7s-0.1-0.8,0.3-1.3
			c0.5-0.7,1.3-0.1,1.3-0.1l0,0c0,0.1,0.1,0.1,0.1,0.2c0,0.3,0.1,1.4,0.6,2.5c0.7,1.4,2.1,2.2,2.1,2.2s-0.3-0.7-0.1-1.4
			c0.2-0.8,1.2-0.5,1.2-0.5l0,0c0.1,0,0.1,0.1,0.2,0.1c0.1,0.3,0.6,1.3,1.4,2.2c1.1,1.1,2.6,1.4,2.6,1.4s-0.5-0.6-0.5-1.3
			c0-0.8,1-0.8,1-0.8l0,0c0.1,0,0.1,0,0.2,0c0.2,0.2,0.9,1.1,2,1.6c1.4,0.7,3,0.5,3,0.5s-0.7-0.4-0.9-1c-0.3-0.8,0.7-1.1,0.7-1.1
			l0,0c0.1,0,0.1,0,0.2,0c0.3,0.2,1.2,0.7,2.4,0.9c1.5,0.3,3-0.4,3-0.4s-0.8-0.2-1.2-0.7c-0.5-0.7,0.3-1.2,0.3-1.2l0,0
			c0.1,0,0.1-0.1,0.2-0.1c0.3,0.1,1.4,0.3,2.5,0.2c1.5-0.2,2.7-1.3,2.7-1.3s-0.8,0.1-1.3-0.3c-0.7-0.5-0.1-1.3-0.1-1.3l0,0
			c0.1,0,0.1-0.1,0.2-0.1c0.3,0,1.4-0.1,2.5-0.6c1.4-0.7,2.2-2.1,2.2-2.1s-0.7,0.3-1.4,0.1c-0.8-0.2-0.5-1.2-0.5-1.2l0,0
			c0-0.1,0.1-0.1,0.1-0.2c0.3-0.1,1.3-0.6,2.2-1.4c1.1-1.1,1.4-2.6,1.4-2.6s-0.6,0.5-1.3,0.5C157.5,44.2,157.3,43.9,157.2,43.6z"/>
		<path class="st0" d="M127,41.1l-1.7,6.9c0,0,3-7.1,3-7.2L127,41.1z"/>
		<path class="st0" d="M128.7,46.8l1.8-0.2l-0.2,2l2.2-0.4l1.3-11.3l-3,0.6l-5.2,12.2l2.5-0.5L128.7,46.8z M131.3,40.1l-0.4,4.4
			l-1.4,0.2L131.3,40.1z"/>
		<polygon class="st0" points="159.8,31.3 157.3,35.3 158.2,31.6 155.9,32.1 153.1,43.7 155.4,43.3 156,40.7 156.9,39.1 157.5,42.8 
			159.6,42.4 158.7,36.8 162.7,30.7 		"/>
		<polygon class="st0" points="128.2,40 128.8,37.8 122.9,39 122.4,41.3 124,40.9 121.7,50.3 124.1,49.8 126.4,40.4 		"/>
	</g>
	<g>
		<path class="st0" d="M41.8,94.5V94c0.9-0.1,1.6-0.3,2.2-0.8c0.6-0.5,1-1,1.2-1.7c0.1-0.4,0.2-0.9,0.3-1.5c0.1-0.6,0.1-1.2,0.1-1.8
			c0-2,0.1-3.8,0.1-5.6c0-1.8,0-3.6,0-5.5V64.5c-0.7,2.2-1.3,4.2-1.8,6.1c-0.6,1.8-1.1,3.6-1.7,5.4c-0.5,1.8-1.1,3.5-1.7,5.4
			c-0.6,1.8-1.2,3.8-1.8,6c-0.1,0.3-0.2,0.8-0.4,1.4c-0.2,0.6-0.4,1.3-0.5,2c-0.2,0.7-0.4,1.3-0.5,1.8c-0.2,0.6-0.3,0.9-0.3,1.1
			h-0.2c-0.6-2.2-1.3-4.4-1.9-6.6c-0.6-2.2-1.3-4.3-1.9-6.3c-0.6-2-1.2-3.9-1.7-5.6c-0.5-1.8-1-3.3-1.4-4.7s-0.8-2.5-1-3.4
			c-0.3-0.9-0.5-1.5-0.6-1.9c0,2,0,3.7,0,5.2c0,1.5,0,3,0,4.5c0,1.5,0,3,0,4.7c0,1.6,0,3.5,0,5.7c0,1.4,0,2.6,0.1,3.6
			c0.1,1,0.2,1.9,0.5,2.6c0.2,0.7,0.6,1.2,1.1,1.7c0.5,0.4,1.2,0.7,2,0.9v0.4h-7.9V94c0.7-0.2,1.3-0.5,1.7-0.9
			c0.4-0.4,0.8-1,1.1-1.7c0.3-0.7,0.5-1.6,0.6-2.7c0.1-1.1,0.2-2.3,0.2-3.9c0-1.3,0.1-2.8,0.1-4.5c0-1.7,0-3.6,0-5.6
			c0-0.9,0-1.6,0-2.2c0-0.6,0-1.2,0-1.7c0-0.6,0-1.1,0-1.7c0-0.6,0-1.3,0-2.2c0-0.8-0.1-1.5-0.4-2c-0.2-0.5-0.5-0.9-0.8-1.2
			c-0.3-0.3-0.6-0.5-1-0.6c-0.3-0.1-0.6-0.2-0.9-0.3v-0.4H31l7.2,24.3c0.9-2.8,1.8-5.6,2.6-8.4c0.8-2.8,1.6-5.3,2.3-7.6
			c0.7-2.3,1.2-4.1,1.7-5.6c0.4-1.5,0.7-2.4,0.7-2.6H52v0.4c-0.8,0-1.5,0.3-1.9,0.8c-0.4,0.5-0.7,1-0.9,1.7
			c-0.1,0.5-0.2,1.3-0.2,2.4c0,1.1-0.1,2.1-0.1,3.2c0,1.4,0,2.8,0,4.2s0,2.7,0,4.1c0,1.6,0,3.2,0,4.8c0,1.6,0,3.2,0,5
			c0,0.6,0,1.1,0.1,1.7c0.1,0.6,0.1,1,0.3,1.4c0,0.1,0.1,0.2,0.2,0.4c0.1,0.2,0.3,0.5,0.6,0.7c0.2,0.3,0.5,0.5,0.9,0.7
			c0.4,0.2,0.8,0.3,1.3,0.3v0.4H41.8z"/>
		<path class="st0" d="M60.6,94.5V94c0.5-0.1,1-0.3,1.4-0.6c0.4-0.3,0.8-0.7,1.1-1.2c0.1-0.2,0.2-0.4,0.2-0.8
			c0.1-0.3,0.1-0.7,0.1-1.2c0-0.4,0.1-0.9,0.1-1.4c0-0.5,0-1,0-1.5c0-0.4,0-1,0-1.7c0-0.7,0-1.5,0-2.3c0-0.8,0-1.7,0-2.6
			c0-0.9,0-1.8,0-2.6v-8.7c0-0.5,0-1.1,0-1.6s0-1,0-1.5c0-0.5-0.1-0.9-0.1-1.2c-0.1-0.4-0.2-0.7-0.3-0.9c-0.3-0.5-0.6-0.9-1-1.1
			c-0.4-0.2-0.9-0.4-1.4-0.5v-0.4h9.1v0.4c-0.4,0.1-0.9,0.3-1.4,0.5c-0.5,0.2-0.9,0.7-1.1,1.4c-0.2,0.5-0.3,1.1-0.3,1.9
			c0,0.8,0,1.5,0,2.2c0,0.7,0,1.5,0,2.2c0,0.7,0,1.5,0,2.2c0,0.7,0,1.5,0,2.3c0,0.8,0,1.6,0,2.5v10.1c0,0.9,0,1.7,0,2.5
			c0,0.8,0.1,1.4,0.3,1.7c0.2,0.5,0.6,0.9,1.2,1.2c0.5,0.3,1,0.4,1.4,0.5v0.4H60.6z"/>
		<path class="st0" d="M99.1,72.7c-0.3-1.4-0.7-2.8-1.2-4c-0.5-1.2-1.1-2.3-1.9-3.3c-0.7-0.9-1.5-1.7-2.4-2.2
			c-0.9-0.5-1.9-0.8-2.9-0.8c-1.4,0-2.6,0.5-3.7,1.4c-1.1,0.9-2,2.1-2.7,3.7c-0.7,1.5-1.3,3.2-1.7,5.2S82,76.5,82,78.5
			c0,2.1,0.2,4.2,0.6,6c0.4,1.9,1,3.5,1.8,4.9c0.8,1.4,1.7,2.5,2.8,3.3c1.1,0.8,2.3,1.2,3.6,1.2c1.1,0,2-0.3,3-0.8
			c0.9-0.6,1.7-1.3,2.5-2.2c0.7-0.9,1.3-2,1.8-3.2c0.5-1.2,0.8-2.4,1-3.7h0.4l-0.1,9.8h-0.4c-0.2-0.5-0.5-1-0.8-1.4
			c-0.3-0.4-0.4-0.6-0.5-0.6c0,0-0.2,0.2-0.5,0.5c-0.3,0.3-0.8,0.7-1.4,1c-0.6,0.4-1.3,0.7-2.2,1c-0.9,0.3-1.9,0.4-3,0.4
			c-1.9,0-3.6-0.4-5.1-1.2c-1.5-0.8-2.8-1.9-3.9-3.3c-1.1-1.4-1.9-3.2-2.4-5.2c-0.6-2-0.8-4.2-0.8-6.6c0-0.5,0-1.1,0.1-1.8
			s0.1-1.4,0.3-2.2c0.1-0.8,0.3-1.6,0.5-2.4c0.2-0.8,0.5-1.7,0.9-2.6c0.4-1,1-2,1.6-2.9c0.6-0.9,1.4-1.7,2.2-2.4
			c0.8-0.7,1.8-1.3,2.9-1.7c1.1-0.4,2.3-0.6,3.6-0.6c1.2,0,2.3,0.2,3.2,0.5c0.9,0.3,1.7,0.7,2.3,1.1c0.6,0.4,1.1,0.7,1.4,1.1
			c0.3,0.3,0.5,0.5,0.5,0.5c0,0,0.1-0.1,0.2-0.2c0.1-0.1,0.2-0.3,0.4-0.5c0.1-0.2,0.3-0.4,0.4-0.7c0.1-0.3,0.3-0.5,0.4-0.8h0.3v10
			L99.1,72.7z"/>
		<path class="st0" d="M123.4,94.5V94c0.7-0.1,1.4-0.3,1.9-0.6c0.5-0.3,0.8-0.7,1-1c0-0.1,0.1-0.3,0.1-0.5c0-0.3,0.1-0.6,0.1-0.9
			c0-0.4,0-0.7,0-1.1c0-0.4,0-0.8,0-1.1c0-1,0-2,0-3c0-1.1,0-2.1,0-3c0-1,0-1.8,0-2.5c0-0.7,0-1.3,0-1.6h-12v9.6c0,0.9,0,1.7,0,2.5
			c0,0.8,0.1,1.4,0.3,1.7c0.2,0.5,0.6,0.9,1,1.2s0.9,0.4,1.3,0.5v0.4h-8.9V94c0.5-0.1,1-0.3,1.5-0.6c0.5-0.3,0.8-0.6,1.1-1
			c0.1-0.1,0.1-0.4,0.2-0.7c0-0.3,0.1-0.7,0.1-1.2c0-0.4,0.1-0.9,0.1-1.5c0-0.5,0-1,0-1.5c0-0.4,0-1,0-1.7c0-0.7,0-1.5,0-2.3
			c0-0.8,0-1.7,0-2.6c0-0.9,0-1.8,0-2.6v-8.7c0-0.5,0-1.1,0-1.6s0-1,0-1.5c0-0.5-0.1-0.9-0.1-1.2c-0.1-0.4-0.2-0.7-0.3-0.9
			c-0.3-0.5-0.6-0.9-1-1.1c-0.4-0.2-0.9-0.4-1.4-0.5v-0.4h9v0.4c-0.3,0.1-0.6,0.1-0.9,0.3c-0.3,0.1-0.6,0.3-0.9,0.6
			c-0.3,0.3-0.5,0.6-0.7,1c-0.2,0.4-0.3,1-0.3,1.7c0,1,0,2.2,0,3.4c0,1.2,0,2.4,0,3.5c0,1.1,0,2,0,2.9c0,0.8,0,1.4,0,1.7h12
			c0-1,0-1.8,0-2.6c0-0.8,0-1.6,0-2.3c0-0.7,0-1.5,0-2.3c0-0.8,0-1.7,0-2.6c0-0.6,0-1.2-0.1-1.8c0-0.6-0.1-1.1-0.3-1.5
			c-0.4-0.8-0.8-1.3-1.2-1.5c-0.5-0.2-0.9-0.3-1.4-0.3v-0.4h9.1v0.4c-0.5,0.1-1,0.3-1.4,0.6c-0.5,0.3-0.8,0.8-1,1.4
			c-0.1,0.2-0.1,0.5-0.2,0.9c0,0.4-0.1,0.8-0.1,1.2c0,0.5,0,0.9,0,1.4c0,0.5,0,0.9,0,1.4v7.6c0,1.1,0,2.1,0,3c0,0.9,0,1.7,0,2.6
			c0,0.8,0,1.7,0,2.6c0,0.9,0,1.9,0,2.9c0,0.9,0,1.7,0,2.4s0.1,1.2,0.2,1.5c0.3,0.6,0.6,1,1.1,1.2c0.4,0.2,0.9,0.4,1.5,0.5v0.4
			H123.4z"/>
		<path class="st0" d="M153.8,94.5V94c0.1,0,0.2,0,0.4-0.1c0.2-0.1,0.5-0.2,0.7-0.3c0.3-0.1,0.5-0.4,0.7-0.6c0.2-0.3,0.3-0.6,0.3-1
			c0-0.3-0.1-0.7-0.2-1.3c-0.1-0.6-0.3-1.4-0.5-2.2c-0.2-0.9-0.4-1.9-0.7-2.9c-0.3-1.1-0.5-2.2-0.8-3.3h-8.1
			c-0.3,1.1-0.6,2.2-0.9,3.2c-0.3,1-0.6,2.1-0.8,3.1c-0.4,1.6-0.6,2.7-0.6,3.4c0,0.4,0.1,0.7,0.2,1c0.2,0.3,0.4,0.5,0.6,0.6
			c0.3,0.2,0.5,0.3,0.8,0.4c0.3,0.1,0.6,0.1,0.8,0.2v0.4h-6.5V94c0.5-0.1,1-0.3,1.3-0.6s0.6-0.6,0.7-0.7c0.1-0.2,0.4-0.7,0.7-1.5
			c0.3-0.8,0.7-1.9,1.2-3.4c0.4-1.4,0.9-3,1.4-4.8c0.5-1.8,1.1-3.6,1.6-5.5c0.6-1.9,1.1-3.8,1.7-5.7s1.1-3.7,1.5-5.4l-0.3-1
			c0.4-0.2,0.7-0.5,1-0.8c0.3-0.3,0.6-0.7,0.8-1c0.2-0.4,0.4-0.7,0.6-1c0.2-0.3,0.3-0.6,0.3-0.8h0.2c0.6,2.5,1.2,4.8,1.8,7
			c0.6,2.2,1.1,4.4,1.6,6.4c0.5,2.1,1,4,1.5,6c0.5,1.9,1,3.8,1.5,5.7c0.2,0.9,0.4,1.7,0.6,2.3c0.2,0.6,0.4,1.3,0.7,2.1
			c0,0.1,0.1,0.3,0.3,0.6c0.1,0.3,0.3,0.6,0.6,0.9c0.2,0.3,0.5,0.6,0.9,0.8c0.3,0.2,0.7,0.4,1.2,0.4v0.5H153.8z M149.8,67.4
			c-0.1,0.4-0.3,1-0.5,1.8c-0.2,0.8-0.5,1.8-0.9,3s-0.7,2.5-1.1,4c-0.4,1.5-0.9,3.1-1.3,4.9h7.6c-0.3-1.3-0.7-2.7-1-4
			c-0.4-1.3-0.7-2.6-1-3.9c-0.3-1.2-0.6-2.4-0.9-3.4C150.2,68.9,150,68.1,149.8,67.4z"/>
		<path class="st0" d="M188.3,94.5h-19.5V94c0.5-0.1,1-0.3,1.5-0.6c0.5-0.3,0.9-0.6,1.2-1.1c0.1-0.2,0.2-0.4,0.3-0.8
			c0.1-0.3,0.1-0.7,0.2-1.2c0-0.4,0.1-0.9,0.1-1.4c0-0.5,0-1,0-1.5c0-0.4,0-1,0-1.7c0-0.7,0-1.5,0-2.3c0-0.8,0-1.7,0-2.6
			c0-0.9,0-1.8,0-2.6v-8.7c0-0.5,0-1.1,0-1.6c0-0.5,0-1,0-1.5c0-0.5-0.1-0.9-0.1-1.2c-0.1-0.4-0.2-0.6-0.3-0.8
			c-0.3-0.5-0.7-0.9-1.1-1.2c-0.5-0.3-1-0.4-1.5-0.5v-0.4h9.7v0.4c-0.3,0.1-0.6,0.1-0.9,0.3c-0.4,0.1-0.7,0.3-1,0.6
			c-0.3,0.3-0.6,0.6-0.8,1.1c-0.2,0.5-0.4,1.1-0.4,1.9c0,1,0,2,0,2.9c0,0.9,0,1.7,0,2.5c0,0.8,0,1.7,0,2.6c0,0.9,0,1.9,0,3
			c0,1,0,1.9,0,2.8c0,0.8,0,1.6,0,2.4c0,0.8,0,1.6,0,2.4c0,0.8,0,1.7,0,2.7c0,1,0,1.9,0.1,2.7c0,0.9,0.1,1.5,0.3,1.9
			c0.1,0.1,0.2,0.3,0.5,0.4c0.2,0.1,0.5,0.3,0.9,0.4c0.3,0.1,0.7,0.2,1.1,0.3c0.4,0.1,0.8,0.1,1.2,0.1c0.2,0,0.4,0,0.8,0
			c0.4,0,0.7,0,1.2-0.1c0.4,0,0.9-0.1,1.3-0.2c0.4-0.1,0.8-0.2,1.2-0.4c0.8-0.3,1.5-0.8,2-1.3s1-1.2,1.4-1.9c0.4-0.7,0.7-1.5,1-2.3
			c0.3-0.8,0.5-1.7,0.8-2.6l0.3,0.1L188.3,94.5z"/>
		<path class="st0" d="M211.6,89.5c-0.4,1.1-0.9,2.1-1.6,2.9c-0.7,0.8-1.5,1.4-2.5,1.8c-1,0.4-2,0.6-3.2,0.6c-1,0-1.8-0.1-2.5-0.3
			c-0.7-0.2-1.3-0.4-1.8-0.6c-0.5-0.3-0.8-0.5-1-0.7c-0.2-0.2-0.4-0.3-0.4-0.3c-0.1,0-0.2,0.2-0.4,0.5c-0.2,0.4-0.4,0.7-0.5,1h-0.3
			l-0.1-8.9h0.3c0.2,0.8,0.4,1.6,0.7,2.3c0.3,0.8,0.6,1.5,0.9,2.1c0.3,0.7,0.7,1.3,1.1,1.8c0.4,0.5,0.7,0.9,1.1,1.2
			c0.3,0.3,0.8,0.5,1.4,0.8c0.6,0.3,1.1,0.4,1.6,0.4c1.5,0,2.7-0.6,3.6-1.8c0.9-1.2,1.4-2.8,1.4-4.9c0-0.8-0.1-1.6-0.3-2.2
			c-0.2-0.6-0.4-1.2-0.7-1.6c-0.3-0.5-0.7-0.9-1.1-1.2c-0.4-0.3-0.9-0.6-1.4-0.9c-0.5-0.3-0.9-0.5-1.3-0.7c-0.4-0.2-0.7-0.3-1-0.5
			c-0.3-0.2-0.6-0.3-1-0.5c-0.3-0.2-0.7-0.4-1.2-0.6c-0.5-0.3-1-0.7-1.5-1.2c-0.5-0.5-0.9-1.1-1.3-1.8c-0.4-0.7-0.7-1.5-0.9-2.3
			c-0.2-0.8-0.3-1.7-0.3-2.7c0-1.6,0.2-3,0.6-4.2c0.4-1.2,0.9-2.1,1.6-2.9c0.7-0.8,1.4-1.3,2.3-1.7c0.9-0.4,1.8-0.6,2.8-0.6
			c0.9,0,1.7,0.1,2.3,0.3c0.6,0.2,1.2,0.5,1.6,0.7c0.4,0.3,0.7,0.5,0.9,0.7c0.2,0.2,0.3,0.3,0.3,0.3c0.1,0,0.2-0.2,0.4-0.5
			c0.2-0.4,0.4-0.7,0.5-1.1h0.3v8.3h-0.3c-0.2-1-0.6-2-0.9-2.9c-0.4-1-0.8-1.8-1.3-2.6s-1.1-1.4-1.7-1.9c-0.6-0.5-1.4-0.7-2.2-0.7
			c-0.6,0-1.2,0.1-1.8,0.4c-0.6,0.3-1,0.7-1.5,1.2c-0.4,0.5-0.7,1.2-1,2c-0.2,0.8-0.3,1.7-0.3,2.7c0,1.6,0.3,2.8,1,3.8
			c0.6,1,1.5,1.7,2.5,2.3c0.4,0.2,0.8,0.4,1.1,0.6c0.4,0.2,0.7,0.4,1,0.5c0.3,0.2,0.7,0.3,1,0.5c0.4,0.2,0.7,0.4,1.1,0.6
			c1.4,0.7,2.4,1.8,3.2,3.2c0.8,1.4,1.1,3.2,1.1,5.3C212.2,87.1,212,88.4,211.6,89.5z"/>
		<path class="st0" d="M237.3,94.5c-0.1-0.1-0.2-0.1-0.3-0.2c-0.1-0.1-0.2-0.3-0.3-0.5c-1.3-2.2-2.5-4.3-3.7-6.3c-1.2-2-2.4-4-3.6-6
			c-0.5-0.9-0.9-1.4-1.1-1.6c-0.2-0.2-0.4-0.3-0.5-0.3c-0.2,0-0.3,0.1-0.3,0.2c-0.1,0.1-0.1,0.3-0.2,0.5c0,1.5,0,3,0,4.4
			c0,1.4,0,2.5,0,3.5c0,0.9,0.1,1.7,0.1,2.4c0.1,0.7,0.2,1.3,0.4,1.7c0.1,0.3,0.3,0.6,0.6,0.8c0.2,0.2,0.5,0.4,0.8,0.5
			c0.3,0.1,0.6,0.2,0.8,0.3c0.3,0.1,0.5,0.1,0.7,0.2v0.4H221V94c0.5-0.1,1-0.3,1.5-0.5c0.5-0.2,0.8-0.6,1.1-1
			c0.1-0.2,0.2-0.4,0.2-0.8s0.1-0.8,0.1-1.2c0-0.5,0.1-1,0.1-1.5s0-1,0-1.5c0-0.4,0-1,0-1.7c0-0.7,0-1.5,0-2.3c0-0.9,0-1.7,0-2.6
			c0-0.9,0-1.8,0-2.6v-8.7c0-1.1,0-2.2-0.1-3.1s-0.2-1.6-0.4-2.1c-0.3-0.5-0.6-0.9-1-1.1c-0.4-0.2-0.9-0.4-1.4-0.5v-0.4h9.4v0.4
			c-0.4,0.1-0.8,0.1-1.1,0.2c-0.4,0.1-0.7,0.3-1,0.7c-0.3,0.3-0.5,0.9-0.7,1.5c-0.2,0.7-0.3,1.7-0.3,2.9c0,0.7,0,1.3,0,1.9
			c0,0.6,0,1.3,0,2.1c0,0.8,0,1.7,0,2.8c0,1.1,0,2.4,0,4.1c0.4-0.3,0.9-0.9,1.5-1.7c0.6-0.8,1.3-1.7,1.9-2.7c0.7-1,1.3-2,2-3
			c0.7-1,1.2-1.9,1.7-2.7c0.3-0.6,0.7-1.2,0.9-1.8c0.3-0.6,0.4-1.2,0.4-1.7c0-0.9-0.2-1.5-0.6-1.9c-0.4-0.4-0.9-0.6-1.4-0.8v-0.4
			h8.1v0.4c-1,0.1-2.1,0.8-3.1,1.9c-1.1,1.1-2.1,2.4-3.2,3.9c-0.4,0.6-0.9,1.2-1.3,1.8c-0.4,0.7-0.9,1.3-1.3,2
			c-0.4,0.7-0.9,1.3-1.3,1.9c-0.4,0.6-0.8,1.2-1.1,1.7c0.2,0.3,0.5,0.9,1.1,1.9c0.6,1,1.3,2.2,2.1,3.5c0.8,1.3,1.7,2.8,2.6,4.3
			s1.8,3,2.7,4.4c0.2,0.4,0.4,0.7,0.7,1.1c0.3,0.4,0.5,0.7,0.8,1c0.2,0.3,0.5,0.5,0.6,0.7c0.2,0.2,0.3,0.3,0.4,0.4
			c0.3,0.1,0.6,0.3,1.1,0.4c0.5,0.1,1,0.3,1.5,0.3v0.4H237.3z"/>
		<path class="st0" d="M250.4,94.5V94c0.5-0.1,1-0.3,1.4-0.6c0.4-0.3,0.8-0.7,1.1-1.2c0.1-0.2,0.2-0.4,0.2-0.8
			c0.1-0.3,0.1-0.7,0.1-1.2c0-0.4,0.1-0.9,0.1-1.4c0-0.5,0-1,0-1.5c0-0.4,0-1,0-1.7c0-0.7,0-1.5,0-2.3c0-0.8,0-1.7,0-2.6
			c0-0.9,0-1.8,0-2.6v-8.7c0-0.5,0-1.1,0-1.6s0-1,0-1.5c0-0.5-0.1-0.9-0.1-1.2c-0.1-0.4-0.2-0.7-0.3-0.9c-0.3-0.5-0.6-0.9-1-1.1
			c-0.4-0.2-0.9-0.4-1.4-0.5v-0.4h9.1v0.4c-0.4,0.1-0.9,0.3-1.4,0.5c-0.5,0.2-0.9,0.7-1.1,1.4c-0.2,0.5-0.3,1.1-0.3,1.9
			c0,0.8,0,1.5,0,2.2c0,0.7,0,1.5,0,2.2c0,0.7,0,1.5,0,2.2c0,0.7,0,1.5,0,2.3c0,0.8,0,1.6,0,2.5v10.1c0,0.9,0,1.7,0,2.5
			c0,0.8,0.1,1.4,0.3,1.7c0.2,0.5,0.6,0.9,1.2,1.2c0.5,0.3,1,0.4,1.4,0.5v0.4H250.4z"/>
	</g>
	<g>
		<path class="st0" d="M45,106.8c0-0.2-0.1-0.3-0.2-0.5c-0.1-0.2-0.1-0.3-0.2-0.5c-0.1-0.2-0.1-0.3-0.2-0.4
			c-0.1-0.1-0.1-0.2-0.2-0.3c-0.1-0.2-0.3-0.3-0.4-0.4c-0.1-0.1-0.3-0.1-0.6-0.1c-0.1,0-0.2,0-0.3,0c-0.1,0-0.2,0-0.3,0
			c-0.1,0-0.2,0-0.3,0c-0.1,0-0.2,0-0.3,0c0,0.2,0,0.5,0,0.9c0,0.4,0,0.8,0,1.2s0,0.8,0,1.3c0,0.4,0,0.7,0,1v3c0,0.3,0,0.5,0,0.7
			c0,0.2,0,0.4,0.1,0.5c0.1,0.2,0.2,0.3,0.4,0.4s0.3,0.1,0.5,0.2v0.1h-3v-0.1c0.2,0,0.3-0.1,0.5-0.1c0.1-0.1,0.3-0.2,0.4-0.4
			c0,0,0.1-0.1,0.1-0.2c0-0.1,0-0.2,0-0.4c0-0.1,0-0.3,0-0.4c0-0.2,0-0.3,0-0.4c0-0.1,0-0.3,0-0.5c0-0.2,0-0.4,0-0.7
			c0-0.3,0-0.5,0-0.8c0-0.3,0-0.5,0-0.8v-4.5c-0.1,0-0.2,0-0.3,0c-0.1,0-0.2,0-0.3,0c-0.1,0-0.2,0-0.3,0c-0.1,0-0.2,0-0.3,0
			c-0.2,0-0.4,0-0.6,0.1s-0.3,0.2-0.4,0.4c0,0.1-0.1,0.2-0.2,0.3c-0.1,0.1-0.1,0.3-0.2,0.4c-0.1,0.1-0.1,0.3-0.2,0.5
			s-0.1,0.3-0.2,0.5l-0.1,0l0.3-2.6c0.1,0,0.3,0.1,0.4,0.1c0.1,0,0.3,0,0.5,0.1c0.2,0,0.4,0,0.6,0c0.2,0,0.4,0,0.5,0
			c0.2,0,0.3,0,0.5,0c0.2,0,0.4,0,0.6,0c0.2,0,0.4,0,0.6,0c0.2,0,0.4,0,0.5,0c0.2,0,0.3,0,0.5,0c0.2,0,0.4,0,0.6,0
			c0.2,0,0.4,0,0.5-0.1s0.3-0.1,0.4-0.2L45,106.8L45,106.8z"/>
		<path class="st0" d="M51.7,113.9v-0.1c0.2,0,0.4-0.1,0.6-0.2c0.2-0.1,0.3-0.2,0.3-0.3c0,0,0-0.1,0-0.2c0-0.1,0-0.2,0-0.3
			c0-0.1,0-0.2,0-0.3c0-0.1,0-0.2,0-0.3c0-0.3,0-0.6,0-0.9c0-0.3,0-0.6,0-0.9c0-0.3,0-0.5,0-0.8c0-0.2,0-0.4,0-0.5h-3.6v2.9
			c0,0.3,0,0.5,0,0.8s0,0.4,0.1,0.5c0.1,0.2,0.2,0.3,0.3,0.4c0.1,0.1,0.3,0.1,0.4,0.1v0.1h-2.7v-0.1c0.2,0,0.3-0.1,0.4-0.2
			c0.1-0.1,0.2-0.2,0.3-0.3c0,0,0-0.1,0.1-0.2c0-0.1,0-0.2,0-0.4c0-0.1,0-0.3,0-0.4c0-0.2,0-0.3,0-0.5c0-0.1,0-0.3,0-0.5
			c0-0.2,0-0.5,0-0.7c0-0.3,0-0.5,0-0.8c0-0.3,0-0.5,0-0.8v-2.6c0-0.2,0-0.3,0-0.5c0-0.2,0-0.3,0-0.5c0-0.1,0-0.3,0-0.4
			c0-0.1,0-0.2-0.1-0.3c-0.1-0.2-0.2-0.3-0.3-0.3c-0.1-0.1-0.3-0.1-0.4-0.1v-0.1h2.7v0.1c-0.1,0-0.2,0-0.3,0.1s-0.2,0.1-0.3,0.2
			c-0.1,0.1-0.1,0.2-0.2,0.3c-0.1,0.1-0.1,0.3-0.1,0.5c0,0.3,0,0.7,0,1c0,0.4,0,0.7,0,1c0,0.3,0,0.6,0,0.9c0,0.2,0,0.4,0,0.5h3.6
			c0-0.3,0-0.5,0-0.8c0-0.2,0-0.5,0-0.7c0-0.2,0-0.5,0-0.7c0-0.2,0-0.5,0-0.8c0-0.2,0-0.3,0-0.5c0-0.2,0-0.3-0.1-0.5
			c-0.1-0.2-0.2-0.4-0.4-0.5c-0.1-0.1-0.3-0.1-0.4-0.1v-0.1h2.8v0.1c-0.1,0-0.3,0.1-0.4,0.2c-0.1,0.1-0.2,0.2-0.3,0.4
			c0,0.1,0,0.2-0.1,0.3c0,0.1,0,0.2,0,0.4c0,0.1,0,0.3,0,0.4c0,0.1,0,0.3,0,0.4v2.3c0,0.3,0,0.6,0,0.9c0,0.3,0,0.5,0,0.8
			c0,0.3,0,0.5,0,0.8c0,0.3,0,0.6,0,0.9c0,0.3,0,0.5,0,0.7c0,0.2,0,0.4,0.1,0.5c0.1,0.2,0.2,0.3,0.3,0.4c0.1,0.1,0.3,0.1,0.4,0.1
			v0.1H51.7z"/>
		<path class="st0" d="M62.8,113.9h-5.6v-0.1c0.2,0,0.3-0.1,0.4-0.2c0.1-0.1,0.2-0.2,0.3-0.3c0-0.1,0.1-0.1,0.1-0.2
			c0-0.1,0-0.2,0.1-0.4c0-0.1,0-0.3,0-0.4c0-0.1,0-0.3,0-0.4c0-0.1,0-0.3,0-0.5c0-0.2,0-0.5,0-0.7c0-0.3,0-0.5,0-0.8
			c0-0.3,0-0.5,0-0.8v-2.6c0-0.2,0-0.3,0-0.5c0-0.2,0-0.3,0-0.5c0-0.2,0-0.3,0-0.4c0-0.1-0.1-0.2-0.1-0.3c-0.1-0.1-0.2-0.2-0.3-0.3
			s-0.2-0.1-0.4-0.1v-0.1h5.1l0.6,2.2l-0.1,0.1c-0.5-0.9-1-1.5-1.4-1.8c-0.1-0.1-0.3-0.1-0.6-0.2s-0.6-0.1-1-0.1c-0.1,0-0.3,0-0.4,0
			c-0.1,0-0.2,0-0.3,0c0,0.1,0,0.4,0,0.9c0,0.5,0,1,0,1.6c0,0.3,0,0.6,0,0.9c0,0.2,0,0.4,0,0.6c0,0.1,0,0.3,0,0.3c0,0.1,0,0.1,0,0.1
			c0,0,0.1,0,0.2,0c0.1,0,0.2,0,0.3,0c0.1,0,0.2,0,0.4,0c0.1,0,0.2,0,0.3-0.1c0.2-0.1,0.3-0.1,0.5-0.3c0.1-0.1,0.2-0.2,0.3-0.4
			c0.1-0.2,0.1-0.3,0.2-0.5c0-0.2,0.1-0.4,0.1-0.7h0.1v4.3h-0.1c0-0.3-0.1-0.6-0.2-0.9c-0.1-0.3-0.2-0.5-0.3-0.7
			c-0.1-0.1-0.2-0.2-0.4-0.3c-0.1-0.1-0.3-0.1-0.5-0.1c-0.1,0-0.2,0-0.2,0c-0.1,0-0.1,0-0.2,0c-0.1,0-0.1,0-0.2,0
			c-0.1,0-0.1,0-0.2,0c0,0.1,0,0.3,0,0.6c0,0.2,0,0.5,0,0.8c0,0.1,0,0.3,0,0.4c0,0.2,0,0.3,0,0.5c0,0.1,0,0.3,0,0.4
			c0,0.1,0,0.2,0,0.3c0,0.3,0,0.6,0,0.8c0,0.3,0.1,0.4,0.1,0.6c0.1,0.1,0.2,0.2,0.4,0.3c0.2,0.1,0.4,0.1,0.7,0.1c0.1,0,0.2,0,0.4,0
			c0.2,0,0.3,0,0.5-0.1c0.2,0,0.4-0.1,0.5-0.2c0.2-0.1,0.3-0.2,0.5-0.4c0.2-0.2,0.3-0.4,0.4-0.7c0.1-0.3,0.3-0.6,0.4-1l0.1,0
			L62.8,113.9z"/>
		<path class="st0" d="M74.6,113.9v-0.1c0.3,0,0.5-0.1,0.7-0.2c0.2-0.1,0.3-0.3,0.4-0.5c0-0.1,0.1-0.3,0.1-0.4c0-0.2,0-0.4,0-0.5
			c0-0.6,0-1.2,0-1.7c0-0.5,0-1.1,0-1.7v-3.8c-0.2,0.7-0.4,1.3-0.6,1.8c-0.2,0.6-0.3,1.1-0.5,1.6c-0.2,0.5-0.3,1.1-0.5,1.6
			c-0.2,0.6-0.4,1.2-0.6,1.8c0,0.1-0.1,0.2-0.1,0.4c-0.1,0.2-0.1,0.4-0.2,0.6c-0.1,0.2-0.1,0.4-0.2,0.6c0,0.2-0.1,0.3-0.1,0.3h-0.1
			c-0.2-0.7-0.4-1.3-0.6-2c-0.2-0.7-0.4-1.3-0.6-1.9c-0.2-0.6-0.4-1.2-0.5-1.7c-0.2-0.5-0.3-1-0.4-1.4c-0.1-0.4-0.2-0.8-0.3-1
			c-0.1-0.3-0.1-0.5-0.2-0.6c0,0.6,0,1.1,0,1.6c0,0.5,0,0.9,0,1.4c0,0.4,0,0.9,0,1.4c0,0.5,0,1.1,0,1.7c0,0.4,0,0.8,0,1.1
			s0.1,0.6,0.1,0.8c0.1,0.2,0.2,0.4,0.3,0.5c0.1,0.1,0.4,0.2,0.6,0.3v0.1h-2.4v-0.1c0.2-0.1,0.4-0.2,0.5-0.3
			c0.1-0.1,0.2-0.3,0.3-0.5c0.1-0.2,0.1-0.5,0.2-0.8c0-0.3,0.1-0.7,0.1-1.2c0-0.4,0-0.8,0-1.4c0-0.5,0-1.1,0-1.7c0-0.3,0-0.5,0-0.7
			c0-0.2,0-0.4,0-0.5c0-0.2,0-0.3,0-0.5c0-0.2,0-0.4,0-0.7c0-0.3,0-0.5-0.1-0.6c-0.1-0.2-0.1-0.3-0.2-0.4c-0.1-0.1-0.2-0.2-0.3-0.2
			c-0.1,0-0.2-0.1-0.3-0.1v-0.1h2l2.2,7.3c0.3-0.9,0.5-1.7,0.8-2.6c0.3-0.8,0.5-1.6,0.7-2.3c0.2-0.7,0.4-1.3,0.5-1.7
			c0.1-0.5,0.2-0.7,0.2-0.8h2v0.1c-0.3,0-0.4,0.1-0.6,0.2c-0.1,0.1-0.2,0.3-0.3,0.5c0,0.2-0.1,0.4-0.1,0.7c0,0.3,0,0.6,0,1
			c0,0.4,0,0.9,0,1.3c0,0.4,0,0.8,0,1.2c0,0.5,0,1,0,1.5c0,0.5,0,1,0,1.5c0,0.2,0,0.3,0,0.5c0,0.2,0,0.3,0.1,0.4c0,0,0,0.1,0.1,0.1
			c0,0.1,0.1,0.1,0.2,0.2c0.1,0.1,0.2,0.1,0.3,0.2c0.1,0.1,0.2,0.1,0.4,0.1v0.1H74.6z"/>
		<path class="st0" d="M85.7,104.5c-0.1,0.1-0.2,0.2-0.3,0.4c-0.1,0.1-0.2,0.3-0.3,0.5c-0.1,0.2-0.2,0.4-0.3,0.7
			c-0.1,0.2-0.2,0.4-0.3,0.7c-0.1,0.3-0.3,0.6-0.4,0.9c-0.1,0.3-0.3,0.6-0.4,0.9c-0.1,0.3-0.2,0.5-0.3,0.7v2.7c0,0.3,0,0.5,0,0.8
			c0,0.2,0,0.4,0.1,0.5c0.1,0.2,0.2,0.3,0.4,0.4c0.1,0.1,0.3,0.1,0.4,0.1v0.1h-2.8v-0.1c0.2,0,0.3-0.1,0.4-0.1
			c0.1-0.1,0.2-0.2,0.4-0.4c0,0,0.1-0.1,0.1-0.2c0-0.1,0-0.2,0-0.4c0-0.1,0-0.3,0-0.4c0-0.2,0-0.3,0-0.4c0-0.3,0-0.6,0-0.9
			c0-0.3,0-0.8,0-1.3c0,0,0-0.1-0.1-0.3c-0.1-0.1-0.1-0.3-0.2-0.5c-0.1-0.2-0.2-0.4-0.3-0.7c-0.1-0.3-0.2-0.5-0.3-0.8
			c-0.1-0.2-0.2-0.5-0.3-0.7c-0.1-0.2-0.2-0.4-0.2-0.5c-0.1-0.3-0.2-0.5-0.3-0.7c-0.1-0.2-0.2-0.4-0.3-0.6c-0.1-0.2-0.2-0.3-0.3-0.4
			c-0.1-0.1-0.2-0.1-0.3-0.1v-0.1h2.8v0.1c-0.1,0-0.2,0-0.3,0c-0.1,0-0.2,0-0.3,0.1c-0.1,0-0.1,0.1-0.2,0.2c0,0.1-0.1,0.2-0.1,0.3
			c0,0.1,0,0.3,0.1,0.5c0.1,0.2,0.2,0.5,0.3,0.7c0.1,0.2,0.1,0.4,0.2,0.6c0.1,0.2,0.2,0.5,0.3,0.7c0.1,0.3,0.2,0.5,0.3,0.8
			c0.1,0.3,0.2,0.5,0.3,0.8c0.1-0.2,0.2-0.4,0.3-0.7c0.1-0.3,0.2-0.5,0.4-0.8c0.1-0.3,0.2-0.5,0.3-0.8c0.1-0.3,0.2-0.5,0.2-0.6
			c0-0.1,0.1-0.2,0.1-0.2c0-0.1,0.1-0.2,0.1-0.3c0-0.1,0.1-0.2,0.1-0.3c0-0.1,0-0.2,0-0.3c0-0.1,0-0.3-0.1-0.3
			c0-0.1-0.1-0.1-0.2-0.2c-0.1,0-0.2-0.1-0.3-0.1c-0.1,0-0.2,0-0.3-0.1v-0.1h2.1v0.1C86,104.4,85.8,104.5,85.7,104.5z"/>
		<path class="st0" d="M92.6,112.4c-0.1,0.3-0.3,0.6-0.5,0.9c-0.2,0.2-0.5,0.4-0.8,0.5c-0.3,0.1-0.6,0.2-1,0.2c-0.3,0-0.6,0-0.8-0.1
			c-0.2-0.1-0.4-0.1-0.5-0.2c-0.1-0.1-0.2-0.1-0.3-0.2s-0.1-0.1-0.1-0.1c0,0-0.1,0.1-0.1,0.2c-0.1,0.1-0.1,0.2-0.2,0.3h-0.1l0-2.7
			h0.1c0.1,0.2,0.1,0.5,0.2,0.7c0.1,0.2,0.2,0.4,0.3,0.6c0.1,0.2,0.2,0.4,0.3,0.5c0.1,0.2,0.2,0.3,0.3,0.4c0.1,0.1,0.2,0.2,0.4,0.2
			c0.2,0.1,0.3,0.1,0.5,0.1c0.5,0,0.8-0.2,1.1-0.5c0.3-0.4,0.4-0.9,0.4-1.5c0-0.3,0-0.5-0.1-0.7c-0.1-0.2-0.1-0.4-0.2-0.5
			s-0.2-0.3-0.3-0.4c-0.1-0.1-0.3-0.2-0.4-0.3c-0.1-0.1-0.3-0.1-0.4-0.2c-0.1-0.1-0.2-0.1-0.3-0.2c-0.1,0-0.2-0.1-0.3-0.1
			c-0.1,0-0.2-0.1-0.4-0.2c-0.2-0.1-0.3-0.2-0.5-0.4c-0.1-0.2-0.3-0.3-0.4-0.6c-0.1-0.2-0.2-0.4-0.3-0.7c-0.1-0.3-0.1-0.5-0.1-0.8
			c0-0.5,0.1-0.9,0.2-1.3c0.1-0.4,0.3-0.6,0.5-0.9c0.2-0.2,0.4-0.4,0.7-0.5c0.3-0.1,0.5-0.2,0.8-0.2c0.3,0,0.5,0,0.7,0.1
			c0.2,0.1,0.4,0.1,0.5,0.2c0.1,0.1,0.2,0.2,0.3,0.2c0.1,0.1,0.1,0.1,0.1,0.1c0,0,0.1-0.1,0.1-0.2c0.1-0.1,0.1-0.2,0.2-0.3h0.1v2.5
			h-0.1c-0.1-0.3-0.2-0.6-0.3-0.9c-0.1-0.3-0.3-0.6-0.4-0.8c-0.2-0.2-0.3-0.4-0.5-0.6c-0.2-0.1-0.4-0.2-0.7-0.2
			c-0.2,0-0.4,0-0.5,0.1c-0.2,0.1-0.3,0.2-0.4,0.4c-0.1,0.2-0.2,0.4-0.3,0.6c-0.1,0.2-0.1,0.5-0.1,0.8c0,0.5,0.1,0.9,0.3,1.1
			c0.2,0.3,0.4,0.5,0.8,0.7c0.1,0.1,0.2,0.1,0.3,0.2c0.1,0.1,0.2,0.1,0.3,0.2c0.1,0,0.2,0.1,0.3,0.2c0.1,0.1,0.2,0.1,0.3,0.2
			c0.4,0.2,0.7,0.6,1,1c0.2,0.4,0.3,1,0.3,1.6C92.8,111.7,92.8,112.1,92.6,112.4z"/>
		<path class="st0" d="M101.9,106.8c0-0.2-0.1-0.3-0.2-0.5c-0.1-0.2-0.1-0.3-0.2-0.5c-0.1-0.2-0.1-0.3-0.2-0.4
			c-0.1-0.1-0.1-0.2-0.2-0.3c-0.1-0.2-0.3-0.3-0.4-0.4c-0.1-0.1-0.3-0.1-0.6-0.1c-0.1,0-0.2,0-0.3,0c-0.1,0-0.2,0-0.3,0
			c-0.1,0-0.2,0-0.3,0c-0.1,0-0.2,0-0.3,0c0,0.2,0,0.5,0,0.9c0,0.4,0,0.8,0,1.2s0,0.8,0,1.3c0,0.4,0,0.7,0,1v3c0,0.3,0,0.5,0,0.7
			c0,0.2,0,0.4,0.1,0.5c0.1,0.2,0.2,0.3,0.4,0.4c0.2,0.1,0.3,0.1,0.5,0.2v0.1h-3v-0.1c0.2,0,0.3-0.1,0.5-0.1
			c0.1-0.1,0.3-0.2,0.4-0.4c0,0,0.1-0.1,0.1-0.2c0-0.1,0-0.2,0-0.4c0-0.1,0-0.3,0-0.4c0-0.2,0-0.3,0-0.4c0-0.1,0-0.3,0-0.5
			c0-0.2,0-0.4,0-0.7c0-0.3,0-0.5,0-0.8c0-0.3,0-0.5,0-0.8v-4.5c-0.1,0-0.2,0-0.3,0c-0.1,0-0.2,0-0.3,0c-0.1,0-0.2,0-0.3,0
			c-0.1,0-0.2,0-0.3,0c-0.2,0-0.4,0-0.6,0.1c-0.1,0.1-0.3,0.2-0.4,0.4c0,0.1-0.1,0.2-0.2,0.3c-0.1,0.1-0.1,0.3-0.2,0.4
			c-0.1,0.1-0.1,0.3-0.2,0.5c-0.1,0.2-0.1,0.3-0.2,0.5l-0.1,0l0.3-2.6c0.1,0,0.3,0.1,0.4,0.1c0.1,0,0.3,0,0.5,0.1c0.2,0,0.4,0,0.6,0
			c0.2,0,0.4,0,0.5,0s0.3,0,0.5,0c0.2,0,0.4,0,0.6,0c0.2,0,0.4,0,0.6,0c0.2,0,0.4,0,0.5,0c0.2,0,0.3,0,0.5,0c0.2,0,0.4,0,0.6,0
			c0.2,0,0.4,0,0.5-0.1c0.1,0,0.3-0.1,0.4-0.2L101.9,106.8L101.9,106.8z"/>
		<path class="st0" d="M109.7,113.9h-5.6v-0.1c0.2,0,0.3-0.1,0.4-0.2c0.1-0.1,0.2-0.2,0.3-0.3c0-0.1,0.1-0.1,0.1-0.2
			c0-0.1,0-0.2,0.1-0.4c0-0.1,0-0.3,0-0.4c0-0.1,0-0.3,0-0.4c0-0.1,0-0.3,0-0.5c0-0.2,0-0.5,0-0.7c0-0.3,0-0.5,0-0.8
			c0-0.3,0-0.5,0-0.8v-2.6c0-0.2,0-0.3,0-0.5c0-0.2,0-0.3,0-0.5c0-0.2,0-0.3,0-0.4c0-0.1-0.1-0.2-0.1-0.3c-0.1-0.1-0.2-0.2-0.3-0.3
			s-0.2-0.1-0.4-0.1v-0.1h5.1l0.6,2.2l-0.1,0.1c-0.5-0.9-1-1.5-1.4-1.8c-0.1-0.1-0.3-0.1-0.6-0.2c-0.3-0.1-0.6-0.1-1-0.1
			c-0.1,0-0.3,0-0.4,0c-0.1,0-0.2,0-0.3,0c0,0.1,0,0.4,0,0.9c0,0.5,0,1,0,1.6c0,0.3,0,0.6,0,0.9c0,0.2,0,0.4,0,0.6
			c0,0.1,0,0.3,0,0.3c0,0.1,0,0.1,0,0.1c0,0,0.1,0,0.2,0c0.1,0,0.2,0,0.3,0c0.1,0,0.2,0,0.4,0c0.1,0,0.2,0,0.3-0.1
			c0.2-0.1,0.3-0.1,0.5-0.3c0.1-0.1,0.2-0.2,0.3-0.4c0.1-0.2,0.1-0.3,0.2-0.5c0-0.2,0.1-0.4,0.1-0.7h0.1v4.3h-0.1
			c0-0.3-0.1-0.6-0.2-0.9c-0.1-0.3-0.2-0.5-0.3-0.7c-0.1-0.1-0.2-0.2-0.4-0.3c-0.1-0.1-0.3-0.1-0.5-0.1c-0.1,0-0.2,0-0.2,0
			c-0.1,0-0.1,0-0.2,0c-0.1,0-0.1,0-0.2,0c-0.1,0-0.1,0-0.2,0c0,0.1,0,0.3,0,0.6c0,0.2,0,0.5,0,0.8c0,0.1,0,0.3,0,0.4
			c0,0.2,0,0.3,0,0.5c0,0.1,0,0.3,0,0.4c0,0.1,0,0.2,0,0.3c0,0.3,0,0.6,0,0.8c0,0.3,0.1,0.4,0.1,0.6c0.1,0.1,0.2,0.2,0.4,0.3
			c0.2,0.1,0.4,0.1,0.7,0.1c0.1,0,0.2,0,0.4,0c0.2,0,0.3,0,0.5-0.1c0.2,0,0.4-0.1,0.5-0.2c0.2-0.1,0.3-0.2,0.5-0.4
			c0.2-0.2,0.3-0.4,0.4-0.7c0.1-0.3,0.3-0.6,0.4-1l0.1,0L109.7,113.9z"/>
		<path class="st0" d="M117.5,113.9c-0.1-0.1-0.1-0.1-0.1-0.2c0,0-0.1-0.1-0.1-0.1c0-0.1-0.1-0.1-0.1-0.2c0-0.1-0.1-0.3-0.2-0.5
			c-0.1-0.3-0.2-0.5-0.3-0.7c-0.1-0.2-0.2-0.4-0.3-0.6c-0.1-0.2-0.2-0.4-0.3-0.6c-0.1-0.2-0.2-0.4-0.4-0.7c-0.1-0.2-0.3-0.4-0.4-0.6
			c-0.1-0.2-0.3-0.3-0.5-0.3c-0.1,0-0.2-0.1-0.3-0.1c-0.1,0-0.1,0-0.2,0c0,0.6,0,1.1,0,1.5c0,0.4,0,0.8,0,1.1c0,0.3,0,0.5,0,0.7
			c0,0.2,0,0.4,0.1,0.5c0,0.1,0.1,0.2,0.3,0.4c0.1,0.1,0.3,0.2,0.6,0.2v0.1h-2.9v-0.1c0.2,0,0.3-0.1,0.4-0.2
			c0.1-0.1,0.3-0.2,0.3-0.3c0-0.1,0.1-0.1,0.1-0.2c0-0.1,0-0.2,0-0.4c0-0.1,0-0.3,0-0.4c0-0.2,0-0.3,0-0.4c0-0.1,0-0.3,0-0.5
			c0-0.2,0-0.5,0-0.7c0-0.3,0-0.5,0-0.8c0-0.3,0-0.5,0-0.8v-2.6c0-0.2,0-0.3,0-0.5c0-0.2,0-0.3,0-0.5c0-0.1,0-0.3,0-0.4
			c0-0.1-0.1-0.2-0.1-0.3c-0.1-0.1-0.2-0.2-0.3-0.3c-0.1,0-0.3-0.1-0.4-0.1v-0.1c0,0,0.2,0,0.4,0c0.2,0,0.4,0,0.7,0
			c0.3,0,0.5,0,0.8,0c0.3,0,0.5,0,0.6,0c0.4,0,0.8,0,1.1,0.1c0.3,0,0.6,0.2,0.9,0.4c0.3,0.2,0.5,0.5,0.7,0.8
			c0.2,0.4,0.2,0.8,0.2,1.3c0,0.3,0,0.6-0.1,0.9s-0.2,0.5-0.3,0.7c-0.1,0.2-0.3,0.4-0.5,0.5c-0.2,0.1-0.4,0.3-0.6,0.4v0
			c0.1,0.1,0.2,0.2,0.3,0.4c0.1,0.2,0.2,0.3,0.3,0.5c0.2,0.3,0.3,0.7,0.5,1.1c0.2,0.4,0.4,0.7,0.5,1.1c0.2,0.5,0.4,0.8,0.7,1
			c0.2,0.2,0.5,0.4,0.8,0.4v0.1H117.5z M116.6,105.5c-0.2-0.4-0.4-0.6-0.7-0.8c-0.1-0.1-0.3-0.2-0.5-0.2c-0.2,0-0.3-0.1-0.5-0.1
			c-0.1,0-0.2,0-0.3,0c-0.1,0-0.1,0-0.2,0c0,0.1,0,0.1,0,0.1c0,0,0,0.1,0,0.2c0,0.1,0,0.2,0,0.3c0,0.1,0,0.3,0,0.5
			c0,0.3,0,0.7,0,1.1c0,0.4,0,0.8,0,1.1c0,0.4,0,0.7,0,1c0,0.3,0,0.4,0,0.5c0.3,0,0.5,0,0.7,0c0.2,0,0.4-0.1,0.6-0.2
			c0.2-0.1,0.4-0.2,0.5-0.4c0.1-0.2,0.3-0.3,0.3-0.5c0.1-0.2,0.2-0.4,0.2-0.6c0-0.2,0.1-0.5,0.1-0.7
			C116.8,106.3,116.7,105.9,116.6,105.5z"/>
		<path class="st0" d="M126.7,104.5c-0.1,0.1-0.2,0.2-0.3,0.4c-0.1,0.1-0.2,0.3-0.3,0.5c-0.1,0.2-0.2,0.4-0.3,0.7
			c-0.1,0.2-0.2,0.4-0.3,0.7c-0.1,0.3-0.3,0.6-0.4,0.9c-0.1,0.3-0.3,0.6-0.4,0.9c-0.1,0.3-0.2,0.5-0.3,0.7v2.7c0,0.3,0,0.5,0,0.8
			c0,0.2,0,0.4,0.1,0.5c0.1,0.2,0.2,0.3,0.4,0.4c0.1,0.1,0.3,0.1,0.4,0.1v0.1h-2.8v-0.1c0.2,0,0.3-0.1,0.4-0.1
			c0.1-0.1,0.2-0.2,0.4-0.4c0,0,0.1-0.1,0.1-0.2c0-0.1,0-0.2,0-0.4c0-0.1,0-0.3,0-0.4c0-0.2,0-0.3,0-0.4c0-0.3,0-0.6,0-0.9
			c0-0.3,0-0.8,0-1.3c0,0,0-0.1-0.1-0.3c-0.1-0.1-0.1-0.3-0.2-0.5c-0.1-0.2-0.2-0.4-0.3-0.7c-0.1-0.3-0.2-0.5-0.3-0.8
			c-0.1-0.2-0.2-0.5-0.3-0.7c-0.1-0.2-0.2-0.4-0.2-0.5c-0.1-0.3-0.2-0.5-0.3-0.7s-0.2-0.4-0.3-0.6c-0.1-0.2-0.2-0.3-0.3-0.4
			c-0.1-0.1-0.2-0.1-0.3-0.1v-0.1h2.8v0.1c-0.1,0-0.2,0-0.3,0c-0.1,0-0.2,0-0.3,0.1c-0.1,0-0.1,0.1-0.2,0.2c0,0.1-0.1,0.2-0.1,0.3
			c0,0.1,0,0.3,0.1,0.5c0.1,0.2,0.2,0.5,0.3,0.7c0.1,0.2,0.1,0.4,0.2,0.6c0.1,0.2,0.2,0.5,0.3,0.7c0.1,0.3,0.2,0.5,0.3,0.8
			c0.1,0.3,0.2,0.5,0.3,0.8c0.1-0.2,0.2-0.4,0.3-0.7c0.1-0.3,0.2-0.5,0.4-0.8c0.1-0.3,0.2-0.5,0.3-0.8c0.1-0.3,0.2-0.5,0.2-0.6
			c0-0.1,0.1-0.2,0.1-0.2c0-0.1,0.1-0.2,0.1-0.3c0-0.1,0.1-0.2,0.1-0.3c0-0.1,0-0.2,0-0.3c0-0.1,0-0.3-0.1-0.3
			c0-0.1-0.1-0.1-0.2-0.2c-0.1,0-0.2-0.1-0.3-0.1c-0.1,0-0.2,0-0.3-0.1v-0.1h2.1v0.1C127,104.4,126.8,104.5,126.7,104.5z"/>
		<path class="st0" d="M137.4,113.9v-0.1c0.2,0,0.4-0.1,0.6-0.2s0.3-0.2,0.3-0.3c0,0,0-0.1,0-0.2s0-0.2,0-0.3c0-0.1,0-0.2,0-0.3
			c0-0.1,0-0.2,0-0.3c0-0.3,0-0.6,0-0.9c0-0.3,0-0.6,0-0.9c0-0.3,0-0.5,0-0.8c0-0.2,0-0.4,0-0.5h-3.6v2.9c0,0.3,0,0.5,0,0.8
			c0,0.2,0,0.4,0.1,0.5c0.1,0.2,0.2,0.3,0.3,0.4c0.1,0.1,0.3,0.1,0.4,0.1v0.1h-2.7v-0.1c0.2,0,0.3-0.1,0.4-0.2
			c0.1-0.1,0.2-0.2,0.3-0.3c0,0,0-0.1,0.1-0.2c0-0.1,0-0.2,0-0.4c0-0.1,0-0.3,0-0.4c0-0.2,0-0.3,0-0.5c0-0.1,0-0.3,0-0.5
			c0-0.2,0-0.5,0-0.7c0-0.3,0-0.5,0-0.8c0-0.3,0-0.5,0-0.8v-2.6c0-0.2,0-0.3,0-0.5c0-0.2,0-0.3,0-0.5c0-0.1,0-0.3,0-0.4
			c0-0.1,0-0.2-0.1-0.3c-0.1-0.2-0.2-0.3-0.3-0.3c-0.1-0.1-0.3-0.1-0.4-0.1v-0.1h2.7v0.1c-0.1,0-0.2,0-0.3,0.1
			c-0.1,0-0.2,0.1-0.3,0.2c-0.1,0.1-0.1,0.2-0.2,0.3c-0.1,0.1-0.1,0.3-0.1,0.5c0,0.3,0,0.7,0,1c0,0.4,0,0.7,0,1c0,0.3,0,0.6,0,0.9
			c0,0.2,0,0.4,0,0.5h3.6c0-0.3,0-0.5,0-0.8c0-0.2,0-0.5,0-0.7c0-0.2,0-0.5,0-0.7c0-0.2,0-0.5,0-0.8c0-0.2,0-0.3,0-0.5
			c0-0.2,0-0.3-0.1-0.5c-0.1-0.2-0.2-0.4-0.4-0.5c-0.1-0.1-0.3-0.1-0.4-0.1v-0.1h2.8v0.1c-0.1,0-0.3,0.1-0.4,0.2
			c-0.1,0.1-0.2,0.2-0.3,0.4c0,0.1,0,0.2-0.1,0.3c0,0.1,0,0.2,0,0.4c0,0.1,0,0.3,0,0.4c0,0.1,0,0.3,0,0.4v2.3c0,0.3,0,0.6,0,0.9
			c0,0.3,0,0.5,0,0.8c0,0.3,0,0.5,0,0.8c0,0.3,0,0.6,0,0.9c0,0.3,0,0.5,0,0.7c0,0.2,0,0.4,0.1,0.5c0.1,0.2,0.2,0.3,0.3,0.4
			c0.1,0.1,0.3,0.1,0.4,0.1v0.1H137.4z"/>
		<path class="st0" d="M142.9,113.9v-0.1c0.2,0,0.3-0.1,0.4-0.2c0.1-0.1,0.2-0.2,0.3-0.4c0-0.1,0.1-0.1,0.1-0.2c0-0.1,0-0.2,0-0.4
			c0-0.1,0-0.3,0-0.4c0-0.1,0-0.3,0-0.4c0-0.1,0-0.3,0-0.5c0-0.2,0-0.5,0-0.7c0-0.3,0-0.5,0-0.8c0-0.3,0-0.5,0-0.8v-2.6
			c0-0.2,0-0.3,0-0.5c0-0.2,0-0.3,0-0.5c0-0.1,0-0.3,0-0.4c0-0.1,0-0.2-0.1-0.3c-0.1-0.2-0.2-0.3-0.3-0.3c-0.1-0.1-0.3-0.1-0.4-0.1
			v-0.1h2.7v0.1c-0.1,0-0.3,0.1-0.4,0.1c-0.1,0.1-0.3,0.2-0.3,0.4c-0.1,0.2-0.1,0.3-0.1,0.6c0,0.2,0,0.5,0,0.7c0,0.2,0,0.4,0,0.7
			c0,0.2,0,0.4,0,0.7c0,0.2,0,0.5,0,0.7c0,0.2,0,0.5,0,0.8v3.1c0,0.3,0,0.5,0,0.8c0,0.2,0,0.4,0.1,0.5c0.1,0.2,0.2,0.3,0.3,0.4
			c0.2,0.1,0.3,0.1,0.4,0.1v0.1H142.9z"/>
		<path class="st0" d="M155.4,110.7c-0.1,0.5-0.3,1-0.4,1.3c-0.2,0.4-0.4,0.7-0.7,0.9c-0.3,0.2-0.5,0.4-0.8,0.6
			c-0.3,0.1-0.6,0.2-0.9,0.3c-0.3,0.1-0.6,0.1-0.9,0.1h-3.3v-0.1c0.2,0,0.3-0.1,0.4-0.2c0.1-0.1,0.3-0.2,0.3-0.3
			c0,0,0.1-0.1,0.1-0.2c0-0.1,0-0.2,0-0.4s0-0.3,0-0.4c0-0.2,0-0.3,0-0.4c0-0.1,0-0.3,0-0.5c0-0.2,0-0.5,0-0.7c0-0.3,0-0.5,0-0.8
			c0-0.3,0-0.5,0-0.8v-2.6c0-0.2,0-0.3,0-0.5c0-0.2,0-0.3,0-0.5c0-0.1,0-0.3,0-0.4c0-0.1,0-0.2-0.1-0.3c-0.1-0.2-0.2-0.3-0.3-0.3
			c-0.1-0.1-0.3-0.1-0.4-0.1v-0.1c0.3,0,0.6,0,1.1,0c0.5,0,1.1,0,1.8,0c0.2,0,0.4,0,0.6,0c0.2,0,0.4,0,0.6,0c0.2,0,0.4,0.1,0.6,0.1
			c0.2,0.1,0.4,0.2,0.6,0.3c0.3,0.2,0.5,0.4,0.7,0.6c0.2,0.3,0.4,0.6,0.6,0.9s0.3,0.7,0.4,1.2c0.1,0.5,0.2,1,0.2,1.6
			C155.6,109.6,155.5,110.2,155.4,110.7z M154.3,107.5c-0.1-0.5-0.3-0.9-0.5-1.3c-0.2-0.4-0.4-0.7-0.7-1c-0.3-0.3-0.6-0.5-0.9-0.5
			c-0.1,0-0.3-0.1-0.4-0.1c-0.1,0-0.3,0-0.5,0c-0.1,0-0.2,0-0.2,0s-0.2,0-0.3,0c-0.1,0-0.2,0-0.2,0c-0.1,0-0.1,0-0.2,0
			c0,0.4,0,1-0.1,1.8c0,0.8,0,1.7,0,2.8c0,0.6,0,1.1,0,1.6c0,0.5,0,0.9,0,1.1c0,0.1,0,0.3,0,0.4c0,0.1,0,0.3,0,0.4
			c0,0.1,0,0.3,0.1,0.4c0,0.1,0.1,0.2,0.1,0.2c0.1,0.2,0.3,0.3,0.5,0.3c0.2,0,0.4,0.1,0.5,0.1c0.2,0,0.3,0,0.5,0
			c0.2,0,0.3-0.1,0.5-0.1c0.7-0.3,1.2-0.8,1.5-1.6c0.3-0.8,0.5-1.8,0.5-3C154.4,108.5,154.4,107.9,154.3,107.5z"/>
		<path class="st0" d="M165,110.7c-0.1,0.5-0.3,1-0.4,1.3c-0.2,0.4-0.4,0.7-0.7,0.9c-0.3,0.2-0.5,0.4-0.8,0.6
			c-0.3,0.1-0.6,0.2-0.9,0.3c-0.3,0.1-0.6,0.1-0.9,0.1H158v-0.1c0.2,0,0.3-0.1,0.4-0.2c0.1-0.1,0.3-0.2,0.3-0.3c0,0,0.1-0.1,0.1-0.2
			c0-0.1,0-0.2,0-0.4c0-0.1,0-0.3,0-0.4c0-0.2,0-0.3,0-0.4c0-0.1,0-0.3,0-0.5c0-0.2,0-0.5,0-0.7c0-0.3,0-0.5,0-0.8
			c0-0.3,0-0.5,0-0.8v-2.6c0-0.2,0-0.3,0-0.5c0-0.2,0-0.3,0-0.5c0-0.1,0-0.3,0-0.4c0-0.1,0-0.2-0.1-0.3c-0.1-0.2-0.2-0.3-0.3-0.3
			c-0.1-0.1-0.3-0.1-0.4-0.1v-0.1c0.3,0,0.6,0,1.1,0c0.5,0,1.1,0,1.8,0c0.2,0,0.4,0,0.6,0c0.2,0,0.4,0,0.6,0c0.2,0,0.4,0.1,0.6,0.1
			c0.2,0.1,0.4,0.2,0.6,0.3c0.3,0.2,0.5,0.4,0.7,0.6c0.2,0.3,0.4,0.6,0.6,0.9s0.3,0.7,0.4,1.2c0.1,0.5,0.2,1,0.2,1.6
			C165.2,109.6,165.2,110.2,165,110.7z M163.9,107.5c-0.1-0.5-0.3-0.9-0.5-1.3c-0.2-0.4-0.4-0.7-0.7-1c-0.3-0.3-0.6-0.5-0.9-0.5
			c-0.1,0-0.3-0.1-0.4-0.1c-0.1,0-0.3,0-0.5,0c-0.1,0-0.2,0-0.2,0s-0.2,0-0.3,0c-0.1,0-0.2,0-0.2,0c-0.1,0-0.1,0-0.2,0
			c0,0.4,0,1-0.1,1.8c0,0.8,0,1.7,0,2.8c0,0.6,0,1.1,0,1.6c0,0.5,0,0.9,0,1.1c0,0.1,0,0.3,0,0.4c0,0.1,0,0.3,0,0.4
			c0,0.1,0,0.3,0.1,0.4c0,0.1,0.1,0.2,0.1,0.2c0.1,0.2,0.3,0.3,0.5,0.3c0.2,0,0.4,0.1,0.5,0.1c0.2,0,0.3,0,0.5,0
			c0.2,0,0.3-0.1,0.5-0.1c0.7-0.3,1.2-0.8,1.5-1.6c0.3-0.8,0.5-1.8,0.5-3C164.1,108.5,164,107.9,163.9,107.5z"/>
		<path class="st0" d="M173.3,113.9h-5.6v-0.1c0.2,0,0.3-0.1,0.4-0.2c0.1-0.1,0.2-0.2,0.3-0.3c0-0.1,0.1-0.1,0.1-0.2
			c0-0.1,0-0.2,0.1-0.4c0-0.1,0-0.3,0-0.4c0-0.1,0-0.3,0-0.4c0-0.1,0-0.3,0-0.5c0-0.2,0-0.5,0-0.7c0-0.3,0-0.5,0-0.8
			c0-0.3,0-0.5,0-0.8v-2.6c0-0.2,0-0.3,0-0.5c0-0.2,0-0.3,0-0.5c0-0.2,0-0.3,0-0.4c0-0.1-0.1-0.2-0.1-0.3c-0.1-0.1-0.2-0.2-0.3-0.3
			s-0.2-0.1-0.4-0.1v-0.1h5.1l0.6,2.2l-0.1,0.1c-0.5-0.9-1-1.5-1.4-1.8c-0.1-0.1-0.3-0.1-0.6-0.2c-0.3-0.1-0.6-0.1-1-0.1
			c-0.1,0-0.3,0-0.4,0c-0.1,0-0.2,0-0.3,0c0,0.1,0,0.4,0,0.9c0,0.5,0,1,0,1.6c0,0.3,0,0.6,0,0.9c0,0.2,0,0.4,0,0.6
			c0,0.1,0,0.3,0,0.3c0,0.1,0,0.1,0,0.1c0,0,0.1,0,0.2,0c0.1,0,0.2,0,0.3,0c0.1,0,0.2,0,0.4,0c0.1,0,0.2,0,0.3-0.1
			c0.2-0.1,0.3-0.1,0.5-0.3c0.1-0.1,0.2-0.2,0.3-0.4c0.1-0.2,0.1-0.3,0.2-0.5c0-0.2,0.1-0.4,0.1-0.7h0.1v4.3h-0.1
			c0-0.3-0.1-0.6-0.2-0.9c-0.1-0.3-0.2-0.5-0.3-0.7c-0.1-0.1-0.2-0.2-0.4-0.3c-0.1-0.1-0.3-0.1-0.5-0.1c-0.1,0-0.2,0-0.2,0
			c-0.1,0-0.1,0-0.2,0c-0.1,0-0.1,0-0.2,0c-0.1,0-0.1,0-0.2,0c0,0.1,0,0.3,0,0.6c0,0.2,0,0.5,0,0.8c0,0.1,0,0.3,0,0.4
			c0,0.2,0,0.3,0,0.5c0,0.1,0,0.3,0,0.4c0,0.1,0,0.2,0,0.3c0,0.3,0,0.6,0,0.8c0,0.3,0.1,0.4,0.1,0.6c0.1,0.1,0.2,0.2,0.4,0.3
			c0.2,0.1,0.4,0.1,0.7,0.1c0.1,0,0.2,0,0.4,0c0.2,0,0.3,0,0.5-0.1c0.2,0,0.4-0.1,0.5-0.2c0.2-0.1,0.3-0.2,0.5-0.4
			c0.2-0.2,0.3-0.4,0.4-0.7c0.1-0.3,0.3-0.6,0.4-1l0.1,0L173.3,113.9z"/>
		<path class="st0" d="M182.9,104.6c-0.1,0.1-0.2,0.3-0.3,0.6c0,0.1-0.1,0.4-0.1,0.7c0,0.4,0,0.8,0,1.2c0,0.4,0,0.8,0,1.4
			c0,0.5,0,1.1,0,1.7c0,0.3,0,0.5,0,0.9c0,0.3,0,0.6,0,1c0,0.3,0,0.7,0,1c0,0.3,0,0.6,0,0.9c0,0,0,0.1,0,0.1c0,0,0,0-0.1,0
			c0,0-0.1,0-0.2-0.1c-0.5-0.9-1-1.7-1.4-2.4c-0.4-0.7-0.8-1.4-1.2-2.1c-0.4-0.7-0.8-1.3-1.1-2c-0.4-0.6-0.8-1.3-1.2-2v5.7
			c0,0.5,0,0.9,0,1.2c0,0.4,0.1,0.6,0.1,0.8c0.1,0.2,0.2,0.4,0.3,0.5c0.1,0.1,0.3,0.2,0.6,0.2v0.1H176v-0.1c0.1,0,0.3-0.1,0.4-0.2
			c0.1-0.1,0.3-0.2,0.3-0.4c0.1-0.2,0.1-0.5,0.2-0.8c0-0.4,0-0.8,0.1-1.3c0-0.4,0-0.8,0-1.4c0-0.5,0-1.1,0-1.7c0-0.3,0-0.5,0-0.6
			s0-0.3,0-0.5c0-0.2,0-0.3,0-0.5c0-0.2,0-0.4,0-0.7c0-0.3-0.1-0.5-0.1-0.6c-0.1-0.2-0.1-0.3-0.2-0.4c-0.1-0.1-0.2-0.2-0.3-0.2
			c-0.1,0-0.2-0.1-0.3-0.1v-0.1h1.9l4.4,7.5v-4.6c0-0.4,0-0.7,0-1c0-0.3,0-0.6-0.1-0.8c-0.1-0.3-0.2-0.5-0.3-0.6
			c-0.2-0.2-0.4-0.3-0.7-0.3v-0.1h2.3v0.1C183.2,104.4,183,104.5,182.9,104.6z"/>
		<path class="st0" d="M189.7,113.9v-0.1c0.2,0,0.3-0.1,0.4-0.2c0.1-0.1,0.2-0.2,0.3-0.4c0-0.1,0.1-0.1,0.1-0.2c0-0.1,0-0.2,0-0.4
			c0-0.1,0-0.3,0-0.4c0-0.1,0-0.3,0-0.4c0-0.1,0-0.3,0-0.5c0-0.2,0-0.5,0-0.7c0-0.3,0-0.5,0-0.8c0-0.3,0-0.5,0-0.8v-2.6
			c0-0.2,0-0.3,0-0.5c0-0.2,0-0.3,0-0.5c0-0.1,0-0.3,0-0.4c0-0.1,0-0.2-0.1-0.3c-0.1-0.2-0.2-0.3-0.3-0.3c-0.1-0.1-0.3-0.1-0.4-0.1
			v-0.1h2.7v0.1c-0.1,0-0.3,0.1-0.4,0.1c-0.1,0.1-0.3,0.2-0.3,0.4c-0.1,0.2-0.1,0.3-0.1,0.6c0,0.2,0,0.5,0,0.7c0,0.2,0,0.4,0,0.7
			c0,0.2,0,0.4,0,0.7c0,0.2,0,0.5,0,0.7c0,0.2,0,0.5,0,0.8v3.1c0,0.3,0,0.5,0,0.8c0,0.2,0,0.4,0.1,0.5c0.1,0.2,0.2,0.3,0.3,0.4
			c0.2,0.1,0.3,0.1,0.4,0.1v0.1H189.7z"/>
		<path class="st0" d="M202,104.6c-0.1,0.1-0.2,0.3-0.3,0.6c0,0.1-0.1,0.4-0.1,0.7c0,0.4,0,0.8,0,1.2c0,0.4,0,0.8,0,1.4
			c0,0.5,0,1.1,0,1.7c0,0.3,0,0.5,0,0.9c0,0.3,0,0.6,0,1c0,0.3,0,0.7,0,1c0,0.3,0,0.6,0,0.9c0,0,0,0.1,0,0.1c0,0,0,0-0.1,0
			c0,0-0.1,0-0.2-0.1c-0.5-0.9-1-1.7-1.4-2.4c-0.4-0.7-0.8-1.4-1.2-2.1c-0.4-0.7-0.8-1.3-1.1-2c-0.4-0.6-0.8-1.3-1.2-2v5.7
			c0,0.5,0,0.9,0,1.2c0,0.4,0.1,0.6,0.1,0.8c0.1,0.2,0.2,0.4,0.3,0.5c0.1,0.1,0.3,0.2,0.6,0.2v0.1h-2.3v-0.1c0.1,0,0.3-0.1,0.4-0.2
			c0.1-0.1,0.3-0.2,0.3-0.4c0.1-0.2,0.1-0.5,0.2-0.8c0-0.4,0-0.8,0.1-1.3c0-0.4,0-0.8,0-1.4c0-0.5,0-1.1,0-1.7c0-0.3,0-0.5,0-0.6
			s0-0.3,0-0.5c0-0.2,0-0.3,0-0.5c0-0.2,0-0.4,0-0.7c0-0.3-0.1-0.5-0.1-0.6c-0.1-0.2-0.1-0.3-0.2-0.4c-0.1-0.1-0.2-0.2-0.3-0.2
			c-0.1,0-0.2-0.1-0.3-0.1v-0.1h1.9l4.4,7.5v-4.6c0-0.4,0-0.7,0-1c0-0.3,0-0.6-0.1-0.8c-0.1-0.3-0.2-0.5-0.3-0.6
			c-0.2-0.2-0.4-0.3-0.7-0.3v-0.1h2.3v0.1C202.3,104.4,202.2,104.5,202,104.6z"/>
		<path class="st0" d="M217.4,104.5c-0.1,0.1-0.2,0.2-0.2,0.2c0,0,0,0.1-0.1,0.1c0,0.1-0.1,0.2-0.1,0.3c0,0.1-0.1,0.3-0.2,0.4
			c-0.1,0.2-0.1,0.4-0.2,0.7c-0.1,0.4-0.2,0.9-0.3,1.5c-0.1,0.5-0.3,1.1-0.4,1.7c-0.1,0.6-0.3,1.1-0.4,1.7c-0.1,0.6-0.3,1.1-0.4,1.6
			l-0.4,1.3h-0.1c-0.2-0.6-0.3-1.3-0.5-1.9c-0.1-0.6-0.3-1.2-0.4-1.7c-0.1-0.5-0.3-1.1-0.4-1.6c-0.1-0.5-0.2-1-0.4-1.5
			c-0.1,0.4-0.2,0.8-0.3,1.3c-0.1,0.5-0.2,0.9-0.3,1.4c-0.1,0.5-0.2,0.9-0.3,1.4c-0.1,0.5-0.2,0.9-0.3,1.3l-0.4,1.3h-0.1
			c-0.2-0.7-0.4-1.4-0.5-2.1c-0.2-0.7-0.3-1.3-0.5-1.9c-0.2-0.6-0.3-1.2-0.5-1.8c-0.1-0.6-0.3-1.1-0.4-1.7c0-0.2-0.1-0.3-0.1-0.4
			s-0.1-0.2-0.1-0.4s-0.1-0.2-0.1-0.3c0-0.1-0.1-0.2-0.1-0.3c0-0.1,0-0.1-0.1-0.2s-0.1-0.2-0.1-0.2s-0.1-0.1-0.2-0.2
			s-0.2-0.1-0.3-0.1v-0.1h2.6v0.1c0,0-0.1,0-0.2,0c-0.1,0-0.1,0.1-0.2,0.1c-0.1,0-0.1,0.1-0.2,0.2c-0.1,0.1-0.1,0.2-0.1,0.4
			c0,0.1,0,0.3,0.1,0.6c0.1,0.3,0.1,0.6,0.3,1.1c0.1,0.4,0.2,0.9,0.3,1.4c0.1,0.5,0.3,1,0.4,1.5s0.2,0.9,0.4,1.3
			c0.1,0.4,0.2,0.8,0.3,1c0-0.1,0.1-0.3,0.1-0.6c0.1-0.3,0.2-0.7,0.3-1.1c0.1-0.5,0.2-1,0.4-1.5c0.1-0.6,0.3-1.2,0.4-1.8
			c-0.1-0.4-0.2-0.7-0.2-1c-0.1-0.3-0.2-0.5-0.2-0.8c0-0.1-0.1-0.1-0.1-0.2c0-0.1-0.1-0.2-0.2-0.2c-0.1-0.1-0.2-0.1-0.3-0.2
			c-0.1,0-0.2-0.1-0.4-0.1v-0.1h2.9v0.1c0,0-0.1,0-0.2,0c-0.1,0-0.2,0.1-0.3,0.1c-0.1,0-0.2,0.1-0.3,0.2c-0.1,0.1-0.1,0.2-0.1,0.3
			c0,0.1,0,0.2,0.1,0.5c0.1,0.3,0.2,0.7,0.3,1.1c0.1,0.4,0.2,0.9,0.3,1.5s0.3,1,0.4,1.5s0.2,0.9,0.3,1.3c0.1,0.4,0.2,0.7,0.2,0.8
			c0-0.1,0.1-0.2,0.1-0.4c0-0.2,0.1-0.4,0.2-0.7c0.1-0.3,0.1-0.6,0.2-1c0.1-0.4,0.2-0.7,0.2-1.1c0.1-0.4,0.2-0.7,0.2-1.1
			c0.1-0.4,0.2-0.7,0.2-1c0.1-0.4,0.1-0.7,0.1-0.9c0-0.2,0-0.3,0-0.4c0-0.1,0-0.2-0.1-0.3c-0.1-0.1-0.1-0.2-0.2-0.2
			c-0.1-0.1-0.2-0.1-0.3-0.1c-0.1,0-0.2-0.1-0.2-0.1v-0.1h2v0.1C217.6,104.4,217.5,104.5,217.4,104.5z"/>
		<path class="st0" d="M226.2,111c-0.2,0.6-0.4,1.1-0.7,1.6c-0.3,0.4-0.7,0.8-1.1,1c-0.4,0.2-0.9,0.4-1.3,0.4
			c-0.5,0-0.9-0.1-1.3-0.4c-0.4-0.2-0.8-0.6-1.1-1c-0.3-0.4-0.6-1-0.7-1.6c-0.2-0.6-0.3-1.3-0.3-2c0-0.8,0.1-1.5,0.3-2.1
			c0.2-0.6,0.4-1.1,0.8-1.6c0.3-0.4,0.7-0.8,1.1-1s0.9-0.3,1.4-0.3c0.5,0,1,0.1,1.4,0.4c0.4,0.3,0.8,0.6,1.1,1.1
			c0.3,0.5,0.5,1,0.7,1.6c0.2,0.6,0.2,1.2,0.2,1.9C226.5,109.7,226.4,110.4,226.2,111z M225.2,107.4c-0.1-0.6-0.2-1.1-0.4-1.5
			c-0.2-0.5-0.4-0.8-0.7-1.1c-0.3-0.3-0.6-0.4-1-0.4c-0.4,0-0.7,0.1-1,0.4c-0.3,0.3-0.5,0.7-0.7,1.1c-0.2,0.4-0.3,1-0.4,1.5
			c-0.1,0.6-0.1,1.1-0.1,1.7c0,0.6,0,1.2,0.1,1.8c0.1,0.6,0.2,1.1,0.4,1.5c0.2,0.4,0.4,0.8,0.7,1c0.3,0.3,0.6,0.4,1,0.4
			c0.4,0,0.7-0.1,1-0.4c0.3-0.3,0.5-0.7,0.7-1.1c0.2-0.5,0.3-1,0.4-1.5c0.1-0.6,0.1-1.1,0.1-1.7
			C225.4,108.5,225.3,107.9,225.2,107.4z"/>
		<path class="st0" d="M235.5,111c-0.2,0.6-0.4,1.1-0.7,1.6c-0.3,0.4-0.7,0.8-1.1,1c-0.4,0.2-0.9,0.4-1.3,0.4
			c-0.5,0-0.9-0.1-1.3-0.4c-0.4-0.2-0.8-0.6-1.1-1c-0.3-0.4-0.6-1-0.7-1.6c-0.2-0.6-0.3-1.3-0.3-2c0-0.8,0.1-1.5,0.3-2.1
			c0.2-0.6,0.4-1.1,0.8-1.6c0.3-0.4,0.7-0.8,1.1-1s0.9-0.3,1.4-0.3c0.5,0,1,0.1,1.4,0.4c0.4,0.3,0.8,0.6,1.1,1.1
			c0.3,0.5,0.5,1,0.7,1.6c0.2,0.6,0.2,1.2,0.2,1.9C235.8,109.7,235.7,110.4,235.5,111z M234.5,107.4c-0.1-0.6-0.2-1.1-0.4-1.5
			c-0.2-0.5-0.4-0.8-0.7-1.1c-0.3-0.3-0.6-0.4-1-0.4c-0.4,0-0.7,0.1-1,0.4c-0.3,0.3-0.5,0.7-0.7,1.1c-0.2,0.4-0.3,1-0.4,1.5
			c-0.1,0.6-0.1,1.1-0.1,1.7c0,0.6,0,1.2,0.1,1.8c0.1,0.6,0.2,1.1,0.4,1.5c0.2,0.4,0.4,0.8,0.7,1c0.3,0.3,0.6,0.4,1,0.4
			s0.7-0.1,1-0.4c0.3-0.3,0.5-0.7,0.7-1.1c0.2-0.5,0.3-1,0.4-1.5c0.1-0.6,0.1-1.1,0.1-1.7C234.6,108.5,234.6,107.9,234.5,107.4z"/>
		<path class="st0" d="M245.2,110.7c-0.1,0.5-0.3,1-0.4,1.3c-0.2,0.4-0.4,0.7-0.7,0.9c-0.3,0.2-0.5,0.4-0.8,0.6
			c-0.3,0.1-0.6,0.2-0.9,0.3c-0.3,0.1-0.6,0.1-0.9,0.1h-3.3v-0.1c0.2,0,0.3-0.1,0.4-0.2c0.1-0.1,0.3-0.2,0.3-0.3
			c0,0,0.1-0.1,0.1-0.2c0-0.1,0-0.2,0-0.4s0-0.3,0-0.4c0-0.2,0-0.3,0-0.4c0-0.1,0-0.3,0-0.5c0-0.2,0-0.5,0-0.7c0-0.3,0-0.5,0-0.8
			c0-0.3,0-0.5,0-0.8v-2.6c0-0.2,0-0.3,0-0.5c0-0.2,0-0.3,0-0.5c0-0.1,0-0.3,0-0.4c0-0.1,0-0.2-0.1-0.3c-0.1-0.2-0.2-0.3-0.3-0.3
			c-0.1-0.1-0.3-0.1-0.4-0.1v-0.1c0.3,0,0.6,0,1.1,0c0.5,0,1.1,0,1.8,0c0.2,0,0.4,0,0.6,0c0.2,0,0.4,0,0.6,0c0.2,0,0.4,0.1,0.6,0.1
			c0.2,0.1,0.4,0.2,0.6,0.3c0.3,0.2,0.5,0.4,0.7,0.6c0.2,0.3,0.4,0.6,0.6,0.9s0.3,0.7,0.4,1.2c0.1,0.5,0.2,1,0.2,1.6
			C245.4,109.6,245.3,110.2,245.2,110.7z M244.1,107.5c-0.1-0.5-0.3-0.9-0.5-1.3c-0.2-0.4-0.4-0.7-0.7-1c-0.3-0.3-0.6-0.5-0.9-0.5
			c-0.1,0-0.3-0.1-0.4-0.1c-0.1,0-0.3,0-0.5,0c-0.1,0-0.2,0-0.2,0s-0.2,0-0.3,0c-0.1,0-0.2,0-0.2,0c-0.1,0-0.1,0-0.2,0
			c0,0.4,0,1-0.1,1.8c0,0.8,0,1.7,0,2.8c0,0.6,0,1.1,0,1.6c0,0.5,0,0.9,0,1.1c0,0.1,0,0.3,0,0.4c0,0.1,0,0.3,0,0.4
			c0,0.1,0,0.3,0.1,0.4c0,0.1,0.1,0.2,0.1,0.2c0.1,0.2,0.3,0.3,0.5,0.3c0.2,0,0.4,0.1,0.5,0.1c0.2,0,0.3,0,0.5,0
			c0.2,0,0.3-0.1,0.5-0.1c0.7-0.3,1.2-0.8,1.5-1.6c0.3-0.8,0.5-1.8,0.5-3C244.3,108.5,244.2,107.9,244.1,107.5z"/>
	</g>
	<g>
		<path class="st0" d="M124.5,14.5c0-0.2-0.1-0.4-0.2-0.6c-0.1-0.2-0.2-0.3-0.3-0.4c-0.1-0.1-0.2-0.2-0.4-0.3
			c-0.1-0.1-0.3-0.1-0.4-0.1c-0.2,0-0.3,0.1-0.4,0.2c-0.1,0.1-0.2,0.3-0.2,0.6c0,0.2,0.1,0.4,0.2,0.5c0.1,0.1,0.2,0.3,0.4,0.4
			c0.2,0.1,0.3,0.2,0.5,0.3c0.2,0.1,0.3,0.2,0.5,0.4c0.2,0.2,0.3,0.3,0.4,0.6c0.1,0.2,0.2,0.5,0.2,0.8c0,0.2,0,0.4-0.1,0.6
			c-0.1,0.2-0.1,0.3-0.3,0.5c-0.1,0.1-0.2,0.2-0.4,0.3c-0.2,0.1-0.3,0.1-0.5,0.1c-0.1,0-0.2,0-0.3,0c-0.1,0-0.2-0.1-0.3-0.1
			c-0.1,0-0.2-0.1-0.3-0.1c-0.1,0-0.2,0-0.3,0c0,0,0,0-0.1,0c0,0,0,0-0.1,0c0,0-0.1,0-0.1,0c0,0,0,0-0.1,0c0-0.3-0.1-0.6-0.1-0.9
			c0-0.3-0.1-0.6-0.1-0.9h0.1c0,0.2,0.1,0.4,0.2,0.6c0.1,0.2,0.2,0.4,0.3,0.5c0.1,0.2,0.3,0.3,0.4,0.4c0.1,0.1,0.3,0.1,0.4,0.1
			c0.1,0,0.2,0,0.3,0c0.1,0,0.2-0.1,0.3-0.1c0.1-0.1,0.1-0.1,0.2-0.2s0.1-0.2,0.1-0.4c0-0.2-0.1-0.4-0.2-0.5
			c-0.1-0.1-0.2-0.3-0.4-0.4c-0.2-0.1-0.3-0.2-0.5-0.3c-0.2-0.1-0.4-0.2-0.5-0.4c-0.2-0.1-0.3-0.3-0.4-0.5c-0.1-0.2-0.2-0.4-0.2-0.7
			c0-0.5,0.1-0.9,0.3-1.1c0.2-0.2,0.5-0.3,0.9-0.3c0.1,0,0.2,0,0.3,0c0.1,0,0.2,0.1,0.3,0.1c0.1,0,0.2,0.1,0.3,0.1
			c0.1,0,0.2,0,0.2,0h0.2c0,0.1,0,0.2,0,0.3c0,0.1,0,0.2,0,0.2c0,0.2,0,0.3,0,0.5c0,0.2,0,0.3,0,0.5H124.5z"/>
		<path class="st0" d="M126.3,12.9c0.2,0,0.3,0,0.5,0c0.2,0,0.3,0,0.5,0c0.2,0,0.3,0,0.5,0c0.2,0,0.3,0,0.5,0v0.2
			c-0.1,0-0.2,0-0.3,0.1c-0.1,0-0.1,0.1-0.2,0.2c0,0.1-0.1,0.2-0.1,0.3c0,0.1,0,0.2,0,0.4v3.4c0,0.2,0,0.4,0.1,0.5
			c0.1,0.1,0.2,0.2,0.5,0.2l0,0.2c-0.2,0-0.3,0-0.5,0c-0.2,0-0.3,0-0.5,0c-0.2,0-0.3,0-0.5,0c-0.2,0-0.3,0-0.5,0V18
			c0.2,0,0.4-0.1,0.5-0.2c0.1-0.1,0.1-0.2,0.1-0.5V14c0-0.3,0-0.5-0.1-0.7c-0.1-0.1-0.2-0.2-0.5-0.2V12.9z"/>
		<path class="st0" d="M129.4,18c0.2,0,0.3-0.1,0.4-0.1s0.2-0.1,0.2-0.2c0.1-0.1,0.1-0.2,0.1-0.3c0-0.1,0-0.3,0-0.6l0-3.1
			c0-0.1-0.1-0.1-0.2-0.2c-0.1-0.1-0.1-0.1-0.2-0.1c-0.1,0-0.1-0.1-0.2-0.1c-0.1,0-0.1-0.1-0.2-0.1v-0.2c0.1,0,0.2,0,0.3,0
			c0.1,0,0.2,0,0.3,0c0.2,0,0.5,0,0.7,0c0.4,0.7,0.7,1.3,1.1,1.9c0.4,0.6,0.7,1.3,1.1,2h0c0-0.2,0-0.4,0-0.6c0-0.3,0-0.5,0-0.8
			c0-0.3,0-0.6,0-0.8c0-0.3,0-0.5,0-0.7c0-0.1,0-0.3-0.1-0.3c0-0.1-0.1-0.2-0.1-0.2c-0.1-0.1-0.1-0.1-0.2-0.1
			c-0.1,0-0.1-0.1-0.2-0.1v-0.2c0.1,0,0.3,0,0.4,0c0.1,0,0.3,0,0.4,0c0.3,0,0.5,0,0.8,0v0.2c-0.1,0-0.3,0-0.3,0.1
			c-0.1,0-0.1,0.1-0.2,0.2c0,0.1-0.1,0.3-0.1,0.5c0,0.2,0,0.4,0,0.7v3.7h-0.3c-0.1-0.2-0.2-0.5-0.4-0.8s-0.3-0.6-0.4-0.8
			c-0.2-0.3-0.3-0.6-0.5-0.8c-0.2-0.3-0.3-0.5-0.4-0.8c-0.1-0.2-0.3-0.5-0.4-0.7c-0.1-0.2-0.2-0.4-0.3-0.5v2.7c0,0.3,0,0.5,0,0.7
			c0,0.2,0,0.3,0.1,0.4c0,0.1,0.1,0.2,0.2,0.2c0.1,0,0.2,0.1,0.4,0.1v0.2c-0.1,0-0.3,0-0.4,0c-0.1,0-0.3,0-0.4,0c-0.2,0-0.3,0-0.4,0
			c-0.1,0-0.3,0-0.4,0V18z"/>
		<path class="st0" d="M138.3,15c0-0.2-0.1-0.5-0.2-0.7c-0.1-0.2-0.2-0.4-0.3-0.6c-0.1-0.2-0.2-0.3-0.4-0.4
			c-0.1-0.1-0.3-0.2-0.5-0.2c-0.2,0-0.4,0.1-0.5,0.2c-0.1,0.1-0.3,0.3-0.4,0.5c-0.1,0.2-0.2,0.5-0.2,0.7c0,0.3-0.1,0.5-0.1,0.8
			c0,0.3,0,0.6,0.1,0.9c0.1,0.3,0.2,0.5,0.3,0.7c0.1,0.2,0.3,0.4,0.4,0.5c0.2,0.1,0.4,0.2,0.6,0.2c0.2,0,0.3,0,0.5-0.1
			c0.1-0.1,0.3-0.2,0.4-0.3c0.1-0.1,0.2-0.2,0.3-0.4c0.1-0.1,0.2-0.3,0.2-0.4l0.1,0.2c-0.2,0.5-0.5,0.9-0.8,1.2
			c-0.3,0.3-0.7,0.4-1.1,0.4c-0.3,0-0.5-0.1-0.7-0.2s-0.4-0.3-0.6-0.6c-0.2-0.2-0.3-0.5-0.4-0.9c-0.1-0.3-0.1-0.7-0.1-1.1
			c0-0.4,0-0.8,0.1-1.1c0.1-0.3,0.2-0.6,0.4-0.9c0.2-0.2,0.4-0.4,0.6-0.6c0.2-0.1,0.5-0.2,0.8-0.2c0.1,0,0.2,0,0.4,0
			c0.1,0,0.3,0.1,0.4,0.1c0.1,0,0.2,0.1,0.3,0.1c0.1,0,0.2,0,0.2,0c0,0,0,0,0.1,0c0,0.1,0,0.2,0,0.3c0,0.1,0,0.2,0,0.3
			c0,0.2,0,0.4,0,0.7c0,0.2,0,0.4,0,0.7H138.3z"/>
		<path class="st0" d="M139.9,18c0.1,0,0.2,0,0.3-0.1c0.1,0,0.1-0.1,0.2-0.2c0-0.1,0.1-0.2,0.1-0.3c0-0.1,0-0.2,0-0.4v-3
			c0-0.1,0-0.3,0-0.4c0-0.1,0-0.2-0.1-0.3c0-0.1-0.1-0.1-0.2-0.2c-0.1,0-0.2-0.1-0.3-0.1v-0.2c0.2,0,0.4,0,0.6,0c0.2,0,0.4,0,0.6,0
			c0.4,0,0.7,0,1,0c0.3,0,0.7,0,1.1,0c0,0.1,0,0.2,0,0.3c0,0.1,0,0.2,0,0.3c0,0.2,0,0.3,0,0.5c0,0.2,0,0.3,0,0.4l-0.1,0
			c-0.1-0.4-0.2-0.7-0.4-0.9c-0.2-0.2-0.5-0.3-0.8-0.3h-0.6v1.9h0.3c0.1,0,0.2,0,0.3-0.1c0.1,0,0.2-0.1,0.3-0.2
			c0.1-0.1,0.1-0.2,0.2-0.3s0.1-0.3,0.1-0.5h0.1c0,0.2,0,0.4,0,0.6c0,0.2,0,0.4,0,0.6c0,0.2,0,0.4,0,0.6c0,0.2,0,0.4,0,0.6h-0.1
			c0-0.2-0.1-0.4-0.1-0.5c-0.1-0.1-0.1-0.2-0.2-0.3c-0.1-0.1-0.2-0.1-0.2-0.2c-0.1,0-0.2-0.1-0.3-0.1h-0.3v2.4
			c0.1,0,0.2,0.1,0.3,0.1c0.1,0,0.2,0,0.4,0c0.4,0,0.7-0.1,1-0.4c0.3-0.2,0.5-0.6,0.7-1.2l0.1,0.1c-0.1,0.3-0.2,0.6-0.3,0.8
			c-0.1,0.3-0.2,0.6-0.2,0.9c-0.3,0-0.6,0-0.8,0c-0.3,0-0.6,0-0.8,0c-0.2,0-0.3,0-0.5,0c-0.2,0-0.3,0-0.4,0c-0.1,0-0.3,0-0.4,0
			c-0.1,0-0.2,0-0.3,0V18z"/>
		<path class="st0" d="M147.6,18c0.1,0,0.2,0,0.3,0c0.1,0,0.2-0.1,0.2-0.1c0-0.1,0.1-0.2,0.1-0.3c0-0.1,0-0.4,0-0.6v-2.7
			c0-0.2,0-0.3,0-0.4c0-0.1,0-0.2-0.1-0.3c0-0.1-0.1-0.1-0.2-0.1c-0.1,0-0.2,0-0.3,0v-0.2c0.4-0.1,0.8-0.2,1.2-0.4v4.2
			c0,0.3,0,0.5,0,0.6c0,0.1,0,0.3,0.1,0.3c0,0.1,0.1,0.1,0.2,0.1c0.1,0,0.2,0,0.3,0v0.2c-0.2,0-0.3,0-0.5,0c-0.2,0-0.3,0-0.5,0
			c-0.2,0-0.3,0-0.5,0c-0.2,0-0.3,0-0.5,0V18z"/>
		<path class="st0" d="M151.2,18c0.3,0,0.5-0.1,0.7-0.1c0.2-0.1,0.4-0.2,0.5-0.4c0.1-0.2,0.3-0.4,0.3-0.7c0.1-0.3,0.1-0.6,0.2-1
			c-0.1,0.1-0.2,0.2-0.3,0.2c-0.1,0-0.2,0.1-0.4,0.1c-0.2,0-0.3,0-0.4-0.1c-0.1-0.1-0.2-0.2-0.3-0.4c-0.1-0.1-0.2-0.3-0.2-0.5
			c0-0.2-0.1-0.4-0.1-0.6c0-0.3,0-0.5,0.1-0.7c0.1-0.2,0.1-0.4,0.3-0.5c0.1-0.1,0.2-0.2,0.4-0.3c0.1-0.1,0.3-0.1,0.5-0.1
			c0.2,0,0.4,0.1,0.6,0.2c0.2,0.1,0.3,0.3,0.4,0.5c0.1,0.2,0.2,0.4,0.2,0.7c0.1,0.3,0.1,0.5,0.1,0.8c0,0.6-0.1,1.1-0.2,1.5
			c-0.1,0.4-0.3,0.8-0.5,1c-0.2,0.3-0.5,0.5-0.8,0.6c-0.3,0.1-0.7,0.2-1,0.2V18z M153,14.6c0-0.3,0-0.5-0.1-0.7
			c0-0.2-0.1-0.3-0.1-0.5c-0.1-0.1-0.1-0.2-0.2-0.3c-0.1-0.1-0.1-0.1-0.2-0.1c-0.1,0-0.2,0-0.2,0.1c-0.1,0.1-0.1,0.2-0.1,0.3
			c0,0.1-0.1,0.2-0.1,0.4c0,0.2,0,0.3,0,0.5c0,0.4,0.1,0.8,0.2,1c0.1,0.2,0.2,0.3,0.4,0.3c0.1,0,0.2,0,0.2-0.1
			c0.1-0.1,0.1-0.1,0.2-0.2c0-0.1,0.1-0.2,0.1-0.4C153,14.9,153,14.7,153,14.6z"/>
		<path class="st0" d="M155.3,16l0.6-3.1h0.4c0.1,0.1,0.1,0.2,0.2,0.2c0.1,0,0.2,0.1,0.3,0.1c0.1,0,0.1,0,0.2,0
			c0.1,0,0.1-0.1,0.2-0.1c0.1,0,0.1-0.1,0.2-0.1c0.1-0.1,0.1-0.1,0.2-0.2l0.1,0.2c-0.2,0.3-0.4,0.5-0.6,0.6
			c-0.2,0.1-0.5,0.2-0.7,0.2c-0.1,0-0.1,0-0.2,0c-0.1,0-0.1,0-0.2-0.1l-0.3,1.6c0.1-0.1,0.2-0.2,0.3-0.2c0.1-0.1,0.2-0.1,0.4-0.1
			c0.2,0,0.3,0,0.5,0.1c0.1,0.1,0.3,0.2,0.4,0.3c0.1,0.1,0.2,0.3,0.2,0.5c0.1,0.2,0.1,0.4,0.1,0.7c0,0.5-0.1,1-0.4,1.3
			c-0.2,0.3-0.6,0.4-1,0.4c-0.4,0-0.6-0.1-0.8-0.3c-0.2-0.2-0.3-0.5-0.3-0.8c0-0.1,0-0.3,0.1-0.4c0.1-0.1,0.1-0.2,0.2-0.2
			c0.2,0,0.4,0.2,0.4,0.5c0,0.1,0,0.2,0,0.2c0,0.1,0,0.1,0,0.2c0.1,0.1,0.1,0.2,0.2,0.3c0.1,0.1,0.2,0.1,0.3,0.1
			c0.1,0,0.2,0,0.3-0.1c0.1,0,0.2-0.1,0.2-0.2c0.1-0.1,0.1-0.2,0.1-0.4c0-0.2,0.1-0.4,0.1-0.7c0-0.4-0.1-0.7-0.2-0.9
			c-0.1-0.2-0.3-0.3-0.5-0.3c-0.1,0-0.2,0-0.2,0.1c-0.1,0-0.1,0.1-0.2,0.2c-0.1,0.1-0.1,0.1-0.2,0.2c-0.1,0.1-0.1,0.2-0.1,0.3
			L155.3,16z"/>
		<path class="st0" d="M161.4,14.1c0,0.1,0,0.3-0.1,0.4c0,0.1-0.1,0.2-0.1,0.3c-0.1,0.1-0.1,0.2-0.2,0.3c-0.1,0.1-0.2,0.1-0.3,0.2
			c0.1,0.1,0.2,0.2,0.3,0.3c0.1,0.1,0.2,0.2,0.3,0.3c0.1,0.1,0.1,0.3,0.2,0.4c0,0.2,0.1,0.3,0.1,0.6c0,0.3,0,0.5-0.1,0.7
			c-0.1,0.2-0.2,0.3-0.3,0.4c-0.1,0.1-0.3,0.2-0.4,0.2c-0.2,0-0.3,0.1-0.5,0.1c-0.1,0-0.3,0-0.4-0.1c-0.1-0.1-0.3-0.1-0.4-0.3
			c-0.1-0.1-0.2-0.3-0.3-0.5c-0.1-0.2-0.1-0.4-0.1-0.6c0-0.4,0.1-0.7,0.2-0.9c0.1-0.2,0.3-0.4,0.5-0.5c-0.1-0.1-0.1-0.2-0.2-0.3
			c-0.1-0.1-0.1-0.2-0.2-0.3c-0.1-0.1-0.1-0.2-0.1-0.3c0-0.1-0.1-0.3-0.1-0.4c0-0.2,0-0.4,0.1-0.6c0.1-0.2,0.1-0.3,0.3-0.4
			s0.2-0.2,0.4-0.2c0.1-0.1,0.3-0.1,0.4-0.1c0.1,0,0.3,0,0.4,0.1c0.1,0,0.3,0.1,0.4,0.2c0.1,0.1,0.2,0.2,0.3,0.4
			C161.4,13.6,161.4,13.8,161.4,14.1z M159.5,16.6c0,0.2,0,0.3,0,0.5c0,0.2,0.1,0.3,0.1,0.4s0.1,0.2,0.2,0.3
			c0.1,0.1,0.2,0.1,0.3,0.1c0.2,0,0.3-0.1,0.5-0.2c0.1-0.1,0.2-0.4,0.2-0.7c0-0.1,0-0.3-0.1-0.4s-0.2-0.3-0.3-0.4
			c-0.1-0.1-0.2-0.2-0.3-0.4c-0.1-0.1-0.2-0.2-0.3-0.3c-0.1,0.1-0.2,0.2-0.3,0.4C159.6,16.2,159.5,16.4,159.5,16.6z M160.9,14
			c0-0.1,0-0.3,0-0.4c0-0.1-0.1-0.2-0.1-0.3c-0.1-0.1-0.1-0.2-0.2-0.2c-0.1-0.1-0.2-0.1-0.3-0.1c-0.1,0-0.3,0.1-0.3,0.2
			s-0.1,0.3-0.1,0.5c0,0.1,0,0.3,0.1,0.4c0.1,0.1,0.1,0.2,0.2,0.3c0.1,0.1,0.2,0.2,0.3,0.3c0.1,0.1,0.2,0.2,0.2,0.3
			c0.1-0.1,0.2-0.3,0.2-0.4C160.9,14.4,160.9,14.3,160.9,14z"/>
	</g>
</g>
</svg>
