<?xml version="1.0" encoding="utf-8"?>
<!-- Generator: Adobe Illustrator 19.1.0, SVG Export Plug-In . SVG Version: 6.00 Build 0)  -->
<svg version="1.1" id="Warstwa_1" xmlns="http://www.w3.org/2000/svg" xmlns:xlink="http://www.w3.org/1999/xlink" x="0px" y="0px"
	 viewBox="0 0 244 113" style="enable-background:new 0 0 244 113;" xml:space="preserve">
<style type="text/css">
	.st0{fill:url(#SVGID_1_);}
	.st1{fill:url(#SVGID_2_);}
	.st2{fill:url(#SVGID_3_);}
	.st3{fill:url(#SVGID_4_);}
	.st4{fill:url(#SVGID_5_);}
	.st5{fill:url(#SVGID_6_);}
	.st6{fill:url(#SVGID_7_);}
	.st7{fill:url(#SVGID_8_);}
	.st8{fill:url(#SVGID_9_);}
	.st9{fill:url(#SVGID_10_);}
	.st10{fill:url(#SVGID_11_);}
	.st11{fill:url(#SVGID_12_);}
	.st12{fill:url(#SVGID_13_);}
	.st13{fill:url(#SVGID_14_);}
	.st14{fill:url(#SVGID_15_);}
	.st15{fill:url(#SVGID_16_);}
	.st16{fill:url(#SVGID_17_);}
	.st17{fill:url(#SVGID_18_);}
	.st18{fill:url(#SVGID_19_);}
	.st19{fill:url(#SVGID_20_);}
	.st20{fill:url(#SVGID_21_);}
	.st21{fill:url(#SVGID_22_);}
	.st22{fill:#BC9D5C;}
</style>
<g>
	<g>
		<linearGradient id="SVGID_1_" gradientUnits="userSpaceOnUse" x1="131.9347" y1="53.7831" x2="120.1511" y2="9.8062">
			<stop  offset="0" style="stop-color:#F4E6B7"/>
			<stop  offset="0.2652" style="stop-color:#8B632C"/>
			<stop  offset="0.3668" style="stop-color:#C49541"/>
			<stop  offset="0.3747" style="stop-color:#CA9E4E"/>
			<stop  offset="0.3974" style="stop-color:#D9B770"/>
			<stop  offset="0.4196" style="stop-color:#E5CB8E"/>
			<stop  offset="0.4412" style="stop-color:#EDDAA4"/>
			<stop  offset="0.4617" style="stop-color:#F3E3B2"/>
			<stop  offset="0.48" style="stop-color:#F4E6B7"/>
			<stop  offset="0.4984" style="stop-color:#EAD49C"/>
			<stop  offset="0.5393" style="stop-color:#D6B168"/>
			<stop  offset="0.5699" style="stop-color:#C99D4B"/>
			<stop  offset="0.5865" style="stop-color:#C49541"/>
			<stop  offset="0.6549" style="stop-color:#996C30"/>
			<stop  offset="0.7649" style="stop-color:#C49541"/>
			<stop  offset="1" style="stop-color:#F4E6B7"/>
		</linearGradient>
		<polygon class="st0" points="129.5,25.7 123.8,26.9 123.3,29.1 124.9,28.7 122.6,38.2 124.9,37.7 127.2,28.3 129,27.9 		"/>
		<linearGradient id="SVGID_2_" gradientUnits="userSpaceOnUse" x1="133.4592" y1="53.3746" x2="121.6756" y2="9.3977">
			<stop  offset="0" style="stop-color:#F4E6B7"/>
			<stop  offset="0.2652" style="stop-color:#8B632C"/>
			<stop  offset="0.3668" style="stop-color:#C49541"/>
			<stop  offset="0.3747" style="stop-color:#CA9E4E"/>
			<stop  offset="0.3974" style="stop-color:#D9B770"/>
			<stop  offset="0.4196" style="stop-color:#E5CB8E"/>
			<stop  offset="0.4412" style="stop-color:#EDDAA4"/>
			<stop  offset="0.4617" style="stop-color:#F3E3B2"/>
			<stop  offset="0.48" style="stop-color:#F4E6B7"/>
			<stop  offset="0.4984" style="stop-color:#EAD49C"/>
			<stop  offset="0.5393" style="stop-color:#D6B168"/>
			<stop  offset="0.5699" style="stop-color:#C99D4B"/>
			<stop  offset="0.5865" style="stop-color:#C49541"/>
			<stop  offset="0.6549" style="stop-color:#996C30"/>
			<stop  offset="0.7649" style="stop-color:#C49541"/>
			<stop  offset="1" style="stop-color:#F4E6B7"/>
		</linearGradient>
		<polygon class="st1" points="128.9,28.7 127.8,28.9 126.4,34.8 		"/>
		<linearGradient id="SVGID_3_" gradientUnits="userSpaceOnUse" x1="128.1035" y1="54.8097" x2="116.3199" y2="10.8327">
			<stop  offset="0" style="stop-color:#F4E6B7"/>
			<stop  offset="0.2652" style="stop-color:#8B632C"/>
			<stop  offset="0.3668" style="stop-color:#C49541"/>
			<stop  offset="0.3747" style="stop-color:#CA9E4E"/>
			<stop  offset="0.3974" style="stop-color:#D9B770"/>
			<stop  offset="0.4196" style="stop-color:#E5CB8E"/>
			<stop  offset="0.4412" style="stop-color:#EDDAA4"/>
			<stop  offset="0.4617" style="stop-color:#F3E3B2"/>
			<stop  offset="0.48" style="stop-color:#F4E6B7"/>
			<stop  offset="0.4984" style="stop-color:#EAD49C"/>
			<stop  offset="0.5393" style="stop-color:#D6B168"/>
			<stop  offset="0.5699" style="stop-color:#C99D4B"/>
			<stop  offset="0.5865" style="stop-color:#C49541"/>
			<stop  offset="0.6549" style="stop-color:#996C30"/>
			<stop  offset="0.7649" style="stop-color:#C49541"/>
			<stop  offset="1" style="stop-color:#F4E6B7"/>
		</linearGradient>
		<path class="st2" d="M122.5,45.5c5.8,0,10.7-3.8,12.2-9.1l-4.8,1l0.2-1.9l-0.4,0l-0.8,2.1l-7.4,1.5l0.3-1.2l2-8.2l-0.8,0.2
			c0,0.2-0.1,0.3-0.1,0.5c-0.2,1-0.5,1.7-1,2.3c-0.1,0.2-0.3,0.3-0.4,0.4c0.1,0.3,0.2,0.6,0.2,1c0,0.8-0.2,1.6-0.4,2.5
			c-0.1,0.2-0.2,0.8-0.2,0.8c-0.1,0.4-0.2,0.9-0.1,1.1l0.2,0.8l-3.7,0.8l-0.2-0.6c-0.1-0.3-0.2-0.6-0.1-1l-0.4,1.8l-4,0.9
			C115.1,43.7,118.6,45.5,122.5,45.5z"/>
		<linearGradient id="SVGID_4_" gradientUnits="userSpaceOnUse" x1="123.9701" y1="55.9172" x2="112.1865" y2="11.9403">
			<stop  offset="0" style="stop-color:#F4E6B7"/>
			<stop  offset="0.2652" style="stop-color:#8B632C"/>
			<stop  offset="0.3668" style="stop-color:#C49541"/>
			<stop  offset="0.3747" style="stop-color:#CA9E4E"/>
			<stop  offset="0.3974" style="stop-color:#D9B770"/>
			<stop  offset="0.4196" style="stop-color:#E5CB8E"/>
			<stop  offset="0.4412" style="stop-color:#EDDAA4"/>
			<stop  offset="0.4617" style="stop-color:#F3E3B2"/>
			<stop  offset="0.48" style="stop-color:#F4E6B7"/>
			<stop  offset="0.4984" style="stop-color:#EAD49C"/>
			<stop  offset="0.5393" style="stop-color:#D6B168"/>
			<stop  offset="0.5699" style="stop-color:#C99D4B"/>
			<stop  offset="0.5865" style="stop-color:#C49541"/>
			<stop  offset="0.6549" style="stop-color:#996C30"/>
			<stop  offset="0.7649" style="stop-color:#C49541"/>
			<stop  offset="1" style="stop-color:#F4E6B7"/>
		</linearGradient>
		<path class="st3" d="M116.2,39.5l1.2-4.7c0.2,0,0.4,0,0.6,0h0c0.5,0,0.8,0.2,0.7,0.7c0,0.4-0.3,1.1-0.4,1.7
			c-0.3,0.9-0.4,1.4-0.2,2l2.3-0.5c-0.1-0.4,0-1,0.2-1.5c0.2-1,0.5-2.2,0.6-3c0-0.4-0.1-0.7-0.5-1.1c0.4-0.2,0.5-0.3,0.9-0.7
			c0.4-0.4,0.6-1,0.9-1.9c0.2-0.9,0.3-1.7-0.1-2.2c-0.2-0.4-0.8-0.5-1.3-0.5c-0.3,0-0.6,0-0.9,0.1l-3,0.7l-3.1,11.7L116.2,39.5z
			 M118.7,29.8l0.9,0c0.8,0,0.1,1.8-0.1,2.2c-0.2,0.4-0.7,0.6-1.2,0.6l-0.4,0L118.7,29.8z"/>
		<linearGradient id="SVGID_5_" gradientUnits="userSpaceOnUse" x1="128.4435" y1="54.7186" x2="116.6599" y2="10.7417">
			<stop  offset="0" style="stop-color:#F4E6B7"/>
			<stop  offset="0.2652" style="stop-color:#8B632C"/>
			<stop  offset="0.3668" style="stop-color:#C49541"/>
			<stop  offset="0.3747" style="stop-color:#CA9E4E"/>
			<stop  offset="0.3974" style="stop-color:#D9B770"/>
			<stop  offset="0.4196" style="stop-color:#E5CB8E"/>
			<stop  offset="0.4412" style="stop-color:#EDDAA4"/>
			<stop  offset="0.4617" style="stop-color:#F3E3B2"/>
			<stop  offset="0.48" style="stop-color:#F4E6B7"/>
			<stop  offset="0.4984" style="stop-color:#EAD49C"/>
			<stop  offset="0.5393" style="stop-color:#D6B168"/>
			<stop  offset="0.5699" style="stop-color:#C99D4B"/>
			<stop  offset="0.5865" style="stop-color:#C49541"/>
			<stop  offset="0.6549" style="stop-color:#996C30"/>
			<stop  offset="0.7649" style="stop-color:#C49541"/>
			<stop  offset="1" style="stop-color:#F4E6B7"/>
		</linearGradient>
		<path class="st4" d="M107.2,29.6l2.2-0.5c1.6-5.8,6.9-10,13.1-10c4.3,0,8.1,2,10.6,5l1.5-0.3l-0.1,1l-0.1,1.3
			c0.2,0.4,0.4,0.8,0.6,1.2l0.8-3.3l0.1-0.5l0.5-0.1l0.1,0c0-0.1,0-0.2,0-0.2c-0.2-1.5-1.3-2.7-1.3-2.7s0.1,0.8-0.3,1.3
			c-0.5,0.7-1.3,0.1-1.3,0.1l0,0c0-0.1-0.1-0.1-0.1-0.2c0-0.3-0.1-1.4-0.6-2.5c-0.7-1.4-2.1-2.2-2.1-2.2s0.3,0.7,0.1,1.4
			c-0.2,0.8-1.2,0.5-1.2,0.5l0,0c-0.1,0-0.1-0.1-0.2-0.1c-0.1-0.3-0.6-1.3-1.4-2.2c-1.1-1.1-2.6-1.4-2.6-1.4s0.5,0.6,0.5,1.3
			c0,0.8-1,0.8-1,0.8l0,0c-0.1,0-0.1,0-0.2,0c-0.2-0.2-0.9-1.1-2-1.6c-1.4-0.7-3-0.5-3-0.5s0.7,0.4,0.9,1c0.3,0.8-0.7,1.1-0.7,1.1
			l0,0c-0.1,0-0.1,0-0.2,0c-0.3-0.2-1.2-0.7-2.4-0.9c-1.5-0.3-3,0.4-3,0.4s0.8,0.2,1.2,0.7c0.5,0.7-0.3,1.2-0.3,1.2l0,0
			c-0.1,0-0.1,0.1-0.2,0.1c-0.3-0.1-1.4-0.3-2.5-0.2c-1.5,0.2-2.7,1.3-2.7,1.3s0.8-0.1,1.3,0.3c0.7,0.5,0.1,1.3,0.1,1.3l0,0
			c-0.1,0-0.1,0.1-0.2,0.1c-0.3,0-1.4,0.1-2.5,0.6c-1.4,0.7-2.2,2.1-2.2,2.1s0.7-0.3,1.4-0.1c0.8,0.2,0.5,1.2,0.5,1.2l0,0
			c0,0.1-0.1,0.1-0.1,0.2c-0.3,0.1-1.3,0.6-2.2,1.4c-1.1,1.1-1.4,2.6-1.4,2.6s0.6-0.5,1.3-0.5C106.9,29.1,107.1,29.3,107.2,29.6z"/>
		<linearGradient id="SVGID_6_" gradientUnits="userSpaceOnUse" x1="140.0413" y1="51.611" x2="128.2578" y2="7.634">
			<stop  offset="0" style="stop-color:#F4E6B7"/>
			<stop  offset="0.2652" style="stop-color:#8B632C"/>
			<stop  offset="0.3668" style="stop-color:#C49541"/>
			<stop  offset="0.3747" style="stop-color:#CA9E4E"/>
			<stop  offset="0.3974" style="stop-color:#D9B770"/>
			<stop  offset="0.4196" style="stop-color:#E5CB8E"/>
			<stop  offset="0.4412" style="stop-color:#EDDAA4"/>
			<stop  offset="0.4617" style="stop-color:#F3E3B2"/>
			<stop  offset="0.48" style="stop-color:#F4E6B7"/>
			<stop  offset="0.4984" style="stop-color:#EAD49C"/>
			<stop  offset="0.5393" style="stop-color:#D6B168"/>
			<stop  offset="0.5699" style="stop-color:#C99D4B"/>
			<stop  offset="0.5865" style="stop-color:#C49541"/>
			<stop  offset="0.6549" style="stop-color:#996C30"/>
			<stop  offset="0.7649" style="stop-color:#C49541"/>
			<stop  offset="1" style="stop-color:#F4E6B7"/>
		</linearGradient>
		<path class="st5" d="M133.9,31.7l0.7-3c-0.1-0.3-0.2-0.7-0.4-1L133.9,31.7z"/>
		<linearGradient id="SVGID_7_" gradientUnits="userSpaceOnUse" x1="128.3" y1="54.757" x2="116.5164" y2="10.7801">
			<stop  offset="0" style="stop-color:#F4E6B7"/>
			<stop  offset="0.2652" style="stop-color:#8B632C"/>
			<stop  offset="0.3668" style="stop-color:#C49541"/>
			<stop  offset="0.3747" style="stop-color:#CA9E4E"/>
			<stop  offset="0.3974" style="stop-color:#D9B770"/>
			<stop  offset="0.4196" style="stop-color:#E5CB8E"/>
			<stop  offset="0.4412" style="stop-color:#EDDAA4"/>
			<stop  offset="0.4617" style="stop-color:#F3E3B2"/>
			<stop  offset="0.48" style="stop-color:#F4E6B7"/>
			<stop  offset="0.4984" style="stop-color:#EAD49C"/>
			<stop  offset="0.5393" style="stop-color:#D6B168"/>
			<stop  offset="0.5699" style="stop-color:#C99D4B"/>
			<stop  offset="0.5865" style="stop-color:#C49541"/>
			<stop  offset="0.6549" style="stop-color:#996C30"/>
			<stop  offset="0.7649" style="stop-color:#C49541"/>
			<stop  offset="1" style="stop-color:#F4E6B7"/>
		</linearGradient>
		<path class="st6" d="M114.4,35.3l2-7.7l3.4-0.8c0.3-0.1,0.7-0.1,1-0.1c0.9,0,1.6,0.3,2,0.8c0,0,0,0,0,0l0.3-1.4l9-1.9
			c-2.3-2.7-5.8-4.4-9.7-4.4c-5.8,0-10.6,3.8-12.2,9c0,0-0.4,1.3-0.4,2l0.9-2l4.4-0.9l-0.1,1L114.4,35.3z"/>
		<linearGradient id="SVGID_8_" gradientUnits="userSpaceOnUse" x1="135.7589" y1="52.7584" x2="123.9753" y2="8.7815">
			<stop  offset="0" style="stop-color:#F4E6B7"/>
			<stop  offset="0.2652" style="stop-color:#8B632C"/>
			<stop  offset="0.3668" style="stop-color:#C49541"/>
			<stop  offset="0.3747" style="stop-color:#CA9E4E"/>
			<stop  offset="0.3974" style="stop-color:#D9B770"/>
			<stop  offset="0.4196" style="stop-color:#E5CB8E"/>
			<stop  offset="0.4412" style="stop-color:#EDDAA4"/>
			<stop  offset="0.4617" style="stop-color:#F3E3B2"/>
			<stop  offset="0.48" style="stop-color:#F4E6B7"/>
			<stop  offset="0.4984" style="stop-color:#EAD49C"/>
			<stop  offset="0.5393" style="stop-color:#D6B168"/>
			<stop  offset="0.5699" style="stop-color:#C99D4B"/>
			<stop  offset="0.5865" style="stop-color:#C49541"/>
			<stop  offset="0.6549" style="stop-color:#996C30"/>
			<stop  offset="0.7649" style="stop-color:#C49541"/>
			<stop  offset="1" style="stop-color:#F4E6B7"/>
		</linearGradient>
		<path class="st7" d="M131.1,25.3l-5,12.1l2.3-0.5l0.8-2.2l1.8-0.2l-0.2,1.8l2-0.4l1-11.3L131.1,25.3z M131.2,32.4l-1.2,0.1
			l1.4-3.4L131.2,32.4z"/>
		<linearGradient id="SVGID_9_" gradientUnits="userSpaceOnUse" x1="128.4015" y1="54.7298" x2="116.6179" y2="10.7529">
			<stop  offset="0" style="stop-color:#F4E6B7"/>
			<stop  offset="0.2652" style="stop-color:#8B632C"/>
			<stop  offset="0.3668" style="stop-color:#C49541"/>
			<stop  offset="0.3747" style="stop-color:#CA9E4E"/>
			<stop  offset="0.3974" style="stop-color:#D9B770"/>
			<stop  offset="0.4196" style="stop-color:#E5CB8E"/>
			<stop  offset="0.4412" style="stop-color:#EDDAA4"/>
			<stop  offset="0.4617" style="stop-color:#F3E3B2"/>
			<stop  offset="0.48" style="stop-color:#F4E6B7"/>
			<stop  offset="0.4984" style="stop-color:#EAD49C"/>
			<stop  offset="0.5393" style="stop-color:#D6B168"/>
			<stop  offset="0.5699" style="stop-color:#C99D4B"/>
			<stop  offset="0.5865" style="stop-color:#C49541"/>
			<stop  offset="0.6549" style="stop-color:#996C30"/>
			<stop  offset="0.7649" style="stop-color:#C49541"/>
			<stop  offset="1" style="stop-color:#F4E6B7"/>
		</linearGradient>
		<path class="st8" d="M137.8,35.7l-0.3,0.1l-0.4-2.1l-0.5,1.9l-0.1,0.5l-0.9,0.2c-1.5,5.8-6.8,10.1-13.2,10.1
			c-4.3,0-8.1-2-10.6-5.1l-1.9,0.4l0.2-2.1l-0.3,0l-0.8,2.2l-0.6,0.1c0,0.1,0,0.2,0,0.3c0.2,1.5,1.3,2.7,1.3,2.7s-0.1-0.8,0.3-1.3
			c0.5-0.7,1.3-0.1,1.3-0.1l0,0c0,0.1,0.1,0.1,0.1,0.2c0,0.3,0.1,1.4,0.6,2.5c0.7,1.4,2.1,2.2,2.1,2.2s-0.3-0.7-0.1-1.4
			c0.2-0.8,1.2-0.5,1.2-0.5l0,0c0.1,0,0.1,0.1,0.2,0.1c0.1,0.3,0.6,1.3,1.4,2.2c1.1,1.1,2.6,1.4,2.6,1.4s-0.5-0.6-0.5-1.3
			c0-0.8,1-0.8,1-0.8l0,0c0.1,0,0.1,0,0.2,0c0.2,0.2,0.9,1.1,2,1.6c1.4,0.7,3,0.5,3,0.5s-0.7-0.4-0.9-1c-0.3-0.8,0.7-1.1,0.7-1.1
			l0,0c0.1,0,0.1,0,0.2,0c0.3,0.2,1.2,0.7,2.4,0.9c1.5,0.3,3-0.4,3-0.4s-0.8-0.2-1.2-0.7c-0.5-0.7,0.3-1.2,0.3-1.2l0,0
			c0.1,0,0.1-0.1,0.2-0.1c0.3,0.1,1.4,0.3,2.5,0.2c1.5-0.2,2.7-1.3,2.7-1.3s-0.8,0.1-1.3-0.3c-0.7-0.5-0.1-1.3-0.1-1.3l0,0
			c0.1,0,0.1-0.1,0.2-0.1c0.3,0,1.4-0.1,2.5-0.6c1.4-0.7,2.2-2.1,2.2-2.1s-0.7,0.3-1.4,0.1c-0.8-0.2-0.5-1.2-0.5-1.2l0,0
			c0-0.1,0.1-0.1,0.1-0.2c0.3-0.1,1.3-0.6,2.2-1.4c1.1-1.1,1.4-2.6,1.4-2.6s-0.6,0.5-1.3,0.5C138.1,36.3,137.9,36,137.8,35.7z"/>
		<linearGradient id="SVGID_10_" gradientUnits="userSpaceOnUse" x1="113.391" y1="58.7519" x2="101.6074" y2="14.775">
			<stop  offset="0" style="stop-color:#F4E6B7"/>
			<stop  offset="0.2652" style="stop-color:#8B632C"/>
			<stop  offset="0.3668" style="stop-color:#C49541"/>
			<stop  offset="0.3747" style="stop-color:#CA9E4E"/>
			<stop  offset="0.3974" style="stop-color:#D9B770"/>
			<stop  offset="0.4196" style="stop-color:#E5CB8E"/>
			<stop  offset="0.4412" style="stop-color:#EDDAA4"/>
			<stop  offset="0.4617" style="stop-color:#F3E3B2"/>
			<stop  offset="0.48" style="stop-color:#F4E6B7"/>
			<stop  offset="0.4984" style="stop-color:#EAD49C"/>
			<stop  offset="0.5393" style="stop-color:#D6B168"/>
			<stop  offset="0.5699" style="stop-color:#C99D4B"/>
			<stop  offset="0.5865" style="stop-color:#C49541"/>
			<stop  offset="0.6549" style="stop-color:#996C30"/>
			<stop  offset="0.7649" style="stop-color:#C49541"/>
			<stop  offset="1" style="stop-color:#F4E6B7"/>
		</linearGradient>
		<path class="st9" d="M107.6,33.2l-1.7,6.9c0,0,3-7.1,3-7.2L107.6,33.2z"/>
		<linearGradient id="SVGID_11_" gradientUnits="userSpaceOnUse" x1="116.2805" y1="57.9776" x2="104.4969" y2="14.0007">
			<stop  offset="0" style="stop-color:#F4E6B7"/>
			<stop  offset="0.2652" style="stop-color:#8B632C"/>
			<stop  offset="0.3668" style="stop-color:#C49541"/>
			<stop  offset="0.3747" style="stop-color:#CA9E4E"/>
			<stop  offset="0.3974" style="stop-color:#D9B770"/>
			<stop  offset="0.4196" style="stop-color:#E5CB8E"/>
			<stop  offset="0.4412" style="stop-color:#EDDAA4"/>
			<stop  offset="0.4617" style="stop-color:#F3E3B2"/>
			<stop  offset="0.48" style="stop-color:#F4E6B7"/>
			<stop  offset="0.4984" style="stop-color:#EAD49C"/>
			<stop  offset="0.5393" style="stop-color:#D6B168"/>
			<stop  offset="0.5699" style="stop-color:#C99D4B"/>
			<stop  offset="0.5865" style="stop-color:#C49541"/>
			<stop  offset="0.6549" style="stop-color:#996C30"/>
			<stop  offset="0.7649" style="stop-color:#C49541"/>
			<stop  offset="1" style="stop-color:#F4E6B7"/>
		</linearGradient>
		<path class="st10" d="M109.4,38.9l1.8-0.2l-0.2,2l2.2-0.4l1.3-11.3l-3,0.6l-5.2,12.2l2.5-0.5L109.4,38.9z M111.9,32.2l-0.4,4.4
			l-1.4,0.2L111.9,32.2z"/>
		<linearGradient id="SVGID_12_" gradientUnits="userSpaceOnUse" x1="144.1727" y1="50.5039" x2="132.3891" y2="6.527">
			<stop  offset="0" style="stop-color:#F4E6B7"/>
			<stop  offset="0.2652" style="stop-color:#8B632C"/>
			<stop  offset="0.3668" style="stop-color:#C49541"/>
			<stop  offset="0.3747" style="stop-color:#CA9E4E"/>
			<stop  offset="0.3974" style="stop-color:#D9B770"/>
			<stop  offset="0.4196" style="stop-color:#E5CB8E"/>
			<stop  offset="0.4412" style="stop-color:#EDDAA4"/>
			<stop  offset="0.4617" style="stop-color:#F3E3B2"/>
			<stop  offset="0.48" style="stop-color:#F4E6B7"/>
			<stop  offset="0.4984" style="stop-color:#EAD49C"/>
			<stop  offset="0.5393" style="stop-color:#D6B168"/>
			<stop  offset="0.5699" style="stop-color:#C99D4B"/>
			<stop  offset="0.5865" style="stop-color:#C49541"/>
			<stop  offset="0.6549" style="stop-color:#996C30"/>
			<stop  offset="0.7649" style="stop-color:#C49541"/>
			<stop  offset="1" style="stop-color:#F4E6B7"/>
		</linearGradient>
		<polygon class="st11" points="140.5,23.4 137.9,27.4 138.8,23.7 136.5,24.2 133.7,35.8 136,35.4 136.6,32.8 137.5,31.2 
			138.2,34.9 140.2,34.5 139.3,28.9 143.3,22.8 		"/>
		<linearGradient id="SVGID_13_" gradientUnits="userSpaceOnUse" x1="112.0153" y1="59.1205" x2="100.2317" y2="15.1436">
			<stop  offset="0" style="stop-color:#F4E6B7"/>
			<stop  offset="0.2652" style="stop-color:#8B632C"/>
			<stop  offset="0.3668" style="stop-color:#C49541"/>
			<stop  offset="0.3747" style="stop-color:#CA9E4E"/>
			<stop  offset="0.3974" style="stop-color:#D9B770"/>
			<stop  offset="0.4196" style="stop-color:#E5CB8E"/>
			<stop  offset="0.4412" style="stop-color:#EDDAA4"/>
			<stop  offset="0.4617" style="stop-color:#F3E3B2"/>
			<stop  offset="0.48" style="stop-color:#F4E6B7"/>
			<stop  offset="0.4984" style="stop-color:#EAD49C"/>
			<stop  offset="0.5393" style="stop-color:#D6B168"/>
			<stop  offset="0.5699" style="stop-color:#C99D4B"/>
			<stop  offset="0.5865" style="stop-color:#C49541"/>
			<stop  offset="0.6549" style="stop-color:#996C30"/>
			<stop  offset="0.7649" style="stop-color:#C49541"/>
			<stop  offset="1" style="stop-color:#F4E6B7"/>
		</linearGradient>
		<polygon class="st12" points="108.8,32.1 109.4,29.9 103.6,31.1 103,33.4 104.7,33 102.4,42.4 104.7,41.9 107,32.5 		"/>
	</g>
	<g>
		<linearGradient id="SVGID_14_" gradientUnits="userSpaceOnUse" x1="18.6277" y1="86.5689" x2="18.6277" y2="54.4367">
			<stop  offset="0" style="stop-color:#C4962D"/>
			<stop  offset="7.000000e-02" style="stop-color:#FFD460"/>
			<stop  offset="0.17" style="stop-color:#654632"/>
			<stop  offset="0.2747" style="stop-color:#C49541"/>
			<stop  offset="0.2892" style="stop-color:#CA9E4E"/>
			<stop  offset="0.3302" style="stop-color:#D9B770"/>
			<stop  offset="0.3705" style="stop-color:#E5CB8E"/>
			<stop  offset="0.4096" style="stop-color:#EDDAA4"/>
			<stop  offset="0.4468" style="stop-color:#F3E3B2"/>
			<stop  offset="0.48" style="stop-color:#F4E6B7"/>
			<stop  offset="0.5138" style="stop-color:#EAD49C"/>
			<stop  offset="0.589" style="stop-color:#D6B168"/>
			<stop  offset="0.6453" style="stop-color:#C99D4B"/>
			<stop  offset="0.6758" style="stop-color:#C49541"/>
			<stop  offset="0.81" style="stop-color:#654632"/>
			<stop  offset="1" style="stop-color:#CD992B"/>
		</linearGradient>
		<path class="st13" d="M22.4,86.6v-0.5c0.9-0.1,1.6-0.3,2.2-0.8c0.6-0.5,1-1,1.2-1.7c0.1-0.4,0.2-0.9,0.3-1.5
			c0.1-0.6,0.1-1.2,0.1-1.8c0-2,0.1-3.8,0.1-5.6s0-3.6,0-5.5V56.6c-0.7,2.2-1.3,4.2-1.8,6.1c-0.6,1.8-1.1,3.6-1.7,5.4
			c-0.5,1.8-1.1,3.5-1.7,5.4c-0.6,1.8-1.2,3.8-1.8,6c-0.1,0.3-0.2,0.8-0.4,1.4c-0.2,0.6-0.4,1.3-0.5,2c-0.2,0.7-0.4,1.3-0.5,1.8
			c-0.2,0.6-0.3,0.9-0.3,1.1h-0.2c-0.6-2.2-1.3-4.4-1.9-6.6S14.1,75,13.5,73c-0.6-2-1.2-3.9-1.7-5.6c-0.5-1.8-1-3.3-1.4-4.7
			c-0.4-1.4-0.8-2.5-1-3.4c-0.3-0.9-0.5-1.5-0.6-1.9c0,2,0,3.7,0,5.2c0,1.5,0,3,0,4.5c0,1.5,0,3,0,4.7c0,1.6,0,3.5,0,5.7
			c0,1.4,0,2.6,0.1,3.6c0.1,1,0.2,1.9,0.5,2.6c0.2,0.7,0.6,1.2,1.1,1.7c0.5,0.4,1.2,0.7,2,0.9v0.4H4.5v-0.4c0.7-0.2,1.3-0.5,1.7-0.9
			s0.8-1,1.1-1.7c0.3-0.7,0.5-1.6,0.6-2.7C8,79.8,8,78.5,8,77c0-1.3,0.1-2.8,0.1-4.5c0-1.7,0-3.6,0-5.6c0-0.9,0-1.6,0-2.2
			c0-0.6,0-1.2,0-1.7c0-0.6,0-1.1,0-1.7c0-0.6,0-1.3,0-2.2c0-0.8-0.1-1.5-0.4-2c-0.2-0.5-0.5-0.9-0.8-1.2c-0.3-0.3-0.6-0.5-1-0.6
			c-0.3-0.1-0.6-0.2-0.9-0.3v-0.4h6.5l7.2,24.3c0.9-2.8,1.8-5.6,2.6-8.4c0.8-2.8,1.6-5.3,2.3-7.6c0.7-2.3,1.2-4.1,1.7-5.6
			c0.4-1.5,0.7-2.4,0.7-2.6h6.5v0.4c-0.8,0-1.5,0.3-1.9,0.8c-0.4,0.5-0.7,1-0.9,1.7c-0.1,0.5-0.2,1.3-0.2,2.4c0,1.1-0.1,2.1-0.1,3.2
			c0,1.4,0,2.8,0,4.2s0,2.7,0,4.1c0,1.6,0,3.2,0,4.8c0,1.6,0,3.2,0,5c0,0.6,0,1.1,0.1,1.7c0.1,0.6,0.1,1,0.3,1.4
			c0,0.1,0.1,0.2,0.2,0.4c0.1,0.2,0.3,0.5,0.6,0.7c0.2,0.3,0.5,0.5,0.9,0.7c0.4,0.2,0.8,0.3,1.3,0.3v0.4H22.4z"/>
		<linearGradient id="SVGID_15_" gradientUnits="userSpaceOnUse" x1="45.8169" y1="86.5689" x2="45.8169" y2="54.4367">
			<stop  offset="0" style="stop-color:#C4962D"/>
			<stop  offset="7.000000e-02" style="stop-color:#FFD460"/>
			<stop  offset="0.17" style="stop-color:#654632"/>
			<stop  offset="0.2747" style="stop-color:#C49541"/>
			<stop  offset="0.2892" style="stop-color:#CA9E4E"/>
			<stop  offset="0.3302" style="stop-color:#D9B770"/>
			<stop  offset="0.3705" style="stop-color:#E5CB8E"/>
			<stop  offset="0.4096" style="stop-color:#EDDAA4"/>
			<stop  offset="0.4468" style="stop-color:#F3E3B2"/>
			<stop  offset="0.48" style="stop-color:#F4E6B7"/>
			<stop  offset="0.5138" style="stop-color:#EAD49C"/>
			<stop  offset="0.589" style="stop-color:#D6B168"/>
			<stop  offset="0.6453" style="stop-color:#C99D4B"/>
			<stop  offset="0.6758" style="stop-color:#C49541"/>
			<stop  offset="0.81" style="stop-color:#654632"/>
			<stop  offset="1" style="stop-color:#CD992B"/>
		</linearGradient>
		<path class="st14" d="M41.2,86.6v-0.4c0.5-0.1,1-0.3,1.4-0.6c0.4-0.3,0.8-0.7,1.1-1.2c0.1-0.2,0.2-0.4,0.2-0.8
			c0.1-0.3,0.1-0.7,0.1-1.2c0-0.4,0.1-0.9,0.1-1.4c0-0.5,0-1,0-1.5c0-0.4,0-1,0-1.7c0-0.7,0-1.5,0-2.3c0-0.8,0-1.7,0-2.6
			c0-0.9,0-1.8,0-2.6v-8.7c0-0.5,0-1.1,0-1.6c0-0.5,0-1,0-1.5c0-0.5-0.1-0.9-0.1-1.2c-0.1-0.4-0.2-0.7-0.3-0.9
			c-0.3-0.5-0.6-0.9-1-1.1c-0.4-0.2-0.9-0.4-1.4-0.5v-0.4h9.1v0.4C50,55,49.5,55.1,49,55.4c-0.5,0.2-0.9,0.7-1.1,1.4
			c-0.2,0.5-0.3,1.1-0.3,1.9c0,0.8,0,1.5,0,2.2c0,0.7,0,1.5,0,2.2c0,0.7,0,1.5,0,2.2c0,0.7,0,1.5,0,2.3c0,0.8,0,1.6,0,2.5v10.1
			c0,0.9,0,1.7,0,2.5c0,0.8,0.1,1.4,0.3,1.7c0.2,0.5,0.6,0.9,1.2,1.2s1,0.4,1.4,0.5v0.4H41.2z"/>
		<linearGradient id="SVGID_16_" gradientUnits="userSpaceOnUse" x1="69.4425" y1="86.7478" x2="69.4425" y2="53.7679">
			<stop  offset="0" style="stop-color:#C4962D"/>
			<stop  offset="7.000000e-02" style="stop-color:#FFD460"/>
			<stop  offset="0.17" style="stop-color:#654632"/>
			<stop  offset="0.2747" style="stop-color:#C49541"/>
			<stop  offset="0.2892" style="stop-color:#CA9E4E"/>
			<stop  offset="0.3302" style="stop-color:#D9B770"/>
			<stop  offset="0.3705" style="stop-color:#E5CB8E"/>
			<stop  offset="0.4096" style="stop-color:#EDDAA4"/>
			<stop  offset="0.4468" style="stop-color:#F3E3B2"/>
			<stop  offset="0.48" style="stop-color:#F4E6B7"/>
			<stop  offset="0.5138" style="stop-color:#EAD49C"/>
			<stop  offset="0.589" style="stop-color:#D6B168"/>
			<stop  offset="0.6453" style="stop-color:#C99D4B"/>
			<stop  offset="0.6758" style="stop-color:#C49541"/>
			<stop  offset="0.81" style="stop-color:#654632"/>
			<stop  offset="1" style="stop-color:#CD992B"/>
		</linearGradient>
		<path class="st15" d="M79.7,64.8c-0.3-1.4-0.7-2.8-1.2-4c-0.5-1.2-1.1-2.3-1.9-3.3c-0.7-0.9-1.5-1.7-2.4-2.2
			c-0.9-0.5-1.9-0.8-2.9-0.8c-1.4,0-2.6,0.5-3.7,1.4c-1.1,0.9-2,2.1-2.7,3.7c-0.7,1.5-1.3,3.2-1.7,5.2c-0.4,1.9-0.6,3.9-0.6,5.9
			c0,2.1,0.2,4.2,0.6,6c0.4,1.9,1,3.5,1.8,4.9c0.8,1.4,1.7,2.5,2.8,3.3c1.1,0.8,2.3,1.2,3.6,1.2c1.1,0,2-0.3,3-0.8
			c0.9-0.6,1.7-1.3,2.5-2.2c0.7-0.9,1.3-2,1.8-3.2c0.5-1.2,0.8-2.4,1-3.7H80l-0.1,9.8h-0.4c-0.2-0.5-0.5-1-0.8-1.4
			c-0.3-0.4-0.4-0.6-0.5-0.6c0,0-0.2,0.2-0.5,0.5c-0.3,0.3-0.8,0.7-1.4,1c-0.6,0.4-1.3,0.7-2.2,1c-0.9,0.3-1.9,0.4-3,0.4
			c-1.9,0-3.6-0.4-5.1-1.2c-1.5-0.8-2.8-1.9-3.9-3.3c-1.1-1.4-1.9-3.2-2.4-5.2c-0.6-2-0.8-4.2-0.8-6.6c0-0.5,0-1.1,0.1-1.8
			c0.1-0.7,0.1-1.4,0.3-2.2c0.1-0.8,0.3-1.6,0.5-2.4c0.2-0.8,0.5-1.7,0.9-2.6c0.4-1,1-2,1.6-2.9c0.6-0.9,1.4-1.7,2.2-2.4
			c0.8-0.7,1.8-1.3,2.9-1.7c1.1-0.4,2.3-0.6,3.6-0.6c1.2,0,2.3,0.2,3.2,0.5s1.7,0.7,2.3,1.1c0.6,0.4,1.1,0.7,1.4,1.1
			c0.3,0.3,0.5,0.5,0.5,0.5c0,0,0.1-0.1,0.2-0.2c0.1-0.1,0.2-0.3,0.4-0.5c0.1-0.2,0.3-0.4,0.4-0.7c0.1-0.3,0.3-0.5,0.4-0.8H80v10
			L79.7,64.8z"/>
		<linearGradient id="SVGID_17_" gradientUnits="userSpaceOnUse" x1="101.1509" y1="86.5689" x2="101.1509" y2="54.4367">
			<stop  offset="0" style="stop-color:#C4962D"/>
			<stop  offset="7.000000e-02" style="stop-color:#FFD460"/>
			<stop  offset="0.17" style="stop-color:#654632"/>
			<stop  offset="0.2747" style="stop-color:#C49541"/>
			<stop  offset="0.2892" style="stop-color:#CA9E4E"/>
			<stop  offset="0.3302" style="stop-color:#D9B770"/>
			<stop  offset="0.3705" style="stop-color:#E5CB8E"/>
			<stop  offset="0.4096" style="stop-color:#EDDAA4"/>
			<stop  offset="0.4468" style="stop-color:#F3E3B2"/>
			<stop  offset="0.48" style="stop-color:#F4E6B7"/>
			<stop  offset="0.5138" style="stop-color:#EAD49C"/>
			<stop  offset="0.589" style="stop-color:#D6B168"/>
			<stop  offset="0.6453" style="stop-color:#C99D4B"/>
			<stop  offset="0.6758" style="stop-color:#C49541"/>
			<stop  offset="0.81" style="stop-color:#654632"/>
			<stop  offset="1" style="stop-color:#CD992B"/>
		</linearGradient>
		<path class="st16" d="M104.1,86.6v-0.4c0.7-0.1,1.4-0.3,1.9-0.6c0.5-0.3,0.8-0.7,1-1c0-0.1,0.1-0.3,0.1-0.5c0-0.3,0.1-0.6,0.1-0.9
			c0-0.4,0-0.7,0-1.1c0-0.4,0-0.8,0-1.1c0-1,0-2,0-3c0-1.1,0-2.1,0-3c0-1,0-1.8,0-2.5c0-0.7,0-1.3,0-1.6h-12v9.6c0,0.9,0,1.7,0,2.5
			c0,0.8,0.1,1.4,0.3,1.7c0.2,0.5,0.6,0.9,1,1.2c0.4,0.3,0.9,0.4,1.3,0.5v0.4h-8.9v-0.4c0.5-0.1,1-0.3,1.5-0.6
			c0.5-0.3,0.8-0.6,1.1-1c0.1-0.1,0.1-0.4,0.2-0.7c0-0.3,0.1-0.7,0.1-1.2c0-0.4,0.1-0.9,0.1-1.5c0-0.5,0-1,0-1.5c0-0.4,0-1,0-1.7
			c0-0.7,0-1.5,0-2.3c0-0.8,0-1.7,0-2.6c0-0.9,0-1.8,0-2.6v-8.7c0-0.5,0-1.1,0-1.6c0-0.5,0-1,0-1.5c0-0.5-0.1-0.9-0.1-1.2
			c-0.1-0.4-0.2-0.7-0.3-0.9c-0.3-0.5-0.6-0.9-1-1.1C90,55.1,89.5,55,89,54.9v-0.4h9v0.4c-0.3,0.1-0.6,0.1-0.9,0.3
			c-0.3,0.1-0.6,0.3-0.9,0.6c-0.3,0.3-0.5,0.6-0.7,1c-0.2,0.4-0.3,1-0.3,1.7c0,1,0,2.2,0,3.4c0,1.2,0,2.4,0,3.5c0,1.1,0,2,0,2.9
			c0,0.8,0,1.4,0,1.7h12c0-1,0-1.8,0-2.6c0-0.8,0-1.6,0-2.3c0-0.7,0-1.5,0-2.3c0-0.8,0-1.7,0-2.6c0-0.6,0-1.2-0.1-1.8
			c0-0.6-0.1-1.1-0.3-1.5c-0.4-0.8-0.8-1.3-1.2-1.5c-0.5-0.2-0.9-0.3-1.4-0.3v-0.4h9.1v0.4c-0.5,0.1-1,0.3-1.4,0.6
			c-0.5,0.3-0.8,0.8-1,1.4c-0.1,0.2-0.1,0.5-0.2,0.9c0,0.4-0.1,0.8-0.1,1.2c0,0.5,0,0.9,0,1.4c0,0.5,0,0.9,0,1.4v7.6
			c0,1.1,0,2.1,0,3c0,0.9,0,1.7,0,2.6c0,0.8,0,1.7,0,2.6c0,0.9,0,1.9,0,2.9c0,0.9,0,1.7,0,2.4c0,0.7,0.1,1.2,0.2,1.5
			c0.3,0.6,0.6,1,1.1,1.2c0.4,0.2,0.9,0.4,1.5,0.5v0.4H104.1z"/>
		<linearGradient id="SVGID_18_" gradientUnits="userSpaceOnUse" x1="131.6311" y1="86.5689" x2="131.6311" y2="53.8119">
			<stop  offset="0" style="stop-color:#C4962D"/>
			<stop  offset="7.000000e-02" style="stop-color:#FFD460"/>
			<stop  offset="0.17" style="stop-color:#654632"/>
			<stop  offset="0.2747" style="stop-color:#C49541"/>
			<stop  offset="0.2892" style="stop-color:#CA9E4E"/>
			<stop  offset="0.3302" style="stop-color:#D9B770"/>
			<stop  offset="0.3705" style="stop-color:#E5CB8E"/>
			<stop  offset="0.4096" style="stop-color:#EDDAA4"/>
			<stop  offset="0.4468" style="stop-color:#F3E3B2"/>
			<stop  offset="0.48" style="stop-color:#F4E6B7"/>
			<stop  offset="0.5138" style="stop-color:#EAD49C"/>
			<stop  offset="0.589" style="stop-color:#D6B168"/>
			<stop  offset="0.6453" style="stop-color:#C99D4B"/>
			<stop  offset="0.6758" style="stop-color:#C49541"/>
			<stop  offset="0.81" style="stop-color:#654632"/>
			<stop  offset="1" style="stop-color:#CD992B"/>
		</linearGradient>
		<path class="st17" d="M134.4,86.6v-0.4c0.1,0,0.2,0,0.4-0.1c0.2-0.1,0.5-0.2,0.7-0.3c0.3-0.1,0.5-0.4,0.7-0.6
			c0.2-0.3,0.3-0.6,0.3-1c0-0.3-0.1-0.7-0.2-1.3c-0.1-0.6-0.3-1.4-0.5-2.2c-0.2-0.9-0.4-1.9-0.7-2.9c-0.3-1.1-0.5-2.2-0.8-3.3h-8.1
			c-0.3,1.1-0.6,2.2-0.9,3.2c-0.3,1-0.6,2.1-0.8,3.1c-0.4,1.6-0.6,2.7-0.6,3.4c0,0.4,0.1,0.7,0.2,1c0.2,0.3,0.4,0.5,0.6,0.6
			c0.3,0.2,0.5,0.3,0.8,0.4c0.3,0.1,0.6,0.1,0.8,0.2v0.4H120v-0.5c0.5-0.1,1-0.3,1.3-0.6c0.4-0.3,0.6-0.6,0.7-0.7
			c0.1-0.2,0.4-0.7,0.7-1.5c0.3-0.8,0.7-1.9,1.2-3.4c0.4-1.4,0.9-3,1.4-4.8c0.5-1.8,1.1-3.6,1.6-5.5c0.6-1.9,1.1-3.8,1.7-5.7
			c0.5-1.9,1.1-3.7,1.5-5.4l-0.3-1c0.4-0.2,0.7-0.5,1-0.8c0.3-0.3,0.6-0.7,0.8-1c0.2-0.4,0.4-0.7,0.6-1c0.2-0.3,0.3-0.6,0.3-0.8h0.2
			c0.6,2.5,1.2,4.8,1.8,7c0.6,2.2,1.1,4.4,1.6,6.4c0.5,2.1,1,4,1.5,6c0.5,1.9,1,3.8,1.5,5.7c0.2,0.9,0.4,1.7,0.6,2.3
			c0.2,0.6,0.4,1.3,0.7,2.1c0,0.1,0.1,0.3,0.3,0.6c0.1,0.3,0.3,0.6,0.6,0.9c0.2,0.3,0.5,0.6,0.9,0.8c0.3,0.2,0.7,0.4,1.2,0.4v0.5
			H134.4z M130.4,59.5c-0.1,0.4-0.3,1-0.5,1.8c-0.2,0.8-0.5,1.8-0.9,3c-0.3,1.2-0.7,2.5-1.1,4c-0.4,1.5-0.9,3.1-1.3,4.9h7.6
			c-0.3-1.3-0.7-2.7-1-4c-0.4-1.3-0.7-2.6-1-3.9c-0.3-1.2-0.6-2.4-0.9-3.4C130.9,61,130.6,60.2,130.4,59.5z"/>
		<linearGradient id="SVGID_19_" gradientUnits="userSpaceOnUse" x1="159.699" y1="86.5689" x2="159.699" y2="54.4367">
			<stop  offset="0" style="stop-color:#C4962D"/>
			<stop  offset="7.000000e-02" style="stop-color:#FFD460"/>
			<stop  offset="0.17" style="stop-color:#654632"/>
			<stop  offset="0.2747" style="stop-color:#C49541"/>
			<stop  offset="0.2892" style="stop-color:#CA9E4E"/>
			<stop  offset="0.3302" style="stop-color:#D9B770"/>
			<stop  offset="0.3705" style="stop-color:#E5CB8E"/>
			<stop  offset="0.4096" style="stop-color:#EDDAA4"/>
			<stop  offset="0.4468" style="stop-color:#F3E3B2"/>
			<stop  offset="0.48" style="stop-color:#F4E6B7"/>
			<stop  offset="0.5138" style="stop-color:#EAD49C"/>
			<stop  offset="0.589" style="stop-color:#D6B168"/>
			<stop  offset="0.6453" style="stop-color:#C99D4B"/>
			<stop  offset="0.6758" style="stop-color:#C49541"/>
			<stop  offset="0.81" style="stop-color:#654632"/>
			<stop  offset="1" style="stop-color:#CD992B"/>
		</linearGradient>
		<path class="st18" d="M168.9,86.6h-19.5v-0.4c0.5-0.1,1-0.3,1.5-0.6c0.5-0.3,0.9-0.6,1.2-1.1c0.1-0.2,0.2-0.4,0.3-0.8
			c0.1-0.3,0.1-0.7,0.2-1.2c0-0.4,0.1-0.9,0.1-1.4s0-1,0-1.5c0-0.4,0-1,0-1.7c0-0.7,0-1.5,0-2.3c0-0.8,0-1.7,0-2.6
			c0-0.9,0-1.8,0-2.6v-8.7c0-0.5,0-1.1,0-1.6c0-0.5,0-1,0-1.5c0-0.5-0.1-0.9-0.1-1.2c-0.1-0.4-0.2-0.6-0.3-0.8
			c-0.3-0.5-0.7-0.9-1.1-1.2c-0.5-0.3-1-0.4-1.5-0.5v-0.4h9.7v0.4c-0.3,0.1-0.6,0.1-0.9,0.3c-0.4,0.1-0.7,0.3-1,0.6
			c-0.3,0.3-0.6,0.6-0.8,1.1c-0.2,0.5-0.4,1.1-0.4,1.9c0,1,0,2,0,2.9c0,0.9,0,1.7,0,2.5c0,0.8,0,1.7,0,2.6s0,1.9,0,3
			c0,1,0,1.9,0,2.8c0,0.8,0,1.6,0,2.4c0,0.8,0,1.6,0,2.4c0,0.8,0,1.7,0,2.7c0,1,0,1.9,0.1,2.7c0,0.9,0.1,1.5,0.3,1.9
			c0.1,0.1,0.2,0.3,0.5,0.4c0.2,0.1,0.5,0.3,0.9,0.4c0.3,0.1,0.7,0.2,1.1,0.3c0.4,0.1,0.8,0.1,1.2,0.1c0.2,0,0.4,0,0.8,0
			c0.4,0,0.7,0,1.2-0.1c0.4,0,0.9-0.1,1.3-0.2c0.4-0.1,0.8-0.2,1.2-0.4c0.8-0.3,1.5-0.8,2-1.3s1-1.2,1.4-1.9c0.4-0.7,0.7-1.5,1-2.3
			s0.5-1.7,0.8-2.6l0.3,0.1L168.9,86.6z"/>
		<linearGradient id="SVGID_20_" gradientUnits="userSpaceOnUse" x1="185.3268" y1="86.8818" x2="185.3268" y2="53.9459">
			<stop  offset="0" style="stop-color:#C4962D"/>
			<stop  offset="7.000000e-02" style="stop-color:#FFD460"/>
			<stop  offset="0.17" style="stop-color:#654632"/>
			<stop  offset="0.2747" style="stop-color:#C49541"/>
			<stop  offset="0.2892" style="stop-color:#CA9E4E"/>
			<stop  offset="0.3302" style="stop-color:#D9B770"/>
			<stop  offset="0.3705" style="stop-color:#E5CB8E"/>
			<stop  offset="0.4096" style="stop-color:#EDDAA4"/>
			<stop  offset="0.4468" style="stop-color:#F3E3B2"/>
			<stop  offset="0.48" style="stop-color:#F4E6B7"/>
			<stop  offset="0.5138" style="stop-color:#EAD49C"/>
			<stop  offset="0.589" style="stop-color:#D6B168"/>
			<stop  offset="0.6453" style="stop-color:#C99D4B"/>
			<stop  offset="0.6758" style="stop-color:#C49541"/>
			<stop  offset="0.81" style="stop-color:#654632"/>
			<stop  offset="1" style="stop-color:#CD992B"/>
		</linearGradient>
		<path class="st19" d="M192.2,81.6c-0.4,1.1-0.9,2.1-1.6,2.9c-0.7,0.8-1.5,1.4-2.5,1.8s-2,0.6-3.2,0.6c-1,0-1.8-0.1-2.5-0.3
			c-0.7-0.2-1.3-0.4-1.8-0.6c-0.5-0.3-0.8-0.5-1-0.7c-0.2-0.2-0.4-0.3-0.4-0.3c-0.1,0-0.2,0.2-0.4,0.5c-0.2,0.4-0.4,0.7-0.5,1h-0.3
			l-0.1-8.9h0.3c0.2,0.8,0.4,1.6,0.7,2.3c0.3,0.8,0.6,1.5,0.9,2.1c0.3,0.7,0.7,1.3,1.1,1.8c0.4,0.5,0.7,0.9,1.1,1.2
			c0.3,0.3,0.8,0.5,1.4,0.8c0.6,0.3,1.1,0.4,1.6,0.4c1.5,0,2.7-0.6,3.6-1.8c0.9-1.2,1.4-2.8,1.4-4.9c0-0.8-0.1-1.6-0.3-2.2
			c-0.2-0.6-0.4-1.2-0.7-1.6c-0.3-0.5-0.7-0.9-1.1-1.2c-0.4-0.3-0.9-0.6-1.4-0.9c-0.5-0.3-0.9-0.5-1.3-0.7c-0.4-0.2-0.7-0.3-1-0.5
			c-0.3-0.2-0.6-0.3-1-0.5c-0.3-0.2-0.7-0.4-1.2-0.6c-0.5-0.3-1-0.7-1.5-1.2c-0.5-0.5-0.9-1.1-1.3-1.8c-0.4-0.7-0.7-1.5-0.9-2.3
			c-0.2-0.8-0.3-1.7-0.3-2.7c0-1.6,0.2-3,0.6-4.2c0.4-1.2,0.9-2.1,1.6-2.9c0.7-0.8,1.4-1.3,2.3-1.7c0.9-0.4,1.8-0.6,2.8-0.6
			c0.9,0,1.7,0.1,2.3,0.3c0.6,0.2,1.2,0.5,1.6,0.7s0.7,0.5,0.9,0.7c0.2,0.2,0.3,0.3,0.3,0.3c0.1,0,0.2-0.2,0.4-0.5
			c0.2-0.4,0.4-0.7,0.5-1.1h0.3v8.3h-0.3c-0.2-1-0.6-2-0.9-2.9c-0.4-1-0.8-1.8-1.3-2.6s-1.1-1.4-1.7-1.9c-0.6-0.5-1.4-0.7-2.2-0.7
			c-0.6,0-1.2,0.1-1.8,0.4c-0.6,0.3-1,0.7-1.5,1.2c-0.4,0.5-0.7,1.2-1,2c-0.2,0.8-0.3,1.7-0.3,2.7c0,1.6,0.3,2.8,1,3.8
			c0.6,1,1.5,1.7,2.5,2.3c0.4,0.2,0.8,0.4,1.1,0.6c0.4,0.2,0.7,0.4,1,0.5c0.3,0.2,0.7,0.3,1,0.5s0.7,0.4,1.1,0.6
			c1.4,0.7,2.4,1.8,3.2,3.2c0.8,1.4,1.1,3.2,1.1,5.3C192.8,79.2,192.6,80.5,192.2,81.6z"/>
		<linearGradient id="SVGID_21_" gradientUnits="userSpaceOnUse" x1="213.1989" y1="86.5689" x2="213.1989" y2="54.4367">
			<stop  offset="0" style="stop-color:#C4962D"/>
			<stop  offset="7.000000e-02" style="stop-color:#FFD460"/>
			<stop  offset="0.17" style="stop-color:#654632"/>
			<stop  offset="0.2747" style="stop-color:#C49541"/>
			<stop  offset="0.2892" style="stop-color:#CA9E4E"/>
			<stop  offset="0.3302" style="stop-color:#D9B770"/>
			<stop  offset="0.3705" style="stop-color:#E5CB8E"/>
			<stop  offset="0.4096" style="stop-color:#EDDAA4"/>
			<stop  offset="0.4468" style="stop-color:#F3E3B2"/>
			<stop  offset="0.48" style="stop-color:#F4E6B7"/>
			<stop  offset="0.5138" style="stop-color:#EAD49C"/>
			<stop  offset="0.589" style="stop-color:#D6B168"/>
			<stop  offset="0.6453" style="stop-color:#C99D4B"/>
			<stop  offset="0.6758" style="stop-color:#C49541"/>
			<stop  offset="0.81" style="stop-color:#654632"/>
			<stop  offset="1" style="stop-color:#CD992B"/>
		</linearGradient>
		<path class="st20" d="M217.9,86.6c-0.1-0.1-0.2-0.1-0.3-0.2c-0.1-0.1-0.2-0.3-0.3-0.5c-1.3-2.2-2.5-4.3-3.7-6.3
			c-1.2-2-2.4-4-3.6-6c-0.5-0.9-0.9-1.4-1.1-1.6c-0.2-0.2-0.4-0.3-0.5-0.3c-0.2,0-0.3,0.1-0.3,0.2c-0.1,0.1-0.1,0.3-0.2,0.5
			c0,1.5,0,3,0,4.4c0,1.4,0,2.5,0,3.5c0,0.9,0.1,1.7,0.1,2.4c0.1,0.7,0.2,1.3,0.4,1.7c0.1,0.3,0.3,0.6,0.6,0.8
			c0.2,0.2,0.5,0.4,0.8,0.5c0.3,0.1,0.6,0.2,0.8,0.3c0.3,0.1,0.5,0.1,0.7,0.2v0.4h-9.7v-0.4c0.5-0.1,1-0.3,1.5-0.5
			c0.5-0.2,0.8-0.6,1.1-1c0.1-0.2,0.2-0.4,0.2-0.8c0.1-0.4,0.1-0.8,0.1-1.2c0-0.5,0.1-1,0.1-1.5c0-0.5,0-1,0-1.5c0-0.4,0-1,0-1.7
			c0-0.7,0-1.5,0-2.3c0-0.9,0-1.7,0-2.6c0-0.9,0-1.8,0-2.6v-8.7c0-1.1,0-2.2-0.1-3.1c-0.1-1-0.2-1.6-0.4-2.1c-0.3-0.5-0.6-0.9-1-1.1
			c-0.4-0.2-0.9-0.4-1.4-0.5v-0.4h9.4v0.4c-0.4,0.1-0.8,0.1-1.1,0.2c-0.4,0.1-0.7,0.3-1,0.7c-0.3,0.3-0.5,0.9-0.7,1.5
			c-0.2,0.7-0.3,1.7-0.3,2.9c0,0.7,0,1.3,0,1.9c0,0.6,0,1.3,0,2.1c0,0.8,0,1.7,0,2.8c0,1.1,0,2.4,0,4.1c0.4-0.3,0.9-0.9,1.5-1.7
			c0.6-0.8,1.3-1.7,1.9-2.7c0.7-1,1.3-2,2-3c0.7-1,1.2-1.9,1.7-2.7c0.3-0.6,0.7-1.2,0.9-1.8s0.4-1.2,0.4-1.7c0-0.9-0.2-1.5-0.6-1.9
			c-0.4-0.4-0.9-0.6-1.4-0.8v-0.4h8.1v0.4c-1,0.1-2.1,0.8-3.1,1.9c-1.1,1.1-2.1,2.4-3.2,3.9c-0.4,0.6-0.9,1.2-1.3,1.8
			c-0.4,0.7-0.9,1.3-1.3,2c-0.4,0.7-0.9,1.3-1.3,1.9c-0.4,0.6-0.8,1.2-1.1,1.7c0.2,0.3,0.5,0.9,1.1,1.9c0.6,1,1.3,2.2,2.1,3.5
			c0.8,1.3,1.7,2.8,2.6,4.3c0.9,1.5,1.8,3,2.7,4.4c0.2,0.4,0.4,0.7,0.7,1.1c0.3,0.4,0.5,0.7,0.8,1c0.2,0.3,0.5,0.5,0.6,0.7
			c0.2,0.2,0.3,0.3,0.4,0.4c0.3,0.1,0.6,0.3,1.1,0.4c0.5,0.1,1,0.3,1.5,0.3v0.4H217.9z"/>
		<linearGradient id="SVGID_22_" gradientUnits="userSpaceOnUse" x1="235.642" y1="86.5689" x2="235.642" y2="54.4367">
			<stop  offset="0" style="stop-color:#C4962D"/>
			<stop  offset="7.000000e-02" style="stop-color:#FFD460"/>
			<stop  offset="0.17" style="stop-color:#654632"/>
			<stop  offset="0.2747" style="stop-color:#C49541"/>
			<stop  offset="0.2892" style="stop-color:#CA9E4E"/>
			<stop  offset="0.3302" style="stop-color:#D9B770"/>
			<stop  offset="0.3705" style="stop-color:#E5CB8E"/>
			<stop  offset="0.4096" style="stop-color:#EDDAA4"/>
			<stop  offset="0.4468" style="stop-color:#F3E3B2"/>
			<stop  offset="0.48" style="stop-color:#F4E6B7"/>
			<stop  offset="0.5138" style="stop-color:#EAD49C"/>
			<stop  offset="0.589" style="stop-color:#D6B168"/>
			<stop  offset="0.6453" style="stop-color:#C99D4B"/>
			<stop  offset="0.6758" style="stop-color:#C49541"/>
			<stop  offset="0.81" style="stop-color:#654632"/>
			<stop  offset="1" style="stop-color:#CD992B"/>
		</linearGradient>
		<path class="st21" d="M231,86.6v-0.4c0.5-0.1,1-0.3,1.4-0.6s0.8-0.7,1.1-1.2c0.1-0.2,0.2-0.4,0.2-0.8c0.1-0.3,0.1-0.7,0.1-1.2
			c0-0.4,0.1-0.9,0.1-1.4c0-0.5,0-1,0-1.5c0-0.4,0-1,0-1.7c0-0.7,0-1.5,0-2.3c0-0.8,0-1.7,0-2.6c0-0.9,0-1.8,0-2.6v-8.7
			c0-0.5,0-1.1,0-1.6c0-0.5,0-1,0-1.5c0-0.5-0.1-0.9-0.1-1.2c-0.1-0.4-0.2-0.7-0.3-0.9c-0.3-0.5-0.6-0.9-1-1.1
			c-0.4-0.2-0.9-0.4-1.4-0.5v-0.4h9.1v0.4c-0.4,0.1-0.9,0.3-1.4,0.5c-0.5,0.2-0.9,0.7-1.1,1.4c-0.2,0.5-0.3,1.1-0.3,1.9
			c0,0.8,0,1.5,0,2.2c0,0.7,0,1.5,0,2.2c0,0.7,0,1.5,0,2.2c0,0.7,0,1.5,0,2.3c0,0.8,0,1.6,0,2.5v10.1c0,0.9,0,1.7,0,2.5
			c0,0.8,0.1,1.4,0.3,1.7c0.2,0.5,0.6,0.9,1.2,1.2s1,0.4,1.4,0.5v0.4H231z"/>
	</g>
	<g>
		<path class="st22" d="M25.6,98.9c0-0.2-0.1-0.3-0.2-0.5c-0.1-0.2-0.1-0.3-0.2-0.5c-0.1-0.2-0.1-0.3-0.2-0.4
			c-0.1-0.1-0.1-0.2-0.2-0.3c-0.1-0.2-0.3-0.3-0.4-0.4c-0.1-0.1-0.3-0.1-0.6-0.1c-0.1,0-0.2,0-0.3,0c-0.1,0-0.2,0-0.3,0
			c-0.1,0-0.2,0-0.3,0c-0.1,0-0.2,0-0.3,0c0,0.2,0,0.5,0,0.9c0,0.4,0,0.8,0,1.2s0,0.8,0,1.3c0,0.4,0,0.7,0,1v3c0,0.3,0,0.5,0,0.7
			c0,0.2,0,0.4,0.1,0.5c0.1,0.2,0.2,0.3,0.4,0.4c0.2,0.1,0.3,0.1,0.5,0.2v0.1h-3v-0.1c0.2,0,0.3-0.1,0.5-0.1
			c0.1-0.1,0.3-0.2,0.4-0.4c0,0,0.1-0.1,0.1-0.2c0-0.1,0-0.2,0-0.4c0-0.1,0-0.3,0-0.4c0-0.2,0-0.3,0-0.4c0-0.1,0-0.3,0-0.5
			c0-0.2,0-0.4,0-0.7c0-0.3,0-0.5,0-0.8c0-0.3,0-0.5,0-0.8v-4.5c-0.1,0-0.2,0-0.3,0c-0.1,0-0.2,0-0.3,0c-0.1,0-0.2,0-0.3,0
			c-0.1,0-0.2,0-0.3,0c-0.2,0-0.4,0-0.6,0.1c-0.1,0.1-0.3,0.2-0.4,0.4c0,0.1-0.1,0.2-0.2,0.3c-0.1,0.1-0.1,0.3-0.2,0.4
			C19,98,19,98.2,18.9,98.4c-0.1,0.2-0.1,0.3-0.2,0.5l-0.1,0l0.3-2.6c0.1,0,0.3,0.1,0.4,0.1c0.1,0,0.3,0,0.5,0.1c0.2,0,0.4,0,0.6,0
			c0.2,0,0.4,0,0.5,0c0.2,0,0.3,0,0.5,0c0.2,0,0.4,0,0.6,0c0.2,0,0.4,0,0.6,0c0.2,0,0.4,0,0.5,0c0.2,0,0.3,0,0.5,0
			c0.2,0,0.4,0,0.6,0c0.2,0,0.4,0,0.5-0.1c0.1,0,0.3-0.1,0.4-0.2L25.6,98.9L25.6,98.9z"/>
		<path class="st22" d="M32.4,106v-0.1c0.2,0,0.4-0.1,0.6-0.2c0.2-0.1,0.3-0.2,0.3-0.3c0,0,0-0.1,0-0.2c0-0.1,0-0.2,0-0.3
			c0-0.1,0-0.2,0-0.3c0-0.1,0-0.2,0-0.3c0-0.3,0-0.6,0-0.9c0-0.3,0-0.6,0-0.9c0-0.3,0-0.5,0-0.8c0-0.2,0-0.4,0-0.5h-3.6v2.9
			c0,0.3,0,0.5,0,0.8c0,0.2,0,0.4,0.1,0.5c0.1,0.2,0.2,0.3,0.3,0.4c0.1,0.1,0.3,0.1,0.4,0.1v0.1h-2.7v-0.1c0.2,0,0.3-0.1,0.4-0.2
			c0.1-0.1,0.2-0.2,0.3-0.3c0,0,0-0.1,0.1-0.2c0-0.1,0-0.2,0-0.4c0-0.1,0-0.3,0-0.4c0-0.2,0-0.3,0-0.5c0-0.1,0-0.3,0-0.5
			c0-0.2,0-0.5,0-0.7c0-0.3,0-0.5,0-0.8c0-0.3,0-0.5,0-0.8v-2.6c0-0.2,0-0.3,0-0.5c0-0.2,0-0.3,0-0.5c0-0.1,0-0.3,0-0.4
			c0-0.1,0-0.2-0.1-0.3c-0.1-0.2-0.2-0.3-0.3-0.3c-0.1-0.1-0.3-0.1-0.4-0.1v-0.1h2.7v0.1c-0.1,0-0.2,0-0.3,0.1
			c-0.1,0-0.2,0.1-0.3,0.2c-0.1,0.1-0.1,0.2-0.2,0.3c-0.1,0.1-0.1,0.3-0.1,0.5c0,0.3,0,0.7,0,1c0,0.4,0,0.7,0,1c0,0.3,0,0.6,0,0.9
			c0,0.2,0,0.4,0,0.5h3.6c0-0.3,0-0.5,0-0.8c0-0.2,0-0.5,0-0.7c0-0.2,0-0.5,0-0.7c0-0.2,0-0.5,0-0.8c0-0.2,0-0.3,0-0.5
			c0-0.2,0-0.3-0.1-0.5c-0.1-0.2-0.2-0.4-0.4-0.5c-0.1-0.1-0.3-0.1-0.4-0.1v-0.1h2.8v0.1c-0.1,0-0.3,0.1-0.4,0.2
			c-0.1,0.1-0.2,0.2-0.3,0.4c0,0.1,0,0.2-0.1,0.3c0,0.1,0,0.2,0,0.4c0,0.1,0,0.3,0,0.4c0,0.1,0,0.3,0,0.4v2.3c0,0.3,0,0.6,0,0.9
			c0,0.3,0,0.5,0,0.8c0,0.3,0,0.5,0,0.8c0,0.3,0,0.6,0,0.9c0,0.3,0,0.5,0,0.7c0,0.2,0,0.4,0.1,0.5c0.1,0.2,0.2,0.3,0.3,0.4
			c0.1,0.1,0.3,0.1,0.4,0.1v0.1H32.4z"/>
		<path class="st22" d="M43.5,106h-5.6v-0.1c0.2,0,0.3-0.1,0.4-0.2c0.1-0.1,0.2-0.2,0.3-0.3c0-0.1,0.1-0.1,0.1-0.2
			c0-0.1,0-0.2,0.1-0.4c0-0.1,0-0.3,0-0.4c0-0.1,0-0.3,0-0.4c0-0.1,0-0.3,0-0.5c0-0.2,0-0.5,0-0.7c0-0.3,0-0.5,0-0.8
			c0-0.3,0-0.5,0-0.8v-2.6c0-0.2,0-0.3,0-0.5c0-0.2,0-0.3,0-0.5c0-0.2,0-0.3,0-0.4c0-0.1-0.1-0.2-0.1-0.3c-0.1-0.1-0.2-0.2-0.3-0.3
			s-0.2-0.1-0.4-0.1v-0.1H43l0.6,2.2l-0.1,0.1c-0.5-0.9-1-1.5-1.4-1.8c-0.1-0.1-0.3-0.1-0.6-0.2c-0.3-0.1-0.6-0.1-1-0.1
			c-0.1,0-0.3,0-0.4,0c-0.1,0-0.2,0-0.3,0c0,0.1,0,0.4,0,0.9c0,0.5,0,1,0,1.6c0,0.3,0,0.6,0,0.9c0,0.2,0,0.4,0,0.6
			c0,0.1,0,0.3,0,0.3c0,0.1,0,0.1,0,0.1c0,0,0.1,0,0.2,0c0.1,0,0.2,0,0.3,0c0.1,0,0.2,0,0.4,0c0.1,0,0.2,0,0.3-0.1
			c0.2-0.1,0.3-0.1,0.5-0.3c0.1-0.1,0.2-0.2,0.3-0.4c0.1-0.2,0.1-0.3,0.2-0.5c0-0.2,0.1-0.4,0.1-0.7h0.1v4.3H42
			c0-0.3-0.1-0.6-0.2-0.9c-0.1-0.3-0.2-0.5-0.3-0.7c-0.1-0.1-0.2-0.2-0.4-0.3c-0.1-0.1-0.3-0.1-0.5-0.1c-0.1,0-0.2,0-0.2,0
			c-0.1,0-0.1,0-0.2,0c-0.1,0-0.1,0-0.2,0c-0.1,0-0.1,0-0.2,0c0,0.1,0,0.3,0,0.6c0,0.2,0,0.5,0,0.8c0,0.1,0,0.3,0,0.4
			c0,0.2,0,0.3,0,0.5c0,0.1,0,0.3,0,0.4c0,0.1,0,0.2,0,0.3c0,0.3,0,0.6,0,0.8c0,0.3,0.1,0.4,0.1,0.6c0.1,0.1,0.2,0.2,0.4,0.3
			c0.2,0.1,0.4,0.1,0.7,0.1c0.1,0,0.2,0,0.4,0c0.2,0,0.3,0,0.5-0.1c0.2,0,0.4-0.1,0.5-0.2c0.2-0.1,0.3-0.2,0.5-0.4
			c0.2-0.2,0.3-0.4,0.4-0.7c0.1-0.3,0.3-0.6,0.4-1l0.1,0L43.5,106z"/>
		<path class="st22" d="M55.2,106v-0.1c0.3,0,0.5-0.1,0.7-0.2c0.2-0.1,0.3-0.3,0.4-0.5c0-0.1,0.1-0.3,0.1-0.4c0-0.2,0-0.4,0-0.5
			c0-0.6,0-1.2,0-1.7c0-0.5,0-1.1,0-1.7V97c-0.2,0.7-0.4,1.3-0.6,1.8c-0.2,0.6-0.3,1.1-0.5,1.6c-0.2,0.5-0.3,1.1-0.5,1.6
			c-0.2,0.6-0.4,1.2-0.6,1.8c0,0.1-0.1,0.2-0.1,0.4c-0.1,0.2-0.1,0.4-0.2,0.6c-0.1,0.2-0.1,0.4-0.2,0.6c0,0.2-0.1,0.3-0.1,0.3h-0.1
			c-0.2-0.7-0.4-1.3-0.6-2c-0.2-0.7-0.4-1.3-0.6-1.9c-0.2-0.6-0.4-1.2-0.5-1.7c-0.2-0.5-0.3-1-0.4-1.4c-0.1-0.4-0.2-0.8-0.3-1
			c-0.1-0.3-0.1-0.5-0.2-0.6c0,0.6,0,1.1,0,1.6c0,0.5,0,0.9,0,1.4c0,0.4,0,0.9,0,1.4c0,0.5,0,1.1,0,1.7c0,0.4,0,0.8,0,1.1
			c0,0.3,0.1,0.6,0.1,0.8c0.1,0.2,0.2,0.4,0.3,0.5c0.1,0.1,0.4,0.2,0.6,0.3v0.1h-2.4v-0.1c0.2-0.1,0.4-0.2,0.5-0.3
			c0.1-0.1,0.2-0.3,0.3-0.5c0.1-0.2,0.1-0.5,0.2-0.8c0-0.3,0.1-0.7,0.1-1.2c0-0.4,0-0.8,0-1.4c0-0.5,0-1.1,0-1.7c0-0.3,0-0.5,0-0.7
			c0-0.2,0-0.4,0-0.5c0-0.2,0-0.3,0-0.5s0-0.4,0-0.7c0-0.3,0-0.5-0.1-0.6c-0.1-0.2-0.1-0.3-0.2-0.4c-0.1-0.1-0.2-0.2-0.3-0.2
			c-0.1,0-0.2-0.1-0.3-0.1v-0.1h2l2.2,7.3c0.3-0.9,0.5-1.7,0.8-2.6c0.3-0.8,0.5-1.6,0.7-2.3c0.2-0.7,0.4-1.3,0.5-1.7
			c0.1-0.5,0.2-0.7,0.2-0.8h2v0.1c-0.3,0-0.4,0.1-0.6,0.2c-0.1,0.1-0.2,0.3-0.3,0.5c0,0.2-0.1,0.4-0.1,0.7c0,0.3,0,0.6,0,1
			c0,0.4,0,0.9,0,1.3c0,0.4,0,0.8,0,1.2c0,0.5,0,1,0,1.5c0,0.5,0,1,0,1.5c0,0.2,0,0.3,0,0.5c0,0.2,0,0.3,0.1,0.4c0,0,0,0.1,0.1,0.1
			c0,0.1,0.1,0.1,0.2,0.2c0.1,0.1,0.2,0.1,0.3,0.2c0.1,0.1,0.2,0.1,0.4,0.1v0.1H55.2z"/>
		<path class="st22" d="M66.3,96.6c-0.1,0.1-0.2,0.2-0.3,0.4c-0.1,0.1-0.2,0.3-0.3,0.5c-0.1,0.2-0.2,0.4-0.3,0.7
			c-0.1,0.2-0.2,0.4-0.3,0.7c-0.1,0.3-0.3,0.6-0.4,0.9c-0.1,0.3-0.3,0.6-0.4,0.9c-0.1,0.3-0.2,0.5-0.3,0.7v2.7c0,0.3,0,0.5,0,0.8
			c0,0.2,0,0.4,0.1,0.5c0.1,0.2,0.2,0.3,0.4,0.4c0.1,0.1,0.3,0.1,0.4,0.1v0.1H62v-0.1c0.2,0,0.3-0.1,0.4-0.1
			c0.1-0.1,0.2-0.2,0.4-0.4c0,0,0.1-0.1,0.1-0.2c0-0.1,0-0.2,0-0.4c0-0.1,0-0.3,0-0.4c0-0.2,0-0.3,0-0.4c0-0.3,0-0.6,0-0.9
			c0-0.3,0-0.8,0-1.3c0,0,0-0.1-0.1-0.3c-0.1-0.1-0.1-0.3-0.2-0.5c-0.1-0.2-0.2-0.4-0.3-0.7c-0.1-0.3-0.2-0.5-0.3-0.8
			c-0.1-0.2-0.2-0.5-0.3-0.7s-0.2-0.4-0.2-0.5c-0.1-0.3-0.2-0.5-0.3-0.7c-0.1-0.2-0.2-0.4-0.3-0.6s-0.2-0.3-0.3-0.4
			c-0.1-0.1-0.2-0.1-0.3-0.1v-0.1h2.8v0.1c-0.1,0-0.2,0-0.3,0c-0.1,0-0.2,0-0.3,0.1c-0.1,0-0.1,0.1-0.2,0.2c0,0.1-0.1,0.2-0.1,0.3
			s0,0.3,0.1,0.5c0.1,0.2,0.2,0.5,0.3,0.7c0.1,0.2,0.1,0.4,0.2,0.6c0.1,0.2,0.2,0.5,0.3,0.7c0.1,0.3,0.2,0.5,0.3,0.8
			c0.1,0.3,0.2,0.5,0.3,0.8c0.1-0.2,0.2-0.4,0.3-0.7c0.1-0.3,0.2-0.5,0.4-0.8c0.1-0.3,0.2-0.5,0.3-0.8c0.1-0.3,0.2-0.5,0.2-0.6
			c0-0.1,0.1-0.2,0.1-0.2c0-0.1,0.1-0.2,0.1-0.3c0-0.1,0.1-0.2,0.1-0.3c0-0.1,0-0.2,0-0.3c0-0.1,0-0.3-0.1-0.3
			c0-0.1-0.1-0.1-0.2-0.2s-0.2-0.1-0.3-0.1c-0.1,0-0.2,0-0.3-0.1v-0.1h2.1v0.1C66.6,96.5,66.5,96.6,66.3,96.6z"/>
		<path class="st22" d="M73.3,104.5c-0.1,0.3-0.3,0.6-0.5,0.9c-0.2,0.2-0.5,0.4-0.8,0.5c-0.3,0.1-0.6,0.2-1,0.2
			c-0.3,0-0.6,0-0.8-0.1c-0.2-0.1-0.4-0.1-0.5-0.2c-0.1-0.1-0.2-0.1-0.3-0.2s-0.1-0.1-0.1-0.1s-0.1,0.1-0.1,0.2
			c-0.1,0.1-0.1,0.2-0.2,0.3h-0.1l0-2.7H69c0.1,0.2,0.1,0.5,0.2,0.7c0.1,0.2,0.2,0.4,0.3,0.6c0.1,0.2,0.2,0.4,0.3,0.5
			c0.1,0.2,0.2,0.3,0.3,0.4c0.1,0.1,0.2,0.2,0.4,0.2s0.3,0.1,0.5,0.1c0.5,0,0.8-0.2,1.1-0.5c0.3-0.4,0.4-0.9,0.4-1.5
			c0-0.3,0-0.5-0.1-0.7s-0.1-0.4-0.2-0.5c-0.1-0.1-0.2-0.3-0.3-0.4c-0.1-0.1-0.3-0.2-0.4-0.3c-0.1-0.1-0.3-0.1-0.4-0.2
			c-0.1-0.1-0.2-0.1-0.3-0.2c-0.1,0-0.2-0.1-0.3-0.1c-0.1,0-0.2-0.1-0.4-0.2c-0.2-0.1-0.3-0.2-0.5-0.4c-0.1-0.2-0.3-0.3-0.4-0.6
			c-0.1-0.2-0.2-0.4-0.3-0.7c-0.1-0.3-0.1-0.5-0.1-0.8c0-0.5,0.1-0.9,0.2-1.3c0.1-0.4,0.3-0.6,0.5-0.9c0.2-0.2,0.4-0.4,0.7-0.5
			c0.3-0.1,0.5-0.2,0.8-0.2c0.3,0,0.5,0,0.7,0.1s0.4,0.1,0.5,0.2c0.1,0.1,0.2,0.2,0.3,0.2c0.1,0.1,0.1,0.1,0.1,0.1
			c0,0,0.1-0.1,0.1-0.2c0.1-0.1,0.1-0.2,0.2-0.3h0.1v2.5H73c-0.1-0.3-0.2-0.6-0.3-0.9s-0.3-0.6-0.4-0.8c-0.2-0.2-0.3-0.4-0.5-0.6
			c-0.2-0.1-0.4-0.2-0.7-0.2c-0.2,0-0.4,0-0.5,0.1s-0.3,0.2-0.4,0.4c-0.1,0.2-0.2,0.4-0.3,0.6c-0.1,0.2-0.1,0.5-0.1,0.8
			c0,0.5,0.1,0.9,0.3,1.1c0.2,0.3,0.4,0.5,0.8,0.7c0.1,0.1,0.2,0.1,0.3,0.2c0.1,0.1,0.2,0.1,0.3,0.2c0.1,0,0.2,0.1,0.3,0.2
			c0.1,0.1,0.2,0.1,0.3,0.2c0.4,0.2,0.7,0.6,1,1c0.2,0.4,0.3,1,0.3,1.6C73.4,103.8,73.4,104.2,73.3,104.5z"/>
		<path class="st22" d="M82.5,98.9c0-0.2-0.1-0.3-0.2-0.5c-0.1-0.2-0.1-0.3-0.2-0.5c-0.1-0.2-0.1-0.3-0.2-0.4
			c-0.1-0.1-0.1-0.2-0.2-0.3c-0.1-0.2-0.3-0.3-0.4-0.4c-0.1-0.1-0.3-0.1-0.6-0.1c-0.1,0-0.2,0-0.3,0c-0.1,0-0.2,0-0.3,0
			c-0.1,0-0.2,0-0.3,0c-0.1,0-0.2,0-0.3,0c0,0.2,0,0.5,0,0.9c0,0.4,0,0.8,0,1.2s0,0.8,0,1.3c0,0.4,0,0.7,0,1v3c0,0.3,0,0.5,0,0.7
			c0,0.2,0,0.4,0.1,0.5c0.1,0.2,0.2,0.3,0.4,0.4c0.2,0.1,0.3,0.1,0.5,0.2v0.1h-3v-0.1c0.2,0,0.3-0.1,0.5-0.1
			c0.1-0.1,0.3-0.2,0.4-0.4c0,0,0.1-0.1,0.1-0.2c0-0.1,0-0.2,0-0.4s0-0.3,0-0.4c0-0.2,0-0.3,0-0.4c0-0.1,0-0.3,0-0.5
			c0-0.2,0-0.4,0-0.7c0-0.3,0-0.5,0-0.8c0-0.3,0-0.5,0-0.8v-4.5c-0.1,0-0.2,0-0.3,0c-0.1,0-0.2,0-0.3,0c-0.1,0-0.2,0-0.3,0
			c-0.1,0-0.2,0-0.3,0c-0.2,0-0.4,0-0.6,0.1s-0.3,0.2-0.4,0.4c0,0.1-0.1,0.2-0.2,0.3c-0.1,0.1-0.1,0.3-0.2,0.4
			c-0.1,0.1-0.1,0.3-0.2,0.5c-0.1,0.2-0.1,0.3-0.2,0.5l-0.1,0l0.3-2.6c0.1,0,0.3,0.1,0.4,0.1c0.1,0,0.3,0,0.5,0.1c0.2,0,0.4,0,0.6,0
			c0.2,0,0.4,0,0.5,0s0.3,0,0.5,0c0.2,0,0.4,0,0.6,0c0.2,0,0.4,0,0.6,0c0.2,0,0.4,0,0.5,0c0.2,0,0.3,0,0.5,0c0.2,0,0.4,0,0.6,0
			c0.2,0,0.4,0,0.5-0.1c0.1,0,0.3-0.1,0.4-0.2L82.5,98.9L82.5,98.9z"/>
		<path class="st22" d="M90.3,106h-5.6v-0.1c0.2,0,0.3-0.1,0.4-0.2c0.1-0.1,0.2-0.2,0.3-0.3c0-0.1,0.1-0.1,0.1-0.2
			c0-0.1,0-0.2,0.1-0.4c0-0.1,0-0.3,0-0.4c0-0.1,0-0.3,0-0.4c0-0.1,0-0.3,0-0.5c0-0.2,0-0.5,0-0.7c0-0.3,0-0.5,0-0.8
			c0-0.3,0-0.5,0-0.8v-2.6c0-0.2,0-0.3,0-0.5c0-0.2,0-0.3,0-0.5c0-0.2,0-0.3,0-0.4c0-0.1-0.1-0.2-0.1-0.3c-0.1-0.1-0.2-0.2-0.3-0.3
			c-0.1,0-0.2-0.1-0.4-0.1v-0.1h5.1l0.6,2.2l-0.1,0.1c-0.5-0.9-1-1.5-1.4-1.8c-0.1-0.1-0.3-0.1-0.6-0.2c-0.3-0.1-0.6-0.1-1-0.1
			c-0.1,0-0.3,0-0.4,0c-0.1,0-0.2,0-0.3,0c0,0.1,0,0.4,0,0.9c0,0.5,0,1,0,1.6c0,0.3,0,0.6,0,0.9c0,0.2,0,0.4,0,0.6
			c0,0.1,0,0.3,0,0.3c0,0.1,0,0.1,0,0.1c0,0,0.1,0,0.2,0c0.1,0,0.2,0,0.3,0c0.1,0,0.2,0,0.4,0c0.1,0,0.2,0,0.3-0.1
			c0.2-0.1,0.3-0.1,0.5-0.3c0.1-0.1,0.2-0.2,0.3-0.4c0.1-0.2,0.1-0.3,0.2-0.5c0-0.2,0.1-0.4,0.1-0.7h0.1v4.3h-0.1
			c0-0.3-0.1-0.6-0.2-0.9c-0.1-0.3-0.2-0.5-0.3-0.7c-0.1-0.1-0.2-0.2-0.4-0.3c-0.1-0.1-0.3-0.1-0.5-0.1c-0.1,0-0.2,0-0.2,0
			c-0.1,0-0.1,0-0.2,0c-0.1,0-0.1,0-0.2,0c-0.1,0-0.1,0-0.2,0c0,0.1,0,0.3,0,0.6c0,0.2,0,0.5,0,0.8c0,0.1,0,0.3,0,0.4
			c0,0.2,0,0.3,0,0.5c0,0.1,0,0.3,0,0.4c0,0.1,0,0.2,0,0.3c0,0.3,0,0.6,0,0.8c0,0.3,0.1,0.4,0.1,0.6c0.1,0.1,0.2,0.2,0.4,0.3
			c0.2,0.1,0.4,0.1,0.7,0.1c0.1,0,0.2,0,0.4,0c0.2,0,0.3,0,0.5-0.1c0.2,0,0.4-0.1,0.5-0.2c0.2-0.1,0.3-0.2,0.5-0.4
			c0.2-0.2,0.3-0.4,0.4-0.7c0.1-0.3,0.3-0.6,0.4-1l0.1,0L90.3,106z"/>
		<path class="st22" d="M98.1,106c-0.1-0.1-0.1-0.1-0.1-0.2c0,0-0.1-0.1-0.1-0.1c0-0.1-0.1-0.1-0.1-0.2c0-0.1-0.1-0.3-0.2-0.5
			c-0.1-0.3-0.2-0.5-0.3-0.7c-0.1-0.2-0.2-0.4-0.3-0.6c-0.1-0.2-0.2-0.4-0.3-0.6c-0.1-0.2-0.2-0.4-0.4-0.7c-0.1-0.2-0.3-0.4-0.4-0.6
			c-0.1-0.2-0.3-0.3-0.5-0.3c-0.1,0-0.2-0.1-0.3-0.1c-0.1,0-0.1,0-0.2,0c0,0.6,0,1.1,0,1.5c0,0.4,0,0.8,0,1.1c0,0.3,0,0.5,0,0.7
			c0,0.2,0,0.4,0.1,0.5c0,0.1,0.1,0.2,0.3,0.4c0.1,0.1,0.3,0.2,0.6,0.2v0.1H93v-0.1c0.2,0,0.3-0.1,0.4-0.2c0.1-0.1,0.3-0.2,0.3-0.3
			c0-0.1,0.1-0.1,0.1-0.2c0-0.1,0-0.2,0-0.4c0-0.1,0-0.3,0-0.4c0-0.2,0-0.3,0-0.4c0-0.1,0-0.3,0-0.5c0-0.2,0-0.5,0-0.7
			c0-0.3,0-0.5,0-0.8c0-0.3,0-0.5,0-0.8v-2.6c0-0.2,0-0.3,0-0.5c0-0.2,0-0.3,0-0.5c0-0.1,0-0.3,0-0.4c0-0.1-0.1-0.2-0.1-0.3
			c-0.1-0.1-0.2-0.2-0.3-0.3c-0.1,0-0.3-0.1-0.4-0.1v-0.1c0,0,0.2,0,0.4,0c0.2,0,0.4,0,0.7,0c0.3,0,0.5,0,0.8,0c0.3,0,0.5,0,0.6,0
			c0.4,0,0.8,0,1.1,0.1c0.3,0,0.6,0.2,0.9,0.4c0.3,0.2,0.5,0.5,0.7,0.8c0.2,0.4,0.2,0.8,0.2,1.3c0,0.3,0,0.6-0.1,0.9
			c-0.1,0.3-0.2,0.5-0.3,0.7c-0.1,0.2-0.3,0.4-0.5,0.5s-0.4,0.3-0.6,0.4v0c0.1,0.1,0.2,0.2,0.3,0.4c0.1,0.2,0.2,0.3,0.3,0.5
			c0.2,0.3,0.3,0.7,0.5,1.1c0.2,0.4,0.4,0.7,0.5,1.1c0.2,0.5,0.4,0.8,0.7,1c0.2,0.2,0.5,0.4,0.8,0.4v0.1H98.1z M97.2,97.6
			c-0.2-0.4-0.4-0.6-0.7-0.8c-0.1-0.1-0.3-0.2-0.5-0.2c-0.2,0-0.3-0.1-0.5-0.1c-0.1,0-0.2,0-0.3,0c-0.1,0-0.1,0-0.2,0
			c0,0.1,0,0.1,0,0.1s0,0.1,0,0.2c0,0.1,0,0.2,0,0.3c0,0.1,0,0.3,0,0.5c0,0.3,0,0.7,0,1.1c0,0.4,0,0.8,0,1.1c0,0.4,0,0.7,0,1
			c0,0.3,0,0.4,0,0.5c0.3,0,0.5,0,0.7,0c0.2,0,0.4-0.1,0.6-0.2c0.2-0.1,0.4-0.2,0.5-0.4c0.1-0.2,0.3-0.3,0.3-0.5
			c0.1-0.2,0.2-0.4,0.2-0.6c0-0.2,0.1-0.5,0.1-0.7C97.4,98.4,97.3,98,97.2,97.6z"/>
		<path class="st22" d="M107.3,96.6c-0.1,0.1-0.2,0.2-0.3,0.4c-0.1,0.1-0.2,0.3-0.3,0.5c-0.1,0.2-0.2,0.4-0.3,0.7
			c-0.1,0.2-0.2,0.4-0.3,0.7c-0.1,0.3-0.3,0.6-0.4,0.9c-0.1,0.3-0.3,0.6-0.4,0.9c-0.1,0.3-0.2,0.5-0.3,0.7v2.7c0,0.3,0,0.5,0,0.8
			c0,0.2,0,0.4,0.1,0.5c0.1,0.2,0.2,0.3,0.4,0.4c0.1,0.1,0.3,0.1,0.4,0.1v0.1H103v-0.1c0.2,0,0.3-0.1,0.4-0.1
			c0.1-0.1,0.2-0.2,0.4-0.4c0,0,0.1-0.1,0.1-0.2c0-0.1,0-0.2,0-0.4c0-0.1,0-0.3,0-0.4c0-0.2,0-0.3,0-0.4c0-0.3,0-0.6,0-0.9
			c0-0.3,0-0.8,0-1.3c0,0,0-0.1-0.1-0.3c-0.1-0.1-0.1-0.3-0.2-0.5c-0.1-0.2-0.2-0.4-0.3-0.7c-0.1-0.3-0.2-0.5-0.3-0.8
			c-0.1-0.2-0.2-0.5-0.3-0.7c-0.1-0.2-0.2-0.4-0.2-0.5c-0.1-0.3-0.2-0.5-0.3-0.7c-0.1-0.2-0.2-0.4-0.3-0.6c-0.1-0.2-0.2-0.3-0.3-0.4
			c-0.1-0.1-0.2-0.1-0.3-0.1v-0.1h2.8v0.1c-0.1,0-0.2,0-0.3,0c-0.1,0-0.2,0-0.3,0.1s-0.1,0.1-0.2,0.2c0,0.1-0.1,0.2-0.1,0.3
			s0,0.3,0.1,0.5c0.1,0.2,0.2,0.5,0.3,0.7c0.1,0.2,0.1,0.4,0.2,0.6c0.1,0.2,0.2,0.5,0.3,0.7c0.1,0.3,0.2,0.5,0.3,0.8
			c0.1,0.3,0.2,0.5,0.3,0.8c0.1-0.2,0.2-0.4,0.3-0.7c0.1-0.3,0.2-0.5,0.4-0.8c0.1-0.3,0.2-0.5,0.3-0.8c0.1-0.3,0.2-0.5,0.2-0.6
			c0-0.1,0.1-0.2,0.1-0.2c0-0.1,0.1-0.2,0.1-0.3c0-0.1,0.1-0.2,0.1-0.3c0-0.1,0-0.2,0-0.3c0-0.1,0-0.3-0.1-0.3
			c0-0.1-0.1-0.1-0.2-0.2s-0.2-0.1-0.3-0.1c-0.1,0-0.2,0-0.3-0.1v-0.1h2.1v0.1C107.6,96.5,107.4,96.6,107.3,96.6z"/>
		<path class="st22" d="M118,106v-0.1c0.2,0,0.4-0.1,0.6-0.2c0.2-0.1,0.3-0.2,0.3-0.3c0,0,0-0.1,0-0.2c0-0.1,0-0.2,0-0.3
			c0-0.1,0-0.2,0-0.3c0-0.1,0-0.2,0-0.3c0-0.3,0-0.6,0-0.9c0-0.3,0-0.6,0-0.9c0-0.3,0-0.5,0-0.8c0-0.2,0-0.4,0-0.5h-3.6v2.9
			c0,0.3,0,0.5,0,0.8s0,0.4,0.1,0.5c0.1,0.2,0.2,0.3,0.3,0.4c0.1,0.1,0.3,0.1,0.4,0.1v0.1h-2.7v-0.1c0.2,0,0.3-0.1,0.4-0.2
			c0.1-0.1,0.2-0.2,0.3-0.3c0,0,0-0.1,0.1-0.2c0-0.1,0-0.2,0-0.4c0-0.1,0-0.3,0-0.4s0-0.3,0-0.5c0-0.1,0-0.3,0-0.5
			c0-0.2,0-0.5,0-0.7c0-0.3,0-0.5,0-0.8c0-0.3,0-0.5,0-0.8v-2.6c0-0.2,0-0.3,0-0.5c0-0.2,0-0.3,0-0.5c0-0.1,0-0.3,0-0.4
			c0-0.1,0-0.2-0.1-0.3c-0.1-0.2-0.2-0.3-0.3-0.3c-0.1-0.1-0.3-0.1-0.4-0.1v-0.1h2.7v0.1c-0.1,0-0.2,0-0.3,0.1
			c-0.1,0-0.2,0.1-0.3,0.2c-0.1,0.1-0.1,0.2-0.2,0.3c-0.1,0.1-0.1,0.3-0.1,0.5c0,0.3,0,0.7,0,1c0,0.4,0,0.7,0,1c0,0.3,0,0.6,0,0.9
			c0,0.2,0,0.4,0,0.5h3.6c0-0.3,0-0.5,0-0.8c0-0.2,0-0.5,0-0.7c0-0.2,0-0.5,0-0.7c0-0.2,0-0.5,0-0.8c0-0.2,0-0.3,0-0.5
			c0-0.2,0-0.3-0.1-0.5c-0.1-0.2-0.2-0.4-0.4-0.5c-0.1-0.1-0.3-0.1-0.4-0.1v-0.1h2.8v0.1c-0.1,0-0.3,0.1-0.4,0.2
			c-0.1,0.1-0.2,0.2-0.3,0.4c0,0.1,0,0.2-0.1,0.3c0,0.1,0,0.2,0,0.4c0,0.1,0,0.3,0,0.4c0,0.1,0,0.3,0,0.4v2.3c0,0.3,0,0.6,0,0.9
			c0,0.3,0,0.5,0,0.8c0,0.3,0,0.5,0,0.8c0,0.3,0,0.6,0,0.9c0,0.3,0,0.5,0,0.7c0,0.2,0,0.4,0.1,0.5c0.1,0.2,0.2,0.3,0.3,0.4
			c0.1,0.1,0.3,0.1,0.4,0.1v0.1H118z"/>
		<path class="st22" d="M123.6,106v-0.1c0.2,0,0.3-0.1,0.4-0.2c0.1-0.1,0.2-0.2,0.3-0.4c0-0.1,0.1-0.1,0.1-0.2c0-0.1,0-0.2,0-0.4
			c0-0.1,0-0.3,0-0.4c0-0.1,0-0.3,0-0.4c0-0.1,0-0.3,0-0.5c0-0.2,0-0.5,0-0.7c0-0.3,0-0.5,0-0.8c0-0.3,0-0.5,0-0.8v-2.6
			c0-0.2,0-0.3,0-0.5c0-0.2,0-0.3,0-0.5c0-0.1,0-0.3,0-0.4c0-0.1,0-0.2-0.1-0.3c-0.1-0.2-0.2-0.3-0.3-0.3c-0.1-0.1-0.3-0.1-0.4-0.1
			v-0.1h2.7v0.1c-0.1,0-0.3,0.1-0.4,0.1c-0.1,0.1-0.3,0.2-0.3,0.4c-0.1,0.2-0.1,0.3-0.1,0.6c0,0.2,0,0.5,0,0.7c0,0.2,0,0.4,0,0.7
			c0,0.2,0,0.4,0,0.7c0,0.2,0,0.5,0,0.7c0,0.2,0,0.5,0,0.8v3.1c0,0.3,0,0.5,0,0.8s0,0.4,0.1,0.5c0.1,0.2,0.2,0.3,0.3,0.4
			c0.2,0.1,0.3,0.1,0.4,0.1v0.1H123.6z"/>
		<path class="st22" d="M136,102.8c-0.1,0.5-0.3,1-0.4,1.3c-0.2,0.4-0.4,0.7-0.7,0.9c-0.3,0.2-0.5,0.4-0.8,0.6
			c-0.3,0.1-0.6,0.2-0.9,0.3c-0.3,0.1-0.6,0.1-0.9,0.1H129v-0.1c0.2,0,0.3-0.1,0.4-0.2c0.1-0.1,0.3-0.2,0.3-0.3c0,0,0.1-0.1,0.1-0.2
			c0-0.1,0-0.2,0-0.4c0-0.1,0-0.3,0-0.4c0-0.2,0-0.3,0-0.4c0-0.1,0-0.3,0-0.5c0-0.2,0-0.5,0-0.7c0-0.3,0-0.5,0-0.8
			c0-0.3,0-0.5,0-0.8v-2.6c0-0.2,0-0.3,0-0.5c0-0.2,0-0.3,0-0.5c0-0.1,0-0.3,0-0.4c0-0.1,0-0.2-0.1-0.3c-0.1-0.2-0.2-0.3-0.3-0.3
			c-0.1-0.1-0.3-0.1-0.4-0.1v-0.1c0.3,0,0.6,0,1.1,0s1.1,0,1.8,0c0.2,0,0.4,0,0.6,0c0.2,0,0.4,0,0.6,0c0.2,0,0.4,0.1,0.6,0.1
			c0.2,0.1,0.4,0.2,0.6,0.3c0.3,0.2,0.5,0.4,0.7,0.6c0.2,0.3,0.4,0.6,0.6,0.9s0.3,0.7,0.4,1.2c0.1,0.5,0.2,1,0.2,1.6
			C136.2,101.7,136.1,102.3,136,102.8z M134.9,99.6c-0.1-0.5-0.3-0.9-0.5-1.3c-0.2-0.4-0.4-0.7-0.7-1c-0.3-0.3-0.6-0.5-0.9-0.5
			c-0.1,0-0.3-0.1-0.4-0.1c-0.1,0-0.3,0-0.5,0c-0.1,0-0.2,0-0.2,0s-0.2,0-0.3,0c-0.1,0-0.2,0-0.2,0c-0.1,0-0.1,0-0.2,0
			c0,0.4,0,1-0.1,1.8c0,0.8,0,1.7,0,2.8c0,0.6,0,1.1,0,1.6c0,0.5,0,0.9,0,1.1c0,0.1,0,0.3,0,0.4c0,0.1,0,0.3,0,0.4
			c0,0.1,0,0.3,0.1,0.4c0,0.1,0.1,0.2,0.1,0.2c0.1,0.2,0.3,0.3,0.5,0.3c0.2,0,0.4,0.1,0.5,0.1c0.2,0,0.3,0,0.5,0
			c0.2,0,0.3-0.1,0.5-0.1c0.7-0.3,1.2-0.8,1.5-1.6c0.3-0.8,0.5-1.8,0.5-3C135,100.6,135,100,134.9,99.6z"/>
		<path class="st22" d="M145.7,102.8c-0.1,0.5-0.3,1-0.4,1.3c-0.2,0.4-0.4,0.7-0.7,0.9c-0.3,0.2-0.5,0.4-0.8,0.6
			c-0.3,0.1-0.6,0.2-0.9,0.3c-0.3,0.1-0.6,0.1-0.9,0.1h-3.3v-0.1c0.2,0,0.3-0.1,0.4-0.2c0.1-0.1,0.3-0.2,0.3-0.3
			c0,0,0.1-0.1,0.1-0.2c0-0.1,0-0.2,0-0.4s0-0.3,0-0.4c0-0.2,0-0.3,0-0.4c0-0.1,0-0.3,0-0.5c0-0.2,0-0.5,0-0.7c0-0.3,0-0.5,0-0.8
			c0-0.3,0-0.5,0-0.8v-2.6c0-0.2,0-0.3,0-0.5c0-0.2,0-0.3,0-0.5c0-0.1,0-0.3,0-0.4c0-0.1,0-0.2-0.1-0.3c-0.1-0.2-0.2-0.3-0.3-0.3
			c-0.1-0.1-0.3-0.1-0.4-0.1v-0.1c0.3,0,0.6,0,1.1,0s1.1,0,1.8,0c0.2,0,0.4,0,0.6,0c0.2,0,0.4,0,0.6,0c0.2,0,0.4,0.1,0.6,0.1
			c0.2,0.1,0.4,0.2,0.6,0.3c0.3,0.2,0.5,0.4,0.7,0.6c0.2,0.3,0.4,0.6,0.6,0.9s0.3,0.7,0.4,1.2c0.1,0.5,0.2,1,0.2,1.6
			C145.8,101.7,145.8,102.3,145.7,102.8z M144.5,99.6c-0.1-0.5-0.3-0.9-0.5-1.3c-0.2-0.4-0.4-0.7-0.7-1c-0.3-0.3-0.6-0.5-0.9-0.5
			c-0.1,0-0.3-0.1-0.4-0.1c-0.1,0-0.3,0-0.5,0c-0.1,0-0.2,0-0.2,0c-0.1,0-0.2,0-0.3,0c-0.1,0-0.2,0-0.2,0c-0.1,0-0.1,0-0.2,0
			c0,0.4,0,1-0.1,1.8c0,0.8,0,1.7,0,2.8c0,0.6,0,1.1,0,1.6c0,0.5,0,0.9,0,1.1c0,0.1,0,0.3,0,0.4c0,0.1,0,0.3,0,0.4
			c0,0.1,0,0.3,0.1,0.4c0,0.1,0.1,0.2,0.1,0.2c0.1,0.2,0.3,0.3,0.5,0.3c0.2,0,0.4,0.1,0.5,0.1c0.2,0,0.3,0,0.5,0
			c0.2,0,0.3-0.1,0.5-0.1c0.7-0.3,1.2-0.8,1.5-1.6c0.3-0.8,0.5-1.8,0.5-3C144.7,100.6,144.6,100,144.5,99.6z"/>
		<path class="st22" d="M153.9,106h-5.6v-0.1c0.2,0,0.3-0.1,0.4-0.2c0.1-0.1,0.2-0.2,0.3-0.3c0-0.1,0.1-0.1,0.1-0.2
			c0-0.1,0-0.2,0.1-0.4c0-0.1,0-0.3,0-0.4c0-0.1,0-0.3,0-0.4c0-0.1,0-0.3,0-0.5c0-0.2,0-0.5,0-0.7c0-0.3,0-0.5,0-0.8
			c0-0.3,0-0.5,0-0.8v-2.6c0-0.2,0-0.3,0-0.5c0-0.2,0-0.3,0-0.5c0-0.2,0-0.3,0-0.4c0-0.1-0.1-0.2-0.1-0.3c-0.1-0.1-0.2-0.2-0.3-0.3
			s-0.2-0.1-0.4-0.1v-0.1h5.1l0.6,2.2l-0.1,0.1c-0.5-0.9-1-1.5-1.4-1.8c-0.1-0.1-0.3-0.1-0.6-0.2c-0.3-0.1-0.6-0.1-1-0.1
			c-0.1,0-0.3,0-0.4,0c-0.1,0-0.2,0-0.3,0c0,0.1,0,0.4,0,0.9c0,0.5,0,1,0,1.6c0,0.3,0,0.6,0,0.9c0,0.2,0,0.4,0,0.6
			c0,0.1,0,0.3,0,0.3c0,0.1,0,0.1,0,0.1c0,0,0.1,0,0.2,0c0.1,0,0.2,0,0.3,0c0.1,0,0.2,0,0.4,0c0.1,0,0.2,0,0.3-0.1
			c0.2-0.1,0.3-0.1,0.5-0.3c0.1-0.1,0.2-0.2,0.3-0.4c0.1-0.2,0.1-0.3,0.2-0.5c0-0.2,0.1-0.4,0.1-0.7h0.1v4.3h-0.1
			c0-0.3-0.1-0.6-0.2-0.9c-0.1-0.3-0.2-0.5-0.3-0.7c-0.1-0.1-0.2-0.2-0.4-0.3c-0.1-0.1-0.3-0.1-0.5-0.1c-0.1,0-0.2,0-0.2,0
			c-0.1,0-0.1,0-0.2,0c-0.1,0-0.1,0-0.2,0c-0.1,0-0.1,0-0.2,0c0,0.1,0,0.3,0,0.6c0,0.2,0,0.5,0,0.8c0,0.1,0,0.3,0,0.4
			c0,0.2,0,0.3,0,0.5c0,0.1,0,0.3,0,0.4c0,0.1,0,0.2,0,0.3c0,0.3,0,0.6,0,0.8c0,0.3,0.1,0.4,0.1,0.6c0.1,0.1,0.2,0.2,0.4,0.3
			c0.2,0.1,0.4,0.1,0.7,0.1c0.1,0,0.2,0,0.4,0c0.2,0,0.3,0,0.5-0.1c0.2,0,0.4-0.1,0.5-0.2c0.2-0.1,0.3-0.2,0.5-0.4
			c0.2-0.2,0.3-0.4,0.4-0.7c0.1-0.3,0.3-0.6,0.4-1l0.1,0L153.9,106z"/>
		<path class="st22" d="M163.5,96.7c-0.1,0.1-0.2,0.3-0.3,0.6c0,0.1-0.1,0.4-0.1,0.7c0,0.4,0,0.8,0,1.2c0,0.4,0,0.8,0,1.4
			c0,0.5,0,1.1,0,1.7c0,0.3,0,0.5,0,0.9c0,0.3,0,0.6,0,1c0,0.3,0,0.7,0,1c0,0.3,0,0.6,0,0.9c0,0,0,0.1,0,0.1c0,0,0,0-0.1,0
			c0,0-0.1,0-0.2-0.1c-0.5-0.9-1-1.7-1.4-2.4c-0.4-0.7-0.8-1.4-1.2-2.1c-0.4-0.7-0.8-1.3-1.1-2s-0.8-1.3-1.2-2v5.7
			c0,0.5,0,0.9,0,1.2c0,0.4,0.1,0.6,0.1,0.8c0.1,0.2,0.2,0.4,0.3,0.5c0.1,0.1,0.3,0.2,0.6,0.2v0.1h-2.3v-0.1c0.1,0,0.3-0.1,0.4-0.2
			c0.1-0.1,0.3-0.2,0.3-0.4c0.1-0.2,0.1-0.5,0.2-0.8c0-0.4,0-0.8,0.1-1.3c0-0.4,0-0.8,0-1.4c0-0.5,0-1.1,0-1.7c0-0.3,0-0.5,0-0.6
			s0-0.3,0-0.5c0-0.2,0-0.3,0-0.5c0-0.2,0-0.4,0-0.7c0-0.3-0.1-0.5-0.1-0.6c-0.1-0.2-0.1-0.3-0.2-0.4c-0.1-0.1-0.2-0.2-0.3-0.2
			c-0.1,0-0.2-0.1-0.3-0.1v-0.1h1.9l4.4,7.5v-4.6c0-0.4,0-0.7,0-1c0-0.3,0-0.6-0.1-0.8c-0.1-0.3-0.2-0.5-0.3-0.6
			c-0.2-0.2-0.4-0.3-0.7-0.3v-0.1h2.3v0.1C163.8,96.5,163.7,96.6,163.5,96.7z"/>
		<path class="st22" d="M170.3,106v-0.1c0.2,0,0.3-0.1,0.4-0.2c0.1-0.1,0.2-0.2,0.3-0.4c0-0.1,0.1-0.1,0.1-0.2c0-0.1,0-0.2,0-0.4
			c0-0.1,0-0.3,0-0.4c0-0.1,0-0.3,0-0.4c0-0.1,0-0.3,0-0.5c0-0.2,0-0.5,0-0.7c0-0.3,0-0.5,0-0.8c0-0.3,0-0.5,0-0.8v-2.6
			c0-0.2,0-0.3,0-0.5c0-0.2,0-0.3,0-0.5c0-0.1,0-0.3,0-0.4c0-0.1,0-0.2-0.1-0.3c-0.1-0.2-0.2-0.3-0.3-0.3c-0.1-0.1-0.3-0.1-0.4-0.1
			v-0.1h2.7v0.1c-0.1,0-0.3,0.1-0.4,0.1c-0.1,0.1-0.3,0.2-0.3,0.4c-0.1,0.2-0.1,0.3-0.1,0.6c0,0.2,0,0.5,0,0.7c0,0.2,0,0.4,0,0.7
			c0,0.2,0,0.4,0,0.7c0,0.2,0,0.5,0,0.7c0,0.2,0,0.5,0,0.8v3.1c0,0.3,0,0.5,0,0.8c0,0.2,0,0.4,0.1,0.5c0.1,0.2,0.2,0.3,0.3,0.4
			c0.2,0.1,0.3,0.1,0.4,0.1v0.1H170.3z"/>
		<path class="st22" d="M182.6,96.7c-0.1,0.1-0.2,0.3-0.3,0.6c0,0.1-0.1,0.4-0.1,0.7c0,0.4,0,0.8,0,1.2c0,0.4,0,0.8,0,1.4
			c0,0.5,0,1.1,0,1.7c0,0.3,0,0.5,0,0.9c0,0.3,0,0.6,0,1c0,0.3,0,0.7,0,1c0,0.3,0,0.6,0,0.9c0,0,0,0.1,0,0.1c0,0,0,0-0.1,0
			c0,0-0.1,0-0.2-0.1c-0.5-0.9-1-1.7-1.4-2.4c-0.4-0.7-0.8-1.4-1.2-2.1c-0.4-0.7-0.8-1.3-1.1-2c-0.4-0.6-0.8-1.3-1.2-2v5.7
			c0,0.5,0,0.9,0,1.2c0,0.4,0.1,0.6,0.1,0.8c0.1,0.2,0.2,0.4,0.3,0.5c0.1,0.1,0.3,0.2,0.6,0.2v0.1h-2.3v-0.1c0.1,0,0.3-0.1,0.4-0.2
			c0.1-0.1,0.3-0.2,0.3-0.4c0.1-0.2,0.1-0.5,0.2-0.8c0-0.4,0-0.8,0.1-1.3c0-0.4,0-0.8,0-1.4c0-0.5,0-1.1,0-1.7c0-0.3,0-0.5,0-0.6
			s0-0.3,0-0.5c0-0.2,0-0.3,0-0.5c0-0.2,0-0.4,0-0.7c0-0.3-0.1-0.5-0.1-0.6c-0.1-0.2-0.1-0.3-0.2-0.4c-0.1-0.1-0.2-0.2-0.3-0.2
			c-0.1,0-0.2-0.1-0.3-0.1v-0.1h1.9l4.4,7.5v-4.6c0-0.4,0-0.7,0-1c0-0.3,0-0.6-0.1-0.8c-0.1-0.3-0.2-0.5-0.3-0.6
			c-0.2-0.2-0.4-0.3-0.7-0.3v-0.1h2.3v0.1C183,96.5,182.8,96.6,182.6,96.7z"/>
		<path class="st22" d="M198,96.6c-0.1,0.1-0.2,0.2-0.2,0.2c0,0,0,0.1-0.1,0.1c0,0.1-0.1,0.2-0.1,0.3c0,0.1-0.1,0.3-0.2,0.4
			c-0.1,0.2-0.1,0.4-0.2,0.7c-0.1,0.4-0.2,0.9-0.3,1.5c-0.1,0.5-0.3,1.1-0.4,1.7c-0.1,0.6-0.3,1.1-0.4,1.7c-0.1,0.6-0.3,1.1-0.4,1.6
			l-0.4,1.3h-0.1c-0.2-0.6-0.3-1.3-0.5-1.9s-0.3-1.2-0.4-1.7c-0.1-0.5-0.3-1.1-0.4-1.6c-0.1-0.5-0.2-1-0.4-1.5
			c-0.1,0.4-0.2,0.8-0.3,1.3s-0.2,0.9-0.3,1.4c-0.1,0.5-0.2,0.9-0.3,1.4c-0.1,0.5-0.2,0.9-0.3,1.3l-0.4,1.3h-0.1
			c-0.2-0.7-0.4-1.4-0.5-2.1c-0.2-0.7-0.3-1.3-0.5-1.9c-0.2-0.6-0.3-1.2-0.5-1.8c-0.1-0.6-0.3-1.1-0.4-1.7c0-0.2-0.1-0.3-0.1-0.4
			c0-0.1-0.1-0.2-0.1-0.4c0-0.1-0.1-0.2-0.1-0.3c0-0.1-0.1-0.2-0.1-0.3c0-0.1,0-0.1-0.1-0.2c0-0.1-0.1-0.2-0.1-0.2s-0.1-0.1-0.2-0.2
			c-0.1-0.1-0.2-0.1-0.3-0.1v-0.1h2.6v0.1c0,0-0.1,0-0.2,0c-0.1,0-0.1,0.1-0.2,0.1c-0.1,0-0.1,0.1-0.2,0.2c-0.1,0.1-0.1,0.2-0.1,0.4
			c0,0.1,0,0.3,0.1,0.6c0.1,0.3,0.1,0.6,0.3,1.1c0.1,0.4,0.2,0.9,0.3,1.4c0.1,0.5,0.3,1,0.4,1.5s0.2,0.9,0.4,1.3
			c0.1,0.4,0.2,0.8,0.3,1c0-0.1,0.1-0.3,0.1-0.6c0.1-0.3,0.2-0.7,0.3-1.1s0.2-1,0.4-1.5c0.1-0.6,0.3-1.2,0.4-1.8
			c-0.1-0.4-0.2-0.7-0.2-1c-0.1-0.3-0.2-0.5-0.2-0.8c0-0.1-0.1-0.1-0.1-0.2c0-0.1-0.1-0.2-0.2-0.2c-0.1-0.1-0.2-0.1-0.3-0.2
			c-0.1,0-0.2-0.1-0.4-0.1v-0.1h2.9v0.1c0,0-0.1,0-0.2,0c-0.1,0-0.2,0.1-0.3,0.1c-0.1,0-0.2,0.1-0.3,0.2c-0.1,0.1-0.1,0.2-0.1,0.3
			c0,0.1,0,0.2,0.1,0.5c0.1,0.3,0.2,0.7,0.3,1.1c0.1,0.4,0.2,0.9,0.3,1.5c0.1,0.5,0.3,1,0.4,1.5s0.2,0.9,0.3,1.3
			c0.1,0.4,0.2,0.7,0.2,0.8c0-0.1,0.1-0.2,0.1-0.4c0-0.2,0.1-0.4,0.2-0.7c0.1-0.3,0.1-0.6,0.2-1c0.1-0.4,0.2-0.7,0.2-1.1
			c0.1-0.4,0.2-0.7,0.2-1.1c0.1-0.4,0.2-0.7,0.2-1c0.1-0.4,0.1-0.7,0.1-0.9c0-0.2,0-0.3,0-0.4c0-0.1,0-0.2-0.1-0.3
			c-0.1-0.1-0.1-0.2-0.2-0.2c-0.1-0.1-0.2-0.1-0.3-0.1c-0.1,0-0.2-0.1-0.2-0.1v-0.1h2v0.1C198.3,96.5,198.1,96.6,198,96.6z"/>
		<path class="st22" d="M206.9,103.1c-0.2,0.6-0.4,1.1-0.7,1.6c-0.3,0.4-0.7,0.8-1.1,1c-0.4,0.2-0.9,0.4-1.3,0.4
			c-0.5,0-0.9-0.1-1.3-0.4c-0.4-0.2-0.8-0.6-1.1-1c-0.3-0.4-0.6-1-0.7-1.6c-0.2-0.6-0.3-1.3-0.3-2c0-0.8,0.1-1.5,0.3-2.1
			c0.2-0.6,0.4-1.1,0.8-1.6c0.3-0.4,0.7-0.8,1.1-1s0.9-0.3,1.4-0.3c0.5,0,1,0.1,1.4,0.4c0.4,0.3,0.8,0.6,1.1,1.1
			c0.3,0.5,0.5,1,0.7,1.6c0.2,0.6,0.2,1.2,0.2,1.9C207.1,101.8,207,102.5,206.9,103.1z M205.8,99.5c-0.1-0.6-0.2-1.1-0.4-1.5
			c-0.2-0.5-0.4-0.8-0.7-1.1c-0.3-0.3-0.6-0.4-1-0.4c-0.4,0-0.7,0.1-1,0.4c-0.3,0.3-0.5,0.7-0.7,1.1c-0.2,0.4-0.3,1-0.4,1.5
			c-0.1,0.6-0.1,1.1-0.1,1.7c0,0.6,0,1.2,0.1,1.8c0.1,0.6,0.2,1.1,0.4,1.5c0.2,0.4,0.4,0.8,0.7,1c0.3,0.3,0.6,0.4,1,0.4
			s0.7-0.1,1-0.4c0.3-0.3,0.5-0.7,0.7-1.1c0.2-0.5,0.3-1,0.4-1.5c0.1-0.6,0.1-1.1,0.1-1.7C206,100.6,205.9,100,205.8,99.5z"/>
		<path class="st22" d="M216.1,103.1c-0.2,0.6-0.4,1.1-0.7,1.6c-0.3,0.4-0.7,0.8-1.1,1c-0.4,0.2-0.9,0.4-1.3,0.4
			c-0.5,0-0.9-0.1-1.3-0.4c-0.4-0.2-0.8-0.6-1.1-1c-0.3-0.4-0.6-1-0.7-1.6c-0.2-0.6-0.3-1.3-0.3-2c0-0.8,0.1-1.5,0.3-2.1
			c0.2-0.6,0.4-1.1,0.8-1.6c0.3-0.4,0.7-0.8,1.1-1s0.9-0.3,1.4-0.3c0.5,0,1,0.1,1.4,0.4c0.4,0.3,0.8,0.6,1.1,1.1
			c0.3,0.5,0.5,1,0.7,1.6c0.2,0.6,0.2,1.2,0.2,1.9C216.4,101.8,216.3,102.5,216.1,103.1z M215.1,99.5c-0.1-0.6-0.2-1.1-0.4-1.5
			c-0.2-0.5-0.4-0.8-0.7-1.1c-0.3-0.3-0.6-0.4-1-0.4c-0.4,0-0.7,0.1-1,0.4c-0.3,0.3-0.5,0.7-0.7,1.1c-0.2,0.4-0.3,1-0.4,1.5
			c-0.1,0.6-0.1,1.1-0.1,1.7c0,0.6,0,1.2,0.1,1.8c0.1,0.6,0.2,1.1,0.4,1.5c0.2,0.4,0.4,0.8,0.7,1c0.3,0.3,0.6,0.4,1,0.4
			c0.4,0,0.7-0.1,1-0.4c0.3-0.3,0.5-0.7,0.7-1.1c0.2-0.5,0.3-1,0.4-1.5c0.1-0.6,0.1-1.1,0.1-1.7C215.2,100.6,215.2,100,215.1,99.5z"
			/>
		<path class="st22" d="M225.9,102.8c-0.1,0.5-0.3,1-0.4,1.3c-0.2,0.4-0.4,0.7-0.7,0.9c-0.3,0.2-0.5,0.4-0.8,0.6
			c-0.3,0.1-0.6,0.2-0.9,0.3c-0.3,0.1-0.6,0.1-0.9,0.1h-3.3v-0.1c0.2,0,0.3-0.1,0.4-0.2c0.1-0.1,0.3-0.2,0.3-0.3
			c0,0,0.1-0.1,0.1-0.2c0-0.1,0-0.2,0-0.4c0-0.1,0-0.3,0-0.4c0-0.2,0-0.3,0-0.4c0-0.1,0-0.3,0-0.5c0-0.2,0-0.5,0-0.7
			c0-0.3,0-0.5,0-0.8c0-0.3,0-0.5,0-0.8v-2.6c0-0.2,0-0.3,0-0.5c0-0.2,0-0.3,0-0.5c0-0.1,0-0.3,0-0.4c0-0.1,0-0.2-0.1-0.3
			c-0.1-0.2-0.2-0.3-0.3-0.3c-0.1-0.1-0.3-0.1-0.4-0.1v-0.1c0.3,0,0.6,0,1.1,0s1.1,0,1.8,0c0.2,0,0.4,0,0.6,0c0.2,0,0.4,0,0.6,0
			c0.2,0,0.4,0.1,0.6,0.1c0.2,0.1,0.4,0.2,0.6,0.3c0.3,0.2,0.5,0.4,0.7,0.6c0.2,0.3,0.4,0.6,0.6,0.9s0.3,0.7,0.4,1.2
			c0.1,0.5,0.2,1,0.2,1.6C226,101.7,226,102.3,225.9,102.8z M224.7,99.6c-0.1-0.5-0.3-0.9-0.5-1.3c-0.2-0.4-0.4-0.7-0.7-1
			c-0.3-0.3-0.6-0.5-0.9-0.5c-0.1,0-0.3-0.1-0.4-0.1c-0.1,0-0.3,0-0.5,0c-0.1,0-0.2,0-0.2,0s-0.2,0-0.3,0c-0.1,0-0.2,0-0.2,0
			c-0.1,0-0.1,0-0.2,0c0,0.4,0,1-0.1,1.8c0,0.8,0,1.7,0,2.8c0,0.6,0,1.1,0,1.6c0,0.5,0,0.9,0,1.1c0,0.1,0,0.3,0,0.4
			c0,0.1,0,0.3,0,0.4c0,0.1,0,0.3,0.1,0.4c0,0.1,0.1,0.2,0.1,0.2c0.1,0.2,0.3,0.3,0.5,0.3c0.2,0,0.4,0.1,0.5,0.1c0.2,0,0.3,0,0.5,0
			c0.2,0,0.3-0.1,0.5-0.1c0.7-0.3,1.2-0.8,1.5-1.6c0.3-0.8,0.5-1.8,0.5-3C224.9,100.6,224.8,100,224.7,99.6z"/>
	</g>
	<g>
		<path class="st22" d="M105.1,6.6c0-0.2-0.1-0.4-0.2-0.6c-0.1-0.2-0.2-0.3-0.3-0.4c-0.1-0.1-0.2-0.2-0.4-0.3
			c-0.1-0.1-0.3-0.1-0.4-0.1c-0.2,0-0.3,0.1-0.4,0.2c-0.1,0.1-0.2,0.3-0.2,0.6c0,0.2,0.1,0.4,0.2,0.5c0.1,0.1,0.2,0.3,0.4,0.4
			c0.2,0.1,0.3,0.2,0.5,0.3c0.2,0.1,0.3,0.2,0.5,0.4c0.2,0.2,0.3,0.3,0.4,0.6c0.1,0.2,0.2,0.5,0.2,0.8c0,0.2,0,0.4-0.1,0.6
			c-0.1,0.2-0.1,0.3-0.3,0.5c-0.1,0.1-0.2,0.2-0.4,0.3c-0.2,0.1-0.3,0.1-0.5,0.1c-0.1,0-0.2,0-0.3,0c-0.1,0-0.2-0.1-0.3-0.1
			c-0.1,0-0.2-0.1-0.3-0.1c-0.1,0-0.2,0-0.3,0c0,0,0,0-0.1,0c0,0,0,0-0.1,0s-0.1,0-0.1,0c0,0,0,0-0.1,0c0-0.3-0.1-0.6-0.1-0.9
			c0-0.3-0.1-0.6-0.1-0.9h0.1c0,0.2,0.1,0.4,0.2,0.6c0.1,0.2,0.2,0.4,0.3,0.5c0.1,0.2,0.3,0.3,0.4,0.4c0.1,0.1,0.3,0.1,0.4,0.1
			c0.1,0,0.2,0,0.3,0c0.1,0,0.2-0.1,0.3-0.1c0.1-0.1,0.1-0.1,0.2-0.2s0.1-0.2,0.1-0.4c0-0.2-0.1-0.4-0.2-0.5
			c-0.1-0.1-0.2-0.3-0.4-0.4c-0.2-0.1-0.3-0.2-0.5-0.3c-0.2-0.1-0.4-0.2-0.5-0.4c-0.2-0.1-0.3-0.3-0.4-0.5c-0.1-0.2-0.2-0.4-0.2-0.7
			c0-0.5,0.1-0.9,0.3-1.1c0.2-0.2,0.5-0.3,0.9-0.3c0.1,0,0.2,0,0.3,0c0.1,0,0.2,0.1,0.3,0.1c0.1,0,0.2,0.1,0.3,0.1
			c0.1,0,0.2,0,0.2,0h0.2c0,0.1,0,0.2,0,0.3c0,0.1,0,0.2,0,0.2c0,0.2,0,0.3,0,0.5c0,0.2,0,0.3,0,0.5H105.1z"/>
		<path class="st22" d="M106.9,5c0.2,0,0.3,0,0.5,0c0.2,0,0.3,0,0.5,0c0.2,0,0.3,0,0.5,0c0.2,0,0.3,0,0.5,0v0.2
			c-0.1,0-0.2,0-0.3,0.1c-0.1,0-0.1,0.1-0.2,0.2c0,0.1-0.1,0.2-0.1,0.3c0,0.1,0,0.2,0,0.4v3.4c0,0.2,0,0.4,0.1,0.5
			c0.1,0.1,0.2,0.2,0.5,0.2l0,0.2c-0.2,0-0.3,0-0.5,0c-0.2,0-0.3,0-0.5,0c-0.2,0-0.3,0-0.5,0c-0.2,0-0.3,0-0.5,0v-0.2
			c0.2,0,0.4-0.1,0.5-0.2c0.1-0.1,0.1-0.2,0.1-0.5V6.1c0-0.3,0-0.5-0.1-0.7c-0.1-0.1-0.2-0.2-0.5-0.2V5z"/>
		<path class="st22" d="M110,10.1c0.2,0,0.3-0.1,0.4-0.1c0.1,0,0.2-0.1,0.2-0.2c0.1-0.1,0.1-0.2,0.1-0.3c0-0.1,0-0.3,0-0.6l0-3.1
			c0-0.1-0.1-0.1-0.2-0.2c-0.1-0.1-0.1-0.1-0.2-0.1c-0.1,0-0.1-0.1-0.2-0.1s-0.1-0.1-0.2-0.1V5c0.1,0,0.2,0,0.3,0c0.1,0,0.2,0,0.3,0
			c0.2,0,0.5,0,0.7,0c0.4,0.7,0.7,1.3,1.1,1.9c0.4,0.6,0.7,1.3,1.1,2h0c0-0.2,0-0.4,0-0.6c0-0.3,0-0.5,0-0.8s0-0.6,0-0.8
			c0-0.3,0-0.5,0-0.7c0-0.1,0-0.3-0.1-0.3c0-0.1-0.1-0.2-0.1-0.2c-0.1-0.1-0.1-0.1-0.2-0.1s-0.1-0.1-0.2-0.1V5c0.1,0,0.3,0,0.4,0
			c0.1,0,0.3,0,0.4,0c0.3,0,0.5,0,0.8,0v0.2c-0.1,0-0.3,0-0.3,0.1c-0.1,0-0.1,0.1-0.2,0.2c0,0.1-0.1,0.3-0.1,0.5c0,0.2,0,0.4,0,0.7
			v3.7h-0.3c-0.1-0.2-0.2-0.5-0.4-0.8c-0.1-0.3-0.3-0.6-0.4-0.8c-0.2-0.3-0.3-0.6-0.5-0.8c-0.2-0.3-0.3-0.5-0.4-0.8
			s-0.3-0.5-0.4-0.7c-0.1-0.2-0.2-0.4-0.3-0.5v2.7c0,0.3,0,0.5,0,0.7c0,0.2,0,0.3,0.1,0.4c0,0.1,0.1,0.2,0.2,0.2
			c0.1,0,0.2,0.1,0.4,0.1v0.2c-0.1,0-0.3,0-0.4,0c-0.1,0-0.3,0-0.4,0c-0.2,0-0.3,0-0.4,0c-0.1,0-0.3,0-0.4,0V10.1z"/>
		<path class="st22" d="M118.9,7.1c0-0.2-0.1-0.5-0.2-0.7c-0.1-0.2-0.2-0.4-0.3-0.6c-0.1-0.2-0.2-0.3-0.4-0.4
			c-0.1-0.1-0.3-0.2-0.5-0.2c-0.2,0-0.4,0.1-0.5,0.2c-0.1,0.1-0.3,0.3-0.4,0.5c-0.1,0.2-0.2,0.5-0.2,0.7c0,0.3-0.1,0.5-0.1,0.8
			c0,0.3,0,0.6,0.1,0.9c0.1,0.3,0.2,0.5,0.3,0.7c0.1,0.2,0.3,0.4,0.4,0.5c0.2,0.1,0.4,0.2,0.6,0.2c0.2,0,0.3,0,0.5-0.1
			c0.1-0.1,0.3-0.2,0.4-0.3c0.1-0.1,0.2-0.2,0.3-0.4c0.1-0.1,0.2-0.3,0.2-0.4l0.1,0.2c-0.2,0.5-0.5,0.9-0.8,1.2s-0.7,0.4-1.1,0.4
			c-0.3,0-0.5-0.1-0.7-0.2c-0.2-0.1-0.4-0.3-0.6-0.6c-0.2-0.2-0.3-0.5-0.4-0.9c-0.1-0.3-0.1-0.7-0.1-1.1c0-0.4,0-0.8,0.1-1.1
			c0.1-0.3,0.2-0.6,0.4-0.9c0.2-0.2,0.4-0.4,0.6-0.6c0.2-0.1,0.5-0.2,0.8-0.2c0.1,0,0.2,0,0.4,0c0.1,0,0.3,0.1,0.4,0.1
			c0.1,0,0.2,0.1,0.3,0.1c0.1,0,0.2,0,0.2,0c0,0,0,0,0.1,0c0,0.1,0,0.2,0,0.3c0,0.1,0,0.2,0,0.3c0,0.2,0,0.4,0,0.7
			c0,0.2,0,0.4,0,0.7H118.9z"/>
		<path class="st22" d="M120.5,10.1c0.1,0,0.2,0,0.3-0.1c0.1,0,0.1-0.1,0.2-0.2c0-0.1,0.1-0.2,0.1-0.3c0-0.1,0-0.2,0-0.4v-3
			c0-0.1,0-0.3,0-0.4c0-0.1,0-0.2-0.1-0.3c0-0.1-0.1-0.1-0.2-0.2c-0.1,0-0.2-0.1-0.3-0.1V5c0.2,0,0.4,0,0.6,0c0.2,0,0.4,0,0.6,0
			c0.4,0,0.7,0,1,0c0.3,0,0.7,0,1.1,0c0,0.1,0,0.2,0,0.3c0,0.1,0,0.2,0,0.3c0,0.2,0,0.3,0,0.5c0,0.2,0,0.3,0,0.4l-0.1,0
			c-0.1-0.4-0.2-0.7-0.4-0.9c-0.2-0.2-0.5-0.3-0.8-0.3h-0.6v1.9h0.3c0.1,0,0.2,0,0.3-0.1c0.1,0,0.2-0.1,0.3-0.2
			c0.1-0.1,0.1-0.2,0.2-0.3c0.1-0.1,0.1-0.3,0.1-0.5h0.1c0,0.2,0,0.4,0,0.6c0,0.2,0,0.4,0,0.6c0,0.2,0,0.4,0,0.6c0,0.2,0,0.4,0,0.6
			H123c0-0.2-0.1-0.4-0.1-0.5c-0.1-0.1-0.1-0.2-0.2-0.3c-0.1-0.1-0.2-0.1-0.2-0.2c-0.1,0-0.2-0.1-0.3-0.1h-0.3v2.4
			c0.1,0,0.2,0.1,0.3,0.1c0.1,0,0.2,0,0.4,0c0.4,0,0.7-0.1,1-0.4c0.3-0.2,0.5-0.6,0.7-1.2l0.1,0.1c-0.1,0.3-0.2,0.6-0.3,0.8
			c-0.1,0.3-0.2,0.6-0.2,0.9c-0.3,0-0.6,0-0.8,0c-0.3,0-0.6,0-0.8,0c-0.2,0-0.3,0-0.5,0c-0.2,0-0.3,0-0.4,0c-0.1,0-0.3,0-0.4,0
			s-0.2,0-0.3,0V10.1z"/>
		<path class="st22" d="M128.2,10.1c0.1,0,0.2,0,0.3,0c0.1,0,0.2-0.1,0.2-0.1c0-0.1,0.1-0.2,0.1-0.3c0-0.1,0-0.4,0-0.6V6.3
			c0-0.2,0-0.3,0-0.4c0-0.1,0-0.2-0.1-0.3c0-0.1-0.1-0.1-0.2-0.1c-0.1,0-0.2,0-0.3,0V5.3c0.4-0.1,0.8-0.2,1.2-0.4V9
			c0,0.3,0,0.5,0,0.6c0,0.1,0,0.3,0.1,0.3c0,0.1,0.1,0.1,0.2,0.1c0.1,0,0.2,0,0.3,0v0.2c-0.2,0-0.3,0-0.5,0c-0.2,0-0.3,0-0.5,0
			c-0.2,0-0.3,0-0.5,0c-0.2,0-0.3,0-0.5,0V10.1z"/>
		<path class="st22" d="M131.8,10.1c0.3,0,0.5-0.1,0.7-0.1c0.2-0.1,0.4-0.2,0.5-0.4c0.1-0.2,0.3-0.4,0.3-0.7c0.1-0.3,0.1-0.6,0.2-1
			c-0.1,0.1-0.2,0.2-0.3,0.2c-0.1,0-0.2,0.1-0.4,0.1c-0.2,0-0.3,0-0.4-0.1c-0.1-0.1-0.2-0.2-0.3-0.4c-0.1-0.1-0.2-0.3-0.2-0.5
			c0-0.2-0.1-0.4-0.1-0.6c0-0.3,0-0.5,0.1-0.7c0.1-0.2,0.1-0.4,0.3-0.5c0.1-0.1,0.2-0.2,0.4-0.3c0.1-0.1,0.3-0.1,0.5-0.1
			c0.2,0,0.4,0.1,0.6,0.2c0.2,0.1,0.3,0.3,0.4,0.5c0.1,0.2,0.2,0.4,0.2,0.7c0.1,0.3,0.1,0.5,0.1,0.8c0,0.6-0.1,1.1-0.2,1.5
			c-0.1,0.4-0.3,0.8-0.5,1c-0.2,0.3-0.5,0.5-0.8,0.6s-0.7,0.2-1,0.2V10.1z M133.6,6.7c0-0.3,0-0.5-0.1-0.7c0-0.2-0.1-0.3-0.1-0.5
			c-0.1-0.1-0.1-0.2-0.2-0.3c-0.1-0.1-0.1-0.1-0.2-0.1c-0.1,0-0.2,0-0.2,0.1c-0.1,0.1-0.1,0.2-0.1,0.3c0,0.1-0.1,0.2-0.1,0.4
			c0,0.2,0,0.3,0,0.5c0,0.4,0.1,0.8,0.2,1c0.1,0.2,0.2,0.3,0.4,0.3c0.1,0,0.2,0,0.2-0.1c0.1-0.1,0.1-0.1,0.2-0.2
			c0-0.1,0.1-0.2,0.1-0.4C133.6,7,133.6,6.8,133.6,6.7z"/>
		<path class="st22" d="M135.9,8.1l0.6-3.1h0.4c0.1,0.1,0.1,0.2,0.2,0.2c0.1,0,0.2,0.1,0.3,0.1c0.1,0,0.1,0,0.2,0
			c0.1,0,0.1-0.1,0.2-0.1c0.1,0,0.1-0.1,0.2-0.1c0.1-0.1,0.1-0.1,0.2-0.2l0.1,0.2c-0.2,0.3-0.4,0.5-0.6,0.6
			c-0.2,0.1-0.5,0.2-0.7,0.2c-0.1,0-0.1,0-0.2,0c-0.1,0-0.1,0-0.2-0.1l-0.3,1.6c0.1-0.1,0.2-0.2,0.3-0.2c0.1-0.1,0.2-0.1,0.4-0.1
			c0.2,0,0.3,0,0.5,0.1c0.1,0.1,0.3,0.2,0.4,0.3c0.1,0.1,0.2,0.3,0.2,0.5c0.1,0.2,0.1,0.4,0.1,0.7c0,0.5-0.1,1-0.4,1.3
			c-0.2,0.3-0.6,0.4-1,0.4c-0.4,0-0.6-0.1-0.8-0.3c-0.2-0.2-0.3-0.5-0.3-0.8c0-0.1,0-0.3,0.1-0.4c0.1-0.1,0.1-0.2,0.2-0.2
			c0.2,0,0.4,0.2,0.4,0.5c0,0.1,0,0.2,0,0.2c0,0.1,0,0.1,0,0.2c0.1,0.1,0.1,0.2,0.2,0.3c0.1,0.1,0.2,0.1,0.3,0.1
			c0.1,0,0.2,0,0.3-0.1c0.1,0,0.2-0.1,0.2-0.2c0.1-0.1,0.1-0.2,0.1-0.4c0-0.2,0.1-0.4,0.1-0.7c0-0.4-0.1-0.7-0.2-0.9
			c-0.1-0.2-0.3-0.3-0.5-0.3c-0.1,0-0.2,0-0.2,0.1c-0.1,0-0.1,0.1-0.2,0.2c-0.1,0.1-0.1,0.1-0.2,0.2c-0.1,0.1-0.1,0.2-0.1,0.3
			L135.9,8.1z"/>
		<path class="st22" d="M142,6.2c0,0.1,0,0.3-0.1,0.4c0,0.1-0.1,0.2-0.1,0.3c-0.1,0.1-0.1,0.2-0.2,0.3c-0.1,0.1-0.2,0.1-0.3,0.2
			c0.1,0.1,0.2,0.2,0.3,0.3c0.1,0.1,0.2,0.2,0.3,0.3c0.1,0.1,0.1,0.3,0.2,0.4c0,0.2,0.1,0.3,0.1,0.6c0,0.3,0,0.5-0.1,0.7
			c-0.1,0.2-0.2,0.3-0.3,0.4c-0.1,0.1-0.3,0.2-0.4,0.2c-0.2,0-0.3,0.1-0.5,0.1c-0.1,0-0.3,0-0.4-0.1c-0.1-0.1-0.3-0.1-0.4-0.3
			c-0.1-0.1-0.2-0.3-0.3-0.5c-0.1-0.2-0.1-0.4-0.1-0.6c0-0.4,0.1-0.7,0.2-0.9c0.1-0.2,0.3-0.4,0.5-0.5c-0.1-0.1-0.1-0.2-0.2-0.3
			C140.1,7.2,140,7.1,140,7c-0.1-0.1-0.1-0.2-0.1-0.3c0-0.1-0.1-0.3-0.1-0.4c0-0.2,0-0.4,0.1-0.6c0.1-0.2,0.1-0.3,0.3-0.4
			s0.2-0.2,0.4-0.2c0.1-0.1,0.3-0.1,0.4-0.1c0.1,0,0.3,0,0.4,0.1c0.1,0,0.3,0.1,0.4,0.2c0.1,0.1,0.2,0.2,0.3,0.4
			C142,5.7,142,5.9,142,6.2z M140.1,8.7c0,0.2,0,0.3,0,0.5c0,0.2,0.1,0.3,0.1,0.4c0.1,0.1,0.1,0.2,0.2,0.3c0.1,0.1,0.2,0.1,0.3,0.1
			c0.2,0,0.3-0.1,0.5-0.2c0.1-0.1,0.2-0.4,0.2-0.7c0-0.1,0-0.3-0.1-0.4s-0.2-0.3-0.3-0.4c-0.1-0.1-0.2-0.2-0.3-0.4
			c-0.1-0.1-0.2-0.2-0.3-0.3c-0.1,0.1-0.2,0.2-0.3,0.4C140.2,8.3,140.1,8.5,140.1,8.7z M141.5,6.1c0-0.1,0-0.3,0-0.4
			s-0.1-0.2-0.1-0.3c-0.1-0.1-0.1-0.2-0.2-0.2c-0.1-0.1-0.2-0.1-0.3-0.1c-0.1,0-0.3,0.1-0.3,0.2c-0.1,0.1-0.1,0.3-0.1,0.5
			c0,0.1,0,0.3,0.1,0.4c0.1,0.1,0.1,0.2,0.2,0.3c0.1,0.1,0.2,0.2,0.3,0.3c0.1,0.1,0.2,0.2,0.2,0.3c0.1-0.1,0.2-0.3,0.2-0.4
			C141.5,6.5,141.5,6.4,141.5,6.1z"/>
	</g>
</g>
</svg>
