<?xml version="1.0" encoding="utf-8"?>
<!-- Generator: Adobe Illustrator 19.1.0, SVG Export Plug-In . SVG Version: 6.00 Build 0)  -->
<svg version="1.1" id="Warstwa_1" xmlns="http://www.w3.org/2000/svg" xmlns:xlink="http://www.w3.org/1999/xlink" x="0px" y="0px"
	 viewBox="0 0 450 43" style="enable-background:new 0 0 450 43;" xml:space="preserve">
<style type="text/css">
	.st0{fill:none;}
	.st1{fill:url(#SVGID_1_);}
	.st2{fill:url(#SVGID_2_);}
	.st3{fill:url(#SVGID_3_);}
	.st4{fill:url(#SVGID_4_);}
	.st5{fill:url(#SVGID_5_);}
	.st6{fill:url(#SVGID_6_);}
	.st7{fill:url(#SVGID_7_);}
	.st8{fill:url(#SVGID_8_);}
	.st9{fill:url(#SVGID_9_);}
	.st10{fill:url(#SVGID_10_);}
	.st11{fill:url(#SVGID_11_);}
	.st12{fill:url(#SVGID_12_);}
	.st13{fill:url(#SVGID_13_);}
	.st14{fill:url(#SVGID_14_);}
	.st15{fill:url(#SVGID_15_);}
	.st16{fill:url(#SVGID_16_);}
	.st17{fill:url(#SVGID_17_);}
	.st18{fill:url(#SVGID_18_);}
	.st19{fill:url(#SVGID_19_);}
	.st20{fill:url(#SVGID_20_);}
	.st21{fill:url(#SVGID_21_);}
	.st22{fill:url(#SVGID_22_);}
	.st23{fill:#BC9D5C;}
</style>
<path class="st0" d="M356.1,23.9c-0.2-0.4-0.5-0.8-0.8-1.1c-0.3-0.3-0.6-0.5-1-0.6c-0.1,0-0.3-0.1-0.5-0.1c-0.2,0-0.4,0-0.6,0
	c-0.1,0-0.2,0-0.3,0c-0.1,0-0.2,0-0.3,0c-0.1,0-0.2,0-0.3,0c-0.1,0-0.1,0-0.2,0c0,0.5-0.1,1.2-0.1,2c0,0.9,0,1.9,0,3.1
	c0,0.6,0,1.2,0,1.8c0,0.5,0,1,0,1.3c0,0.1,0,0.3,0,0.5c0,0.2,0,0.3,0,0.5c0,0.2,0,0.3,0.1,0.4c0,0.1,0.1,0.2,0.1,0.3
	c0.1,0.2,0.3,0.3,0.5,0.4c0.2,0.1,0.4,0.1,0.6,0.1c0.2,0,0.4,0,0.5,0c0.2,0,0.4-0.1,0.5-0.1c0.7-0.3,1.3-0.9,1.7-1.8
	c0.4-0.9,0.6-2,0.6-3.3c0-0.6-0.1-1.2-0.2-1.7C356.5,24.8,356.4,24.3,356.1,23.9z"/>
<path class="st0" d="M89.7,23.8c-0.2-0.9-0.4-1.6-0.6-2.3c-0.2-0.7-0.3-1.3-0.5-1.7c-0.1,0.3-0.2,0.7-0.4,1.3
	c-0.2,0.6-0.4,1.3-0.6,2.1c-0.2,0.8-0.5,1.8-0.8,2.8c-0.3,1-0.6,2.2-0.9,3.4h5.2c-0.2-0.9-0.5-1.8-0.7-2.8
	C90.1,25.6,89.9,24.7,89.7,23.8z"/>
<path class="st0" d="M345.3,23.9c-0.2-0.4-0.5-0.8-0.8-1.1c-0.3-0.3-0.6-0.5-1-0.6c-0.1,0-0.3-0.1-0.5-0.1c-0.2,0-0.4,0-0.6,0
	c-0.1,0-0.2,0-0.3,0c-0.1,0-0.2,0-0.3,0c-0.1,0-0.2,0-0.3,0c-0.1,0-0.1,0-0.2,0c0,0.5-0.1,1.2-0.1,2c0,0.9,0,1.9,0,3.1
	c0,0.6,0,1.2,0,1.8c0,0.5,0,1,0,1.3c0,0.1,0,0.3,0,0.5c0,0.2,0,0.3,0,0.5c0,0.2,0,0.3,0.1,0.4c0,0.1,0.1,0.2,0.1,0.3
	c0.1,0.2,0.3,0.3,0.5,0.4c0.2,0.1,0.4,0.1,0.6,0.1c0.2,0,0.3,0,0.5,0c0.2,0,0.4-0.1,0.5-0.1c0.7-0.3,1.3-0.9,1.7-1.8
	c0.4-0.9,0.6-2,0.6-3.3c0-0.6-0.1-1.2-0.2-1.7C345.7,24.8,345.5,24.3,345.3,23.9z"/>
<path class="st0" d="M207.4,3.8c0.1,0.1,0.1,0.2,0.2,0.2c0.1,0.1,0.2,0.2,0.2,0.2c0.1-0.1,0.2-0.3,0.2-0.4c0-0.1,0.1-0.3,0.1-0.5
	c0-0.1,0-0.2,0-0.3c0-0.1-0.1-0.2-0.1-0.3c0-0.1-0.1-0.1-0.2-0.2c-0.1,0-0.1-0.1-0.2-0.1c-0.1,0-0.2,0.1-0.3,0.2
	c-0.1,0.1-0.1,0.3-0.1,0.5c0,0.1,0,0.2,0.1,0.3C207.3,3.6,207.4,3.7,207.4,3.8z"/>
<path class="st0" d="M425.1,23.6c-0.2-0.5-0.5-0.9-0.8-1.2c-0.3-0.3-0.7-0.5-1.1-0.5c-0.4,0-0.8,0.2-1.2,0.5
	c-0.3,0.3-0.6,0.7-0.8,1.2c-0.2,0.5-0.4,1.1-0.5,1.7c-0.1,0.6-0.2,1.3-0.2,2c0,0.7,0.1,1.4,0.2,2c0.1,0.6,0.3,1.2,0.5,1.7
	c0.2,0.5,0.5,0.9,0.8,1.2c0.3,0.3,0.7,0.4,1.1,0.4c0.4,0,0.8-0.2,1.1-0.5c0.3-0.3,0.6-0.7,0.8-1.3c0.2-0.5,0.4-1.1,0.5-1.7
	c0.1-0.6,0.2-1.3,0.2-1.9c0-0.6-0.1-1.2-0.2-1.9C425.5,24.7,425.3,24.1,425.1,23.6z"/>
<path class="st0" d="M303.6,25.4c0-0.3,0.1-0.5,0.1-0.8c0-0.5-0.1-1-0.3-1.4c-0.2-0.4-0.4-0.7-0.8-0.9c-0.2-0.1-0.3-0.2-0.5-0.2
	c-0.2-0.1-0.4-0.1-0.6-0.1c-0.1,0-0.3,0-0.4,0c-0.1,0-0.2,0-0.2,0c0,0.1,0,0.1,0,0.2c0,0,0,0.1,0,0.2c0,0.1,0,0.2,0,0.3
	c0,0.1,0,0.3,0,0.5c0,0.4,0,0.8,0,1.2c0,0.4,0,0.9,0,1.3s0,0.8,0,1.1c0,0.3,0,0.5,0,0.6c0.3,0,0.5,0,0.8-0.1c0.2,0,0.5-0.1,0.7-0.2
	c0.2-0.1,0.4-0.2,0.6-0.4c0.2-0.2,0.3-0.4,0.4-0.6C303.5,25.9,303.6,25.6,303.6,25.4z"/>
<path class="st0" d="M446.3,23.9c-0.2-0.4-0.5-0.8-0.8-1.1c-0.3-0.3-0.6-0.5-1-0.6c-0.1,0-0.3-0.1-0.5-0.1c-0.2,0-0.4,0-0.6,0
	c-0.1,0-0.2,0-0.3,0c-0.1,0-0.2,0-0.3,0c-0.1,0-0.2,0-0.3,0c-0.1,0-0.1,0-0.2,0c0,0.5-0.1,1.2-0.1,2c0,0.9,0,1.9,0,3.1
	c0,0.6,0,1.2,0,1.8c0,0.5,0,1,0,1.3c0,0.1,0,0.3,0,0.5c0,0.2,0,0.3,0,0.5c0,0.2,0,0.3,0.1,0.4c0,0.1,0.1,0.2,0.1,0.3
	c0.1,0.2,0.3,0.3,0.5,0.4c0.2,0.1,0.4,0.1,0.6,0.1c0.2,0,0.3,0,0.5,0c0.2,0,0.4-0.1,0.5-0.1c0.7-0.3,1.3-0.9,1.7-1.8
	c0.4-0.9,0.6-2,0.6-3.3c0-0.6-0.1-1.2-0.2-1.7C446.7,24.8,446.5,24.3,446.3,23.9z"/>
<path class="st0" d="M201,3.2c0-0.2-0.1-0.3-0.1-0.4c-0.1-0.1-0.1-0.2-0.2-0.2c-0.1-0.1-0.1-0.1-0.2-0.1c-0.1,0-0.1,0-0.2,0.1
	s-0.1,0.1-0.1,0.2c0,0.1-0.1,0.2-0.1,0.4s0,0.3,0,0.4c0,0.4,0,0.7,0.1,0.9c0.1,0.2,0.2,0.3,0.3,0.3c0.1,0,0.2,0,0.2-0.1
	c0.1-0.1,0.1-0.1,0.2-0.2c0-0.1,0.1-0.2,0.1-0.3c0-0.1,0-0.3,0-0.4C201.1,3.6,201,3.4,201,3.2z"/>
<path class="st0" d="M435.5,23.6c-0.2-0.5-0.5-0.9-0.8-1.2c-0.3-0.3-0.7-0.5-1.1-0.5c-0.4,0-0.8,0.2-1.2,0.5
	c-0.3,0.3-0.6,0.7-0.8,1.2c-0.2,0.5-0.4,1.1-0.5,1.7c-0.1,0.6-0.1,1.3-0.1,2c0,0.7,0.1,1.4,0.2,2c0.1,0.6,0.3,1.2,0.5,1.7
	c0.2,0.5,0.5,0.9,0.8,1.2c0.3,0.3,0.7,0.4,1.1,0.4c0.4,0,0.8-0.2,1.1-0.5c0.3-0.3,0.6-0.7,0.8-1.3c0.2-0.5,0.4-1.1,0.5-1.7
	c0.1-0.6,0.2-1.3,0.2-1.9c0-0.6-0.1-1.2-0.2-1.9C435.9,24.7,435.7,24.1,435.5,23.6z"/>
<path class="st0" d="M207.8,5.3c-0.1-0.1-0.2-0.2-0.3-0.3c-0.1-0.1-0.2-0.2-0.3-0.3c-0.1,0.1-0.2,0.2-0.2,0.4
	c-0.1,0.2-0.1,0.3-0.1,0.5c0,0.2,0,0.3,0,0.4c0,0.1,0.1,0.3,0.1,0.4c0.1,0.1,0.1,0.2,0.2,0.3c0.1,0.1,0.2,0.1,0.3,0.1
	c0.2,0,0.3-0.1,0.4-0.2c0.1-0.1,0.1-0.3,0.1-0.6c0-0.1,0-0.3-0.1-0.4C208,5.6,207.9,5.5,207.8,5.3z"/>
<linearGradient id="SVGID_1_" gradientUnits="userSpaceOnUse" x1="204.6132" y1="41.7887" x2="195.45" y2="7.591">
	<stop  offset="0" style="stop-color:#F4E6B7"/>
	<stop  offset="0.2652" style="stop-color:#8B632C"/>
	<stop  offset="0.3668" style="stop-color:#C49541"/>
	<stop  offset="0.3747" style="stop-color:#CA9E4E"/>
	<stop  offset="0.3974" style="stop-color:#D9B770"/>
	<stop  offset="0.4196" style="stop-color:#E5CB8E"/>
	<stop  offset="0.4412" style="stop-color:#EDDAA4"/>
	<stop  offset="0.4617" style="stop-color:#F3E3B2"/>
	<stop  offset="0.48" style="stop-color:#F4E6B7"/>
	<stop  offset="0.4984" style="stop-color:#EAD49C"/>
	<stop  offset="0.5393" style="stop-color:#D6B168"/>
	<stop  offset="0.5699" style="stop-color:#C99D4B"/>
	<stop  offset="0.5865" style="stop-color:#C49541"/>
	<stop  offset="0.6549" style="stop-color:#996C30"/>
	<stop  offset="0.7649" style="stop-color:#C49541"/>
	<stop  offset="1" style="stop-color:#F4E6B7"/>
</linearGradient>
<path class="st1" d="M199.8,26.2l0.6-2.3c-0.1-0.3-0.2-0.5-0.3-0.8L199.8,26.2z"/>
<linearGradient id="SVGID_2_" gradientUnits="userSpaceOnUse" x1="198.3493" y1="43.4671" x2="189.1861" y2="9.2694">
	<stop  offset="0" style="stop-color:#F4E6B7"/>
	<stop  offset="0.2652" style="stop-color:#8B632C"/>
	<stop  offset="0.3668" style="stop-color:#C49541"/>
	<stop  offset="0.3747" style="stop-color:#CA9E4E"/>
	<stop  offset="0.3974" style="stop-color:#D9B770"/>
	<stop  offset="0.4196" style="stop-color:#E5CB8E"/>
	<stop  offset="0.4412" style="stop-color:#EDDAA4"/>
	<stop  offset="0.4617" style="stop-color:#F3E3B2"/>
	<stop  offset="0.48" style="stop-color:#F4E6B7"/>
	<stop  offset="0.4984" style="stop-color:#EAD49C"/>
	<stop  offset="0.5393" style="stop-color:#D6B168"/>
	<stop  offset="0.5699" style="stop-color:#C99D4B"/>
	<stop  offset="0.5865" style="stop-color:#C49541"/>
	<stop  offset="0.6549" style="stop-color:#996C30"/>
	<stop  offset="0.7649" style="stop-color:#C49541"/>
	<stop  offset="1" style="stop-color:#F4E6B7"/>
</linearGradient>
<polygon class="st2" points="196.4,21.5 192,22.5 191.6,24.2 192.9,23.9 191.1,31.2 192.9,30.8 194.6,23.6 196,23.3 "/>
<linearGradient id="SVGID_3_" gradientUnits="userSpaceOnUse" x1="199.5275" y1="43.1514" x2="190.3643" y2="8.9537">
	<stop  offset="0" style="stop-color:#F4E6B7"/>
	<stop  offset="0.2652" style="stop-color:#8B632C"/>
	<stop  offset="0.3668" style="stop-color:#C49541"/>
	<stop  offset="0.3747" style="stop-color:#CA9E4E"/>
	<stop  offset="0.3974" style="stop-color:#D9B770"/>
	<stop  offset="0.4196" style="stop-color:#E5CB8E"/>
	<stop  offset="0.4412" style="stop-color:#EDDAA4"/>
	<stop  offset="0.4617" style="stop-color:#F3E3B2"/>
	<stop  offset="0.48" style="stop-color:#F4E6B7"/>
	<stop  offset="0.4984" style="stop-color:#EAD49C"/>
	<stop  offset="0.5393" style="stop-color:#D6B168"/>
	<stop  offset="0.5699" style="stop-color:#C99D4B"/>
	<stop  offset="0.5865" style="stop-color:#C49541"/>
	<stop  offset="0.6549" style="stop-color:#996C30"/>
	<stop  offset="0.7649" style="stop-color:#C49541"/>
	<stop  offset="1" style="stop-color:#F4E6B7"/>
</linearGradient>
<polygon class="st3" points="196,23.9 195.1,24.1 194,28.6 "/>
<linearGradient id="SVGID_4_" gradientUnits="userSpaceOnUse" x1="195.5425" y1="44.2192" x2="186.3792" y2="10.0215">
	<stop  offset="0" style="stop-color:#F4E6B7"/>
	<stop  offset="0.2652" style="stop-color:#8B632C"/>
	<stop  offset="0.3668" style="stop-color:#C49541"/>
	<stop  offset="0.3747" style="stop-color:#CA9E4E"/>
	<stop  offset="0.3974" style="stop-color:#D9B770"/>
	<stop  offset="0.4196" style="stop-color:#E5CB8E"/>
	<stop  offset="0.4412" style="stop-color:#EDDAA4"/>
	<stop  offset="0.4617" style="stop-color:#F3E3B2"/>
	<stop  offset="0.48" style="stop-color:#F4E6B7"/>
	<stop  offset="0.4984" style="stop-color:#EAD49C"/>
	<stop  offset="0.5393" style="stop-color:#D6B168"/>
	<stop  offset="0.5699" style="stop-color:#C99D4B"/>
	<stop  offset="0.5865" style="stop-color:#C49541"/>
	<stop  offset="0.6549" style="stop-color:#996C30"/>
	<stop  offset="0.7649" style="stop-color:#C49541"/>
	<stop  offset="1" style="stop-color:#F4E6B7"/>
</linearGradient>
<path class="st4" d="M184.7,29l1.6-5.9l2.7-0.6c0.3-0.1,0.5-0.1,0.8-0.1c0.7,0,1.2,0.2,1.5,0.6c0,0,0,0,0,0l0.3-1.1l7-1.5
	c-1.8-2.1-4.5-3.4-7.5-3.4c-4.4,0-8.2,2.9-9.4,7c0,0-0.3,1-0.3,1.5l0.7-1.6l3.4-0.7l-0.1,0.8L184.7,29z"/>
<linearGradient id="SVGID_5_" gradientUnits="userSpaceOnUse" x1="201.3054" y1="42.675" x2="192.1422" y2="8.4774">
	<stop  offset="0" style="stop-color:#F4E6B7"/>
	<stop  offset="0.2652" style="stop-color:#8B632C"/>
	<stop  offset="0.3668" style="stop-color:#C49541"/>
	<stop  offset="0.3747" style="stop-color:#CA9E4E"/>
	<stop  offset="0.3974" style="stop-color:#D9B770"/>
	<stop  offset="0.4196" style="stop-color:#E5CB8E"/>
	<stop  offset="0.4412" style="stop-color:#EDDAA4"/>
	<stop  offset="0.4617" style="stop-color:#F3E3B2"/>
	<stop  offset="0.48" style="stop-color:#F4E6B7"/>
	<stop  offset="0.4984" style="stop-color:#EAD49C"/>
	<stop  offset="0.5393" style="stop-color:#D6B168"/>
	<stop  offset="0.5699" style="stop-color:#C99D4B"/>
	<stop  offset="0.5865" style="stop-color:#C49541"/>
	<stop  offset="0.6549" style="stop-color:#996C30"/>
	<stop  offset="0.7649" style="stop-color:#C49541"/>
	<stop  offset="1" style="stop-color:#F4E6B7"/>
</linearGradient>
<path class="st5" d="M197.7,21.3l-3.8,9.3l1.8-0.4l0.6-1.7l1.4-0.1l-0.2,1.4l1.5-0.3l0.8-8.7L197.7,21.3z M197.8,26.7l-0.9,0.1
	l1.1-2.7L197.8,26.7z"/>
<linearGradient id="SVGID_6_" gradientUnits="userSpaceOnUse" x1="192.197" y1="45.1156" x2="183.0338" y2="10.9179">
	<stop  offset="0" style="stop-color:#F4E6B7"/>
	<stop  offset="0.2652" style="stop-color:#8B632C"/>
	<stop  offset="0.3668" style="stop-color:#C49541"/>
	<stop  offset="0.3747" style="stop-color:#CA9E4E"/>
	<stop  offset="0.3974" style="stop-color:#D9B770"/>
	<stop  offset="0.4196" style="stop-color:#E5CB8E"/>
	<stop  offset="0.4412" style="stop-color:#EDDAA4"/>
	<stop  offset="0.4617" style="stop-color:#F3E3B2"/>
	<stop  offset="0.48" style="stop-color:#F4E6B7"/>
	<stop  offset="0.4984" style="stop-color:#EAD49C"/>
	<stop  offset="0.5393" style="stop-color:#D6B168"/>
	<stop  offset="0.5699" style="stop-color:#C99D4B"/>
	<stop  offset="0.5865" style="stop-color:#C49541"/>
	<stop  offset="0.6549" style="stop-color:#996C30"/>
	<stop  offset="0.7649" style="stop-color:#C49541"/>
	<stop  offset="1" style="stop-color:#F4E6B7"/>
</linearGradient>
<path class="st6" d="M186.1,32.2l0.9-3.6c0.2,0,0.3,0,0.5,0h0c0.4,0,0.6,0.1,0.5,0.5c0,0.3-0.2,0.9-0.3,1.3
	c-0.2,0.7-0.3,1.1-0.1,1.5l1.7-0.4c-0.1-0.3,0-0.8,0.1-1.2c0.2-0.8,0.4-1.7,0.4-2.3c0-0.3-0.1-0.6-0.4-0.9c0.3-0.2,0.4-0.3,0.7-0.6
	c0.3-0.3,0.5-0.8,0.7-1.5c0.2-0.7,0.2-1.3-0.1-1.7c-0.2-0.3-0.6-0.4-1-0.4c-0.2,0-0.5,0-0.7,0.1l-2.3,0.5l-2.4,9L186.1,32.2z
	 M188.1,24.7l0.7,0c0.6,0,0.1,1.4-0.1,1.7c-0.1,0.3-0.5,0.5-0.9,0.5l-0.3,0L188.1,24.7z"/>
<linearGradient id="SVGID_7_" gradientUnits="userSpaceOnUse" x1="182.962" y1="47.5901" x2="173.7988" y2="13.3925">
	<stop  offset="0" style="stop-color:#F4E6B7"/>
	<stop  offset="0.2652" style="stop-color:#8B632C"/>
	<stop  offset="0.3668" style="stop-color:#C49541"/>
	<stop  offset="0.3747" style="stop-color:#CA9E4E"/>
	<stop  offset="0.3974" style="stop-color:#D9B770"/>
	<stop  offset="0.4196" style="stop-color:#E5CB8E"/>
	<stop  offset="0.4412" style="stop-color:#EDDAA4"/>
	<stop  offset="0.4617" style="stop-color:#F3E3B2"/>
	<stop  offset="0.48" style="stop-color:#F4E6B7"/>
	<stop  offset="0.4984" style="stop-color:#EAD49C"/>
	<stop  offset="0.5393" style="stop-color:#D6B168"/>
	<stop  offset="0.5699" style="stop-color:#C99D4B"/>
	<stop  offset="0.5865" style="stop-color:#C49541"/>
	<stop  offset="0.6549" style="stop-color:#996C30"/>
	<stop  offset="0.7649" style="stop-color:#C49541"/>
	<stop  offset="1" style="stop-color:#F4E6B7"/>
</linearGradient>
<polygon class="st7" points="177.2,34.1 179,26.8 180.4,26.5 180.9,24.8 176.4,25.8 176,27.5 177.2,27.2 175.5,34.5 "/>
<linearGradient id="SVGID_8_" gradientUnits="userSpaceOnUse" x1="195.3912" y1="44.2597" x2="186.228" y2="10.0621">
	<stop  offset="0" style="stop-color:#F4E6B7"/>
	<stop  offset="0.2652" style="stop-color:#8B632C"/>
	<stop  offset="0.3668" style="stop-color:#C49541"/>
	<stop  offset="0.3747" style="stop-color:#CA9E4E"/>
	<stop  offset="0.3974" style="stop-color:#D9B770"/>
	<stop  offset="0.4196" style="stop-color:#E5CB8E"/>
	<stop  offset="0.4412" style="stop-color:#EDDAA4"/>
	<stop  offset="0.4617" style="stop-color:#F3E3B2"/>
	<stop  offset="0.48" style="stop-color:#F4E6B7"/>
	<stop  offset="0.4984" style="stop-color:#EAD49C"/>
	<stop  offset="0.5393" style="stop-color:#D6B168"/>
	<stop  offset="0.5699" style="stop-color:#C99D4B"/>
	<stop  offset="0.5865" style="stop-color:#C49541"/>
	<stop  offset="0.6549" style="stop-color:#996C30"/>
	<stop  offset="0.7649" style="stop-color:#C49541"/>
	<stop  offset="1" style="stop-color:#F4E6B7"/>
</linearGradient>
<path class="st8" d="M191,36.9c4.5,0,8.2-3,9.5-7l-3.7,0.8l0.2-1.5l-0.3,0l-0.6,1.6l-5.7,1.2l0.2-0.9l1.5-6.4l-0.6,0.1
	c0,0.1,0,0.3-0.1,0.4c-0.2,0.8-0.4,1.3-0.8,1.8c-0.1,0.1-0.2,0.2-0.3,0.3c0.1,0.2,0.2,0.5,0.2,0.7c0,0.6-0.2,1.3-0.3,1.9
	c0,0.2-0.1,0.6-0.1,0.6c-0.1,0.3-0.1,0.7-0.1,0.8l0.2,0.6l-2.9,0.6l-0.2-0.5c-0.1-0.3-0.1-0.5-0.1-0.7l-0.3,1.4l-3.1,0.7
	C185.3,35.5,188,36.9,191,36.9z"/>
<linearGradient id="SVGID_9_" gradientUnits="userSpaceOnUse" x1="195.6531" y1="44.1895" x2="186.4899" y2="9.9919">
	<stop  offset="0" style="stop-color:#F4E6B7"/>
	<stop  offset="0.2652" style="stop-color:#8B632C"/>
	<stop  offset="0.3668" style="stop-color:#C49541"/>
	<stop  offset="0.3747" style="stop-color:#CA9E4E"/>
	<stop  offset="0.3974" style="stop-color:#D9B770"/>
	<stop  offset="0.4196" style="stop-color:#E5CB8E"/>
	<stop  offset="0.4412" style="stop-color:#EDDAA4"/>
	<stop  offset="0.4617" style="stop-color:#F3E3B2"/>
	<stop  offset="0.48" style="stop-color:#F4E6B7"/>
	<stop  offset="0.4984" style="stop-color:#EAD49C"/>
	<stop  offset="0.5393" style="stop-color:#D6B168"/>
	<stop  offset="0.5699" style="stop-color:#C99D4B"/>
	<stop  offset="0.5865" style="stop-color:#C49541"/>
	<stop  offset="0.6549" style="stop-color:#996C30"/>
	<stop  offset="0.7649" style="stop-color:#C49541"/>
	<stop  offset="1" style="stop-color:#F4E6B7"/>
</linearGradient>
<path class="st9" d="M178.7,22.6c-0.9,0.8-1.1,2-1.1,2s0.5-0.4,1-0.4c0.3,0,0.5,0.2,0.6,0.4l1.7-0.4c1.2-4.5,5.3-7.8,10.1-7.8
	c3.3,0,6.2,1.5,8.2,3.9l1.2-0.2l-0.1,0.8l-0.1,1c0.2,0.3,0.3,0.6,0.5,0.9l0.6-2.5l0.1-0.4l0.4-0.1l0.1,0c0-0.1,0-0.1,0-0.2
	c-0.2-1.2-1-2.1-1-2.1s0.1,0.6-0.2,1c-0.4,0.5-1,0.1-1,0.1l0,0c0,0-0.1-0.1-0.1-0.1c0-0.2-0.1-1.1-0.5-1.9c-0.5-1.1-1.6-1.7-1.6-1.7
	s0.2,0.6,0.1,1c-0.2,0.6-0.9,0.4-0.9,0.4l0,0c0,0-0.1,0-0.1-0.1c-0.1-0.2-0.4-1-1-1.7c-0.8-0.9-2-1.1-2-1.1s0.4,0.5,0.4,1
	c0,0.6-0.7,0.7-0.7,0.7l0,0c-0.1,0-0.1,0-0.2,0c-0.1-0.2-0.7-0.8-1.5-1.3c-1.1-0.6-2.3-0.4-2.3-0.4s0.5,0.3,0.7,0.8
	c0.2,0.6-0.5,0.8-0.5,0.8l0,0c-0.1,0-0.1,0-0.2,0c-0.2-0.1-1-0.6-1.8-0.7c-1.2-0.2-2.3,0.3-2.3,0.3s0.6,0.1,0.9,0.5
	c0.4,0.5-0.2,1-0.2,1l0,0c0,0-0.1,0-0.1,0.1c-0.2-0.1-1.1-0.2-2-0.1c-1.2,0.2-2.1,1-2.1,1s0.6-0.1,1,0.2c0.5,0.4,0.1,1,0.1,1l0,0
	c0,0-0.1,0.1-0.1,0.1c-0.2,0-1.1,0.1-1.9,0.5c-1.1,0.5-1.7,1.6-1.7,1.6s0.6-0.2,1-0.1c0.6,0.2,0.4,0.9,0.4,0.9l0,0
	c0,0,0,0.1-0.1,0.1C180.2,21.6,179.4,22,178.7,22.6z"/>
<linearGradient id="SVGID_10_" gradientUnits="userSpaceOnUse" x1="186.2578" y1="46.707" x2="177.0946" y2="12.5093">
	<stop  offset="0" style="stop-color:#F4E6B7"/>
	<stop  offset="0.2652" style="stop-color:#8B632C"/>
	<stop  offset="0.3668" style="stop-color:#C49541"/>
	<stop  offset="0.3747" style="stop-color:#CA9E4E"/>
	<stop  offset="0.3974" style="stop-color:#D9B770"/>
	<stop  offset="0.4196" style="stop-color:#E5CB8E"/>
	<stop  offset="0.4412" style="stop-color:#EDDAA4"/>
	<stop  offset="0.4617" style="stop-color:#F3E3B2"/>
	<stop  offset="0.48" style="stop-color:#F4E6B7"/>
	<stop  offset="0.4984" style="stop-color:#EAD49C"/>
	<stop  offset="0.5393" style="stop-color:#D6B168"/>
	<stop  offset="0.5699" style="stop-color:#C99D4B"/>
	<stop  offset="0.5865" style="stop-color:#C49541"/>
	<stop  offset="0.6549" style="stop-color:#996C30"/>
	<stop  offset="0.7649" style="stop-color:#C49541"/>
	<stop  offset="1" style="stop-color:#F4E6B7"/>
</linearGradient>
<path class="st10" d="M180.9,31.7l1.4-0.2l-0.2,1.5l1.7-0.3l1-8.7l-2.3,0.5l-4,9.4l1.9-0.4L180.9,31.7z M182.8,26.6l-0.3,3.4
	l-1.1,0.1L182.8,26.6z"/>
<linearGradient id="SVGID_11_" gradientUnits="userSpaceOnUse" x1="195.621" y1="44.1981" x2="186.4578" y2="10.0005">
	<stop  offset="0" style="stop-color:#F4E6B7"/>
	<stop  offset="0.2652" style="stop-color:#8B632C"/>
	<stop  offset="0.3668" style="stop-color:#C49541"/>
	<stop  offset="0.3747" style="stop-color:#CA9E4E"/>
	<stop  offset="0.3974" style="stop-color:#D9B770"/>
	<stop  offset="0.4196" style="stop-color:#E5CB8E"/>
	<stop  offset="0.4412" style="stop-color:#EDDAA4"/>
	<stop  offset="0.4617" style="stop-color:#F3E3B2"/>
	<stop  offset="0.48" style="stop-color:#F4E6B7"/>
	<stop  offset="0.4984" style="stop-color:#EAD49C"/>
	<stop  offset="0.5393" style="stop-color:#D6B168"/>
	<stop  offset="0.5699" style="stop-color:#C99D4B"/>
	<stop  offset="0.5865" style="stop-color:#C49541"/>
	<stop  offset="0.6549" style="stop-color:#996C30"/>
	<stop  offset="0.7649" style="stop-color:#C49541"/>
	<stop  offset="1" style="stop-color:#F4E6B7"/>
</linearGradient>
<path class="st11" d="M203.3,31.4c0.9-0.8,1.1-2,1.1-2s-0.5,0.4-1,0.4c-0.4,0-0.5-0.2-0.6-0.4l-0.2,0l-0.3-1.6l-0.4,1.4l-0.1,0.4
	l-0.7,0.1c-1.2,4.5-5.3,7.8-10.2,7.8c-3.3,0-6.3-1.5-8.2-4l-1.5,0.3l0.2-1.6l-0.3,0l-0.6,1.7l-0.5,0.1c0,0.1,0,0.2,0,0.2
	c0.2,1.2,1,2.1,1,2.1s-0.1-0.6,0.2-1c0.4-0.5,1-0.1,1-0.1l0,0c0,0,0.1,0.1,0.1,0.1c0,0.2,0.1,1.1,0.5,1.9c0.5,1.1,1.6,1.7,1.6,1.7
	s-0.2-0.6-0.1-1c0.2-0.6,0.9-0.4,0.9-0.4l0,0c0,0,0.1,0,0.1,0.1c0.1,0.2,0.4,1,1,1.7c0.8,0.9,2,1.1,2,1.1s-0.4-0.5-0.4-1
	c0-0.6,0.7-0.7,0.7-0.7l0,0c0.1,0,0.1,0,0.2,0c0.1,0.2,0.7,0.8,1.5,1.3c1.1,0.6,2.3,0.4,2.3,0.4s-0.5-0.3-0.7-0.8
	c-0.2-0.6,0.5-0.8,0.5-0.8l0,0c0.1,0,0.1,0,0.2,0c0.2,0.1,1,0.6,1.8,0.7c1.2,0.2,2.3-0.3,2.3-0.3s-0.6-0.1-0.9-0.5
	c-0.4-0.5,0.2-1,0.2-1l0,0c0,0,0.1,0,0.1-0.1c0.2,0.1,1.1,0.2,2,0.1c1.2-0.2,2.1-1,2.1-1s-0.6,0.1-1-0.2c-0.5-0.4-0.1-1-0.1-1l0,0
	c0,0,0.1-0.1,0.1-0.1c0.2,0,1.1-0.1,1.9-0.5c1.1-0.5,1.7-1.6,1.7-1.6s-0.6,0.2-1,0.1c-0.6-0.2-0.4-0.9-0.4-0.9l0,0
	c0,0,0-0.1,0.1-0.1C201.9,32.4,202.7,32,203.3,31.4z"/>
<linearGradient id="SVGID_12_" gradientUnits="userSpaceOnUse" x1="207.8046" y1="40.9335" x2="198.6413" y2="6.7359">
	<stop  offset="0" style="stop-color:#F4E6B7"/>
	<stop  offset="0.2652" style="stop-color:#8B632C"/>
	<stop  offset="0.3668" style="stop-color:#C49541"/>
	<stop  offset="0.3747" style="stop-color:#CA9E4E"/>
	<stop  offset="0.3974" style="stop-color:#D9B770"/>
	<stop  offset="0.4196" style="stop-color:#E5CB8E"/>
	<stop  offset="0.4412" style="stop-color:#EDDAA4"/>
	<stop  offset="0.4617" style="stop-color:#F3E3B2"/>
	<stop  offset="0.48" style="stop-color:#F4E6B7"/>
	<stop  offset="0.4984" style="stop-color:#EAD49C"/>
	<stop  offset="0.5393" style="stop-color:#D6B168"/>
	<stop  offset="0.5699" style="stop-color:#C99D4B"/>
	<stop  offset="0.5865" style="stop-color:#C49541"/>
	<stop  offset="0.6549" style="stop-color:#996C30"/>
	<stop  offset="0.7649" style="stop-color:#C49541"/>
	<stop  offset="1" style="stop-color:#F4E6B7"/>
</linearGradient>
<polygon class="st12" points="204.9,19.8 202.9,22.9 203.6,20 201.8,20.4 199.7,29.4 201.4,29 201.9,27 202.6,25.8 203.1,28.7 
	204.7,28.3 204,24 207.1,19.3 "/>
<linearGradient id="SVGID_13_" gradientUnits="userSpaceOnUse" x1="184.0242" y1="47.3055" x2="174.8609" y2="13.1079">
	<stop  offset="0" style="stop-color:#F4E6B7"/>
	<stop  offset="0.2652" style="stop-color:#8B632C"/>
	<stop  offset="0.3668" style="stop-color:#C49541"/>
	<stop  offset="0.3747" style="stop-color:#CA9E4E"/>
	<stop  offset="0.3974" style="stop-color:#D9B770"/>
	<stop  offset="0.4196" style="stop-color:#E5CB8E"/>
	<stop  offset="0.4412" style="stop-color:#EDDAA4"/>
	<stop  offset="0.4617" style="stop-color:#F3E3B2"/>
	<stop  offset="0.48" style="stop-color:#F4E6B7"/>
	<stop  offset="0.4984" style="stop-color:#EAD49C"/>
	<stop  offset="0.5393" style="stop-color:#D6B168"/>
	<stop  offset="0.5699" style="stop-color:#C99D4B"/>
	<stop  offset="0.5865" style="stop-color:#C49541"/>
	<stop  offset="0.6549" style="stop-color:#996C30"/>
	<stop  offset="0.7649" style="stop-color:#C49541"/>
	<stop  offset="1" style="stop-color:#F4E6B7"/>
</linearGradient>
<path class="st13" d="M178.2,32.7c0,0,2.3-5.5,2.3-5.5l-1,0.2L178.2,32.7z"/>
<linearGradient id="SVGID_14_" gradientUnits="userSpaceOnUse" x1="11.3479" y1="38.425" x2="11.3479" y2="16.2334">
	<stop  offset="0" style="stop-color:#C4962D"/>
	<stop  offset="7.000000e-02" style="stop-color:#FFD460"/>
	<stop  offset="0.17" style="stop-color:#654632"/>
	<stop  offset="0.2747" style="stop-color:#C49541"/>
	<stop  offset="0.2892" style="stop-color:#CA9E4E"/>
	<stop  offset="0.3302" style="stop-color:#D9B770"/>
	<stop  offset="0.3705" style="stop-color:#E5CB8E"/>
	<stop  offset="0.4096" style="stop-color:#EDDAA4"/>
	<stop  offset="0.4468" style="stop-color:#F3E3B2"/>
	<stop  offset="0.48" style="stop-color:#F4E6B7"/>
	<stop  offset="0.5138" style="stop-color:#EAD49C"/>
	<stop  offset="0.589" style="stop-color:#D6B168"/>
	<stop  offset="0.6453" style="stop-color:#C99D4B"/>
	<stop  offset="0.6758" style="stop-color:#C49541"/>
	<stop  offset="0.81" style="stop-color:#654632"/>
	<stop  offset="1" style="stop-color:#CD992B"/>
</linearGradient>
<path class="st14" d="M19.6,37.4c-0.2-0.2-0.3-0.3-0.4-0.5c-0.1-0.2-0.1-0.3-0.2-0.3c-0.1-0.2-0.1-0.5-0.2-0.9
	c0-0.4-0.1-0.8-0.1-1.2c0-1.2,0-2.4,0-3.5c0-1.1,0-2.2,0-3.3c0-0.9,0-1.9,0-2.8c0-0.9,0-1.9,0-2.9c0-0.7,0-1.4,0.1-2.2
	c0-0.7,0.1-1.3,0.2-1.6c0.1-0.5,0.3-0.8,0.6-1.2c0.3-0.3,0.7-0.5,1.3-0.5v-0.3h-4.5c0,0.2-0.2,0.8-0.5,1.8c-0.3,1-0.7,2.3-1.2,3.9
	c-0.5,1.6-1,3.3-1.6,5.2c-0.6,1.9-1.2,3.9-1.8,5.8l-5-16.8H2v0.3c0.2,0,0.4,0.1,0.6,0.2c0.2,0.1,0.5,0.2,0.7,0.4
	c0.2,0.2,0.4,0.5,0.5,0.8c0.2,0.4,0.2,0.8,0.3,1.4c0,0.6,0,1.1,0,1.5c0,0.4,0,0.8,0,1.2c0,0.4,0,0.8,0,1.2c0,0.4,0,0.9,0,1.5
	c0,1.4,0,2.7,0,3.9c0,1.2,0,2.2-0.1,3.1c0,1-0.1,1.9-0.1,2.7c-0.1,0.7-0.2,1.3-0.4,1.8c-0.2,0.5-0.4,0.9-0.7,1.2
	c-0.3,0.3-0.7,0.5-1.2,0.6v0.3H7v-0.3C6.4,38,6,37.8,5.6,37.5c-0.3-0.3-0.6-0.7-0.8-1.1c-0.2-0.5-0.3-1.1-0.3-1.8
	c0-0.7-0.1-1.5-0.1-2.5c0-1.5,0-2.8,0-3.9c0-1.1,0-2.2,0-3.2c0-1,0-2,0-3.1c0-1,0-2.2,0-3.6c0.1,0.2,0.2,0.7,0.4,1.3
	c0.2,0.6,0.4,1.4,0.7,2.4c0.3,0.9,0.6,2,1,3.2s0.8,2.5,1.2,3.9c0.4,1.4,0.8,2.8,1.3,4.3c0.4,1.5,0.9,3,1.3,4.5h0.1
	c0-0.1,0.1-0.4,0.2-0.8c0.1-0.4,0.2-0.8,0.4-1.3c0.1-0.5,0.2-0.9,0.4-1.4c0.1-0.4,0.2-0.8,0.3-1c0.5-1.5,0.9-2.9,1.3-4.2
	c0.4-1.3,0.8-2.5,1.1-3.7s0.8-2.5,1.1-3.7c0.4-1.3,0.8-2.7,1.3-4.2v8.7c0,1.3,0,2.6,0,3.8c0,1.2,0,2.5,0,3.9c0,0.4,0,0.8-0.1,1.2
	c0,0.4-0.1,0.7-0.2,1c-0.1,0.4-0.4,0.8-0.8,1.1c-0.4,0.3-0.9,0.5-1.5,0.6v0.3h7.2v-0.3c-0.3,0-0.6-0.1-0.9-0.2
	C20,37.8,19.8,37.6,19.6,37.4z"/>
<linearGradient id="SVGID_15_" gradientUnits="userSpaceOnUse" x1="30.1258" y1="38.425" x2="30.1258" y2="16.2334">
	<stop  offset="0" style="stop-color:#C4962D"/>
	<stop  offset="7.000000e-02" style="stop-color:#FFD460"/>
	<stop  offset="0.17" style="stop-color:#654632"/>
	<stop  offset="0.2747" style="stop-color:#C49541"/>
	<stop  offset="0.2892" style="stop-color:#CA9E4E"/>
	<stop  offset="0.3302" style="stop-color:#D9B770"/>
	<stop  offset="0.3705" style="stop-color:#E5CB8E"/>
	<stop  offset="0.4096" style="stop-color:#EDDAA4"/>
	<stop  offset="0.4468" style="stop-color:#F3E3B2"/>
	<stop  offset="0.48" style="stop-color:#F4E6B7"/>
	<stop  offset="0.5138" style="stop-color:#EAD49C"/>
	<stop  offset="0.589" style="stop-color:#D6B168"/>
	<stop  offset="0.6453" style="stop-color:#C99D4B"/>
	<stop  offset="0.6758" style="stop-color:#C49541"/>
	<stop  offset="0.81" style="stop-color:#654632"/>
	<stop  offset="1" style="stop-color:#CD992B"/>
</linearGradient>
<path class="st15" d="M31.5,37c-0.1-0.2-0.2-0.6-0.2-1.2c0-0.6,0-1.1,0-1.7v-7c0-0.6,0-1.2,0-1.8c0-0.6,0-1.1,0-1.6c0-0.5,0-1,0-1.5
	c0-0.5,0-1,0-1.5c0-0.5,0-1,0-1.5c0-0.5,0.1-1,0.2-1.3c0.2-0.5,0.4-0.8,0.8-1c0.3-0.2,0.6-0.3,0.9-0.3v-0.3H27v0.3
	c0.4,0.1,0.7,0.2,1,0.3c0.3,0.2,0.5,0.4,0.7,0.8c0.1,0.1,0.1,0.3,0.2,0.6c0,0.3,0.1,0.5,0.1,0.9c0,0.3,0,0.7,0,1c0,0.4,0,0.7,0,1.1
	v6c0,0.6,0,1.1,0,1.8c0,0.6,0,1.2,0,1.8c0,0.6,0,1.1,0,1.6c0,0.5,0,0.9,0,1.2c0,0.3,0,0.7,0,1c0,0.3,0,0.7,0,1c0,0.3,0,0.6-0.1,0.8
	c0,0.2-0.1,0.4-0.2,0.5c-0.2,0.4-0.5,0.6-0.8,0.8c-0.3,0.2-0.6,0.3-1,0.4v0.3h6.3v-0.3c-0.3,0-0.6-0.2-1-0.3
	C31.9,37.6,31.7,37.3,31.5,37z"/>
<linearGradient id="SVGID_16_" gradientUnits="userSpaceOnUse" x1="46.4408" y1="38.5482" x2="46.4408" y2="15.772">
	<stop  offset="0" style="stop-color:#C4962D"/>
	<stop  offset="7.000000e-02" style="stop-color:#FFD460"/>
	<stop  offset="0.17" style="stop-color:#654632"/>
	<stop  offset="0.2747" style="stop-color:#C49541"/>
	<stop  offset="0.2892" style="stop-color:#CA9E4E"/>
	<stop  offset="0.3302" style="stop-color:#D9B770"/>
	<stop  offset="0.3705" style="stop-color:#E5CB8E"/>
	<stop  offset="0.4096" style="stop-color:#EDDAA4"/>
	<stop  offset="0.4468" style="stop-color:#F3E3B2"/>
	<stop  offset="0.48" style="stop-color:#F4E6B7"/>
	<stop  offset="0.5138" style="stop-color:#EAD49C"/>
	<stop  offset="0.589" style="stop-color:#D6B168"/>
	<stop  offset="0.6453" style="stop-color:#C99D4B"/>
	<stop  offset="0.6758" style="stop-color:#C49541"/>
	<stop  offset="0.81" style="stop-color:#654632"/>
	<stop  offset="1" style="stop-color:#CD992B"/>
</linearGradient>
<path class="st16" d="M53.3,17c-0.1,0.2-0.2,0.3-0.3,0.5c-0.1,0.1-0.2,0.2-0.2,0.3c-0.1,0.1-0.2,0.1-0.2,0.1c0,0-0.2-0.1-0.4-0.3
	c-0.2-0.2-0.5-0.5-1-0.7c-0.4-0.3-0.9-0.5-1.6-0.7c-0.6-0.2-1.4-0.3-2.2-0.3c-0.9,0-1.8,0.1-2.5,0.4c-0.7,0.3-1.4,0.7-2,1.2
	c-0.6,0.5-1.1,1-1.5,1.7c-0.4,0.6-0.8,1.3-1.1,2c-0.3,0.6-0.5,1.2-0.6,1.8c-0.2,0.6-0.3,1.1-0.4,1.7c-0.1,0.5-0.2,1-0.2,1.5
	c0,0.5-0.1,0.9-0.1,1.3c0,1.7,0.2,3.2,0.6,4.6c0.4,1.4,1,2.6,1.7,3.6c0.7,1,1.6,1.8,2.7,2.3c1,0.5,2.2,0.8,3.5,0.8
	c0.8,0,1.5-0.1,2.1-0.3c0.6-0.2,1.1-0.4,1.5-0.7c0.4-0.3,0.7-0.5,1-0.7s0.4-0.3,0.4-0.3c0.1,0,0.2,0.1,0.4,0.4
	c0.2,0.3,0.4,0.6,0.5,1h0.3l0.1-6.8h-0.3c-0.1,0.9-0.4,1.7-0.7,2.6c-0.3,0.8-0.8,1.6-1.3,2.2c-0.5,0.6-1.1,1.2-1.7,1.5
	c-0.6,0.4-1.3,0.6-2,0.6c-0.9,0-1.8-0.3-2.5-0.8c-0.8-0.6-1.4-1.3-1.9-2.3c-0.5-1-0.9-2.1-1.2-3.4c-0.3-1.3-0.4-2.7-0.4-4.2
	c0-1.4,0.1-2.8,0.4-4.1c0.3-1.3,0.7-2.5,1.2-3.6c0.5-1,1.1-1.9,1.9-2.5c0.8-0.6,1.6-1,2.6-1c0.7,0,1.4,0.2,2,0.6
	c0.6,0.4,1.2,0.9,1.7,1.5c0.5,0.6,0.9,1.4,1.3,2.3c0.4,0.9,0.6,1.8,0.8,2.8l0.3,0v-6.9h-0.2C53.4,16.6,53.4,16.8,53.3,17z"/>
<linearGradient id="SVGID_17_" gradientUnits="userSpaceOnUse" x1="68.3383" y1="38.425" x2="68.3383" y2="16.2334">
	<stop  offset="0" style="stop-color:#C4962D"/>
	<stop  offset="7.000000e-02" style="stop-color:#FFD460"/>
	<stop  offset="0.17" style="stop-color:#654632"/>
	<stop  offset="0.2747" style="stop-color:#C49541"/>
	<stop  offset="0.2892" style="stop-color:#CA9E4E"/>
	<stop  offset="0.3302" style="stop-color:#D9B770"/>
	<stop  offset="0.3705" style="stop-color:#E5CB8E"/>
	<stop  offset="0.4096" style="stop-color:#EDDAA4"/>
	<stop  offset="0.4468" style="stop-color:#F3E3B2"/>
	<stop  offset="0.48" style="stop-color:#F4E6B7"/>
	<stop  offset="0.5138" style="stop-color:#EAD49C"/>
	<stop  offset="0.589" style="stop-color:#D6B168"/>
	<stop  offset="0.6453" style="stop-color:#C99D4B"/>
	<stop  offset="0.6758" style="stop-color:#C49541"/>
	<stop  offset="0.81" style="stop-color:#654632"/>
	<stop  offset="1" style="stop-color:#CD992B"/>
</linearGradient>
<path class="st17" d="M75,36.9c-0.1-0.2-0.1-0.5-0.2-1c0-0.5,0-1.1,0-1.6c0-0.7,0-1.4,0-2c0-0.6,0-1.2,0-1.8c0-0.6,0-1.2,0-1.8
	c0-0.6,0-1.3,0-2.1v-5.3c0-0.3,0-0.6,0-1s0-0.7,0-1c0-0.3,0-0.6,0.1-0.9c0-0.3,0.1-0.5,0.1-0.6c0.2-0.4,0.4-0.7,0.7-0.9
	c0.3-0.2,0.6-0.4,1-0.4v-0.3h-6.3v0.3c0.3,0,0.6,0.1,1,0.2c0.3,0.1,0.6,0.5,0.9,1c0.1,0.3,0.2,0.6,0.2,1c0,0.4,0,0.8,0.1,1.2
	c0,0.7,0,1.3,0,1.8c0,0.5,0,1.1,0,1.6c0,0.5,0,1,0,1.6c0,0.5,0,1.1,0,1.8h-8.3c0-0.2,0-0.6,0-1.1c0-0.6,0-1.2,0-2c0-0.8,0-1.6,0-2.4
	c0-0.8,0-1.6,0-2.3c0-0.5,0.1-0.9,0.2-1.2c0.1-0.3,0.3-0.5,0.5-0.7c0.2-0.2,0.4-0.3,0.6-0.4c0.2-0.1,0.4-0.1,0.6-0.2v-0.3H60v0.3
	c0.4,0.1,0.7,0.2,1,0.3c0.3,0.2,0.5,0.4,0.7,0.8c0.1,0.1,0.1,0.3,0.2,0.6c0,0.3,0.1,0.5,0.1,0.9c0,0.3,0,0.7,0,1c0,0.4,0,0.7,0,1.1
	v6c0,0.6,0,1.1,0,1.8c0,0.6,0,1.2,0,1.8c0,0.6,0,1.1,0,1.6c0,0.5,0,0.9,0,1.2c0,0.3,0,0.7,0,1c0,0.4,0,0.7-0.1,1
	c0,0.3-0.1,0.6-0.1,0.8c0,0.2-0.1,0.4-0.1,0.5c-0.2,0.3-0.4,0.5-0.7,0.7c-0.3,0.2-0.7,0.3-1,0.4v0.3h6.2v-0.3
	c-0.3,0-0.6-0.2-0.9-0.3c-0.3-0.2-0.5-0.5-0.7-0.8c-0.1-0.2-0.2-0.6-0.2-1.2c0-0.6,0-1.1,0-1.7v-6.6h8.3c0,0.2,0,0.6,0,1.1
	c0,0.5,0,1.1,0,1.7c0,0.6,0,1.3,0,2.1c0,0.7,0,1.4,0,2.1c0,0.2,0,0.5,0,0.8c0,0.3,0,0.5,0,0.8c0,0.2,0,0.5-0.1,0.6
	c0,0.2,0,0.3-0.1,0.4c-0.1,0.3-0.3,0.5-0.7,0.7c-0.3,0.2-0.8,0.4-1.3,0.4v0.3h6.4v-0.3c-0.4-0.1-0.7-0.2-1-0.3
	C75.5,37.6,75.2,37.3,75,36.9z"/>
<linearGradient id="SVGID_18_" gradientUnits="userSpaceOnUse" x1="89.3887" y1="38.425" x2="89.3887" y2="15.8022">
	<stop  offset="0" style="stop-color:#C4962D"/>
	<stop  offset="7.000000e-02" style="stop-color:#FFD460"/>
	<stop  offset="0.17" style="stop-color:#654632"/>
	<stop  offset="0.2747" style="stop-color:#C49541"/>
	<stop  offset="0.2892" style="stop-color:#CA9E4E"/>
	<stop  offset="0.3302" style="stop-color:#D9B770"/>
	<stop  offset="0.3705" style="stop-color:#E5CB8E"/>
	<stop  offset="0.4096" style="stop-color:#EDDAA4"/>
	<stop  offset="0.4468" style="stop-color:#F3E3B2"/>
	<stop  offset="0.48" style="stop-color:#F4E6B7"/>
	<stop  offset="0.5138" style="stop-color:#EAD49C"/>
	<stop  offset="0.589" style="stop-color:#D6B168"/>
	<stop  offset="0.6453" style="stop-color:#C99D4B"/>
	<stop  offset="0.6758" style="stop-color:#C49541"/>
	<stop  offset="0.81" style="stop-color:#654632"/>
	<stop  offset="1" style="stop-color:#CD992B"/>
</linearGradient>
<path class="st18" d="M96,37.2c-0.2-0.2-0.3-0.4-0.4-0.6c-0.1-0.2-0.2-0.3-0.2-0.4c-0.2-0.5-0.3-1-0.4-1.4c-0.1-0.4-0.3-0.9-0.4-1.6
	c-0.3-1.3-0.7-2.6-1-3.9c-0.3-1.3-0.7-2.7-1-4.1c-0.4-1.4-0.7-2.9-1.1-4.4c-0.4-1.5-0.8-3.1-1.2-4.9H90c-0.1,0.1-0.1,0.3-0.2,0.6
	c-0.1,0.2-0.2,0.5-0.4,0.7c-0.2,0.2-0.3,0.5-0.5,0.7c-0.2,0.2-0.4,0.4-0.7,0.6l0.2,0.7c-0.3,1.2-0.7,2.4-1.1,3.7
	c-0.4,1.3-0.8,2.6-1.1,3.9c-0.4,1.3-0.8,2.6-1.1,3.8c-0.4,1.2-0.7,2.3-1,3.3c-0.3,1-0.6,1.8-0.8,2.4c-0.2,0.5-0.4,0.9-0.5,1
	c0,0.1-0.2,0.2-0.5,0.5s-0.6,0.4-0.9,0.4v0.3h4.5v-0.3c-0.2,0-0.4-0.1-0.6-0.1c-0.2-0.1-0.4-0.1-0.6-0.2c-0.2-0.1-0.3-0.3-0.4-0.4
	c-0.1-0.2-0.2-0.4-0.2-0.7c0-0.5,0.1-1.2,0.4-2.3c0.2-0.7,0.4-1.4,0.6-2.1c0.2-0.7,0.4-1.5,0.6-2.2h5.6c0.2,0.8,0.4,1.6,0.6,2.3
	c0.2,0.7,0.3,1.4,0.5,2c0.1,0.6,0.2,1.1,0.3,1.5c0.1,0.4,0.1,0.7,0.1,0.9c0,0.3-0.1,0.5-0.2,0.7c-0.1,0.2-0.3,0.3-0.5,0.4
	c-0.2,0.1-0.3,0.2-0.5,0.2c-0.2,0-0.3,0.1-0.3,0.1v0.3h6.1v-0.4c-0.3,0-0.6-0.1-0.8-0.3C96.4,37.6,96.2,37.4,96,37.2z M85.9,29.3
	c0.3-1.2,0.6-2.3,0.9-3.4c0.3-1,0.5-2,0.8-2.8c0.2-0.8,0.4-1.5,0.6-2.1c0.2-0.6,0.3-1,0.4-1.3c0.1,0.5,0.3,1,0.5,1.7
	c0.2,0.7,0.4,1.5,0.6,2.3c0.2,0.9,0.5,1.7,0.7,2.7c0.2,0.9,0.5,1.8,0.7,2.8H85.9z"/>
<linearGradient id="SVGID_19_" gradientUnits="userSpaceOnUse" x1="108.7716" y1="38.425" x2="108.7716" y2="16.2334">
	<stop  offset="0" style="stop-color:#C4962D"/>
	<stop  offset="7.000000e-02" style="stop-color:#FFD460"/>
	<stop  offset="0.17" style="stop-color:#654632"/>
	<stop  offset="0.2747" style="stop-color:#C49541"/>
	<stop  offset="0.2892" style="stop-color:#CA9E4E"/>
	<stop  offset="0.3302" style="stop-color:#D9B770"/>
	<stop  offset="0.3705" style="stop-color:#E5CB8E"/>
	<stop  offset="0.4096" style="stop-color:#EDDAA4"/>
	<stop  offset="0.4468" style="stop-color:#F3E3B2"/>
	<stop  offset="0.48" style="stop-color:#F4E6B7"/>
	<stop  offset="0.5138" style="stop-color:#EAD49C"/>
	<stop  offset="0.589" style="stop-color:#D6B168"/>
	<stop  offset="0.6453" style="stop-color:#C99D4B"/>
	<stop  offset="0.6758" style="stop-color:#C49541"/>
	<stop  offset="0.81" style="stop-color:#654632"/>
	<stop  offset="1" style="stop-color:#CD992B"/>
</linearGradient>
<path class="st19" d="M115.2,33.8c-0.2,0.6-0.4,1.1-0.7,1.6c-0.3,0.5-0.6,0.9-1,1.3c-0.4,0.4-0.8,0.7-1.4,0.9
	c-0.2,0.1-0.5,0.2-0.8,0.2c-0.3,0.1-0.6,0.1-0.9,0.1c-0.3,0-0.6,0.1-0.8,0.1c-0.2,0-0.4,0-0.5,0c-0.3,0-0.6,0-0.8-0.1
	c-0.3-0.1-0.5-0.1-0.8-0.2c-0.2-0.1-0.4-0.2-0.6-0.3c-0.2-0.1-0.3-0.2-0.3-0.3c-0.1-0.3-0.2-0.7-0.2-1.3c0-0.6,0-1.2-0.1-1.9
	c0-0.7,0-1.3,0-1.9c0-0.6,0-1.1,0-1.6s0-1.1,0-1.6c0-0.6,0-1.2,0-1.9c0-0.8,0-1.4,0-2.1c0-0.6,0-1.2,0-1.8c0-0.6,0-1.2,0-1.8
	c0-0.6,0-1.3,0-2c0-0.6,0.1-1,0.3-1.3c0.2-0.3,0.4-0.6,0.6-0.8c0.2-0.2,0.5-0.3,0.7-0.4c0.3-0.1,0.5-0.1,0.6-0.2v-0.3h-6.7v0.3
	c0.4,0.1,0.7,0.2,1,0.4c0.3,0.2,0.6,0.5,0.8,0.8c0.1,0.1,0.1,0.3,0.2,0.6s0.1,0.5,0.1,0.8c0,0.3,0,0.7,0,1c0,0.3,0,0.7,0,1.1v6
	c0,0.6,0,1.1,0,1.8c0,0.6,0,1.2,0,1.8c0,0.6,0,1.1,0,1.6c0,0.5,0,0.9,0,1.2c0,0.3,0,0.7,0,1c0,0.3,0,0.7-0.1,1
	c0,0.3-0.1,0.6-0.1,0.8c-0.1,0.2-0.1,0.4-0.2,0.5c-0.2,0.3-0.5,0.6-0.8,0.8c-0.3,0.2-0.7,0.3-1,0.4v0.3h13.4l0.8-6.3l-0.2-0.1
	C115.5,32.6,115.3,33.2,115.2,33.8z"/>
<linearGradient id="SVGID_20_" gradientUnits="userSpaceOnUse" x1="126.4699" y1="38.6406" x2="126.4699" y2="15.8946">
	<stop  offset="0" style="stop-color:#C4962D"/>
	<stop  offset="7.000000e-02" style="stop-color:#FFD460"/>
	<stop  offset="0.17" style="stop-color:#654632"/>
	<stop  offset="0.2747" style="stop-color:#C49541"/>
	<stop  offset="0.2892" style="stop-color:#CA9E4E"/>
	<stop  offset="0.3302" style="stop-color:#D9B770"/>
	<stop  offset="0.3705" style="stop-color:#E5CB8E"/>
	<stop  offset="0.4096" style="stop-color:#EDDAA4"/>
	<stop  offset="0.4468" style="stop-color:#F3E3B2"/>
	<stop  offset="0.48" style="stop-color:#F4E6B7"/>
	<stop  offset="0.5138" style="stop-color:#EAD49C"/>
	<stop  offset="0.589" style="stop-color:#D6B168"/>
	<stop  offset="0.6453" style="stop-color:#C99D4B"/>
	<stop  offset="0.6758" style="stop-color:#C49541"/>
	<stop  offset="0.81" style="stop-color:#654632"/>
	<stop  offset="1" style="stop-color:#CD992B"/>
</linearGradient>
<path class="st20" d="M128.7,26.5c-0.3-0.1-0.5-0.3-0.8-0.4s-0.5-0.2-0.7-0.4c-0.2-0.1-0.5-0.2-0.7-0.4c-0.2-0.1-0.5-0.3-0.8-0.4
	c-0.7-0.4-1.3-0.9-1.7-1.6c-0.4-0.7-0.7-1.5-0.7-2.6c0-0.7,0.1-1.3,0.2-1.9c0.2-0.5,0.4-1,0.7-1.4c0.3-0.4,0.6-0.6,1-0.8
	c0.4-0.2,0.8-0.3,1.2-0.3c0.5,0,1,0.2,1.5,0.5c0.4,0.3,0.8,0.8,1.2,1.3c0.3,0.5,0.7,1.1,0.9,1.8c0.3,0.7,0.5,1.3,0.6,2h0.2v-5.7
	h-0.2c-0.1,0.2-0.2,0.5-0.4,0.7c-0.1,0.2-0.3,0.4-0.3,0.4s-0.1-0.1-0.2-0.2c-0.1-0.2-0.4-0.3-0.6-0.5c-0.3-0.2-0.7-0.4-1.1-0.5
	c-0.4-0.2-1-0.2-1.6-0.2c-0.7,0-1.3,0.1-1.9,0.4c-0.6,0.3-1.1,0.7-1.6,1.2c-0.5,0.5-0.8,1.2-1.1,2c-0.3,0.8-0.4,1.8-0.4,2.9
	c0,0.7,0.1,1.3,0.2,1.9c0.2,0.6,0.4,1.1,0.6,1.6c0.2,0.5,0.5,0.9,0.9,1.3c0.3,0.4,0.7,0.6,1,0.8c0.3,0.2,0.6,0.3,0.8,0.4
	c0.2,0.1,0.5,0.2,0.7,0.3c0.2,0.1,0.4,0.2,0.7,0.4c0.3,0.1,0.5,0.3,0.9,0.5c0.3,0.2,0.6,0.4,0.9,0.6c0.3,0.2,0.5,0.5,0.8,0.8
	c0.2,0.3,0.4,0.7,0.5,1.1c0.1,0.4,0.2,0.9,0.2,1.5c0,1.4-0.3,2.5-1,3.4c-0.6,0.8-1.5,1.2-2.5,1.2c-0.4,0-0.7-0.1-1.1-0.3
	c-0.4-0.2-0.7-0.4-0.9-0.6c-0.2-0.2-0.5-0.5-0.7-0.8c-0.3-0.3-0.5-0.8-0.7-1.2c-0.2-0.5-0.4-1-0.6-1.5c-0.2-0.5-0.4-1.1-0.5-1.6
	h-0.2l0.1,6.1h0.2c0.1-0.2,0.2-0.5,0.4-0.7c0.1-0.2,0.2-0.4,0.3-0.4s0.1,0.1,0.3,0.2c0.2,0.1,0.4,0.3,0.7,0.5
	c0.3,0.2,0.7,0.3,1.2,0.4c0.5,0.1,1.1,0.2,1.8,0.2c0.8,0,1.5-0.1,2.2-0.4c0.7-0.3,1.2-0.7,1.7-1.2c0.5-0.6,0.9-1.2,1.1-2
	c0.3-0.8,0.4-1.7,0.4-2.7c0-1.5-0.3-2.7-0.8-3.7C130.3,27.7,129.6,27,128.7,26.5z"/>
<linearGradient id="SVGID_21_" gradientUnits="userSpaceOnUse" x1="145.7197" y1="38.425" x2="145.7197" y2="16.2334">
	<stop  offset="0" style="stop-color:#C4962D"/>
	<stop  offset="7.000000e-02" style="stop-color:#FFD460"/>
	<stop  offset="0.17" style="stop-color:#654632"/>
	<stop  offset="0.2747" style="stop-color:#C49541"/>
	<stop  offset="0.2892" style="stop-color:#CA9E4E"/>
	<stop  offset="0.3302" style="stop-color:#D9B770"/>
	<stop  offset="0.3705" style="stop-color:#E5CB8E"/>
	<stop  offset="0.4096" style="stop-color:#EDDAA4"/>
	<stop  offset="0.4468" style="stop-color:#F3E3B2"/>
	<stop  offset="0.48" style="stop-color:#F4E6B7"/>
	<stop  offset="0.5138" style="stop-color:#EAD49C"/>
	<stop  offset="0.589" style="stop-color:#D6B168"/>
	<stop  offset="0.6453" style="stop-color:#C99D4B"/>
	<stop  offset="0.6758" style="stop-color:#C49541"/>
	<stop  offset="0.81" style="stop-color:#654632"/>
	<stop  offset="1" style="stop-color:#CD992B"/>
</linearGradient>
<path class="st21" d="M151.9,37.6c0,0-0.1-0.1-0.3-0.2c-0.1-0.1-0.3-0.3-0.4-0.5c-0.2-0.2-0.3-0.4-0.5-0.7c-0.2-0.2-0.3-0.5-0.5-0.7
	c-0.6-1-1.2-2-1.8-3c-0.6-1-1.2-2-1.8-3c-0.6-0.9-1-1.7-1.4-2.4c-0.4-0.7-0.7-1.1-0.8-1.3c0.2-0.4,0.5-0.8,0.8-1.2
	c0.3-0.4,0.6-0.9,0.9-1.3c0.3-0.5,0.6-0.9,0.9-1.4c0.3-0.5,0.6-0.9,0.9-1.3c0.8-1,1.5-1.9,2.2-2.7c0.7-0.8,1.4-1.2,2.2-1.3v-0.3
	h-5.6v0.3c0.4,0.1,0.7,0.3,1,0.5c0.3,0.3,0.4,0.7,0.4,1.3c0,0.4-0.1,0.7-0.3,1.2c-0.2,0.4-0.4,0.9-0.6,1.3c-0.3,0.5-0.7,1.2-1.2,1.9
	c-0.5,0.7-0.9,1.4-1.4,2.1c-0.5,0.7-0.9,1.3-1.3,1.8c-0.4,0.5-0.8,0.9-1,1.2c0-1.2,0-2.1,0-2.8c0-0.8,0-1.4,0-1.9s0-1,0-1.4
	c0-0.4,0-0.9,0-1.3c0-0.9,0.1-1.5,0.2-2c0.1-0.5,0.3-0.8,0.5-1.1s0.4-0.4,0.7-0.5c0.3-0.1,0.5-0.1,0.8-0.2v-0.3h-6.5v0.3
	c0.4,0.1,0.7,0.2,1,0.3c0.3,0.2,0.5,0.4,0.7,0.8c0.2,0.3,0.2,0.8,0.3,1.4c0,0.7,0.1,1.4,0.1,2.2v6c0,0.6,0,1.1,0,1.8
	c0,0.6,0,1.2,0,1.8c0,0.6,0,1.1,0,1.6c0,0.5,0,0.9,0,1.2c0,0.3,0,0.7,0,1c0,0.4,0,0.7,0,1c0,0.3-0.1,0.6-0.1,0.8
	c0,0.2-0.1,0.4-0.2,0.6c-0.2,0.3-0.4,0.5-0.7,0.7c-0.3,0.2-0.7,0.3-1,0.4v0.3h6.7v-0.3c-0.1,0-0.3-0.1-0.5-0.1
	c-0.2-0.1-0.4-0.1-0.6-0.2s-0.4-0.2-0.5-0.4c-0.2-0.1-0.3-0.3-0.4-0.5c-0.1-0.3-0.2-0.7-0.3-1.2c0-0.5-0.1-1.1-0.1-1.7
	c0-0.7,0-1.5,0-2.4c0-1,0-2,0-3.1c0-0.2,0.1-0.3,0.1-0.4c0-0.1,0.1-0.1,0.2-0.1c0.1,0,0.2,0.1,0.3,0.2c0.1,0.1,0.4,0.5,0.7,1.1
	c0.9,1.4,1.7,2.8,2.5,4.1c0.8,1.4,1.6,2.8,2.5,4.3c0.1,0.1,0.2,0.3,0.2,0.3c0.1,0.1,0.1,0.1,0.2,0.2h4.7v-0.3
	c-0.4,0-0.7-0.1-1.1-0.2C152.3,37.8,152.1,37.7,151.9,37.6z"/>
<linearGradient id="SVGID_22_" gradientUnits="userSpaceOnUse" x1="161.2198" y1="38.425" x2="161.2198" y2="16.2334">
	<stop  offset="0" style="stop-color:#C4962D"/>
	<stop  offset="7.000000e-02" style="stop-color:#FFD460"/>
	<stop  offset="0.17" style="stop-color:#654632"/>
	<stop  offset="0.2747" style="stop-color:#C49541"/>
	<stop  offset="0.2892" style="stop-color:#CA9E4E"/>
	<stop  offset="0.3302" style="stop-color:#D9B770"/>
	<stop  offset="0.3705" style="stop-color:#E5CB8E"/>
	<stop  offset="0.4096" style="stop-color:#EDDAA4"/>
	<stop  offset="0.4468" style="stop-color:#F3E3B2"/>
	<stop  offset="0.48" style="stop-color:#F4E6B7"/>
	<stop  offset="0.5138" style="stop-color:#EAD49C"/>
	<stop  offset="0.589" style="stop-color:#D6B168"/>
	<stop  offset="0.6453" style="stop-color:#C99D4B"/>
	<stop  offset="0.6758" style="stop-color:#C49541"/>
	<stop  offset="0.81" style="stop-color:#654632"/>
	<stop  offset="1" style="stop-color:#CD992B"/>
</linearGradient>
<path class="st22" d="M162.6,37c-0.1-0.2-0.2-0.6-0.2-1.2c0-0.6,0-1.1,0-1.7v-7c0-0.6,0-1.2,0-1.8c0-0.6,0-1.1,0-1.6
	c0-0.5,0-1,0-1.5s0-1,0-1.5c0-0.5,0-1,0-1.5c0-0.5,0.1-1,0.2-1.3c0.2-0.5,0.4-0.8,0.8-1c0.3-0.2,0.6-0.3,0.9-0.3v-0.3h-6.3v0.3
	c0.4,0.1,0.7,0.2,1,0.3c0.3,0.2,0.5,0.4,0.7,0.8c0.1,0.1,0.1,0.3,0.2,0.6c0,0.3,0.1,0.5,0.1,0.9c0,0.3,0,0.7,0,1c0,0.4,0,0.7,0,1.1
	v6c0,0.6,0,1.1,0,1.8c0,0.6,0,1.2,0,1.8c0,0.6,0,1.1,0,1.6c0,0.5,0,0.9,0,1.2c0,0.3,0,0.7,0,1c0,0.3,0,0.7,0,1c0,0.3,0,0.6-0.1,0.8
	c0,0.2-0.1,0.4-0.2,0.5c-0.2,0.4-0.5,0.6-0.8,0.8c-0.3,0.2-0.6,0.3-1,0.4v0.3h6.3v-0.3c-0.3,0-0.6-0.2-1-0.3
	C163,37.6,162.8,37.3,162.6,37z"/>
<path class="st23" d="M222.2,21.8c-0.1,0-0.3,0.1-0.6,0.1c-0.3,0-0.5,0-0.7,0s-0.4,0-0.6,0c-0.2,0-0.4,0-0.6,0c-0.2,0-0.4,0-0.7,0
	c-0.3,0-0.5,0-0.7,0c-0.2,0-0.4,0-0.6,0c-0.2,0-0.4,0-0.6,0c-0.2,0-0.4,0-0.7,0c-0.3,0-0.5,0-0.6-0.1c-0.1,0-0.3-0.1-0.4-0.1
	l-0.3,2.9l0.1,0c0-0.2,0.1-0.4,0.2-0.6c0.1-0.2,0.1-0.4,0.2-0.5c0.1-0.2,0.2-0.3,0.2-0.5c0.1-0.1,0.1-0.2,0.2-0.3
	c0.1-0.2,0.3-0.3,0.5-0.4c0.2-0.1,0.4-0.1,0.6-0.1c0.1,0,0.2,0,0.3,0c0.1,0,0.2,0,0.3,0c0.1,0,0.2,0,0.3,0c0.1,0,0.2,0,0.4,0v5
	c0,0.3,0,0.6,0,0.9s0,0.6,0,0.9c0,0.3,0,0.5,0,0.8c0,0.2,0,0.4,0,0.6c0,0.2,0,0.3,0,0.5c0,0.2,0,0.3,0,0.5c0,0.1,0,0.3,0,0.4
	c0,0.1,0,0.2-0.1,0.2c-0.2,0.3-0.3,0.4-0.5,0.5c-0.2,0.1-0.3,0.1-0.5,0.2v0.2h3.4v-0.2c-0.2,0-0.3-0.1-0.5-0.2
	c-0.2-0.1-0.3-0.2-0.4-0.5c-0.1-0.1-0.1-0.3-0.1-0.6c0-0.3,0-0.5,0-0.8v-3.4c0-0.3,0-0.7,0-1.2c0-0.5,0-0.9,0-1.4c0-0.5,0-0.9,0-1.4
	c0-0.4,0-0.8,0-1c0.1,0,0.3,0,0.4,0c0.1,0,0.2,0,0.3,0c0.1,0,0.2,0,0.3,0c0.1,0,0.2,0,0.3,0c0.3,0,0.5,0,0.6,0.1
	c0.2,0.1,0.3,0.2,0.5,0.4c0.1,0.1,0.1,0.2,0.2,0.3c0.1,0.1,0.2,0.3,0.2,0.5c0.1,0.2,0.2,0.4,0.2,0.6c0.1,0.2,0.1,0.4,0.2,0.6l0.1,0
	l-0.3-3C222.5,21.7,222.4,21.8,222.2,21.8z"/>
<path class="st23" d="M232.9,32c0-0.1-0.1-0.3-0.1-0.5c0-0.2,0-0.5,0-0.8c0-0.4,0-0.7,0-1c0-0.3,0-0.6,0-0.9c0-0.3,0-0.6,0-0.9
	c0-0.3,0-0.6,0-1v-2.6c0-0.2,0-0.3,0-0.5c0-0.2,0-0.3,0-0.5c0-0.2,0-0.3,0-0.4c0-0.1,0-0.2,0.1-0.3c0.1-0.2,0.2-0.4,0.4-0.5
	c0.2-0.1,0.3-0.2,0.5-0.2v-0.2h-3.1v0.2c0.2,0,0.3,0,0.5,0.1c0.2,0.1,0.3,0.2,0.4,0.5c0.1,0.1,0.1,0.3,0.1,0.5c0,0.2,0,0.4,0,0.6
	c0,0.3,0,0.6,0,0.9c0,0.3,0,0.5,0,0.8c0,0.3,0,0.5,0,0.8c0,0.3,0,0.6,0,0.9h-4.1c0-0.1,0-0.3,0-0.6c0-0.3,0-0.6,0-1
	c0-0.4,0-0.8,0-1.2c0-0.4,0-0.8,0-1.1c0-0.2,0-0.4,0.1-0.6c0.1-0.2,0.1-0.3,0.2-0.4c0.1-0.1,0.2-0.1,0.3-0.2c0.1,0,0.2-0.1,0.3-0.1
	v-0.2h-3.1v0.2c0.2,0,0.3,0.1,0.5,0.2c0.1,0.1,0.3,0.2,0.4,0.4c0,0.1,0.1,0.2,0.1,0.3c0,0.1,0,0.3,0,0.4c0,0.2,0,0.3,0,0.5
	c0,0.2,0,0.4,0,0.5v3c0,0.3,0,0.6,0,0.9c0,0.3,0,0.6,0,0.9c0,0.3,0,0.6,0,0.8c0,0.2,0,0.4,0,0.6c0,0.2,0,0.3,0,0.5
	c0,0.2,0,0.3,0,0.5c0,0.2,0,0.3,0,0.4c0,0.1,0,0.2-0.1,0.3c-0.1,0.1-0.2,0.3-0.4,0.4c-0.2,0.1-0.3,0.2-0.5,0.2v0.2h3v-0.2
	c-0.1,0-0.3-0.1-0.4-0.2c-0.2-0.1-0.3-0.2-0.4-0.4c-0.1-0.1-0.1-0.3-0.1-0.6c0-0.3,0-0.6,0-0.9v-3.3h4.1c0,0.1,0,0.3,0,0.5
	c0,0.2,0,0.5,0,0.8c0,0.3,0,0.7,0,1c0,0.4,0,0.7,0,1c0,0.1,0,0.2,0,0.4c0,0.1,0,0.3,0,0.4c0,0.1,0,0.2,0,0.3c0,0.1,0,0.2,0,0.2
	c-0.1,0.1-0.2,0.3-0.3,0.4c-0.2,0.1-0.4,0.2-0.6,0.2v0.2h3.2v-0.2c-0.2,0-0.3-0.1-0.5-0.2C233.1,32.3,233,32.2,232.9,32z"/>
<path class="st23" d="M242.9,30.9c-0.2,0.3-0.3,0.6-0.5,0.8c-0.2,0.2-0.4,0.4-0.5,0.5c-0.2,0.1-0.4,0.2-0.6,0.2
	c-0.2,0-0.4,0.1-0.6,0.1c-0.2,0-0.3,0-0.4,0c-0.3,0-0.5,0-0.8-0.1c-0.2-0.1-0.4-0.2-0.4-0.3c-0.1-0.1-0.1-0.4-0.1-0.6
	c0-0.3,0-0.6,0-0.9c0-0.1,0-0.2,0-0.4c0-0.1,0-0.3,0-0.5c0-0.2,0-0.3,0-0.5c0-0.2,0-0.3,0-0.5c0-0.3,0-0.6,0-0.8s0-0.5,0-0.6
	c0.1,0,0.2,0,0.3,0c0.1,0,0.1,0,0.2,0c0.1,0,0.1,0,0.2,0c0.1,0,0.2,0,0.3,0c0.2,0,0.4,0.1,0.5,0.2c0.2,0.1,0.3,0.2,0.4,0.4
	c0.1,0.2,0.2,0.4,0.4,0.8c0.1,0.3,0.2,0.7,0.3,1h0.1v-4.8h-0.1c0,0.3-0.1,0.5-0.1,0.8c-0.1,0.2-0.1,0.4-0.2,0.6
	c-0.1,0.2-0.2,0.3-0.3,0.4c-0.1,0.1-0.3,0.2-0.5,0.3c-0.1,0-0.2,0.1-0.3,0.1s-0.3,0-0.4,0c-0.1,0-0.3,0-0.4,0c-0.1,0-0.2,0-0.2,0
	c0,0,0-0.1,0-0.2c0-0.1,0-0.2,0-0.4c0-0.2,0-0.4,0-0.6c0-0.3,0-0.6,0-1c0-0.7,0-1.3,0-1.8c0-0.5,0-0.8,0-1c0.1,0,0.2,0,0.3-0.1
	c0.2,0,0.3,0,0.4,0c0.5,0,0.8,0,1.2,0.1c0.3,0.1,0.5,0.1,0.6,0.2c0.5,0.4,1,1,1.6,2.1l0.1-0.1l-0.7-2.5h-5.7v0.2
	c0.2,0,0.3,0.1,0.5,0.1c0.1,0,0.2,0.1,0.3,0.3c0,0.1,0.1,0.2,0.1,0.3c0,0.1,0,0.3,0.1,0.5c0,0.2,0,0.4,0,0.5c0,0.2,0,0.4,0,0.6v3
	c0,0.3,0,0.6,0,0.9c0,0.3,0,0.6,0,0.9c0,0.3,0,0.6,0,0.8c0,0.2,0,0.4,0,0.6c0,0.2,0,0.3,0,0.5c0,0.2,0,0.3,0,0.5
	c0,0.2,0,0.3-0.1,0.4c0,0.1-0.1,0.2-0.1,0.3c-0.1,0.2-0.2,0.3-0.4,0.4c-0.1,0.1-0.3,0.2-0.5,0.2v0.2h6.3l0.5-2.9l-0.1,0
	C243.3,30.2,243.1,30.6,242.9,30.9z"/>
<path class="st23" d="M259.1,32.2c-0.1-0.1-0.1-0.2-0.2-0.2c0-0.1-0.1-0.1-0.1-0.1c0-0.1-0.1-0.3-0.1-0.5c0-0.2,0-0.4,0-0.6
	c0-0.6,0-1.2,0-1.7c0-0.5,0-1.1,0-1.6c0-0.5,0-0.9,0-1.4c0-0.5,0-0.9,0-1.4c0-0.4,0-0.7,0-1.1c0-0.4,0-0.6,0.1-0.8
	c0.1-0.2,0.2-0.4,0.3-0.6c0.1-0.2,0.4-0.2,0.6-0.3v-0.2h-2.2c0,0.1-0.1,0.4-0.3,0.9c-0.1,0.5-0.3,1.2-0.6,1.9
	c-0.2,0.8-0.5,1.6-0.8,2.6c-0.3,1-0.6,1.9-0.9,2.9l-2.5-8.3h-2.2v0.2c0.1,0,0.2,0.1,0.3,0.1s0.2,0.1,0.3,0.2
	c0.1,0.1,0.2,0.2,0.3,0.4c0.1,0.2,0.1,0.4,0.1,0.7c0,0.3,0,0.5,0,0.7s0,0.4,0,0.6c0,0.2,0,0.4,0,0.6c0,0.2,0,0.5,0,0.7
	c0,0.7,0,1.3,0,1.9c0,0.6,0,1.1,0,1.5c0,0.5,0,1-0.1,1.3c0,0.4-0.1,0.7-0.2,0.9s-0.2,0.4-0.4,0.6c-0.2,0.1-0.3,0.2-0.6,0.3v0.2h2.7
	v-0.2c-0.3-0.1-0.5-0.2-0.7-0.3c-0.2-0.1-0.3-0.3-0.4-0.6c-0.1-0.2-0.1-0.5-0.2-0.9c0-0.3,0-0.8,0-1.2c0-0.7,0-1.4,0-1.9
	c0-0.6,0-1.1,0-1.6c0-0.5,0-1,0-1.5c0-0.5,0-1.1,0-1.8c0,0.1,0.1,0.3,0.2,0.6c0.1,0.3,0.2,0.7,0.4,1.2c0.1,0.5,0.3,1,0.5,1.6
	c0.2,0.6,0.4,1.2,0.6,1.9c0.2,0.7,0.4,1.4,0.6,2.1c0.2,0.7,0.4,1.5,0.7,2.2h0.1c0-0.1,0.1-0.2,0.1-0.4c0.1-0.2,0.1-0.4,0.2-0.6
	c0.1-0.2,0.1-0.5,0.2-0.7c0.1-0.2,0.1-0.4,0.1-0.5c0.2-0.7,0.4-1.4,0.6-2.1c0.2-0.6,0.4-1.2,0.6-1.8c0.2-0.6,0.4-1.2,0.6-1.8
	c0.2-0.6,0.4-1.3,0.6-2.1v4.3c0,0.6,0,1.3,0,1.9c0,0.6,0,1.2,0,1.9c0,0.2,0,0.4,0,0.6c0,0.2-0.1,0.4-0.1,0.5
	c-0.1,0.2-0.2,0.4-0.4,0.6c-0.2,0.2-0.4,0.3-0.7,0.3v0.2h3.5v-0.2c-0.2,0-0.3,0-0.4-0.1C259.3,32.4,259.2,32.3,259.1,32.2z"/>
<path class="st23" d="M266.9,21.9c0.1,0,0.2,0,0.3,0.1s0.2,0.1,0.3,0.1c0.1,0.1,0.2,0.1,0.2,0.2c0.1,0.1,0.1,0.2,0.1,0.4
	c0,0.1,0,0.2,0,0.3c0,0.1-0.1,0.2-0.1,0.4c0,0.1-0.1,0.2-0.1,0.3c0,0.1-0.1,0.2-0.1,0.3c-0.1,0.2-0.2,0.4-0.3,0.7
	c-0.1,0.3-0.2,0.6-0.4,0.9c-0.1,0.3-0.3,0.6-0.4,0.9c-0.1,0.3-0.2,0.5-0.3,0.7c-0.1-0.3-0.2-0.6-0.4-0.9c-0.1-0.3-0.3-0.6-0.4-0.9
	c-0.1-0.3-0.2-0.6-0.3-0.8c-0.1-0.3-0.2-0.5-0.3-0.7c-0.1-0.3-0.2-0.5-0.3-0.8c-0.1-0.3-0.1-0.5-0.1-0.6c0-0.1,0-0.2,0.1-0.3
	c0.1-0.1,0.1-0.1,0.2-0.2c0.1,0,0.2-0.1,0.3-0.1c0.1,0,0.2,0,0.3,0v-0.2H262v0.2c0.1,0,0.3,0.1,0.4,0.2c0.1,0.1,0.2,0.2,0.3,0.4
	c0.1,0.2,0.2,0.4,0.3,0.6c0.1,0.2,0.2,0.5,0.4,0.8c0.1,0.2,0.2,0.4,0.3,0.6c0.1,0.2,0.2,0.5,0.3,0.8c0.1,0.3,0.2,0.6,0.4,0.9
	c0.1,0.3,0.2,0.6,0.3,0.8c0.1,0.2,0.2,0.4,0.3,0.6c0.1,0.2,0.1,0.3,0.1,0.3c0,0.6,0,1,0,1.4c0,0.4,0,0.7,0,1c0,0.2,0,0.3,0,0.5
	s0,0.3,0,0.5c0,0.2,0,0.3,0,0.4c0,0.1,0,0.2-0.1,0.3c-0.2,0.3-0.3,0.4-0.4,0.5c-0.1,0.1-0.3,0.1-0.5,0.1v0.2h3.2v-0.2
	c-0.2,0-0.3-0.1-0.5-0.2c-0.2-0.1-0.3-0.2-0.4-0.4c-0.1-0.1-0.1-0.3-0.1-0.6c0-0.3,0-0.6,0-0.9v-3.1c0.1-0.2,0.2-0.4,0.3-0.8
	c0.1-0.3,0.3-0.7,0.5-1c0.2-0.4,0.3-0.7,0.5-1c0.1-0.3,0.3-0.6,0.3-0.8c0.1-0.3,0.2-0.5,0.3-0.8c0.1-0.2,0.2-0.4,0.3-0.6
	c0.1-0.2,0.2-0.3,0.4-0.4c0.1-0.1,0.3-0.2,0.5-0.2v-0.2h-2.4V21.9z"/>
<path class="st23" d="M275.3,26.8c-0.1-0.1-0.3-0.1-0.4-0.2c-0.1-0.1-0.2-0.1-0.4-0.2c-0.1-0.1-0.2-0.1-0.4-0.2
	c-0.1-0.1-0.2-0.1-0.4-0.2c-0.4-0.2-0.6-0.5-0.9-0.8c-0.2-0.3-0.3-0.8-0.3-1.3c0-0.3,0-0.7,0.1-0.9c0.1-0.3,0.2-0.5,0.3-0.7
	c0.1-0.2,0.3-0.3,0.5-0.4c0.2-0.1,0.4-0.1,0.6-0.1c0.3,0,0.5,0.1,0.7,0.2c0.2,0.2,0.4,0.4,0.6,0.6c0.2,0.3,0.3,0.6,0.5,0.9
	c0.1,0.3,0.2,0.7,0.3,1h0.1v-2.8h-0.1c-0.1,0.1-0.1,0.2-0.2,0.4c-0.1,0.1-0.1,0.2-0.1,0.2c0,0,0,0-0.1-0.1c-0.1-0.1-0.2-0.2-0.3-0.2
	c-0.1-0.1-0.3-0.2-0.5-0.3c-0.2-0.1-0.5-0.1-0.8-0.1c-0.3,0-0.6,0.1-0.9,0.2c-0.3,0.1-0.6,0.3-0.8,0.6c-0.2,0.3-0.4,0.6-0.5,1
	c-0.1,0.4-0.2,0.9-0.2,1.4c0,0.3,0,0.6,0.1,0.9s0.2,0.6,0.3,0.8c0.1,0.2,0.3,0.4,0.4,0.6c0.2,0.2,0.3,0.3,0.5,0.4
	c0.2,0.1,0.3,0.2,0.4,0.2c0.1,0.1,0.2,0.1,0.3,0.2s0.2,0.1,0.3,0.2c0.1,0.1,0.3,0.1,0.4,0.2c0.2,0.1,0.3,0.2,0.5,0.3
	c0.1,0.1,0.3,0.2,0.4,0.4c0.1,0.2,0.2,0.3,0.3,0.6c0.1,0.2,0.1,0.5,0.1,0.7c0,0.7-0.2,1.3-0.5,1.7c-0.3,0.4-0.7,0.6-1.2,0.6
	c-0.2,0-0.4,0-0.6-0.1c-0.2-0.1-0.3-0.2-0.5-0.3c-0.1-0.1-0.2-0.2-0.4-0.4c-0.1-0.2-0.2-0.4-0.4-0.6c-0.1-0.2-0.2-0.5-0.3-0.7
	c-0.1-0.3-0.2-0.5-0.2-0.8h-0.1l0,3h0.1c0.1-0.1,0.1-0.2,0.2-0.3c0.1-0.1,0.2-0.2,0.2-0.2s0.1,0,0.1,0.1c0.1,0.1,0.2,0.1,0.4,0.2
	c0.2,0.1,0.4,0.2,0.6,0.2c0.2,0.1,0.5,0.1,0.9,0.1c0.4,0,0.8-0.1,1.1-0.2c0.3-0.1,0.6-0.3,0.9-0.6c0.2-0.3,0.4-0.6,0.6-1
	c0.1-0.4,0.2-0.8,0.2-1.3c0-0.7-0.1-1.3-0.4-1.8S275.7,27.1,275.3,26.8z"/>
<path class="st23" d="M286.2,21.8c-0.1,0-0.3,0.1-0.6,0.1c-0.3,0-0.5,0-0.7,0c-0.2,0-0.4,0-0.6,0c-0.2,0-0.4,0-0.6,0
	c-0.2,0-0.4,0-0.7,0c-0.3,0-0.5,0-0.7,0c-0.2,0-0.4,0-0.6,0c-0.2,0-0.4,0-0.6,0c-0.2,0-0.4,0-0.7,0c-0.3,0-0.4,0-0.6-0.1
	c-0.1,0-0.3-0.1-0.4-0.1l-0.3,2.9l0.1,0c0-0.2,0.1-0.4,0.2-0.6c0.1-0.2,0.1-0.4,0.2-0.5c0.1-0.2,0.2-0.3,0.2-0.5
	c0.1-0.1,0.1-0.2,0.2-0.3c0.1-0.2,0.3-0.3,0.5-0.4c0.2-0.1,0.4-0.1,0.6-0.1c0.1,0,0.2,0,0.3,0c0.1,0,0.2,0,0.3,0c0.1,0,0.2,0,0.3,0
	c0.1,0,0.2,0,0.4,0v5c0,0.3,0,0.6,0,0.9s0,0.6,0,0.9c0,0.3,0,0.5,0,0.8c0,0.2,0,0.4,0,0.6c0,0.2,0,0.3,0,0.5c0,0.2,0,0.3,0,0.5
	c0,0.1,0,0.3,0,0.4c0,0.1,0,0.2-0.1,0.2c-0.2,0.3-0.3,0.4-0.5,0.5c-0.2,0.1-0.3,0.1-0.5,0.2v0.2h3.4v-0.2c-0.1,0-0.3-0.1-0.5-0.2
	c-0.2-0.1-0.3-0.2-0.4-0.5c-0.1-0.1-0.1-0.3-0.1-0.6c0-0.3,0-0.5,0-0.8v-3.4c0-0.3,0-0.7,0-1.2c0-0.5,0-0.9,0-1.4c0-0.5,0-0.9,0-1.4
	c0-0.4,0-0.8,0-1c0.2,0,0.3,0,0.4,0c0.1,0,0.2,0,0.3,0c0.1,0,0.2,0,0.3,0s0.2,0,0.3,0c0.3,0,0.5,0,0.6,0.1c0.2,0.1,0.3,0.2,0.5,0.4
	c0.1,0.1,0.1,0.2,0.2,0.3c0.1,0.1,0.2,0.3,0.2,0.5c0.1,0.2,0.2,0.4,0.2,0.6c0.1,0.2,0.1,0.4,0.2,0.6l0.1,0l-0.3-3
	C286.5,21.7,286.4,21.8,286.2,21.8z"/>
<path class="st23" d="M295.6,30.9c-0.2,0.3-0.3,0.6-0.5,0.8c-0.2,0.2-0.4,0.4-0.5,0.5c-0.2,0.1-0.4,0.2-0.6,0.2
	c-0.2,0-0.4,0.1-0.6,0.1c-0.2,0-0.3,0-0.4,0c-0.3,0-0.5,0-0.8-0.1c-0.2-0.1-0.4-0.2-0.4-0.3c-0.1-0.1-0.1-0.4-0.1-0.6
	c0-0.3,0-0.6,0-0.9c0-0.1,0-0.2,0-0.4c0-0.1,0-0.3,0-0.5c0-0.2,0-0.3,0-0.5c0-0.2,0-0.3,0-0.5c0-0.3,0-0.6,0-0.8s0-0.5,0-0.6
	c0.1,0,0.2,0,0.3,0c0.1,0,0.1,0,0.2,0c0.1,0,0.1,0,0.2,0c0.1,0,0.2,0,0.3,0c0.2,0,0.4,0.1,0.5,0.2c0.2,0.1,0.3,0.2,0.4,0.4
	c0.1,0.2,0.2,0.4,0.4,0.8c0.1,0.3,0.2,0.7,0.3,1h0.1v-4.8H294c0,0.3-0.1,0.5-0.1,0.8c-0.1,0.2-0.1,0.4-0.2,0.6
	c-0.1,0.2-0.2,0.3-0.3,0.4c-0.1,0.1-0.3,0.2-0.5,0.3c-0.1,0-0.2,0.1-0.3,0.1c-0.1,0-0.3,0-0.4,0c-0.1,0-0.3,0-0.4,0s-0.2,0-0.2,0
	c0,0,0-0.1,0-0.2c0-0.1,0-0.2,0-0.4c0-0.2,0-0.4,0-0.6c0-0.3,0-0.6,0-1c0-0.7,0-1.3,0-1.8c0-0.5,0-0.8,0-1c0.1,0,0.2,0,0.3-0.1
	c0.2,0,0.3,0,0.4,0c0.5,0,0.8,0,1.2,0.1c0.3,0.1,0.5,0.1,0.6,0.2c0.5,0.4,1,1,1.6,2.1l0.1-0.1l-0.7-2.5h-5.7v0.2
	c0.2,0,0.3,0.1,0.5,0.1c0.1,0,0.2,0.1,0.3,0.3c0,0.1,0.1,0.2,0.1,0.3c0,0.1,0,0.3,0.1,0.5c0,0.2,0,0.4,0,0.5c0,0.2,0,0.4,0,0.6v3
	c0,0.3,0,0.6,0,0.9c0,0.3,0,0.6,0,0.9c0,0.3,0,0.6,0,0.8c0,0.2,0,0.4,0,0.6c0,0.2,0,0.3,0,0.5c0,0.2,0,0.3,0,0.5
	c0,0.2,0,0.3-0.1,0.4c0,0.1,0,0.2-0.1,0.3c-0.1,0.2-0.2,0.3-0.4,0.4c-0.1,0.1-0.3,0.2-0.5,0.2v0.2h6.3l0.5-2.9l-0.1,0
	C295.9,30.2,295.7,30.6,295.6,30.9z"/>
<path class="st23" d="M305,30.9c-0.2-0.3-0.4-0.7-0.6-1.2c-0.2-0.4-0.4-0.9-0.6-1.2c-0.1-0.2-0.2-0.4-0.3-0.6
	c-0.1-0.2-0.2-0.3-0.3-0.4v0c0.2-0.1,0.4-0.2,0.6-0.4c0.2-0.2,0.4-0.4,0.5-0.6c0.2-0.2,0.3-0.5,0.4-0.8c0.1-0.3,0.1-0.6,0.1-1
	c0-0.6-0.1-1.1-0.3-1.5c-0.2-0.4-0.4-0.7-0.7-0.9c-0.3-0.2-0.6-0.4-1-0.4c-0.4,0-0.8-0.1-1.2-0.1c-0.2,0-0.4,0-0.7,0
	c-0.3,0-0.6,0-0.9,0c-0.3,0-0.6,0-0.8,0c-0.2,0-0.4,0-0.4,0v0.2c0.2,0,0.3,0.1,0.5,0.1c0.1,0.1,0.2,0.2,0.3,0.3
	c0,0.1,0.1,0.2,0.1,0.3c0,0.1,0,0.3,0.1,0.5c0,0.2,0,0.3,0,0.5c0,0.2,0,0.4,0,0.6v3c0,0.3,0,0.6,0,0.9c0,0.3,0,0.6,0,0.9
	s0,0.6,0,0.8c0,0.2,0,0.4,0,0.6c0,0.2,0,0.3,0,0.5c0,0.2,0,0.3,0,0.5c0,0.2,0,0.3,0,0.4c0,0.1,0,0.2-0.1,0.3
	c-0.1,0.2-0.2,0.3-0.4,0.4c-0.2,0.1-0.3,0.1-0.5,0.2v0.2h3.3v-0.2c-0.3,0-0.5-0.1-0.7-0.2c-0.2-0.1-0.3-0.3-0.3-0.4
	c-0.1-0.2-0.1-0.3-0.1-0.6c0-0.2,0-0.5,0-0.8c0-0.3,0-0.7,0-1.2c0-0.5,0-1.1,0-1.7c0.1,0,0.2,0,0.2,0c0.1,0,0.2,0,0.3,0.1
	c0.2,0.1,0.4,0.2,0.5,0.4c0.2,0.2,0.3,0.4,0.5,0.7c0.2,0.3,0.3,0.5,0.4,0.8c0.1,0.2,0.2,0.5,0.3,0.7c0.1,0.2,0.2,0.4,0.3,0.7
	c0.1,0.2,0.2,0.5,0.3,0.8c0.1,0.2,0.2,0.4,0.2,0.5c0.1,0.1,0.1,0.2,0.1,0.3c0,0.1,0.1,0.1,0.1,0.2c0,0,0.1,0.1,0.1,0.2h2.1v-0.2
	c-0.3-0.1-0.6-0.2-0.8-0.5C305.5,31.8,305.2,31.5,305,30.9z M302.4,27.1c-0.2,0.1-0.5,0.2-0.7,0.2c-0.2,0-0.5,0.1-0.8,0.1
	c0-0.1,0-0.3,0-0.6c0-0.3,0-0.7,0-1.1s0-0.8,0-1.3c0-0.4,0-0.8,0-1.2c0-0.2,0-0.4,0-0.5c0-0.1,0-0.2,0-0.3c0-0.1,0-0.1,0-0.2
	c0,0,0-0.1,0-0.2c0,0,0.1,0,0.2,0c0.1,0,0.2,0,0.4,0c0.2,0,0.4,0,0.6,0.1c0.2,0.1,0.4,0.1,0.5,0.2c0.3,0.2,0.6,0.5,0.8,0.9
	c0.2,0.4,0.3,0.8,0.3,1.4c0,0.3,0,0.5-0.1,0.8c-0.1,0.3-0.1,0.5-0.2,0.7c-0.1,0.2-0.2,0.4-0.4,0.6C302.8,26.8,302.7,27,302.4,27.1z"
	/>
<path class="st23" d="M312.9,21.9c0.1,0,0.2,0,0.3,0.1c0.1,0,0.2,0.1,0.3,0.1c0.1,0.1,0.2,0.1,0.2,0.2c0.1,0.1,0.1,0.2,0.1,0.4
	c0,0.1,0,0.2,0,0.3c0,0.1-0.1,0.2-0.1,0.4c0,0.1-0.1,0.2-0.1,0.3c0,0.1-0.1,0.2-0.1,0.3c-0.1,0.2-0.2,0.4-0.3,0.7
	c-0.1,0.3-0.2,0.6-0.4,0.9c-0.1,0.3-0.3,0.6-0.4,0.9c-0.1,0.3-0.2,0.5-0.3,0.7c-0.1-0.3-0.2-0.6-0.4-0.9c-0.1-0.3-0.3-0.6-0.4-0.9
	c-0.1-0.3-0.2-0.6-0.3-0.8c-0.1-0.3-0.2-0.5-0.3-0.7c-0.1-0.3-0.2-0.5-0.3-0.8c-0.1-0.3-0.2-0.5-0.2-0.6c0-0.1,0-0.2,0.1-0.3
	c0.1-0.1,0.1-0.1,0.2-0.2c0.1,0,0.2-0.1,0.3-0.1c0.1,0,0.2,0,0.3,0v-0.2H308v0.2c0.1,0,0.3,0.1,0.4,0.2c0.1,0.1,0.2,0.2,0.3,0.4
	c0.1,0.2,0.2,0.4,0.3,0.6c0.1,0.2,0.2,0.5,0.4,0.8c0.1,0.2,0.2,0.4,0.3,0.6c0.1,0.2,0.2,0.5,0.3,0.8c0.1,0.3,0.2,0.6,0.4,0.9
	c0.1,0.3,0.2,0.6,0.3,0.8c0.1,0.2,0.2,0.4,0.3,0.6c0.1,0.2,0.1,0.3,0.1,0.3c0,0.6,0,1,0,1.4c0,0.4,0,0.7,0,1c0,0.2,0,0.3,0,0.5
	c0,0.2,0,0.3,0,0.5c0,0.2,0,0.3,0,0.4s0,0.2-0.1,0.3c-0.2,0.3-0.3,0.4-0.4,0.5c-0.1,0.1-0.3,0.1-0.5,0.1v0.2h3.2v-0.2
	c-0.2,0-0.3-0.1-0.5-0.2c-0.2-0.1-0.3-0.2-0.4-0.4c-0.1-0.1-0.1-0.3-0.1-0.6c0-0.3,0-0.6,0-0.9v-3.1c0.1-0.2,0.2-0.4,0.3-0.8
	c0.1-0.3,0.3-0.7,0.4-1c0.2-0.4,0.3-0.7,0.5-1c0.1-0.3,0.3-0.6,0.3-0.8c0.1-0.3,0.2-0.5,0.3-0.8c0.1-0.2,0.2-0.4,0.3-0.6
	c0.1-0.2,0.2-0.3,0.4-0.4c0.1-0.1,0.3-0.2,0.5-0.2v-0.2h-2.4V21.9z"/>
<path class="st23" d="M329.2,32c0-0.1-0.1-0.3-0.1-0.5c0-0.2,0-0.5,0-0.8c0-0.4,0-0.7,0-1c0-0.3,0-0.6,0-0.9c0-0.3,0-0.6,0-0.9
	c0-0.3,0-0.6,0-1v-2.6c0-0.2,0-0.3,0-0.5c0-0.2,0-0.3,0-0.5c0-0.2,0-0.3,0-0.4c0-0.1,0-0.2,0.1-0.3c0.1-0.2,0.2-0.4,0.4-0.5
	c0.2-0.1,0.3-0.2,0.5-0.2v-0.2h-3.1v0.2c0.2,0,0.3,0,0.5,0.1c0.2,0.1,0.3,0.2,0.4,0.5c0.1,0.1,0.1,0.3,0.1,0.5c0,0.2,0,0.4,0,0.6
	c0,0.3,0,0.6,0,0.9c0,0.3,0,0.5,0,0.8c0,0.3,0,0.5,0,0.8c0,0.3,0,0.6,0,0.9h-4.1c0-0.1,0-0.3,0-0.6c0-0.3,0-0.6,0-1
	c0-0.4,0-0.8,0-1.2c0-0.4,0-0.8,0-1.1c0-0.2,0-0.4,0.1-0.6s0.1-0.3,0.2-0.4c0.1-0.1,0.2-0.1,0.3-0.2c0.1,0,0.2-0.1,0.3-0.1v-0.2
	h-3.1v0.2c0.2,0,0.3,0.1,0.5,0.2c0.1,0.1,0.3,0.2,0.4,0.4c0,0.1,0.1,0.2,0.1,0.3c0,0.1,0,0.3,0,0.4c0,0.2,0,0.3,0,0.5
	c0,0.2,0,0.4,0,0.5v3c0,0.3,0,0.6,0,0.9c0,0.3,0,0.6,0,0.9c0,0.3,0,0.6,0,0.8c0,0.2,0,0.4,0,0.6c0,0.2,0,0.3,0,0.5
	c0,0.2,0,0.3,0,0.5c0,0.2,0,0.3,0,0.4c0,0.1,0,0.2-0.1,0.3c-0.1,0.1-0.2,0.3-0.4,0.4c-0.2,0.1-0.3,0.2-0.5,0.2v0.2h3v-0.2
	c-0.1,0-0.3-0.1-0.4-0.2c-0.2-0.1-0.3-0.2-0.4-0.4c-0.1-0.1-0.1-0.3-0.1-0.6c0-0.3,0-0.6,0-0.9v-3.3h4.1c0,0.1,0,0.3,0,0.5
	c0,0.2,0,0.5,0,0.8c0,0.3,0,0.7,0,1c0,0.4,0,0.7,0,1c0,0.1,0,0.2,0,0.4c0,0.1,0,0.3,0,0.4c0,0.1,0,0.2,0,0.3c0,0.1,0,0.2,0,0.2
	c-0.1,0.1-0.2,0.3-0.3,0.4c-0.2,0.1-0.4,0.2-0.6,0.2v0.2h3.2v-0.2c-0.2,0-0.3-0.1-0.5-0.2C329.4,32.3,329.2,32.2,329.2,32z"/>
<path class="st23" d="M335.3,32c-0.1-0.1-0.1-0.3-0.1-0.6c0-0.3,0-0.6,0-0.9v-3.4c0-0.3,0-0.6,0-0.9c0-0.3,0-0.5,0-0.8
	c0-0.3,0-0.5,0-0.8c0-0.2,0-0.5,0-0.8c0-0.2,0-0.5,0-0.7c0-0.3,0-0.5,0.1-0.7c0.1-0.2,0.2-0.4,0.4-0.5c0.2-0.1,0.3-0.1,0.5-0.2v-0.2
	h-3.1v0.2c0.2,0,0.3,0.1,0.5,0.2c0.1,0.1,0.3,0.2,0.4,0.4c0,0.1,0.1,0.2,0.1,0.3c0,0.1,0,0.3,0,0.4c0,0.2,0,0.3,0,0.5
	c0,0.2,0,0.4,0,0.5v3c0,0.3,0,0.6,0,0.9c0,0.3,0,0.6,0,0.9c0,0.3,0,0.6,0,0.8c0,0.2,0,0.4,0,0.6c0,0.2,0,0.3,0,0.5
	c0,0.2,0,0.3,0,0.5c0,0.2,0,0.3,0,0.4c0,0.1,0,0.2-0.1,0.3c-0.1,0.2-0.2,0.3-0.4,0.4c-0.1,0.1-0.3,0.2-0.5,0.2v0.2h3.1v-0.2
	c-0.1,0-0.3-0.1-0.5-0.2C335.5,32.3,335.4,32.2,335.3,32z"/>
<path class="st23" d="M346.6,24c-0.2-0.4-0.4-0.7-0.7-1c-0.3-0.3-0.5-0.5-0.8-0.7c-0.2-0.1-0.4-0.2-0.7-0.3
	c-0.2-0.1-0.5-0.1-0.7-0.2c-0.2,0-0.5,0-0.7,0c-0.2,0-0.4,0-0.7,0c-0.8,0-1.4,0-2,0c-0.5,0-1,0-1.2,0v0.2c0.2,0,0.3,0.1,0.5,0.2
	c0.1,0.1,0.3,0.2,0.4,0.4c0,0.1,0.1,0.2,0.1,0.3c0,0.1,0,0.3,0,0.4c0,0.2,0,0.3,0,0.5c0,0.2,0,0.4,0,0.5v3c0,0.3,0,0.6,0,0.9
	c0,0.3,0,0.6,0,0.9s0,0.6,0,0.8c0,0.2,0,0.4,0,0.6c0,0.2,0,0.3,0,0.5c0,0.2,0,0.3,0,0.5c0,0.2,0,0.3,0,0.4c0,0.1,0,0.2-0.1,0.3
	c-0.1,0.1-0.2,0.3-0.4,0.4c-0.2,0.1-0.3,0.2-0.5,0.2v0.2h3.8c0.3,0,0.6,0,1-0.1c0.3-0.1,0.7-0.2,1-0.3c0.3-0.2,0.6-0.4,0.9-0.7
	c0.3-0.3,0.5-0.6,0.7-1c0.2-0.4,0.4-0.9,0.5-1.5c0.1-0.6,0.2-1.2,0.2-2c0-0.7-0.1-1.2-0.2-1.8C347,24.8,346.8,24.4,346.6,24z
	 M345.4,30.5c-0.4,0.9-0.9,1.5-1.7,1.8c-0.2,0.1-0.3,0.1-0.5,0.1c-0.2,0-0.4,0-0.5,0c-0.2,0-0.4,0-0.6-0.1c-0.2-0.1-0.4-0.2-0.5-0.4
	c0-0.1-0.1-0.2-0.1-0.3c0-0.1-0.1-0.3-0.1-0.4c0-0.2,0-0.3,0-0.5c0-0.2,0-0.3,0-0.5c0-0.3,0-0.8,0-1.3c0-0.5,0-1.1,0-1.8
	c0-1.2,0-2.2,0-3.1c0-0.9,0-1.6,0.1-2c0,0,0.1,0,0.2,0c0.1,0,0.2,0,0.3,0c0.1,0,0.2,0,0.3,0c0.1,0,0.2,0,0.3,0c0.2,0,0.4,0,0.6,0
	c0.2,0,0.3,0.1,0.5,0.1c0.4,0.1,0.7,0.3,1,0.6c0.3,0.3,0.6,0.7,0.8,1.1c0.2,0.5,0.4,1,0.5,1.5c0.1,0.6,0.2,1.1,0.2,1.7
	C346,28.4,345.8,29.6,345.4,30.5z"/>
<path class="st23" d="M357.5,24c-0.2-0.4-0.4-0.7-0.7-1c-0.3-0.3-0.5-0.5-0.8-0.7c-0.2-0.1-0.4-0.2-0.7-0.3
	c-0.2-0.1-0.5-0.1-0.7-0.2c-0.2,0-0.5,0-0.7,0c-0.2,0-0.4,0-0.7,0c-0.8,0-1.4,0-2,0c-0.5,0-1,0-1.2,0v0.2c0.2,0,0.3,0.1,0.5,0.2
	c0.1,0.1,0.3,0.2,0.4,0.4c0,0.1,0.1,0.2,0.1,0.3c0,0.1,0,0.3,0,0.4c0,0.2,0,0.3,0,0.5c0,0.2,0,0.4,0,0.5v3c0,0.3,0,0.6,0,0.9
	c0,0.3,0,0.6,0,0.9c0,0.3,0,0.6,0,0.8c0,0.2,0,0.4,0,0.6c0,0.2,0,0.3,0,0.5c0,0.2,0,0.3,0,0.5c0,0.2,0,0.3,0,0.4
	c0,0.1,0,0.2-0.1,0.3c-0.1,0.1-0.2,0.3-0.4,0.4c-0.2,0.1-0.3,0.2-0.5,0.2v0.2h3.8c0.3,0,0.6,0,1-0.1c0.3-0.1,0.7-0.2,1-0.3
	c0.3-0.2,0.6-0.4,0.9-0.7c0.3-0.3,0.5-0.6,0.7-1c0.2-0.4,0.4-0.9,0.5-1.5c0.1-0.6,0.2-1.2,0.2-2c0-0.7-0.1-1.2-0.2-1.8
	C357.8,24.8,357.7,24.4,357.5,24z M356.3,30.5c-0.4,0.9-0.9,1.5-1.7,1.8c-0.2,0.1-0.3,0.1-0.5,0.1c-0.2,0-0.4,0-0.5,0
	c-0.2,0-0.4,0-0.6-0.1c-0.2-0.1-0.4-0.2-0.5-0.4c0-0.1-0.1-0.2-0.1-0.3c0-0.1-0.1-0.3-0.1-0.4c0-0.2,0-0.3,0-0.5c0-0.2,0-0.3,0-0.5
	c0-0.3,0-0.8,0-1.3c0-0.5,0-1.1,0-1.8c0-1.2,0-2.2,0-3.1c0-0.9,0-1.6,0.1-2c0,0,0.1,0,0.2,0c0.1,0,0.2,0,0.3,0c0.1,0,0.2,0,0.3,0
	c0.1,0,0.2,0,0.3,0c0.2,0,0.4,0,0.6,0c0.2,0,0.3,0.1,0.5,0.1c0.4,0.1,0.7,0.3,1,0.6c0.3,0.3,0.6,0.7,0.8,1.1c0.2,0.5,0.4,1,0.5,1.5
	c0.1,0.6,0.2,1.1,0.2,1.7C356.8,28.4,356.6,29.6,356.3,30.5z"/>
<path class="st23" d="M367.1,30.9c-0.2,0.3-0.3,0.6-0.5,0.8c-0.2,0.2-0.4,0.4-0.5,0.5c-0.2,0.1-0.4,0.2-0.6,0.2
	c-0.2,0-0.4,0.1-0.6,0.1c-0.2,0-0.3,0-0.5,0c-0.3,0-0.5,0-0.8-0.1c-0.2-0.1-0.4-0.2-0.4-0.3c-0.1-0.1-0.1-0.4-0.1-0.6
	c0-0.3,0-0.6,0-0.9c0-0.1,0-0.2,0-0.4c0-0.1,0-0.3,0-0.5c0-0.2,0-0.3,0-0.5c0-0.2,0-0.3,0-0.5c0-0.3,0-0.6,0-0.8s0-0.5,0-0.6
	c0.1,0,0.2,0,0.3,0c0.1,0,0.1,0,0.2,0c0.1,0,0.1,0,0.2,0c0.1,0,0.2,0,0.3,0c0.2,0,0.4,0.1,0.5,0.2c0.2,0.1,0.3,0.2,0.4,0.4
	c0.1,0.2,0.2,0.4,0.4,0.8c0.1,0.3,0.2,0.7,0.3,1h0.1v-4.8h-0.1c0,0.3-0.1,0.5-0.1,0.8c-0.1,0.2-0.1,0.4-0.2,0.6
	c-0.1,0.2-0.2,0.3-0.3,0.4c-0.1,0.1-0.3,0.2-0.5,0.3c-0.1,0-0.2,0.1-0.3,0.1c-0.1,0-0.3,0-0.4,0c-0.1,0-0.3,0-0.4,0s-0.2,0-0.2,0
	c0,0,0-0.1,0-0.2c0-0.1,0-0.2,0-0.4c0-0.2,0-0.4,0-0.6c0-0.3,0-0.6,0-1c0-0.7,0-1.3,0-1.8c0-0.5,0-0.8,0-1c0.1,0,0.2,0,0.3-0.1
	c0.2,0,0.3,0,0.4,0c0.5,0,0.8,0,1.2,0.1c0.3,0.1,0.5,0.1,0.7,0.2c0.5,0.4,1,1,1.6,2.1l0.1-0.1l-0.7-2.5H361v0.2
	c0.2,0,0.3,0.1,0.5,0.1c0.1,0,0.2,0.1,0.3,0.3c0,0.1,0.1,0.2,0.1,0.3c0,0.1,0,0.3,0.1,0.5c0,0.2,0,0.4,0,0.5c0,0.2,0,0.4,0,0.6v3
	c0,0.3,0,0.6,0,0.9c0,0.3,0,0.6,0,0.9s0,0.6,0,0.8c0,0.2,0,0.4,0,0.6c0,0.2,0,0.3,0,0.5c0,0.2,0,0.3,0,0.5c0,0.2,0,0.3-0.1,0.4
	c0,0.1-0.1,0.2-0.1,0.3c-0.1,0.2-0.2,0.3-0.4,0.4c-0.2,0.1-0.3,0.2-0.5,0.2v0.2h6.3l0.5-2.9l-0.1,0
	C367.4,30.2,367.3,30.6,367.1,30.9z"/>
<path class="st23" d="M376,21.9c0.3,0.1,0.6,0.2,0.8,0.4c0.2,0.2,0.3,0.4,0.4,0.7c0.1,0.2,0.1,0.5,0.1,0.9c0,0.4,0,0.8,0,1.2v5.2
	l-4.9-8.4h-2.1v0.2c0.1,0,0.2,0.1,0.3,0.1c0.1,0,0.2,0.1,0.3,0.2c0.1,0.1,0.2,0.3,0.3,0.4c0.1,0.2,0.1,0.4,0.1,0.7
	c0,0.3,0,0.5,0,0.7c0,0.2,0,0.4,0,0.6s0,0.4,0,0.6c0,0.2,0,0.4,0,0.7c0,0.7,0,1.3,0,1.9c0,0.6,0,1.1,0,1.5c0,0.6,0,1.1-0.1,1.5
	c0,0.4-0.1,0.7-0.2,0.9c-0.1,0.2-0.2,0.4-0.4,0.5c-0.2,0.1-0.3,0.2-0.5,0.2v0.2h2.5v-0.2c-0.3-0.1-0.5-0.1-0.7-0.3
	c-0.2-0.1-0.3-0.3-0.4-0.5c-0.1-0.2-0.1-0.5-0.1-0.9c0-0.4,0-0.9,0-1.4V23c0.5,0.8,0.9,1.5,1.3,2.2c0.4,0.7,0.8,1.5,1.3,2.2
	c0.4,0.8,0.9,1.5,1.4,2.4c0.5,0.8,1,1.7,1.6,2.7c0.1,0.1,0.1,0.2,0.2,0.2c0,0,0.1,0,0.1,0c0,0,0-0.1,0-0.1c0-0.3,0-0.6,0-1
	c0-0.4,0-0.7,0-1.1c0-0.4,0-0.7,0-1.1c0-0.4,0-0.7,0-1c0-0.7,0-1.3,0-1.9s0-1.1,0-1.5c0-0.5,0-0.9,0-1.3c0-0.4,0-0.7,0.1-0.8
	c0.1-0.3,0.2-0.5,0.4-0.7c0.2-0.1,0.4-0.2,0.6-0.3v-0.2H376V21.9z"/>
<path class="st23" d="M387.9,32c-0.1-0.1-0.1-0.3-0.1-0.6c0-0.3,0-0.6,0-0.9v-3.4c0-0.3,0-0.6,0-0.9c0-0.3,0-0.5,0-0.8
	c0-0.3,0-0.5,0-0.8c0-0.2,0-0.5,0-0.8c0-0.2,0-0.5,0-0.7c0-0.3,0-0.5,0.1-0.7c0.1-0.2,0.2-0.4,0.4-0.5c0.2-0.1,0.3-0.1,0.5-0.2v-0.2
	h-3.1v0.2c0.2,0,0.3,0.1,0.5,0.2c0.1,0.1,0.3,0.2,0.4,0.4c0,0.1,0.1,0.2,0.1,0.3c0,0.1,0,0.3,0,0.4c0,0.2,0,0.3,0,0.5
	c0,0.2,0,0.4,0,0.5v3c0,0.3,0,0.6,0,0.9c0,0.3,0,0.6,0,0.9c0,0.3,0,0.6,0,0.8c0,0.2,0,0.4,0,0.6c0,0.2,0,0.3,0,0.5
	c0,0.2,0,0.3,0,0.5c0,0.2,0,0.3,0,0.4c0,0.1,0,0.2-0.1,0.3c-0.1,0.2-0.2,0.3-0.4,0.4c-0.1,0.1-0.3,0.2-0.5,0.2v0.2h3.1v-0.2
	c-0.1,0-0.3-0.1-0.5-0.2C388.1,32.3,388,32.2,387.9,32z"/>
<path class="st23" d="M397.5,21.9c0.3,0.1,0.6,0.2,0.8,0.4c0.2,0.2,0.3,0.4,0.4,0.7c0.1,0.2,0.1,0.5,0.1,0.9c0,0.4,0,0.8,0,1.2v5.2
	l-4.9-8.4h-2.1v0.2c0.1,0,0.2,0.1,0.3,0.1s0.2,0.1,0.3,0.2c0.1,0.1,0.2,0.3,0.3,0.4c0.1,0.2,0.1,0.4,0.1,0.7c0,0.3,0,0.5,0,0.7
	c0,0.2,0,0.4,0,0.6s0,0.4,0,0.6c0,0.2,0,0.4,0,0.7c0,0.7,0,1.3,0,1.9c0,0.6,0,1.1,0,1.5c0,0.6,0,1.1-0.1,1.5c0,0.4-0.1,0.7-0.2,0.9
	c-0.1,0.2-0.2,0.4-0.4,0.5c-0.2,0.1-0.3,0.2-0.5,0.2v0.2h2.5v-0.2c-0.3-0.1-0.5-0.1-0.7-0.3c-0.2-0.1-0.3-0.3-0.4-0.5
	c-0.1-0.2-0.1-0.5-0.1-0.9c0-0.4,0-0.9,0-1.4V23c0.5,0.8,0.9,1.5,1.3,2.2c0.4,0.7,0.8,1.5,1.3,2.2c0.4,0.8,0.9,1.5,1.4,2.4
	c0.5,0.8,1,1.7,1.6,2.7c0.1,0.1,0.1,0.2,0.2,0.2c0,0,0,0,0,0c0,0,0-0.1,0-0.1c0-0.3,0-0.6,0-1c0-0.4,0-0.7,0-1.1c0-0.4,0-0.7,0-1.1
	c0-0.4,0-0.7,0-1c0-0.7,0-1.3,0-1.9c0-0.6,0-1.1,0-1.5c0-0.5,0-0.9,0-1.3c0-0.4,0-0.7,0.1-0.8c0.1-0.3,0.2-0.5,0.4-0.7
	c0.2-0.1,0.4-0.2,0.6-0.3v-0.2h-2.6V21.9z"/>
<path class="st23" d="M415,21.9c0.1,0,0.2,0,0.3,0.1c0.1,0,0.2,0.1,0.3,0.2c0.1,0.1,0.2,0.1,0.2,0.2c0.1,0.1,0.1,0.2,0.1,0.4
	c0,0.1,0,0.3,0,0.5c0,0.2-0.1,0.6-0.2,1c-0.1,0.4-0.2,0.8-0.3,1.2c-0.1,0.4-0.2,0.8-0.3,1.3c-0.1,0.4-0.2,0.8-0.3,1.2
	c-0.1,0.4-0.2,0.8-0.3,1.1c-0.1,0.3-0.1,0.6-0.2,0.8c-0.1,0.2-0.1,0.4-0.1,0.4c0-0.2-0.1-0.5-0.2-0.9c-0.1-0.4-0.2-0.9-0.4-1.5
	c-0.1-0.5-0.3-1.1-0.4-1.7c-0.1-0.6-0.3-1.1-0.4-1.6c-0.1-0.5-0.2-0.9-0.3-1.3c-0.1-0.3-0.1-0.6-0.1-0.6c0-0.2,0-0.3,0.1-0.4
	c0.1-0.1,0.2-0.2,0.3-0.2c0.1-0.1,0.2-0.1,0.3-0.1c0.1,0,0.2,0,0.2,0v-0.2h-3.2v0.2c0.2,0,0.3,0,0.4,0.1c0.1,0.1,0.2,0.1,0.3,0.2
	c0.1,0.1,0.1,0.2,0.2,0.3s0.1,0.2,0.1,0.3c0.1,0.3,0.2,0.6,0.3,0.9c0.1,0.3,0.2,0.7,0.3,1.1c-0.2,0.7-0.3,1.4-0.5,2
	c-0.2,0.6-0.3,1.2-0.4,1.7c-0.1,0.5-0.2,0.9-0.3,1.3c-0.1,0.3-0.1,0.5-0.2,0.6c-0.1-0.3-0.2-0.7-0.3-1.2c-0.1-0.5-0.3-1-0.4-1.5
	c-0.1-0.5-0.3-1.1-0.4-1.6c-0.1-0.6-0.3-1.1-0.4-1.5c-0.1-0.5-0.2-0.9-0.3-1.2s-0.1-0.5-0.1-0.6c0-0.2,0-0.3,0.1-0.4
	c0.1-0.1,0.1-0.2,0.2-0.2c0.1-0.1,0.2-0.1,0.3-0.1c0.1,0,0.2,0,0.2,0v-0.2h-2.9v0.2c0.2,0,0.3,0,0.4,0.1c0.1,0.1,0.2,0.1,0.2,0.2
	c0.1,0.1,0.1,0.2,0.2,0.3c0,0.1,0.1,0.2,0.1,0.2c0,0.1,0.1,0.2,0.1,0.4c0,0.1,0.1,0.2,0.1,0.3c0,0.1,0.1,0.3,0.1,0.4
	c0,0.1,0.1,0.3,0.1,0.5c0.2,0.6,0.3,1.3,0.5,1.9c0.2,0.6,0.3,1.3,0.5,2c0.2,0.7,0.4,1.4,0.5,2.1c0.2,0.7,0.4,1.5,0.6,2.3h0.1
	l0.5-1.5c0.1-0.5,0.2-1,0.4-1.5c0.1-0.5,0.2-1,0.4-1.6c0.1-0.5,0.2-1,0.4-1.6c0.1-0.5,0.2-1,0.4-1.5c0.1,0.6,0.3,1.1,0.4,1.7
	c0.1,0.6,0.3,1.2,0.4,1.8c0.1,0.6,0.3,1.3,0.5,1.9c0.2,0.7,0.3,1.4,0.5,2.1h0.1l0.4-1.5c0.1-0.6,0.3-1.2,0.4-1.8
	c0.2-0.6,0.3-1.3,0.5-1.9c0.1-0.6,0.3-1.3,0.4-1.9c0.1-0.6,0.3-1.2,0.4-1.6c0.1-0.3,0.1-0.5,0.2-0.7c0.1-0.2,0.1-0.4,0.2-0.5
	c0.1-0.1,0.1-0.2,0.1-0.3c0-0.1,0.1-0.1,0.1-0.2c0,0,0.1-0.1,0.2-0.2c0.1-0.1,0.3-0.2,0.4-0.2v-0.2H415V21.9z"/>
<path class="st23" d="M426,23.3c-0.3-0.5-0.7-0.9-1.2-1.2c-0.5-0.3-1-0.5-1.6-0.5c-0.5,0-1,0.1-1.5,0.4s-0.9,0.6-1.3,1.1
	c-0.4,0.5-0.6,1.1-0.9,1.8c-0.2,0.7-0.3,1.5-0.3,2.3c0,0.8,0.1,1.6,0.3,2.3c0.2,0.7,0.5,1.3,0.8,1.8c0.4,0.5,0.8,0.9,1.2,1.1
	c0.5,0.3,1,0.4,1.5,0.4c0.5,0,1-0.1,1.5-0.4c0.5-0.3,0.9-0.7,1.2-1.2c0.4-0.5,0.6-1.1,0.8-1.8c0.2-0.7,0.3-1.4,0.3-2.2
	c0-0.7-0.1-1.4-0.3-2.1C426.6,24.4,426.3,23.8,426,23.3z M425.6,29.1c-0.1,0.6-0.3,1.2-0.5,1.7c-0.2,0.5-0.5,0.9-0.8,1.3
	c-0.3,0.3-0.7,0.5-1.1,0.5c-0.4,0-0.8-0.1-1.1-0.4c-0.3-0.3-0.6-0.7-0.8-1.2c-0.2-0.5-0.4-1-0.5-1.7c-0.1-0.6-0.2-1.3-0.2-2
	c0-0.7,0.1-1.3,0.2-2c0.1-0.6,0.3-1.2,0.5-1.7c0.2-0.5,0.5-0.9,0.8-1.2c0.3-0.3,0.7-0.5,1.2-0.5c0.4,0,0.8,0.2,1.1,0.5
	c0.3,0.3,0.6,0.7,0.8,1.2c0.2,0.5,0.4,1.1,0.5,1.7c0.1,0.6,0.2,1.2,0.2,1.9C425.7,27.8,425.7,28.5,425.6,29.1z"/>
<path class="st23" d="M436.4,23.3c-0.3-0.5-0.7-0.9-1.2-1.2c-0.5-0.3-1-0.5-1.6-0.5c-0.5,0-1,0.1-1.5,0.4c-0.5,0.3-0.9,0.6-1.3,1.1
	c-0.4,0.5-0.6,1.1-0.9,1.8c-0.2,0.7-0.3,1.5-0.3,2.3c0,0.8,0.1,1.6,0.3,2.3c0.2,0.7,0.5,1.3,0.8,1.8c0.4,0.5,0.8,0.9,1.2,1.1
	c0.5,0.3,1,0.4,1.5,0.4c0.5,0,1-0.1,1.5-0.4c0.5-0.3,0.9-0.7,1.2-1.2c0.4-0.5,0.6-1.1,0.8-1.8c0.2-0.7,0.3-1.4,0.3-2.2
	c0-0.7-0.1-1.4-0.3-2.1C437,24.4,436.7,23.8,436.4,23.3z M436,29.1c-0.1,0.6-0.3,1.2-0.5,1.7c-0.2,0.5-0.5,0.9-0.8,1.3
	c-0.3,0.3-0.7,0.5-1.1,0.5c-0.4,0-0.8-0.1-1.1-0.4c-0.3-0.3-0.6-0.7-0.8-1.2c-0.2-0.5-0.4-1-0.5-1.7c-0.1-0.6-0.2-1.3-0.2-2
	c0-0.7,0.1-1.3,0.1-2c0.1-0.6,0.3-1.2,0.5-1.7c0.2-0.5,0.5-0.9,0.8-1.2c0.3-0.3,0.7-0.5,1.2-0.5c0.4,0,0.8,0.2,1.1,0.5
	c0.3,0.3,0.6,0.7,0.8,1.2c0.2,0.5,0.4,1.1,0.5,1.7c0.1,0.6,0.2,1.2,0.2,1.9C436.1,27.8,436.1,28.5,436,29.1z"/>
<path class="st23" d="M448.1,25.3c-0.1-0.5-0.3-1-0.5-1.4c-0.2-0.4-0.4-0.7-0.7-1c-0.3-0.3-0.5-0.5-0.8-0.7
	c-0.2-0.1-0.4-0.2-0.7-0.3c-0.2-0.1-0.5-0.1-0.7-0.2c-0.2,0-0.5,0-0.7,0c-0.2,0-0.4,0-0.7,0c-0.8,0-1.4,0-2,0c-0.5,0-1,0-1.2,0v0.2
	c0.2,0,0.3,0.1,0.5,0.2c0.1,0.1,0.3,0.2,0.4,0.4c0,0.1,0.1,0.2,0.1,0.3c0,0.1,0,0.3,0,0.4c0,0.2,0,0.3,0,0.5c0,0.2,0,0.4,0,0.5v3
	c0,0.3,0,0.6,0,0.9c0,0.3,0,0.6,0,0.9s0,0.6,0,0.8c0,0.2,0,0.4,0,0.6c0,0.2,0,0.3,0,0.5c0,0.2,0,0.3,0,0.5s0,0.3,0,0.4
	c0,0.1,0,0.2-0.1,0.3c-0.1,0.1-0.2,0.3-0.4,0.4c-0.2,0.1-0.3,0.2-0.5,0.2v0.2h3.8c0.3,0,0.6,0,1-0.1c0.3-0.1,0.7-0.2,1-0.3
	c0.3-0.2,0.6-0.4,0.9-0.7c0.3-0.3,0.5-0.6,0.7-1c0.2-0.4,0.4-0.9,0.5-1.5c0.1-0.6,0.2-1.2,0.2-2C448.2,26.4,448.2,25.8,448.1,25.3z
	 M446.4,30.5c-0.4,0.9-0.9,1.5-1.7,1.8c-0.2,0.1-0.3,0.1-0.5,0.1c-0.2,0-0.4,0-0.5,0c-0.2,0-0.4,0-0.6-0.1c-0.2-0.1-0.4-0.2-0.5-0.4
	c0-0.1-0.1-0.2-0.1-0.3c0-0.1-0.1-0.3-0.1-0.4c0-0.2,0-0.3,0-0.5c0-0.2,0-0.3,0-0.5c0-0.3,0-0.8,0-1.3c0-0.5,0-1.1,0-1.8
	c0-1.2,0-2.2,0-3.1c0-0.9,0-1.6,0.1-2c0,0,0.1,0,0.2,0c0.1,0,0.2,0,0.3,0c0.1,0,0.2,0,0.3,0c0.1,0,0.2,0,0.3,0c0.2,0,0.4,0,0.6,0
	c0.2,0,0.3,0.1,0.5,0.1c0.4,0.1,0.7,0.3,1,0.6c0.3,0.3,0.6,0.7,0.8,1.1c0.2,0.5,0.4,1,0.5,1.5c0.1,0.6,0.2,1.1,0.2,1.7
	C447,28.4,446.8,29.6,446.4,30.5z"/>
<path class="st23" d="M174.2,7.1c0.1,0,0.2,0,0.2,0.1c0.1,0,0.2,0,0.2,0c0.2,0,0.3,0,0.5-0.1c0.1-0.1,0.3-0.2,0.4-0.3
	c0.1-0.1,0.2-0.3,0.2-0.4c0.1-0.2,0.1-0.4,0.1-0.6c0-0.3,0-0.5-0.1-0.7c-0.1-0.2-0.2-0.4-0.3-0.5c-0.1-0.1-0.3-0.3-0.5-0.4
	c-0.2-0.1-0.3-0.2-0.4-0.3c-0.1-0.1-0.3-0.2-0.3-0.3C174,3.5,174,3.4,174,3.2c0-0.2,0.1-0.4,0.2-0.5c0.1-0.1,0.2-0.2,0.4-0.2
	c0.1,0,0.2,0,0.3,0.1c0.1,0.1,0.2,0.2,0.3,0.3c0.1,0.1,0.2,0.2,0.3,0.4c0.1,0.2,0.1,0.3,0.2,0.5h0.1c0-0.1,0-0.3,0-0.4
	c0-0.1,0-0.3,0-0.4c0-0.1,0-0.1,0-0.2c0-0.1,0-0.1,0-0.2h-0.2c-0.1,0-0.1,0-0.2,0c-0.1,0-0.1,0-0.2-0.1c-0.1,0-0.2-0.1-0.3-0.1
	c-0.1,0-0.2,0-0.3,0c-0.4,0-0.7,0.1-0.8,0.3c-0.2,0.2-0.3,0.5-0.3,1c0,0.3,0,0.5,0.1,0.6c0.1,0.2,0.2,0.3,0.4,0.5
	c0.1,0.1,0.3,0.2,0.5,0.3c0.2,0.1,0.3,0.2,0.5,0.3c0.1,0.1,0.3,0.2,0.4,0.4c0.1,0.1,0.1,0.3,0.1,0.5c0,0.1,0,0.3-0.1,0.4
	c0,0.1-0.1,0.2-0.1,0.2c-0.1,0.1-0.1,0.1-0.2,0.1c-0.1,0-0.2,0-0.3,0c-0.1,0-0.2,0-0.4-0.1c-0.1-0.1-0.2-0.2-0.4-0.3
	c-0.1-0.1-0.2-0.3-0.3-0.5c-0.1-0.2-0.1-0.3-0.2-0.5h-0.1c0,0.3,0.1,0.6,0.1,0.8c0,0.3,0.1,0.5,0.1,0.8c0,0,0,0,0.1,0c0,0,0,0,0.1,0
	c0,0,0,0,0.1,0c0,0,0.1,0,0.1,0c0.1,0,0.2,0,0.2,0C174,7,174.1,7.1,174.2,7.1z"/>
<path class="st23" d="M178,7c0.1,0,0.3,0,0.4,0c0.1,0,0.3,0,0.4,0l0-0.2c-0.2,0-0.3-0.1-0.4-0.2c-0.1-0.1-0.1-0.2-0.1-0.4v-3
	c0-0.1,0-0.3,0-0.4c0-0.1,0-0.2,0.1-0.2c0-0.1,0.1-0.1,0.2-0.1c0.1,0,0.2,0,0.3-0.1V2.4c-0.1,0-0.3,0-0.4,0c-0.1,0-0.3,0-0.4,0
	c-0.1,0-0.3,0-0.4,0s-0.3,0-0.4,0v0.2c0.2,0,0.3,0.1,0.4,0.2s0.1,0.3,0.1,0.6v3c0,0.2,0,0.3-0.1,0.4s-0.2,0.1-0.4,0.2v0.2
	c0.1,0,0.3,0,0.4,0C177.7,7,177.9,7,178,7z"/>
<path class="st23" d="M180.8,7c0.1,0,0.2,0,0.4,0c0.1,0,0.2,0,0.4,0V6.9c-0.1,0-0.3-0.1-0.3-0.1c-0.1,0-0.1-0.1-0.2-0.2
	c0-0.1-0.1-0.2-0.1-0.3c0-0.1,0-0.3,0-0.6V3.2c0.1,0.1,0.2,0.3,0.3,0.4c0.1,0.2,0.2,0.4,0.4,0.6c0.1,0.2,0.3,0.4,0.4,0.7
	c0.1,0.2,0.3,0.5,0.4,0.7c0.1,0.2,0.3,0.5,0.4,0.7s0.2,0.5,0.3,0.7h0.3V3.9c0-0.3,0-0.5,0-0.6c0-0.2,0-0.3,0.1-0.4
	c0-0.1,0.1-0.2,0.2-0.2c0.1,0,0.2-0.1,0.3-0.1V2.4c-0.2,0-0.4,0-0.7,0c-0.1,0-0.2,0-0.3,0c-0.1,0-0.2,0-0.3,0v0.2
	c0.1,0,0.1,0,0.2,0.1c0.1,0,0.1,0.1,0.2,0.1c0,0.1,0.1,0.1,0.1,0.2c0,0.1,0.1,0.2,0.1,0.3c0,0.2,0,0.4,0,0.6c0,0.2,0,0.5,0,0.7
	c0,0.3,0,0.5,0,0.7c0,0.2,0,0.4,0,0.6h0c-0.3-0.6-0.6-1.2-1-1.8c-0.3-0.6-0.7-1.1-1-1.7c-0.2,0-0.4,0-0.7,0c-0.1,0-0.2,0-0.3,0
	s-0.2,0-0.3,0v0.2c0.1,0,0.1,0,0.2,0.1c0.1,0,0.1,0.1,0.2,0.1c0.1,0,0.1,0.1,0.2,0.1c0.1,0.1,0.1,0.1,0.1,0.2l0,2.8
	c0,0.2,0,0.4,0,0.5c0,0.1,0,0.2-0.1,0.3c0,0.1-0.1,0.1-0.2,0.2s-0.2,0.1-0.4,0.1v0.2c0.1,0,0.3,0,0.4,0C180.5,7,180.7,7,180.8,7z"/>
<path class="st23" d="M185.5,6.5c0.1,0.2,0.3,0.4,0.5,0.5c0.2,0.1,0.4,0.2,0.7,0.2c0.4,0,0.7-0.1,1-0.4s0.5-0.6,0.7-1.1l-0.1-0.2
	c-0.1,0.1-0.1,0.3-0.2,0.4c-0.1,0.1-0.2,0.2-0.3,0.4c-0.1,0.1-0.2,0.2-0.3,0.3c-0.1,0.1-0.3,0.1-0.4,0.1c-0.2,0-0.4-0.1-0.6-0.2
	c-0.2-0.1-0.3-0.2-0.4-0.4c-0.1-0.2-0.2-0.4-0.2-0.6c-0.1-0.3-0.1-0.5-0.1-0.8c0-0.2,0-0.5,0.1-0.7c0-0.2,0.1-0.5,0.2-0.7
	s0.2-0.4,0.3-0.5c0.1-0.1,0.3-0.2,0.5-0.2c0.2,0,0.3,0,0.4,0.1c0.1,0.1,0.2,0.2,0.3,0.4c0.1,0.2,0.2,0.3,0.3,0.5
	c0.1,0.2,0.1,0.4,0.1,0.6h0.1c0-0.2,0-0.4,0-0.6c0-0.2,0-0.4,0-0.6c0-0.1,0-0.2,0-0.3c0-0.1,0-0.2,0-0.3c0,0,0,0-0.1,0
	c0,0-0.1,0-0.1,0c-0.1,0-0.2-0.1-0.3-0.1c-0.1,0-0.2-0.1-0.4-0.1c-0.1,0-0.2,0-0.3,0c-0.3,0-0.5,0.1-0.7,0.2
	c-0.2,0.1-0.4,0.3-0.6,0.5c-0.2,0.2-0.3,0.5-0.4,0.8c-0.1,0.3-0.1,0.6-0.1,1c0,0.4,0,0.7,0.1,1C185.2,6,185.4,6.3,185.5,6.5z"/>
<path class="st23" d="M190,7c0.1,0,0.3,0,0.4,0c0.1,0,0.3,0,0.5,0c0.3,0,0.5,0,0.8,0c0.2,0,0.5,0,0.8,0c0.1-0.3,0.1-0.5,0.2-0.8
	c0.1-0.3,0.2-0.5,0.2-0.8l-0.1-0.1c-0.2,0.5-0.4,0.8-0.7,1c-0.3,0.2-0.5,0.3-0.9,0.3c-0.1,0-0.2,0-0.3,0c-0.1,0-0.2,0-0.3-0.1V4.6
	h0.3c0.1,0,0.2,0,0.3,0c0.1,0,0.2,0.1,0.2,0.2c0.1,0.1,0.1,0.2,0.2,0.3c0,0.1,0.1,0.3,0.1,0.4h0.1c0-0.2,0-0.3,0-0.5
	c0-0.2,0-0.3,0-0.5c0-0.2,0-0.3,0-0.5c0-0.2,0-0.3,0-0.5h-0.1c0,0.2-0.1,0.3-0.1,0.4c-0.1,0.1-0.1,0.2-0.2,0.3
	c-0.1,0.1-0.1,0.1-0.2,0.1c-0.1,0-0.2,0-0.2,0h-0.3V2.6h0.5c0.3,0,0.6,0.1,0.7,0.3c0.2,0.2,0.3,0.5,0.4,0.8l0.1,0c0-0.1,0-0.3,0-0.4
	c0-0.1,0-0.3,0-0.4c0-0.1,0-0.2,0-0.2c0-0.1,0-0.2,0-0.3c-0.3,0-0.6,0-1,0c-0.3,0-0.6,0-0.9,0c-0.2,0-0.3,0-0.5,0
	c-0.2,0-0.3,0-0.5,0v0.2c0.1,0,0.2,0,0.3,0.1c0.1,0,0.1,0.1,0.2,0.2c0,0.1,0.1,0.1,0.1,0.2c0,0.1,0,0.2,0,0.4v2.7c0,0.1,0,0.3,0,0.4
	c0,0.1,0,0.2-0.1,0.2c0,0.1-0.1,0.1-0.2,0.1c-0.1,0-0.2,0.1-0.3,0.1v0.2c0.1,0,0.1,0,0.2,0C189.7,7,189.8,7,190,7z"/>
<path class="st23" d="M197.1,7c0.1,0,0.3,0,0.4,0c0.1,0,0.3,0,0.4,0V6.9c-0.1,0-0.2,0-0.3,0c-0.1,0-0.1-0.1-0.2-0.1
	c0-0.1-0.1-0.2-0.1-0.3c0-0.1,0-0.3,0-0.6V2.2c-0.3,0.2-0.7,0.3-1.1,0.4v0.1c0.1,0,0.2,0,0.3,0c0.1,0,0.1,0.1,0.2,0.1
	c0,0.1,0.1,0.1,0.1,0.2c0,0.1,0,0.2,0,0.4v2.4c0,0.2,0,0.4,0,0.6c0,0.1,0,0.2-0.1,0.3c0,0.1-0.1,0.1-0.2,0.1c-0.1,0-0.2,0-0.3,0v0.1
	c0.1,0,0.3,0,0.4,0C196.8,7,197,7,197.1,7z"/>
<path class="st23" d="M201.1,6.5c0.2-0.2,0.3-0.5,0.4-0.9c0.1-0.4,0.1-0.8,0.1-1.4c0-0.3,0-0.5-0.1-0.7c0-0.2-0.1-0.4-0.2-0.6
	c-0.1-0.2-0.2-0.3-0.4-0.4c-0.1-0.1-0.3-0.2-0.5-0.2c-0.1,0-0.3,0-0.4,0.1c-0.1,0.1-0.2,0.2-0.3,0.3c-0.1,0.1-0.2,0.3-0.2,0.4
	c-0.1,0.2-0.1,0.4-0.1,0.6c0,0.2,0,0.4,0.1,0.6c0,0.2,0.1,0.3,0.2,0.5c0.1,0.1,0.2,0.2,0.3,0.3c0.1,0.1,0.2,0.1,0.4,0.1
	c0.1,0,0.2,0,0.3-0.1c0.1,0,0.2-0.1,0.3-0.2c0,0.3-0.1,0.6-0.2,0.9c-0.1,0.2-0.2,0.5-0.3,0.6c-0.1,0.2-0.3,0.3-0.5,0.4
	c-0.2,0.1-0.4,0.1-0.6,0.1v0.2c0.3,0,0.7-0.1,0.9-0.2C200.7,6.9,200.9,6.7,201.1,6.5z M201,4.2c0,0.1,0,0.2-0.1,0.3
	c0,0.1-0.1,0.2-0.2,0.2c-0.1,0.1-0.1,0.1-0.2,0.1c-0.1,0-0.3-0.1-0.3-0.3c-0.1-0.2-0.1-0.5-0.1-0.9c0-0.2,0-0.3,0-0.4s0-0.3,0.1-0.4
	c0-0.1,0.1-0.2,0.1-0.2s0.1-0.1,0.2-0.1c0.1,0,0.1,0,0.2,0.1c0.1,0.1,0.1,0.1,0.2,0.2c0.1,0.1,0.1,0.2,0.1,0.4c0,0.2,0,0.4,0,0.6
	C201.1,4,201,4.1,201,4.2z"/>
<path class="st23" d="M203.9,7.2c0.4,0,0.7-0.1,0.9-0.4c0.2-0.3,0.3-0.6,0.3-1.1c0-0.2,0-0.4-0.1-0.6c-0.1-0.2-0.1-0.3-0.2-0.5
	c-0.1-0.1-0.2-0.2-0.3-0.3c-0.1-0.1-0.3-0.1-0.4-0.1c-0.1,0-0.2,0-0.3,0.1c-0.1,0-0.2,0.1-0.3,0.2l0.3-1.4c0,0,0.1,0,0.1,0.1
	c0,0,0.1,0,0.2,0c0.2,0,0.4-0.1,0.6-0.2c0.2-0.1,0.4-0.3,0.6-0.5l-0.1-0.1c0,0-0.1,0.1-0.2,0.1c-0.1,0-0.1,0.1-0.2,0.1
	c-0.1,0-0.1,0.1-0.2,0.1s-0.1,0-0.2,0c-0.1,0-0.2,0-0.2,0c-0.1,0-0.1-0.1-0.2-0.2h-0.4l-0.5,2.7l0.1,0.1c0-0.1,0.1-0.2,0.1-0.3
	c0-0.1,0.1-0.2,0.2-0.2s0.1-0.1,0.2-0.1c0.1,0,0.1-0.1,0.2-0.1c0.2,0,0.3,0.1,0.4,0.3c0.1,0.2,0.2,0.5,0.2,0.8c0,0.2,0,0.4,0,0.6
	c0,0.2-0.1,0.3-0.1,0.4c-0.1,0.1-0.1,0.2-0.2,0.2c-0.1,0-0.2,0.1-0.2,0.1c-0.1,0-0.2,0-0.2-0.1c-0.1-0.1-0.1-0.1-0.2-0.2
	c0-0.1,0-0.1,0-0.2s0-0.1,0-0.2c0-0.3-0.1-0.5-0.3-0.5c-0.1,0-0.2,0.1-0.2,0.2c-0.1,0.1-0.1,0.2-0.1,0.3c0,0.3,0.1,0.5,0.2,0.7
	C203.3,7.1,203.6,7.2,203.9,7.2z"/>
<path class="st23" d="M208.5,5c-0.1-0.1-0.1-0.2-0.2-0.3c-0.1-0.1-0.2-0.2-0.3-0.3c0.1,0,0.2-0.1,0.2-0.1c0.1-0.1,0.1-0.1,0.2-0.2
	c0.1-0.1,0.1-0.2,0.1-0.3c0-0.1,0-0.2,0-0.4c0-0.2,0-0.4-0.1-0.5c-0.1-0.1-0.1-0.3-0.2-0.3c-0.1-0.1-0.2-0.2-0.3-0.2
	c-0.1,0-0.2-0.1-0.4-0.1c-0.1,0-0.2,0-0.4,0.1c-0.1,0-0.2,0.1-0.3,0.2c-0.1,0.1-0.2,0.2-0.2,0.4c-0.1,0.1-0.1,0.3-0.1,0.5
	c0,0.1,0,0.2,0,0.4s0.1,0.2,0.1,0.3c0.1,0.1,0.1,0.2,0.2,0.2c0.1,0.1,0.1,0.2,0.2,0.2c-0.2,0.1-0.4,0.3-0.5,0.5
	c-0.1,0.2-0.2,0.5-0.2,0.8c0,0.2,0,0.4,0.1,0.6c0.1,0.2,0.1,0.3,0.3,0.4c0.1,0.1,0.2,0.2,0.4,0.2c0.1,0.1,0.3,0.1,0.4,0.1
	c0.1,0,0.3,0,0.4-0.1c0.1,0,0.3-0.1,0.4-0.2c0.1-0.1,0.2-0.2,0.3-0.4c0.1-0.2,0.1-0.4,0.1-0.6c0-0.2,0-0.4-0.1-0.5
	C208.6,5.2,208.6,5.1,208.5,5z M207.3,2.7c0.1-0.1,0.2-0.2,0.3-0.2c0.1,0,0.2,0,0.2,0.1c0.1,0,0.1,0.1,0.2,0.2
	c0,0.1,0.1,0.2,0.1,0.3c0,0.1,0,0.2,0,0.3c0,0.2,0,0.4-0.1,0.5c0,0.1-0.1,0.3-0.2,0.4c-0.1-0.1-0.1-0.2-0.2-0.2
	c-0.1-0.1-0.2-0.2-0.2-0.2c-0.1-0.1-0.1-0.2-0.2-0.3c0-0.1-0.1-0.2-0.1-0.3C207.2,2.9,207.2,2.8,207.3,2.7z M208,6.7
	c-0.1,0.1-0.2,0.2-0.4,0.2c-0.1,0-0.2,0-0.3-0.1c-0.1-0.1-0.2-0.2-0.2-0.3C207,6.4,207,6.3,207,6.1c0-0.1,0-0.3,0-0.4
	c0-0.2,0-0.4,0.1-0.5c0.1-0.2,0.1-0.3,0.2-0.4c0.1,0.1,0.2,0.2,0.3,0.3c0.1,0.1,0.2,0.2,0.3,0.3c0.1,0.1,0.2,0.2,0.2,0.4
	c0.1,0.1,0.1,0.3,0.1,0.4C208.1,6.4,208.1,6.6,208,6.7z"/>
</svg>
