<?xml version="1.0" encoding="utf-8"?>
<!-- Generator: Adobe Illustrator 19.1.0, SVG Export Plug-In . SVG Version: 6.00 Build 0)  -->
<svg version="1.1" id="Warstwa_1" xmlns="http://www.w3.org/2000/svg" xmlns:xlink="http://www.w3.org/1999/xlink" x="0px" y="0px"
	 viewBox="0 0 100 100" style="enable-background:new 0 0 100 100;" xml:space="preserve">
<g>
	<g>
		<path d="M77,76.3c-0.9-1.3-2.5-2-4-2c-1.6,0-3.1,0.7-4,2c-0.7,0.9-1,2-1,3.1c0,1.1,0.3,2.2,1,3.1c0.9,1.3,2.5,2,4,2
			c1.6,0,3.1-0.7,4-2c0.7-0.9,1-2,1-3.1C78,78.3,77.7,77.1,77,76.3z M75.4,80.5c-0.4,1.1-1.2,2-2.4,2c-1.2,0-2.1-0.9-2.4-2
			c-0.1-0.3-0.2-0.8-0.2-1.2c0-0.4,0.1-0.8,0.2-1.2c0.4-1.1,1.2-2,2.4-2c1.2,0,2.1,0.9,2.4,2c0.1,0.3,0.2,0.8,0.2,1.2
			C75.6,79.8,75.6,80.2,75.4,80.5z M38.6,84.2c0,0.2-0.1,0.3-0.3,0.3h-1.7c-0.2,0-0.3-0.1-0.3-0.3V70.4c0-0.2,0.1-0.3,0.3-0.3h1.7
			c0.2,0,0.3,0.1,0.3,0.3V84.2z M34.6,84.2c0,0.2-0.1,0.3-0.3,0.3h-1.7c-0.2,0-0.3-0.1-0.3-0.3V70.4c0-0.2,0.1-0.3,0.3-0.3h1.7
			c0.2,0,0.3,0.1,0.3,0.3V84.2z M67.6,74.9V76c0,0.3-0.2,0.4-0.4,0.3c-1.9-0.4-3.1,0.5-3.1,2.2l0,5.6c0,0.2-0.1,0.3-0.3,0.3h-1.7
			c-0.2,0-0.3-0.1-0.3-0.3c0,0,0-5.6,0-5.8c0-1.5,0.7-2.4,1.2-2.9c0.8-0.7,1.9-1.2,3.1-1.2c0.2,0,0.9,0,1.2,0.1h0
			C67.6,74.4,67.6,74.6,67.6,74.9z M60.4,79.4c0-1.1-0.3-2.2-1-3.1c-0.9-1.3-2.5-2-4-2c-1.6,0-3.1,0.7-4,2c-1.3,1.8-1.3,4.5,0,6.2
			c0.9,1.3,2.5,2,4,2c1,0,2-0.3,2.9-0.9v1.2c0,1.7-1.5,2-2.4,2c-0.6,0-1.5,0-1.9-0.1c-0.3,0-0.4,0-0.4,0.3c0,0,0,1.5,0,1.5
			c0,0.1,0.1,0.2,0.3,0.2c2.2,0.2,3.6,0.1,4.7-0.5c0.8-0.4,1.3-1.2,1.6-2c0.2-0.6,0.3-1.4,0.3-2V79.4z M55.4,82.5
			c-1.2,0-2.1-0.9-2.4-2c-0.1-0.3-0.2-0.8-0.2-1.2c0-0.4,0.1-0.8,0.2-1.2c0.4-1.1,1.2-2,2.4-2c2.7,0,2.8,2.8,2.8,3.2
			C58.2,79.8,58.1,82.5,55.4,82.5z M30.8,78.4c0-1.3-0.3-2.4-0.9-3c-0.7-0.7-1.9-1-3-1c-1.2,0-2.3,0.3-3.3,0.9
			c-0.1,0-0.1,0.1-0.1,0.2c0,0,0,0,0,0c0,0,0.1,1.5,0.1,1.5c0,0.2,0.2,0.3,0.4,0.2c1.6-1,3.3-1,4-0.6c0.9,0.5,0.8,1.6,0.8,1.6
			s-1.5,0-2.3,0c-1.1,0-4.3,0.4-4.3,3.4c0,0,0,0,0,0c0,0,0,0,0,0c0,1,0.3,1.8,1,2.4c0.6,0.5,1.5,0.7,2.6,0.7l4.8,0
			c0.2,0,0.3-0.1,0.3-0.3L30.8,78.4z M28.7,82.7h-2.8c-0.4,0-0.7-0.1-1-0.4c-0.3-0.3-0.5-0.6-0.5-1c0-0.5,0.4-1.6,2.1-1.6h2.2V82.7z
			 M44.8,74.3c-3,0-4.3,2-4.7,3.7c-0.1,0.5-0.2,0.9-0.2,1.4c0,1.1,0.3,2.2,1,3.1c0.9,1.3,2.5,1.9,4,2c1.6,0.1,2.7-0.2,3.5-0.7
			c0.2-0.1,0.2-0.2,0.2-0.5V82c0-0.3-0.2-0.4-0.4-0.2c-0.9,0.6-1.9,0.9-3.3,0.8c-1.3-0.1-2.5-1-2.6-2.4H49c0.1,0,0.3-0.1,0.3-0.3
			C49.4,78.1,48.9,74.3,44.8,74.3z M42.4,78.4c0-0.7,0.6-2.2,2.4-2.2c1,0,2.1,0.6,2.1,2.2H42.4z"/>
	</g>
</g>
<g>
	<path d="M20.9,33.5L20.9,33.5l6.7,22.1c2.5,8.7,4.9,8.7,8,8.7h28.9c3,0,5.4,0,8-8.7l6.7-22.1l0,0C79.2,33.5,20.9,33.5,20.9,33.5z
		 M60.3,37.8c1.5,0,2.7,1.2,2.7,2.7s-1.3,2.7-2.8,2.7s-2.7-1.3-2.7-2.8C57.6,38.9,58.8,37.8,60.3,37.8z M50.1,37.8
		c1.5,0,2.8,1.2,2.8,2.7s-1.2,2.7-2.7,2.7s-2.8-1.2-2.8-2.7C47.4,39,48.6,37.8,50.1,37.8z M39.8,37.8c1.6,0,2.7,1.2,2.7,2.8
		c0,1.5-1.2,2.6-2.7,2.6s-2.6-1.2-2.6-2.7C37.1,38.9,38.3,37.8,39.8,37.8z M29.3,43.2c-1.5,0-2.7-1.2-2.7-2.6c0-1.5,1.2-2.7,2.7-2.7
		s2.7,1.2,2.7,2.6C32.1,41.9,30.8,43.2,29.3,43.2z M34.7,51.1c-1.6,0-2.7-1.1-2.7-2.7c0-1.5,1.1-2.6,2.7-2.7c1.5,0,2.7,1.1,2.7,2.6
		C37.3,49.9,36.2,51.1,34.7,51.1z M39.6,59.6c-1.5,0-2.7-1.1-2.7-2.7c0-1.5,1.1-2.7,2.7-2.7c1.5,0,2.7,1.1,2.7,2.7
		C42.3,58.4,41.2,59.6,39.6,59.6z M45.2,51.1c-1.5,0-2.7-1.1-2.7-2.6s1.2-2.7,2.7-2.7c1.6,0,2.8,1.1,2.8,2.7
		C47.8,49.9,46.7,51.1,45.2,51.1z M50.2,59.6c-1.5,0-2.7-1.2-2.7-2.6c0-1.5,1.2-2.7,2.8-2.7c1.5,0,2.7,1.2,2.7,2.7
		C52.8,58.4,51.6,59.6,50.2,59.6z M55.5,51.1c-1.5,0-2.7-1.2-2.7-2.7s1.2-2.7,2.8-2.7c1.5,0,2.7,1.3,2.7,2.7
		C58.2,49.9,57,51.1,55.5,51.1z M60.4,59.6c-1.5,0-2.7-1.2-2.7-2.7s1.2-2.7,2.7-2.6c1.5,0,2.7,1.2,2.7,2.7
		C63.1,58.4,62,59.6,60.4,59.6z M65.7,51.1c-1.5,0-2.7-1.1-2.7-2.6s1.1-2.7,2.6-2.7c1.6,0,2.7,1.1,2.7,2.7
		C68.3,49.9,67.2,51.1,65.7,51.1z M70.8,43.2c-1.5,0-2.7-1.2-2.7-2.7s1.1-2.7,2.6-2.7c1.6,0,2.7,1.1,2.7,2.7
		C73.5,42,72.3,43.2,70.8,43.2z"/>
	<path d="M78.9,26.9H67.3l0.1,0.2c0.7,1,0.5,2.4-0.5,3.1c-0.4,0.3-0.8,0.4-1.3,0.4c-0.1,0-0.2,0-0.3,0c-0.6-0.1-1.1-0.4-1.5-0.9
		l-2-2.8H38.3l-2,2.8c-0.3,0.5-0.9,0.8-1.5,0.9c-0.1,0-0.2,0-0.3,0c-0.5,0-0.9-0.1-1.3-0.4c-1-0.7-1.2-2.1-0.5-3.1l0.1-0.2H21.2
		c-1.7,0-3.1,1.4-3.1,3.1l0,0c0,1.7,1.4,3.1,3.1,3.1H79c1.7,0,3.1-1.4,3.1-3.1l0,0C82,28.3,80.6,26.9,78.9,26.9z"/>
	<path d="M64.2,29.4c0.3,0.4,0.7,0.6,1.2,0.7s1,0,1.4-0.3c0.8-0.6,1-1.7,0.4-2.6L56,12c-0.3-0.4-0.7-0.7-1.2-0.7c-0.1,0-0.2,0-0.3,0
		c-0.4,0-0.8,0.1-1.1,0.4c-0.4,0.3-0.7,0.7-0.7,1.2c-0.1,0.5,0,1,0.3,1.4L64.2,29.4z"/>
	<path d="M33,27.3c-0.6,0.8-0.4,2,0.4,2.6c0.4,0.3,0.9,0.4,1.4,0.3s0.9-0.3,1.2-0.7l11.2-15.2c0.3-0.4,0.4-0.9,0.3-1.4
		c-0.1-0.5-0.3-0.9-0.7-1.2c-0.3-0.2-0.7-0.4-1.1-0.4c-0.1,0-0.2,0-0.3,0c-0.5,0.1-0.9,0.3-1.2,0.7L33,27.3z"/>
</g>
</svg>
