<?xml version="1.0" encoding="utf-8"?>
<!-- Generator: Adobe Illustrator 19.2.0, SVG Export Plug-In . SVG Version: 6.00 Build 0)  -->
<svg version="1.1" id="Warstwa_1" xmlns="http://www.w3.org/2000/svg" xmlns:xlink="http://www.w3.org/1999/xlink" x="0px" y="0px"
	 viewBox="0 0 100 100" style="enable-background:new 0 0 100 100;" xml:space="preserve">
<style type="text/css">
	.st0{fill:#FF0000;}
</style>
<g>
	<path class="st0" d="M7.7,43.7L7.7,43.7L17.5,76c3.7,12.7,7.2,12.7,11.7,12.7h42.3c4.4,0,7.9,0,11.7-12.7L93,43.7l0,0
		C92.9,43.7,7.7,43.7,7.7,43.7z M65.3,50c2.2,0,3.9,1.8,3.9,3.9c0,2.2-1.9,3.9-4.1,3.9c-2.2,0-3.9-1.9-3.9-4.1
		C61.3,51.6,63.1,50,65.3,50z M50.4,50c2.2,0,4.1,1.8,4.1,3.9c0,2.2-1.8,3.9-3.9,3.9c-2.2,0-4.1-1.8-4.1-3.9
		C46.4,51.8,48.2,50,50.4,50z M35.3,50c2.3,0,3.9,1.8,3.9,4.1c0,2.2-1.8,3.8-3.9,3.8c-2.2,0-3.8-1.8-3.8-3.9
		C31.4,51.6,33.1,50,35.3,50z M19.9,57.9c-2.2,0-3.9-1.8-3.9-3.8c0-2.2,1.8-3.9,3.9-3.9s3.9,1.8,3.9,3.8C24,56,22.1,57.9,19.9,57.9z
		 M27.8,69.5c-2.3,0-3.9-1.6-3.9-3.9c0-2.2,1.6-3.8,3.9-3.9c2.2,0,3.9,1.6,3.9,3.8C31.6,67.7,30,69.5,27.8,69.5z M35,81.9
		c-2.2,0-3.9-1.6-3.9-3.9c0-2.2,1.6-3.9,3.9-3.9c2.2,0,3.9,1.6,3.9,3.9C39,80.1,37.3,81.9,35,81.9z M43.2,69.5
		c-2.2,0-3.9-1.6-3.9-3.8c0-2.2,1.8-3.9,3.9-3.9c2.3,0,4.1,1.6,4.1,3.9C47,67.7,45.4,69.5,43.2,69.5z M50.5,81.9
		c-2.2,0-3.9-1.8-3.9-3.8c0-2.2,1.8-3.9,4.1-3.9c2.2,0,3.9,1.8,3.9,3.9C54.3,80.1,52.6,81.9,50.5,81.9z M58.3,69.5
		c-2.2,0-3.9-1.8-3.9-3.9c0-2.2,1.8-3.9,4.1-3.9c2.2,0,3.9,1.9,3.9,3.9C62.2,67.7,60.5,69.5,58.3,69.5z M65.4,81.9
		c-2.2,0-3.9-1.8-3.9-3.9c0-2.2,1.8-3.9,3.9-3.8c2.2,0,3.9,1.8,3.9,3.9C69.4,80.1,67.8,81.9,65.4,81.9z M73.2,69.5
		c-2.2,0-3.9-1.6-3.9-3.8c0-2.2,1.6-3.9,3.8-3.9c2.3,0,3.9,1.6,3.9,3.9C77,67.7,75.4,69.5,73.2,69.5z M80.6,57.9
		c-2.2,0-3.9-1.8-3.9-3.9c0-2.2,1.6-3.9,3.8-3.9c2.3,0,3.9,1.6,3.9,3.9C84.6,56.1,82.8,57.9,80.6,57.9z"/>
	<path class="st0" d="M92.5,34.1h-17l0.1,0.3c1,1.5,0.7,3.5-0.7,4.5c-0.6,0.4-1.2,0.6-1.9,0.6c-0.1,0-0.3,0-0.4,0
		c-0.9-0.1-1.6-0.6-2.2-1.3l-2.9-4.1H33.1l-2.9,4.1c-0.4,0.7-1.3,1.2-2.2,1.3c-0.1,0-0.3,0-0.4,0c-0.7,0-1.3-0.1-1.9-0.6
		c-1.5-1-1.8-3.1-0.7-4.5l0.1-0.3h-17c-2.5,0-4.5,2-4.5,4.5l0,0c0,2.5,2,4.5,4.5,4.5h84.5c2.5,0,4.5-2,4.5-4.5l0,0
		C97,36.1,95,34.1,92.5,34.1z"/>
	<path class="st0" d="M71,37.7c0.4,0.6,1,0.9,1.8,1c0.7,0.1,1.5,0,2-0.4c1.2-0.9,1.5-2.5,0.6-3.8L59,12.3c-0.4-0.6-1-1-1.8-1
		c-0.1,0-0.3,0-0.4,0c-0.6,0-1.2,0.1-1.6,0.6c-0.6,0.4-1,1-1,1.8c-0.1,0.7,0,1.5,0.4,2L71,37.7z"/>
	<path class="st0" d="M25.4,34.6c-0.9,1.2-0.6,2.9,0.6,3.8c0.6,0.4,1.3,0.6,2,0.4c0.7-0.1,1.3-0.4,1.8-1l16.4-22.2
		c0.4-0.6,0.6-1.3,0.4-2c-0.1-0.7-0.4-1.3-1-1.8c-0.4-0.3-1-0.6-1.6-0.6c-0.1,0-0.3,0-0.4,0c-0.7,0.1-1.3,0.4-1.8,1L25.4,34.6z"/>
</g>
</svg>
