<?xml version="1.0" encoding="utf-8"?>
<!-- Generator: Adobe Illustrator 19.2.0, SVG Export Plug-In . SVG Version: 6.00 Build 0)  -->
<svg version="1.1" id="Warstwa_1" xmlns="http://www.w3.org/2000/svg" xmlns:xlink="http://www.w3.org/1999/xlink" x="0px" y="0px"
	 viewBox="0 0 100 100" style="enable-background:new 0 0 100 100;" xml:space="preserve">
<g>
	<path d="M50.6,3.7C25.3,3.7,4.7,24.3,4.7,49.6c0,25.4,20.6,45.9,45.9,45.9C76,95.5,96.5,75,96.5,49.6C96.5,24.3,76,3.7,50.6,3.7
		L50.6,3.7z M28.8,68.8H16.3V65h12.5V68.8z M28.8,63.8H16.3v-3.8h12.5V63.8z M28.8,58.9H16.3v-3.8h12.5V58.9z M28.8,54H16.3v-3.8
		h12.5V54z M28.8,49.1H16.3v-3.8h12.5V49.1z M42.9,68.8H30.3V65h12.5V68.8z M42.9,63.8H30.3v-3.8h12.5V63.8z M42.9,58.9H30.3v-3.8
		h12.5V58.9z M56.9,68.8H44.4V65h12.5V68.8z M56.9,63.8H44.4v-3.8h12.5V63.8z M56.9,58.9H44.4v-3.8h12.5V58.9z M56.9,54H44.4v-3.8
		h12.5V54z M56.9,49.1H44.4v-3.8h12.5V49.1z M56.9,44.1H44.4v-3.8h12.5V44.1z M56.9,39.2H44.4v-3.8h12.5V39.2z M70.9,68.8H58.4V65
		h12.5V68.8z M70.9,63.8H58.4v-3.8h12.5V63.8z M70.9,58.9H58.4v-3.8h12.5V58.9z M70.9,54H58.4v-3.8h12.5V54z M70.9,49.1H58.4v-3.8
		h12.5V49.1z M84.9,68.8H72.4V65h12.5V68.8z M84.9,63.8H72.4v-3.8h12.5V63.8z M84.9,58.9H72.4v-3.8h12.5V58.9z M84.9,54H72.4v-3.8
		h12.5V54z M84.9,49.1H72.4v-3.8h12.5V49.1z M84.9,44.1H72.4v-3.8h12.5V44.1z M84.9,39.2H72.4v-3.8h12.5V39.2z M72.4,34.3v-3.8h12.5
		v3.8H72.4z M72.4,34.3"/>
</g>
</svg>
