<?xml version="1.0" encoding="utf-8"?>
<!-- Generator: Adobe Illustrator 19.2.0, SVG Export Plug-In . SVG Version: 6.00 Build 0)  -->
<svg version="1.1" id="Warstwa_1" xmlns="http://www.w3.org/2000/svg" xmlns:xlink="http://www.w3.org/1999/xlink" x="0px" y="0px"
	 viewBox="0 0 100 100" style="enable-background:new 0 0 100 100;" xml:space="preserve">
<style type="text/css">
	.st0{fill:#010101;}
</style>
<g>
	<path id="DEEZER" class="st0" d="M21,66.4h-5.6v25h5c5.5,0,6.6-2,6.6-8.4v-7.4C27.1,68.3,26.6,66.4,21,66.4z M23.6,82.8
		c0,4.3-0.5,5.6-3,5.6h-1.7V69.3h1.4c2.9,0,3.3,1.2,3.3,4.9V82.8z M29.4,91.4h9.4v-2.9h-5.9V80h5.6v-2.9h-5.6v-7.8h5.9v-2.9h-9.4
		V91.4z M40.1,91.4h9.4v-2.9h-5.9V80h5.6v-2.9h-5.6v-7.8h5.9v-2.9h-9.4V91.4z M61.2,69.3v-2.9H50.9v2.9h6.8l-7.8,18.9v3.1h11.4v-2.9
		h-8L61.2,69.3z M62.8,91.4h9.4v-2.9h-5.9V80h5.6v-2.9h-5.6v-7.8h5.9v-2.9h-9.4V91.4z M84.3,88.2v-5.4c0-2.4-0.8-3.6-3.1-3.8v-0.1
		c2.8-0.9,3.3-2.3,3.3-5.7c0-5.5-0.5-6.8-5.6-6.8h-5.4v25H77V80.5h1.2c2.3,0,2.7,0.6,2.7,3v5.6c0,1,0.1,1.6,0.4,2.2h3.3
		C84.3,90.4,84.3,89.1,84.3,88.2z M77.9,77.6H77v-8.3h1.7c2.1,0,2.4,0.3,2.4,4C81,77.1,80.6,77.6,77.9,77.6z"/>
</g>
<g>
	<path id="cyan" class="st0" d="M80.7,60.9h17.7v-5.8H80.7V60.9z M80.7,54.3h17.7v-5.8H80.7V54.3z M80.7,47.6h17.7v-5.8H80.7V47.6z
		 M80.7,41h17.7v-5.8H80.7V41z M80.7,34.3h17.7v-5.8H80.7V34.3z M80.7,27.7h17.7v-5.8H80.7V27.7z M80.7,21h17.7v-5.8H80.7V21z
		 M80.7,8.6v5.8h17.7V8.6H80.7z"/>
	<path id="magenta" class="st0" d="M41.1,60.9h17.7v-5.8H41.1V60.9z M41.1,54.3h17.7v-5.8H41.1V54.3z M41.1,47.6h17.7v-5.8H41.1
		V47.6z M41.1,41h17.7v-5.8H41.1V41z M41.1,34.3h17.7v-5.8H41.1V34.3z M41.1,27.7h17.7v-5.8H41.1V27.7z M41.1,21h17.7v-5.8H41.1V21z
		"/>
	<path id="green" class="st0" d="M60.9,60.9h17.7v-5.8H60.9V60.9z M60.9,54.3h17.7v-5.8H60.9V54.3z M60.9,47.6h17.7v-5.8H60.9V47.6z
		 M60.9,41h17.7v-5.8H60.9V41z M60.9,34.3h17.7v-5.8H60.9V34.3z"/>
	<path id="yellow" class="st0" d="M21.4,60.9h17.7v-5.8H21.4V60.9z M21.4,54.3h17.7v-5.8H21.4V54.3z M21.4,47.6h17.7v-5.8H21.4V47.6
		z"/>
	<path id="red" class="st0" d="M1.6,60.9h17.7v-5.8H1.6V60.9z M1.6,54.3h17.7v-5.8H1.6V54.3z M1.6,47.6h17.7v-5.8H1.6V47.6z M1.6,41
		h17.7v-5.8H1.6V41z M1.6,34.3h17.7v-5.8H1.6V34.3z"/>
</g>
</svg>
