<?xml version="1.0" encoding="utf-8"?>
<!-- Generator: Adobe Illustrator 19.2.0, SVG Export Plug-In . SVG Version: 6.00 Build 0)  -->
<svg version="1.1" id="Warstwa_1" xmlns="http://www.w3.org/2000/svg" xmlns:xlink="http://www.w3.org/1999/xlink" x="0px" y="0px"
	 viewBox="0 0 100 100" style="enable-background:new 0 0 100 100;" xml:space="preserve">
<g>
	<polygon points="69.3,28.1 61.6,37.5 40.2,11.2 	"/>
	<path d="M30.3,72.7c-2.5,0-4-2.2-4-5.9V12.3c0-1.8,0.4-5.9,3.9-5.9c1.1,0,2.4,0.4,3.7,1.2l0.3,0.2c0,0.1,0.1,0.2,0.2,0.3L60,39.5
		L34.4,71c-0.1,0.1-0.1,0.2-0.2,0.4L34,71.5C32.7,72.2,31.4,72.7,30.3,72.7z"/>
	<polygon points="61.6,41.5 69.2,50.9 40.1,67.9 	"/>
	<path d="M82.2,44.3L73,49.6l-8.2-10.1L73,29.3l9.3,5.4c2.2,1.3,3.5,2.9,3.5,4.7C85.9,41.2,84.5,42.9,82.2,44.3z"/>
</g>
<g>
	<g>
		<path d="M70.7,89.2c-0.6,0-1.1-0.1-1.6-0.3c-0.5-0.2-0.9-0.6-1.2-1h-0.1c0.1,0.5,0.1,1,0.1,1.5v3.7h-1.4V79.9h1.1l0.2,1.2h0.1
			c0.4-0.5,0.8-0.9,1.2-1.1c0.5-0.2,1-0.3,1.6-0.3c1.2,0,2.1,0.4,2.8,1.2c0.7,0.8,1,2,1,3.5c0,1.5-0.3,2.6-1,3.5
			C72.8,88.7,71.9,89.2,70.7,89.2z M70.5,80.9c-0.9,0-1.6,0.3-2,0.8c-0.4,0.5-0.6,1.3-0.6,2.4v0.3c0,1.3,0.2,2.2,0.6,2.7
			c0.4,0.5,1.1,0.8,2,0.8c0.8,0,1.4-0.3,1.8-1c0.4-0.6,0.7-1.5,0.7-2.6c0-1.1-0.2-2-0.7-2.6C71.9,81.2,71.3,80.9,70.5,80.9z"/>
		<path d="M77.6,89h-1.4V76.1h1.4V89z"/>
		<path d="M85.5,89l-0.3-1.3h-0.1c-0.5,0.6-0.9,1-1.4,1.2c-0.4,0.2-1,0.3-1.7,0.3c-0.9,0-1.6-0.2-2.1-0.7c-0.5-0.5-0.8-1.1-0.8-2
			c0-1.8,1.5-2.8,4.4-2.9l1.5,0V83c0-0.7-0.2-1.2-0.5-1.6c-0.3-0.3-0.8-0.5-1.5-0.5c-0.8,0-1.6,0.2-2.6,0.7l-0.4-1.1
			c0.4-0.2,0.9-0.4,1.5-0.6c0.5-0.1,1.1-0.2,1.6-0.2c1.1,0,1.9,0.2,2.4,0.7c0.5,0.5,0.8,1.2,0.8,2.3V89H85.5z M82.4,88
			c0.9,0,1.5-0.2,2-0.7c0.5-0.5,0.7-1.1,0.7-2v-0.8l-1.4,0.1c-1.1,0-1.9,0.2-2.4,0.5c-0.5,0.3-0.7,0.8-0.7,1.4
			c0,0.5,0.1,0.9,0.5,1.1C81.5,87.9,81.9,88,82.4,88z"/>
		<path d="M87.3,79.9h1.5l2,5.2c0.4,1.2,0.7,2,0.8,2.6h0.1c0.1-0.3,0.2-0.8,0.5-1.4c0.2-0.7,1-2.8,2.2-6.3h1.5l-3.9,10.3
			c-0.4,1-0.8,1.7-1.4,2.2c-0.5,0.4-1.1,0.6-1.9,0.6c-0.4,0-0.8,0-1.2-0.1v-1.1c0.3,0.1,0.6,0.1,1,0.1c0.9,0,1.6-0.5,2-1.6L91,89
			L87.3,79.9z"/>
	</g>
	<g>
		<path d="M45.3,80.8c0.4,0.4,1.3,1.1,1.3,2.6c0,1.4-0.8,2.1-1.6,2.7c-0.2,0.2-0.5,0.5-0.5,0.9c0,0.4,0.3,0.6,0.5,0.8l0.7,0.5
			c0.8,0.7,1.6,1.3,1.6,2.7c0,1.8-1.7,3.6-5,3.6c-2.7,0-4.1-1.3-4.1-2.7c0-0.7,0.3-1.6,1.5-2.3c1.2-0.7,2.8-0.8,3.6-0.9
			c-0.3-0.3-0.6-0.7-0.6-1.3c0-0.3,0.1-0.5,0.2-0.7c-0.2,0-0.4,0-0.6,0c-2,0-3.1-1.5-3.1-3c0-0.9,0.4-1.8,1.2-2.5
			c1.1-0.9,2.4-1,3.4-1h3.9l-1.2,0.7H45.3z M43.9,89.2c-0.2,0-0.2,0-0.4,0c-0.2,0-1.2,0-2,0.3c-0.4,0.2-1.6,0.6-1.6,2
			c0,1.3,1.3,2.3,3.3,2.3c1.8,0,2.8-0.9,2.8-2C46,90.7,45.3,90.2,43.9,89.2z M44.5,85.6c0.4-0.4,0.5-1,0.5-1.4
			c0-1.4-0.8-3.5-2.4-3.5c-0.5,0-1,0.2-1.3,0.6c-0.3,0.4-0.4,0.9-0.4,1.4c0,1.3,0.7,3.4,2.4,3.4C43.6,86.1,44.2,85.9,44.5,85.6z"/>
		<path d="M33.3,88.9c-3,0-4.6-2.3-4.6-4.5c0-2.5,2-4.6,4.9-4.6c2.8,0,4.5,2.2,4.5,4.5C38.1,86.5,36.4,88.9,33.3,88.9z M35.7,87.3
			c0.5-0.6,0.6-1.4,0.6-2.1c0-1.7-0.8-4.8-3.1-4.8c-0.6,0-1.2,0.2-1.7,0.6c-0.7,0.7-0.9,1.5-0.9,2.3c0,1.9,0.9,5,3.2,5
			C34.5,88.3,35.3,87.9,35.7,87.3z"/>
		<path d="M23.1,88.9c-3,0-4.6-2.3-4.6-4.5c0-2.5,2-4.6,4.9-4.6c2.8,0,4.5,2.2,4.5,4.5C27.9,86.5,26.1,88.9,23.1,88.9z M25.4,87.3
			c0.5-0.6,0.6-1.4,0.6-2.1c0-1.7-0.8-4.8-3.1-4.8c-0.6,0-1.2,0.2-1.7,0.6c-0.7,0.7-0.9,1.5-0.9,2.3c0,1.9,0.9,5,3.2,5
			C24.2,88.3,25,87.9,25.4,87.3z"/>
		<path d="M17,88.6l-2.7,0.6c-1.1,0.2-2.1,0.3-3.1,0.3c-5.3,0-7.2-3.9-7.2-6.9c0-3.7,2.8-7.1,7.7-7.1c1,0,2,0.2,2.9,0.4
			c1.4,0.4,2.1,0.9,2.5,1.2l-1.6,1.5l-0.7,0.2l0.5-0.8c-0.6-0.6-1.8-1.8-4.1-1.8c-3,0-5.3,2.3-5.3,5.6c0,3.6,2.6,6.9,6.7,6.9
			c1.2,0,1.8-0.2,2.4-0.5v-3.1l-2.9,0.2l1.5-0.8h4L17.2,85c-0.1,0.1-0.2,0.2-0.2,0.3c0,0.2,0,0.7,0,0.9V88.6z"/>
		<path d="M51.3,88c-0.6-0.1-0.8-0.2-0.8-0.9v-0.2V76.4c0,0,0-0.1,0-0.1c0.1-0.7,0.3-0.8,0.9-1.1h-2.7l-1.4,0.7h1.5v0l0,0v11.1v0.6
			c0,0.4-0.1,0.4-0.5,1h3.4l0.7-0.4C51.9,88.1,51.6,88.1,51.3,88z"/>
		<path d="M59,88.2c-0.2,0.1-0.4,0.2-0.6,0.3c-0.6,0.3-1.3,0.4-1.8,0.4c-0.6,0-1.5,0-2.5-0.7c-1.3-0.9-1.9-2.6-1.9-4
			c0-2.9,2.4-4.4,4.3-4.4c0.7,0,1.4,0.2,1.9,0.5c0.9,0.6,1.2,1.4,1.3,1.9L55.3,84l-1.5,0.1c0.5,2.4,2.1,3.8,3.9,3.8
			c1,0,1.7-0.3,2.3-0.7L59,88.2z M57.2,82.6c0.4-0.1,0.5-0.2,0.5-0.5c0-0.8-0.8-1.6-1.9-1.6c-0.8,0-2.2,0.6-2.2,2.6
			c0,0.3,0,0.7,0.1,1L57.2,82.6z"/>
		<g>
			<path d="M60.8,79.9v1.2h-0.2v-1.2h-0.4v-0.1h1v0.1H60.8z"/>
			<path d="M62.5,81.2v-1.3h0l-0.4,1.3H62l-0.4-1.3h0v1.3h-0.1v-1.4h0.2l0.4,1.1h0l0.3-1.1h0.2v1.4H62.5z"/>
		</g>
	</g>
</g>
</svg>
