<?xml version="1.0" encoding="utf-8"?>
<!-- Generator: Adobe Illustrator 19.1.0, SVG Export Plug-In . SVG Version: 6.00 Build 0)  -->
<svg version="1.1" id="Warstwa_1" xmlns="http://www.w3.org/2000/svg" xmlns:xlink="http://www.w3.org/1999/xlink" x="0px" y="0px"
	 viewBox="0 0 100 100" style="enable-background:new 0 0 100 100;" xml:space="preserve">
<g>
	<path d="M81.5,57.9c-1.6,3.6-2.4,5.2-4.6,8.5c-2.9,4.5-7.1,10.1-12.3,10.1c-4.6,0-5.8-2.9-12-2.9s-7.5,3.1-12.1,2.9
		c-5.1,0-9.2-5.1-12.1-9.6c-8.3-12.6-9.2-27.4-4-35.2c3.6-5.6,9.4-8.8,14.7-8.8c5.5,0,8.9,3.1,13.4,3.1c4.4,0,7.1-3.1,13.4-3.1
		c4.8,0,9.8,2.6,13.5,7.1C67.7,36.4,69.5,53.3,81.5,57.9L81.5,57.9z"/>
	<path d="M61.2,17.7c2.3-2.9,4-7.1,3.4-11.3c-3.7,0.2-8.2,2.6-10.7,5.8c-2.3,2.8-4.3,7-3.5,11.1C54.5,23.4,58.7,20.9,61.2,17.7
		L61.2,17.7z"/>
</g>
<g>
	<path d="M25.9,80.3c0,0.8-0.6,1.6-1.7,1.6c-1,0-1.6-0.7-1.6-1.6c0-0.9,0.6-1.6,1.6-1.6C25.2,78.7,25.9,79.4,25.9,80.3z M22.7,93
		v-10h3.1v10L22.7,93L22.7,93z"/>
	<path d="M31.1,81.9h-3.7v-2.6H38v2.6h-3.8v11.2h-3.1L31.1,81.9L31.1,81.9z"/>
	<path d="M47.8,89.8c0,1.3,0.1,2.4,0.1,3.2h-2.7l-0.1-1.4H45c-0.4,0.6-1.4,1.6-3.1,1.6c-2,0-3.5-1.3-3.5-4.3V83h3.1v5.4
		c0,1.4,0.5,2.3,1.6,2.3c0.8,0,1.4-0.6,1.6-1.1c0.1-0.2,0.1-0.5,0.1-0.6v-6h3.1C47.8,83,47.8,89.8,47.8,89.8z"/>
	<path d="M50.4,86.2c0-1.2-0.1-2.3-0.1-3.2H53l0.1,1.4h0.1c0.4-0.6,1.4-1.6,3.1-1.6c2.1,0,3.6,1.4,3.6,4.3v6h-3.1v-5.6
		c0-1.3-0.5-2.2-1.6-2.2c-0.8,0-1.4,0.6-1.6,1.2c-0.1,0.2-0.1,0.5-0.1,0.8V93h-3.1L50.4,86.2L50.4,86.2z"/>
	<path d="M64.7,89c0.1,1.3,1.4,1.9,2.9,1.9c1,0,1.9-0.1,2.8-0.4l0.4,2.1c-1,0.4-2.3,0.6-3.6,0.6c-3.4,0-5.4-2-5.4-5.1
		c0-2.5,1.6-5.4,5.1-5.4c3.2,0,4.5,2.5,4.5,5c0,0.5-0.1,1-0.1,1.2H64.7z M68.4,86.9c0-0.8-0.3-2-1.7-2c-1.3,0-1.8,1.2-1.9,2H68.4z"
		/>
	<path d="M73.2,90.3c0.6,0.3,1.7,0.8,2.7,0.8c1,0,1.4-0.3,1.4-0.8c0-0.5-0.3-0.8-1.5-1.2c-2.1-0.7-2.9-1.8-2.9-3
		c0-1.9,1.6-3.3,4.1-3.3c1.2,0,2.2,0.3,2.9,0.6l-0.6,2.1c-0.5-0.3-1.3-0.6-2.2-0.6c-0.8,0-1.2,0.3-1.2,0.8c0,0.5,0.4,0.7,1.6,1.2
		c1.9,0.6,2.7,1.6,2.7,3.1c0,1.9-1.5,3.2-4.3,3.2c-1.3,0-2.5-0.3-3.2-0.7L73.2,90.3z"/>
</g>
</svg>
