<?xml version="1.0" encoding="utf-8"?>
<!-- Generator: Adobe Illustrator 19.1.0, SVG Export Plug-In . SVG Version: 6.00 Build 0)  -->
<svg version="1.1" id="Warstwa_1" xmlns="http://www.w3.org/2000/svg" xmlns:xlink="http://www.w3.org/1999/xlink" x="0px" y="0px"
	 viewBox="0 0 100 100" style="enable-background:new 0 0 100 100;" xml:space="preserve">
<g>
	<path d="M90.1,71.6c-2.1,4.7-3.1,6.8-6,11.1c-3.8,5.9-9.3,13.2-16,13.2c-6,0-7.6-3.8-15.6-3.8s-9.8,4-15.8,3.8
		c-6.6,0-12-6.6-15.8-12.5c-10.8-16.4-12-35.7-5.2-45.9C20.4,30.2,28,26,34.9,26c7.2,0,11.6,4,17.5,4c5.7,0,9.3-4,17.5-4
		c6.3,0,12.8,3.4,17.6,9.3C72.1,43.6,74.5,65.6,90.1,71.6L90.1,71.6z"/>
	<path d="M63.7,19.2c3-3.8,5.2-9.3,4.4-14.7c-4.8,0.3-10.7,3.4-13.9,7.6c-3,3.6-5.6,9.1-4.6,14.5C54.9,26.7,60.4,23.4,63.7,19.2
		L63.7,19.2z"/>
</g>
</svg>
