<?xml version="1.0" encoding="utf-8"?>
<!-- Generator: Adobe Illustrator 19.1.0, SVG Export Plug-In . SVG Version: 6.00 Build 0)  -->
<svg version="1.1" id="Warstwa_1" xmlns="http://www.w3.org/2000/svg" xmlns:xlink="http://www.w3.org/1999/xlink" x="0px" y="0px"
	 viewBox="0 0 100 100" style="enable-background:new 0 0 100 100;" xml:space="preserve">
<path d="M50,5.2C25.3,5.2,5.2,25.3,5.2,50s20,44.8,44.8,44.8s44.8-20,44.8-44.8S74.7,5.2,50,5.2z M80.9,76c-4.7,6.2-11,9.5-18.7,9.7
	c-2.5,0.1-3.7-0.9-4-3.4c-0.1-1,0-2,0-3.2c-1,0.1-2.1,0.1-3.3,0.3c0-1.4,0-2.8,0-4.2C71.3,74.6,82.8,59.6,81.5,45
	c-1.4-13.6-12.1-24.6-25.6-25.6c-7.7-0.6-14.6,1.5-20.5,6.4c-5.9,5-9.1,11.5-10,19.2c-1.5,0-2.8,0-4,0c0-0.9,0-1.8,0-2.6
	c-1,0-2,0.1-3,0c-2.5-0.1-3.5-1.4-3.5-3.9c0.1-7.7,3.4-13.9,9.3-18.7c4-3.2,6.7-2.8,9.7,1.6c7.7-5.7,16.3-7.7,25.7-5.9
	c7.2,1.3,13.2,4.8,18.2,10.2c9.5,10.5,11.5,27.5,1.6,41c0,0.1,0.1,0.1,0.1,0.3C83.3,69.7,83.7,72.2,80.9,76z"/>
</svg>
