<?xml version="1.0" encoding="utf-8"?>
<!-- Generator: Adobe Illustrator 19.1.0, SVG Export Plug-In . SVG Version: 6.00 Build 0)  -->
<svg version="1.1" id="Warstwa_1" xmlns="http://www.w3.org/2000/svg" xmlns:xlink="http://www.w3.org/1999/xlink" x="0px" y="0px"
	 viewBox="0 0 100 100" style="enable-background:new 0 0 100 100;" xml:space="preserve">
<path d="M50,5.3c-19.6,0-35.5,15.9-35.5,35.5S30.4,76.3,50,76.3s35.5-15.9,35.5-35.5S69.6,5.3,50,5.3z M74.5,61.4
	c-3.7,4.9-8.7,7.5-14.8,7.7c-2,0.1-2.9-0.7-3.2-2.7c-0.1-0.8,0-1.6,0-2.5c-0.8,0.1-1.7,0.1-2.6,0.2c0-1.1,0-2.2,0-3.3
	c13-0.5,22.1-12.4,21.1-24C73.9,26,65.4,17.3,54.7,16.5c-6.1-0.5-11.6,1.2-16.3,5.1c-4.7,4-7.2,9.1-7.9,15.2c-1.2,0-2.2,0-3.2,0
	c0-0.7,0-1.4,0-2.1c-0.8,0-1.6,0.1-2.4,0c-2-0.1-2.8-1.1-2.8-3.1c0.1-6.1,2.7-11,7.4-14.8c3.2-2.5,5.3-2.2,7.7,1.3
	c6.1-4.5,12.9-6.1,20.4-4.7c5.7,1,10.5,3.8,14.4,8.1c7.5,8.3,9.1,21.8,1.3,32.5c0,0.1,0.1,0.1,0.1,0.2
	C76.4,56.4,76.7,58.4,74.5,61.4z"/>
<g>
	<path d="M18.1,89.7c0,1.1,0,2.3,0,3.4c0,0.7-0.2,0.9-0.9,0.9c-0.4,0-0.7,0-1.1,0c-0.5,0-0.7-0.2-0.7-0.7c0-2.1,0-4.2,0-6.3
		c0-0.3,0.1-0.8-0.3-0.8c-0.4-0.1-0.9,0-1.4,0.1c-0.1,0-0.2,0.4-0.2,0.6c0,2.1,0,4.2,0,6.3c0,0.7-0.2,0.9-0.9,0.9c-0.3,0-0.7,0-1,0
		c-0.6,0-0.8-0.2-0.8-0.8c0-2.1,0-4.1,0-6.2c0-0.3,0.2-0.7-0.2-0.8c-0.4-0.1-0.9,0-1.3,0c-0.1,0-0.2,0.4-0.2,0.6c0,2.1,0,4.2,0,6.3
		c0,0.9-0.1,1-1,1c-0.3,0-0.5,0-0.8,0c-0.7,0-0.9-0.2-0.9-0.8c0-1.8,0-3.6,0-5.4c0-0.4,0-0.8,0-1.2c0-1.6,0.9-2.7,2.5-2.9
		c1.1-0.1,2.1-0.1,3.1,0.3c0.1,0.1,0.4,0,0.5,0c1.2-0.4,2.4-0.5,3.6-0.1c1.3,0.4,1.9,1.3,2,2.6C18.1,87.5,18.1,88.6,18.1,89.7z"/>
	<path d="M49.4,86.1c0,1.6,0,3.2,0,4.8c0,1.7-0.8,2.7-2.5,3c-0.9,0.2-1.9,0.2-2.8-0.1c-1.4-0.5-2-1.5-2-2.9c0.1-1.2,0.1-2.3,0-3.5
		c-0.1-1.5,0.6-2.6,2-3.1c0.7-0.2,1.3-0.5,2-0.7c0.4-0.1,0.5-0.3,0.5-0.7c0-0.7,0-1.5,0-2.2c0-0.5,0.2-0.7,0.7-0.7
		c0.4,0,0.8,0,1.1,0c0.7,0,0.8,0.2,0.8,0.8C49.4,82.6,49.4,84.4,49.4,86.1z M46.6,86.3c-0.5,0.2-0.9,0.3-1.4,0.5
		c-0.2,0.1-0.4,0.4-0.4,0.6c0,1.2,0,2.4,0,3.7c0,0.4,0.2,0.6,0.6,0.6c0.2,0,0.4,0,0.6,0c0.4,0,0.6-0.2,0.6-0.6c0-1.5,0-3,0-4.5
		C46.7,86.4,46.7,86.4,46.6,86.3z"/>
	<path d="M82.8,91.4c0-1.6,0-3.3,0-4.9c0-1.6,0.8-2.6,2.4-2.9c1-0.2,2-0.2,3,0.2c1.1,0.4,1.7,1.2,1.8,2.5c0,1.4,0,2.9,0,4.3
		c0,1.4-0.7,2.2-2,2.6c-0.6,0.2-1.2,0.5-1.9,0.6c-0.5,0.1-0.7,0.4-0.7,1c0,0.6,0,1.3,0,1.9c0,0.6-0.2,0.8-0.8,0.8
		c-0.4,0-0.7,0-1.1,0c-0.7,0-0.8-0.2-0.8-0.8C82.8,94.9,82.8,93.2,82.8,91.4z M85.5,91.3c0.5-0.2,0.9-0.3,1.3-0.4
		c0.4-0.1,0.6-0.4,0.6-0.8c0-1.1,0-2.2,0-3.2c0-0.7-0.2-0.8-0.8-0.8c-0.2,0-0.3,0-0.5,0c-0.4,0-0.6,0.2-0.6,0.6c0,0.7,0,1.3,0,2
		C85.5,89.5,85.5,90.4,85.5,91.3z"/>
	<path d="M57.1,88.8c0,0.8,0,1.6,0,2.3c0,1.5-0.7,2.4-2.1,2.8c-1.1,0.3-2.3,0.3-3.4-0.1c-1.1-0.4-1.7-1.2-1.6-2.4
		c0-0.5,0-1.1,0.1-1.6c0.2-0.9,0.8-1.5,1.6-1.8c0.8-0.3,1.5-0.5,2.3-0.8c0.4-0.1,0.5-0.4,0.5-0.7c-0.1-0.4-0.3-0.4-0.6-0.5
		c-0.2,0-0.4,0-0.6,0c-0.3,0-0.5,0.2-0.5,0.5c-0.1,0.6-0.2,0.7-0.8,0.7c-0.4,0-0.8,0-1.2,0c-0.5,0-0.7-0.2-0.7-0.7
		c-0.1-1.5,0.6-2.4,2-2.9c1.1-0.3,2.2-0.3,3.3,0c1.2,0.4,1.9,1.3,1.9,2.6C57.1,87.1,57.1,88,57.1,88.8z M54.4,89.8
		c-0.5,0.2-1,0.3-1.4,0.5c-0.3,0.1-0.4,0.4-0.3,0.7c0,0.2,0.2,0.4,0.3,0.5c0.9,0.4,1.5,0,1.5-1C54.4,90.3,54.4,90.1,54.4,89.8z"/>
	<path d="M79,88.8c0,0.7,0,1.5,0,2.2c0.1,2-1,2.8-2.6,3.1c-1.1,0.2-2.1,0.2-3.1-0.3c-1-0.5-1.5-1.3-1.5-2.3c0-0.5,0-1,0.1-1.5
		c0.2-0.9,0.7-1.6,1.6-1.9c0.8-0.3,1.6-0.6,2.4-0.8c0.4-0.1,0.4-0.4,0.4-0.7c0-0.3-0.3-0.4-0.6-0.4c-0.2,0-0.4,0-0.6,0
		c-0.4,0-0.6,0.2-0.6,0.6c0,0.5-0.3,0.7-0.8,0.6c-0.4,0-0.8,0-1.2,0c-0.5,0-0.7-0.2-0.7-0.7c-0.1-1.5,0.6-2.4,2-2.8
		c1.1-0.3,2.2-0.3,3.2,0c1.3,0.4,1.9,1.3,1.9,2.6C79.1,87.1,79,87.9,79,88.8z M76.4,89.8c-0.5,0.2-1,0.3-1.4,0.5
		c-0.2,0.1-0.3,0.4-0.4,0.6c0,0.2,0.2,0.5,0.3,0.5c0.4,0.1,0.8,0.1,1.1,0c0.1,0,0.3-0.3,0.3-0.4C76.4,90.7,76.4,90.3,76.4,89.8z"/>
	<path d="M41.6,88.8c0,0.8,0,1.5,0,2.3c0,1.7-0.7,2.6-2.4,2.9c-0.9,0.2-1.9,0.2-2.8-0.1c-1.1-0.4-1.9-1.1-1.9-2.3
		c0-1.8-0.1-3.7,0-5.5c0.1-1.4,0.8-2.1,2.2-2.4c1.2-0.3,2.4-0.3,3.5,0.3c0.9,0.5,1.4,1.2,1.4,2.2C41.6,87,41.6,87.9,41.6,88.8z
		 M39,88.8c0-0.6,0-1.2,0-1.9c0-0.8-0.1-0.9-0.9-0.9c-0.1,0-0.2,0-0.4,0c-0.3,0-0.5,0.2-0.5,0.5c0,1.5,0,3,0,4.4
		c0,0.3,0.1,0.5,0.4,0.5c0.3,0,0.6,0,1,0c0.3,0,0.4-0.2,0.4-0.5C38.9,90.3,39,89.5,39,88.8z"/>
	<path d="M60.8,89.6c0-1.1,0-2.1,0-3.2c0-1.5,0.8-2.5,2.3-2.8c1.2-0.2,2.4-0.3,3.5,0.3c1,0.5,1.4,1.2,1.4,2.3c0,2.3,0,4.7,0,7
		c0,0.6-0.2,0.8-0.8,0.8c-0.4,0-0.8,0-1.1,0c-0.6,0-0.8-0.2-0.8-0.8c0-2.1,0-4.3,0-6.4c0-0.6-0.1-0.7-0.7-0.8c-0.2,0-0.3,0-0.5,0
		c-0.4,0-0.6,0.2-0.6,0.7c0,2.1,0,4.2,0,6.4c0,0.8-0.2,0.9-0.9,0.9c-0.3,0-0.7,0-1,0c-0.5,0-0.7-0.2-0.7-0.7
		C60.8,92,60.8,90.8,60.8,89.6z"/>
	<path d="M18.6,87.9c0-1.2,0-2.3,0-3.5c0-0.7,0.2-0.8,0.8-0.8c0.4,0,0.7,0,1.1,0c0.6,0,0.8,0.2,0.8,0.8c0,1,0,2,0,2.9
		c0,1.2,0,2.5,0,3.7c0,0.4,0.2,0.5,0.5,0.6c0.2,0,0.5,0,0.7,0c0.4,0,0.6-0.2,0.6-0.7c0-2.1,0-4.2,0-6.4c0-0.9,0.1-0.9,0.9-0.9
		c0.3,0,0.6,0,0.9,0c0.6,0,0.8,0.2,0.8,0.8c0,0.9,0,1.8,0,2.7c0,1.3,0,2.5,0,3.8c0,1.9-0.8,2.8-2.6,3.1c-0.9,0.1-1.9,0.1-2.8-0.2
		c-1.2-0.5-1.7-1.2-1.7-2.5c0,0,0-0.1,0-0.1C18.6,90.1,18.6,89,18.6,87.9z"/>
	<path d="M29.8,91.5c1.1,0,2.1,0,3.1,0c0.2,0,0.4,0,0.5,0c0.3,0.1,0.5,0.2,0.5,0.6c0,0.4,0,0.8,0,1.2c0,0.4-0.2,0.6-0.6,0.6
		c-1.7,0-3.5,0.1-5.2,0c-1.3,0-2-1.5-1.2-2.6c1.1-1.6,2.2-3.3,3.3-4.9c0.1-0.1,0.2-0.3,0.3-0.5c-0.9,0-1.6,0-2.4,0
		c-0.4,0-0.8,0-1.1,0c-0.4,0-0.6-0.2-0.6-0.6c0-0.4,0-0.8,0-1.2c0-0.4,0.2-0.6,0.6-0.6c1.8,0,3.6,0,5.3,0c1.2,0,1.8,1.5,1.2,2.5
		c-1.1,1.6-2.1,3.2-3.2,4.7C30.1,91,30,91.2,29.8,91.5z"/>
	<path d="M60.3,89.7c0,1.6,0,3.3,0,4.9c0,1.8-1,2.9-2.8,3c-1.3,0.1-1.4,0-1.4-1.3c0-0.2,0-0.4,0-0.5c0-0.5,0.2-0.7,0.7-0.7
		c0.8-0.1,0.8-0.1,0.8-0.9c0-3.3,0-6.5,0-9.8c0-0.8,0.1-0.9,0.9-0.9c0.4,0,0.7,0,1.1,0c0.6,0,0.8,0.2,0.8,0.8c0,1.5,0,3,0,4.5
		C60.3,89.1,60.3,89.4,60.3,89.7z"/>
	<path d="M91,87c0-2.1,0-4.1,0-6.2c0-0.6,0.2-0.8,0.8-0.8c0.4,0,0.8,0,1.2,0c0.5,0,0.7,0.2,0.7,0.7c0,0.1,0,0.3,0,0.4
		c0,4,0,7.9,0,11.9c0,0.8-0.2,1-1,1c-0.3,0-0.6,0-1,0c-0.5,0-0.7-0.2-0.7-0.8C91,91.1,91,89.1,91,87z"/>
	<path d="M71.3,88.8c0,1.5,0,3,0,4.4c0,0.5-0.2,0.7-0.7,0.7c-0.4,0-0.8,0-1.2,0c-0.5,0-0.7-0.2-0.7-0.7c0-3,0-6,0-9
		c0-0.5,0.2-0.7,0.7-0.7c0.4,0,0.9,0,1.3,0c0.5,0,0.7,0.2,0.7,0.7C71.3,85.8,71.3,87.3,71.3,88.8z"/>
	<path d="M71.3,81.6c0,0.3,0,0.5,0,0.8c0,0.4-0.2,0.6-0.6,0.6c-0.5,0-0.9,0-1.4,0c-0.4,0-0.6-0.2-0.6-0.6c0-0.6,0-1.1,0-1.7
		c0-0.4,0.3-0.6,0.7-0.6c0.4,0,0.9,0,1.3,0c0.5,0,0.7,0.2,0.7,0.7C71.3,81.1,71.3,81.3,71.3,81.6z"/>
	<path d="M57.6,81.5c0-0.3,0-0.6,0-0.9c0-0.4,0.2-0.6,0.6-0.6c0.5,0,1,0,1.5,0c0.4,0,0.6,0.2,0.6,0.6c0,0.6,0,1.2,0,1.8
		c0,0.4-0.3,0.6-0.7,0.6c-0.5,0-0.9,0-1.4,0c-0.4,0-0.6-0.2-0.6-0.6c0-0.1,0-0.3,0-0.4C57.6,81.8,57.6,81.7,57.6,81.5
		C57.6,81.5,57.6,81.5,57.6,81.5z"/>
	<path d="M79.6,92.5c0-1.3,0-1.3,1.3-1.3c1.4,0,1.4,0,1.4,1.4c0,1.3,0,1.3-1.3,1.3C79.6,94,79.6,94,79.6,92.5z"/>
</g>
</svg>
