<?xml version="1.0" encoding="utf-8"?>
<!-- Generator: Adobe Illustrator 19.2.0, SVG Export Plug-In . SVG Version: 6.00 Build 0)  -->
<svg version="1.1" id="Warstwa_1" xmlns="http://www.w3.org/2000/svg" xmlns:xlink="http://www.w3.org/1999/xlink" x="0px" y="0px"
	 viewBox="0 0 100 100" style="enable-background:new 0 0 100 100;" xml:space="preserve">
<g>
	<g>
		<path d="M50,71.8c-18.2,0-33-14.8-33-33s14.8-33,33-33s33,14.8,33,33S68.2,71.8,50,71.8z M50,12.3c-14.7,0-26.6,11.9-26.6,26.6
			c0,14.7,11.9,26.6,26.6,26.6c14.7,0,26.6-11.9,26.6-26.6C76.6,24.2,64.7,12.3,50,12.3z"/>
	</g>
	<g>
		<polygon points="61.8,38.4 42.1,48.6 42.1,28.9 61.8,38.4 		"/>
	</g>
</g>
<g>
	<path d="M5.2,80.9c0.7-0.1,1.7-0.2,3.1-0.2c1.4,0,2.4,0.3,3.1,0.8c0.6,0.5,1.1,1.4,1.1,2.4c0,1-0.3,1.8-0.9,2.4
		c-0.8,0.7-1.9,1.1-3.3,1.1c-0.3,0-0.6,0-0.8,0v3.6H5.2V80.9z M7.4,85.5c0.2,0,0.4,0.1,0.8,0.1c1.2,0,2-0.6,2-1.7
		c0-0.9-0.6-1.5-1.8-1.5c-0.5,0-0.8,0-1,0.1V85.5z"/>
	<path d="M13.9,80.2h2.3v10.7h-2.3V80.2z"/>
	<path d="M22.2,90.9l-0.1-0.7h0c-0.5,0.6-1.2,0.9-2.1,0.9c-1.5,0-2.4-1.1-2.4-2.3c0-1.9,1.7-2.8,4.3-2.8v-0.1c0-0.4-0.2-1-1.3-1
		c-0.8,0-1.6,0.3-2,0.6L18.1,84c0.5-0.3,1.5-0.6,2.9-0.6c2.5,0,3.2,1.4,3.2,3.2v2.6c0,0.7,0,1.4,0.1,1.8H22.2z M21.9,87.5
		c-1.2,0-2.1,0.3-2.1,1.2c0,0.6,0.4,0.9,0.9,0.9c0.6,0,1-0.4,1.2-0.8c0-0.1,0-0.3,0-0.4V87.5z"/>
	<path d="M27.5,83.6l1.1,3.6c0.1,0.4,0.3,1,0.4,1.4h0c0.1-0.4,0.2-1,0.3-1.4l0.9-3.6h2.5L31,88.4c-1.1,2.9-1.8,4.1-2.6,4.8
		c-0.8,0.7-1.6,0.9-2.2,1l-0.5-1.9c0.3,0,0.6-0.2,1-0.4c0.3-0.2,0.7-0.5,1-0.9c0.1-0.1,0.1-0.2,0.1-0.3c0-0.1,0-0.2-0.1-0.4L25,83.6
		H27.5z"/>
	<path d="M35.8,81.9h-3.1v-1.1h7.5v1.1h-3.1v9.1h-1.3V81.9z"/>
	<path d="M41.3,80.2h1.3v4.6h0c0.2-0.4,0.5-0.7,1-0.9c0.4-0.2,0.9-0.4,1.4-0.4c1,0,2.6,0.6,2.6,3.1v4.3h-1.3v-4.2
		c0-1.2-0.4-2.2-1.7-2.2c-0.9,0-1.5,0.6-1.8,1.3c-0.1,0.2-0.1,0.4-0.1,0.6v4.4h-1.3V80.2z"/>
	<path d="M50.4,87.5c0,1.8,1.2,2.5,2.5,2.5c1,0,1.5-0.2,2-0.4l0.2,1c-0.5,0.2-1.3,0.5-2.4,0.5c-2.2,0-3.6-1.5-3.6-3.7
		s1.3-3.9,3.4-3.9c2.4,0,3,2.1,3,3.4c0,0.3,0,0.5,0,0.6H50.4z M54.3,86.6c0-0.8-0.3-2.2-1.8-2.2c-1.3,0-1.9,1.2-2,2.2H54.3z"/>
	<path d="M65.7,87c0-1.2-0.1-2.7-0.1-4.2h0c-0.3,1.3-0.7,2.7-1.1,3.9l-1.2,4h-1.8l-1.1-3.9c-0.3-1.2-0.7-2.6-0.9-4h0
		c-0.1,1.4-0.1,2.9-0.2,4.2L59,90.9h-2.1l0.6-10.2h3.1l1,3.4c0.3,1.2,0.6,2.4,0.9,3.6h0c0.3-1.2,0.6-2.5,1-3.7l1.1-3.4h3l0.6,10.2
		h-2.2L65.7,87z"/>
	<path d="M76.8,88.6c0,1,0,1.8,0.1,2.4h-2l-0.1-1h0c-0.3,0.5-1,1.2-2.3,1.2c-1.5,0-2.6-0.9-2.6-3.2v-4.3h2.3v4
		c0,1.1,0.3,1.7,1.1,1.7c0.6,0,1-0.4,1.1-0.8c0.1-0.1,0.1-0.3,0.1-0.5v-4.4h2.3V88.6z"/>
	<path d="M78.6,88.9c0.4,0.3,1.3,0.6,2,0.6c0.7,0,1-0.2,1-0.6c0-0.4-0.2-0.6-1.1-0.8c-1.5-0.5-2.1-1.3-2.1-2.2c0-1.4,1.2-2.4,3-2.4
		c0.9,0,1.6,0.2,2.1,0.4L83,85.4c-0.3-0.2-1-0.4-1.6-0.4c-0.6,0-0.9,0.2-0.9,0.6c0,0.3,0.3,0.5,1.2,0.8c1.4,0.5,2,1.2,2,2.3
		c0,1.4-1.1,2.4-3.2,2.4c-1,0-1.8-0.2-2.4-0.5L78.6,88.9z"/>
	<path d="M87.5,81.5c0,0.6-0.5,1.1-1.2,1.1c-0.7,0-1.2-0.5-1.2-1.1c0-0.7,0.5-1.2,1.2-1.2C87,80.3,87.5,80.8,87.5,81.5z M85.1,90.9
		v-7.4h2.3v7.4H85.1z"/>
	<path d="M94.8,90.8c-0.4,0.2-1.2,0.3-2.1,0.3c-2.4,0-3.9-1.4-3.9-3.8c0-2.2,1.5-3.9,4.2-3.9c0.6,0,1.3,0.1,1.8,0.3l-0.4,1.7
		c-0.3-0.1-0.7-0.2-1.3-0.2c-1.2,0-2,0.9-2,2.1c0,1.4,0.9,2.1,2,2.1c0.5,0,1-0.1,1.3-0.2L94.8,90.8z"/>
</g>
</svg>
