<?xml version="1.0" encoding="utf-8"?>
<!-- Generator: Adobe Illustrator 19.1.0, SVG Export Plug-In . SVG Version: 6.00 Build 0)  -->
<svg version="1.1" id="Warstwa_1" xmlns="http://www.w3.org/2000/svg" xmlns:xlink="http://www.w3.org/1999/xlink" x="0px" y="0px"
	 viewBox="0 0 100 100" style="enable-background:new 0 0 100 100;" xml:space="preserve">
<style type="text/css">
	.st0{fill:none;}
</style>
<path class="st0" d="M76,31.8c-0.2-0.9-0.8-1.6-1.6-2.1c-2.3-1.4-4.8-2.4-7.3-3.3c-6.2-2.1-12.6-3.1-19.2-3.3c-2.7-0.1-5.3,0-8,0.2
	c-2.5,0.2-5,0.6-7.4,1.1c-1,0.2-2,0.5-2.9,0.8c-1.3,0.4-2.1,1.7-2.1,3c0,1.4,1,2.6,2.3,3c0.6,0.2,1.2,0.2,1.8,0c1-0.3,2-0.5,3-0.8
	c2.7-0.6,5.5-0.9,8.3-1c2.4-0.1,4.9-0.1,7.3,0c2.3,0.1,4.6,0.4,7,0.8c3.3,0.6,6.5,1.4,9.7,2.7c1.6,0.6,3.1,1.4,4.6,2.2
	c2.2,1.2,4.8-0.3,4.8-2.8C76,32.2,76,32,76,31.8z"/>
<path class="st0" d="M70,41.3c-0.1-0.1-0.3-0.2-0.4-0.2c-2.7-1.6-5.5-2.8-8.4-3.8c-5.8-1.9-11.8-2.6-17.9-2.4
	c-2.8,0.1-5.6,0.4-8.4,1c-1.1,0.2-2.2,0.5-3.3,0.9c-1.1,0.3-1.8,1.3-1.8,2.4c0,1.1,0.6,2.1,1.6,2.5c0.6,0.3,1.3,0.2,1.9,0.1
	c3.9-1.2,7.9-1.6,11.8-1.7c3.1,0,6.1,0.3,9,0.8c3.8,0.7,7.5,1.9,10.9,3.6c0.8,0.4,1.5,0.8,2.2,1.2c1.3,0.7,2.9,0.4,3.6-0.9
	C71.6,43.8,71.4,42.1,70,41.3z"/>
<path class="st0" d="M76,31.8c-0.2-0.9-0.8-1.6-1.6-2.1c-2.3-1.4-4.8-2.4-7.3-3.3c-6.2-2.1-12.6-3.1-19.2-3.3c-2.7-0.1-5.3,0-8,0.2
	c-2.5,0.2-5,0.6-7.4,1.1c-1,0.2-2,0.5-2.9,0.8c-1.3,0.4-2.1,1.7-2.1,3c0,1.4,1,2.6,2.3,3c0.6,0.2,1.2,0.2,1.8,0c1-0.3,2-0.5,3-0.8
	c2.7-0.6,5.5-0.9,8.3-1c2.4-0.1,4.9-0.1,7.3,0c2.3,0.1,4.6,0.4,7,0.8c3.3,0.6,6.5,1.4,9.7,2.7c1.6,0.6,3.1,1.4,4.6,2.2
	c2.2,1.2,4.8-0.3,4.8-2.8C76,32.2,76,32,76,31.8z"/>
<path d="M50.1,4C24.6,4,4,24.6,4,50.1s20.6,46.1,46.1,46.1c25.5-0.1,46.1-20.8,46.1-46.1S75.6,4,50.1,4z M71.2,70.4
	c-0.7,1.2-2.3,1.8-3.6,1.1c-0.3-0.1-0.5-0.3-0.8-0.4c-4.9-2.8-10.1-4.7-15.8-5.5c-3.4-0.5-6.9-0.7-10.4-0.5
	c-4.5,0.1-8.9,0.8-13.4,1.8c-0.4,0.1-0.9,0.1-1.3,0.1c-1.3,0-2.6-0.9-2.7-2.3c-0.3-1.3,0.4-2.7,1.8-3.2c0.3-0.1,0.5-0.1,0.8-0.3
	c3.6-0.8,7.1-1.3,10.9-1.8c2-0.1,4-0.3,6.2-0.4c6.1,0,12,0.9,17.8,2.8c3.2,1.1,6.2,2.4,9,4.2c0.3,0.1,0.5,0.3,0.7,0.4
	C71.7,67.5,72,69.1,71.2,70.4z M76.8,57.8C75.7,59.4,73.7,60,72,59c-0.9-0.5-2-1.1-3-1.6c-4.6-2.4-9.6-3.9-14.7-4.9
	c-3.9-0.8-8-1.1-12.1-1.1c-5.3,0-10.7,0.7-15.9,2.3c-0.8,0.3-1.8,0.3-2.6-0.1c-1.3-0.5-2.3-1.9-2.2-3.4c0-1.5,0.9-2.8,2.4-3.2
	c1.5-0.4,3-0.8,4.5-1.2c3.8-0.8,7.6-1.2,11.3-1.3c8.2-0.3,16.2,0.8,24.1,3.2c3.9,1.2,7.7,3,11.3,5.1c0.1,0.1,0.4,0.3,0.5,0.3
	C77.5,54,77.8,56.3,76.8,57.8z M77.4,44.7c-2-1.1-4-2.2-6.2-3c-4.2-1.8-8.6-2.8-13.1-3.6c-3.1-0.5-6.2-0.9-9.4-1.1
	c-3.2-0.1-6.5-0.3-9.8,0c-3.8,0.1-7.4,0.5-11.2,1.3c-1.3,0.3-2.7,0.7-4,1.1c-0.8,0.3-1.6,0.3-2.4,0c-1.8-0.5-3-2.2-3.1-4
	c0-1.9,1.1-3.5,2.8-4c1.3-0.4,2.6-0.8,3.9-1.1c3.2-0.8,6.6-1.2,10-1.5c3.6-0.3,7.1-0.4,10.8-0.3c8.8,0.3,17.5,1.5,25.9,4.5
	c3.4,1.2,6.7,2.7,9.8,4.5c1.1,0.7,1.9,1.6,2.2,2.8c0.1,0.3,0.1,0.7,0.1,0.9C83.8,44.3,80.3,46.5,77.4,44.7z"/>
</svg>
