<?xml version="1.0" encoding="utf-8"?>
<!-- Generator: Adobe Illustrator 19.1.0, SVG Export Plug-In . SVG Version: 6.00 Build 0)  -->
<svg version="1.1" id="Warstwa_1" xmlns="http://www.w3.org/2000/svg" xmlns:xlink="http://www.w3.org/1999/xlink" x="0px" y="0px"
	 viewBox="0 0 100 100" style="enable-background:new 0 0 100 100;" xml:space="preserve">
<style type="text/css">
	.st0{fill:none;}
</style>
<path class="st0" d="M76,31.8c-0.2-0.9-0.8-1.6-1.6-2.1c-2.3-1.4-4.8-2.4-7.3-3.3c-6.2-2.1-12.6-3.1-19.2-3.3c-2.7-0.1-5.3,0-8,0.2
	c-2.5,0.2-5,0.6-7.4,1.1c-1,0.2-2,0.5-2.9,0.8c-1.3,0.4-2.1,1.7-2.1,3c0,1.4,1,2.6,2.3,3c0.6,0.2,1.2,0.2,1.8,0c1-0.3,2-0.5,3-0.8
	c2.7-0.6,5.5-0.9,8.3-1c2.4-0.1,4.9-0.1,7.3,0c2.3,0.1,4.6,0.4,7,0.8c3.3,0.6,6.5,1.4,9.7,2.7c1.6,0.6,3.1,1.4,4.6,2.2
	c2.2,1.2,4.8-0.3,4.8-2.8C76,32.2,76,32,76,31.8z"/>
<path class="st0" d="M70,41.3c-0.1-0.1-0.3-0.2-0.4-0.2c-2.7-1.6-5.5-2.8-8.4-3.8c-5.8-1.9-11.8-2.6-17.9-2.4
	c-2.8,0.1-5.6,0.4-8.4,1c-1.1,0.2-2.2,0.5-3.3,0.9c-1.1,0.3-1.8,1.3-1.8,2.4c0,1.1,0.6,2.1,1.6,2.5c0.6,0.3,1.3,0.2,1.9,0.1
	c3.9-1.2,7.9-1.6,11.8-1.7c3.1,0,6.1,0.3,9,0.8c3.8,0.7,7.5,1.9,10.9,3.6c0.8,0.4,1.5,0.8,2.2,1.2c1.3,0.7,2.9,0.4,3.6-0.9
	C71.6,43.8,71.4,42.1,70,41.3z"/>
<path class="st0" d="M76,31.8c-0.2-0.9-0.8-1.6-1.6-2.1c-2.3-1.4-4.8-2.4-7.3-3.3c-6.2-2.1-12.6-3.1-19.2-3.3c-2.7-0.1-5.3,0-8,0.2
	c-2.5,0.2-5,0.6-7.4,1.1c-1,0.2-2,0.5-2.9,0.8c-1.3,0.4-2.1,1.7-2.1,3c0,1.4,1,2.6,2.3,3c0.6,0.2,1.2,0.2,1.8,0c1-0.3,2-0.5,3-0.8
	c2.7-0.6,5.5-0.9,8.3-1c2.4-0.1,4.9-0.1,7.3,0c2.3,0.1,4.6,0.4,7,0.8c3.3,0.6,6.5,1.4,9.7,2.7c1.6,0.6,3.1,1.4,4.6,2.2
	c2.2,1.2,4.8-0.3,4.8-2.8C76,32.2,76,32,76,31.8z"/>
<path d="M51.1,5C32.2,5,16.9,20.3,16.9,39.2s15.3,34.2,34.2,34.2C70,73.3,85.3,58,85.3,39.2S70,5,51.1,5z M66.7,54.2
	c-0.5,0.9-1.7,1.3-2.7,0.8c-0.2-0.1-0.4-0.2-0.6-0.3c-3.6-2.1-7.5-3.5-11.7-4.1c-2.5-0.4-5.1-0.5-7.7-0.4c-3.3,0.1-6.6,0.6-9.9,1.3
	c-0.3,0.1-0.7,0.1-1,0.1c-1,0-1.9-0.7-2-1.7c-0.2-1,0.3-2,1.3-2.4c0.2-0.1,0.4-0.1,0.6-0.2c2.7-0.6,5.3-1,8.1-1.3
	c1.5-0.1,3-0.2,4.6-0.3c4.5,0,8.9,0.7,13.2,2.1c2.4,0.8,4.6,1.8,6.7,3.1c0.2,0.1,0.4,0.2,0.5,0.3C67.1,52.1,67.3,53.3,66.7,54.2z
	 M70.9,44.9c-0.8,1.2-2.3,1.6-3.6,0.9c-0.7-0.4-1.5-0.8-2.2-1.2c-3.4-1.8-7.1-2.9-10.9-3.6c-2.9-0.6-5.9-0.8-9-0.8
	c-3.9,0-7.9,0.5-11.8,1.7c-0.6,0.2-1.3,0.2-1.9-0.1c-1-0.4-1.7-1.4-1.6-2.5c0-1.1,0.7-2.1,1.8-2.4c1.1-0.3,2.2-0.6,3.3-0.9
	c2.8-0.6,5.6-0.9,8.4-1c6.1-0.2,12,0.6,17.9,2.4c2.9,0.9,5.7,2.2,8.4,3.8c0.1,0.1,0.3,0.2,0.4,0.2C71.4,42.1,71.6,43.8,70.9,44.9z
	 M71.3,35.2c-1.5-0.8-3-1.6-4.6-2.2c-3.1-1.3-6.4-2.1-9.7-2.7c-2.3-0.4-4.6-0.7-7-0.8c-2.4-0.1-4.8-0.2-7.3,0
	c-2.8,0.1-5.5,0.4-8.3,1c-1,0.2-2,0.5-3,0.8c-0.6,0.2-1.2,0.2-1.8,0c-1.3-0.4-2.2-1.6-2.3-3c0-1.4,0.8-2.6,2.1-3
	c1-0.3,1.9-0.6,2.9-0.8c2.4-0.6,4.9-0.9,7.4-1.1c2.7-0.2,5.3-0.3,8-0.2c6.5,0.2,13,1.1,19.2,3.3c2.5,0.9,5,2,7.3,3.3
	c0.8,0.5,1.4,1.2,1.6,2.1c0.1,0.2,0.1,0.5,0.1,0.7C76.1,34.9,73.5,36.5,71.3,35.2z"/>
<g>
	<path d="M22.4,89.1l1.6-1.9c1.1,0.9,2.2,1.5,3.6,1.5c1.1,0,1.7-0.4,1.7-1.2v0c0-0.7-0.4-1-2.4-1.6c-2.4-0.6-4-1.3-4-3.8v0
		c0-2.2,1.8-3.7,4.2-3.7c1.8,0,3.3,0.6,4.5,1.6l-1.4,2c-1.1-0.8-2.1-1.2-3.1-1.2c-1,0-1.6,0.5-1.6,1.1v0c0,0.8,0.5,1.1,2.6,1.6
		c2.5,0.6,3.8,1.5,3.8,3.7v0c0,2.4-1.8,3.8-4.4,3.8C25.7,91,23.9,90.4,22.4,89.1z"/>
	<path d="M54.3,88.2v-4.5h-1.2v-2.1h1.2V79h2.4v2.4h2.4v2.1h-2.4v4.2c0,0.8,0.5,1,1.1,1c0.5,0,0.9-0.2,1.3-0.4v2
		C58.5,90.8,57.8,91,57,91C55.4,91,54.3,90.4,54.3,88.2z"/>
	<rect x="60" y="81.6" width="2.4" height="9.3"/>
	<path d="M66.9,81.5v-0.5c0-0.7,0.5-1,1.1-1c0.5,0,0.8,0.1,1.2,0.2v-2.1c-0.5-0.2-1.1-0.3-1.9-0.3c-0.9,0-1.6,0.2-2.1,0.7
		c-0.5,0.5-0.8,1.2-0.8,2.3v0.6h-1.2v2.1h1.1v7.2h2.5v-7.2h1.9l2.9,7.1c-0.2,0.6-0.6,0.9-1.1,0.9c-0.3,0-0.9-0.2-1.2-0.4L68.5,93
		c0.7,0.4,1.6,0.6,2.5,0.6c1.7,0,2.5-1.4,2.7-2.2l3.8-9.9l-2.5,0l-2.2,6.3l-2.4-6.3h-1.3L66.9,81.5z"/>
	<circle cx="61.2" cy="78.9" r="1.5"/>
	<g>
		<path d="M77.8,83L77.8,83c0-0.8,0.7-1.5,1.5-1.5c0.8,0,1.5,0.7,1.5,1.5v0c0,0.8-0.7,1.5-1.5,1.5C78.5,84.4,77.8,83.8,77.8,83z
			 M80.6,83L80.6,83c0-0.7-0.6-1.3-1.3-1.3c-0.7,0-1.3,0.6-1.3,1.3v0c0,0.7,0.6,1.3,1.3,1.3C80,84.3,80.6,83.7,80.6,83z M78.7,82.1
			h0.7c0.2,0,0.4,0.1,0.5,0.2c0.1,0.1,0.1,0.2,0.1,0.3v0c0,0.3-0.1,0.4-0.3,0.5l0.4,0.6h-0.4l-0.3-0.5H79v0.5h-0.3V82.1z M79.4,82.9
			c0.2,0,0.3-0.1,0.3-0.2v0c0-0.2-0.1-0.2-0.3-0.2H79v0.5H79.4z"/>
	</g>
	<path d="M48.1,81.3c-2.8,0-5,2.2-5,4.9v0c0,2.7,2.1,4.8,4.9,4.8c2.8,0,4.9-2.2,4.9-4.9v0C53,83.5,50.9,81.3,48.1,81.3z M48,89
		c-1.4,0-2.6-1.2-2.6-2.8c0-1.5,1.2-2.8,2.6-2.8c1.4,0,2.6,1.2,2.6,2.8C50.6,87.8,49.5,89,48,89z"/>
	<path d="M38.2,81.3c-1.5,0-2.5,0.5-3.1,1.4v-1.2h-2.4v12.1h2.4v-3.9c0.6,0.7,1.5,1.4,2.9,1.4c2.2,0,4.4-1.7,4.4-4.8v0
		C42.4,83.1,40.3,81.3,38.2,81.3z M37.6,88.9c-1.4,0-2.4-1.2-2.4-2.7s1.1-2.7,2.4-2.7c1.4,0,2.4,1.2,2.4,2.7S38.9,88.9,37.6,88.9z"
		/>
</g>
</svg>
